<?xml version="1.0" encoding="iso-8859-1"?>
<!-- Generator: Adobe Illustrator 19.0.0, SVG Export Plug-In . SVG Version: 6.00 Build 0)  -->
<svg version="1.1" id="Layer_1" xmlns="http://www.w3.org/2000/svg" xmlns:xlink="http://www.w3.org/1999/xlink" x="0px" y="0px"
	 viewBox="0 0 512 512" style="enable-background:new 0 0 512 512;" xml:space="preserve">
<g>
	<rect y="331.859" style="fill:#314E55;" width="21.253" height="148.769"/>
	<rect x="42.505" y="236.222" style="fill:#314E55;" width="21.253" height="244.405"/>
	<rect x="85.011" y="214.969" style="fill:#314E55;" width="21.253" height="264.702"/>
	<rect x="127.516" y="183.09" style="fill:#314E55;" width="21.253" height="296.581"/>
	<rect x="170.021" y="119.332" style="fill:#314E55;" width="21.253" height="361.295"/>
	<rect x="212.527" y="108.706" style="fill:#314E55;" width="21.253" height="371.921"/>
	<rect x="255.032" y="151.025" style="fill:#314E55;" width="21.253" height="329.602"/>
	<rect x="297.537" y="193.69" style="fill:#314E55;" width="21.253" height="285.742"/>
	<rect x="340.042" y="214.943" style="fill:#314E55;" width="21.253" height="264.489"/>
	<rect x="382.548" y="331.859" style="fill:#314E55;" width="21.253" height="148.769"/>
	<rect x="425.053" y="289.353" style="fill:#314E55;" width="21.253" height="191.274"/>
	<rect x="467.558" y="320.701" style="fill:#314E55;" width="21.253" height="159.9"/>
	<path style="fill:#314E55;" d="M501.513,99.422c-0.716-5.827-6.019-9.89-11.846-9.251c-5.822,0.716-9.967,6.019-9.251,11.846
		l8.758,71.294L307.505,31.373l-13.086,16.749l168.195,131.41l-44.508,5.461c-5.822,0.716-9.967,6.019-9.251,11.84
		c0.664,5.386,5.246,9.334,10.533,9.334c0.436,0,0.872-0.026,1.308-0.078l81.975-10.061c2.797-0.342,5.339-1.785,7.077-4.006
		c1.733-2.221,2.517-5.038,2.174-7.84L501.513,99.422z"/>
</g>
<g>
</g>
<g>
</g>
<g>
</g>
<g>
</g>
<g>
</g>
<g>
</g>
<g>
</g>
<g>
</g>
<g>
</g>
<g>
</g>
<g>
</g>
<g>
</g>
<g>
</g>
<g>
</g>
<g>
</g>
</svg>
