<?xml version="1.0" encoding="iso-8859-1"?>
<!-- Generator: Adobe Illustrator 19.0.0, SVG Export Plug-In . SVG Version: 6.00 Build 0)  -->
<svg version="1.1" id="Layer_1" xmlns="http://www.w3.org/2000/svg" xmlns:xlink="http://www.w3.org/1999/xlink" x="0px" y="0px"
	 viewBox="0 0 512 512" style="enable-background:new 0 0 512 512;" xml:space="preserve">
<g>
	<rect x="231.389" y="19.689" style="fill:#EAEAEA;" width="49.222" height="29.533"/>
	<path style="fill:#EAEAEA;" d="M172.322,482.495V128.036c0-16.267,13.209-29.505,29.447-29.505h157.685
		c3.437,0,6.689,0.705,9.758,1.795V78.679c0-5.383-4.432-9.767-9.883-9.767h-68.873h-68.911h-68.873
		c-5.538,0-9.883,4.288-9.883,9.768v403.787c0,5.384,4.432,9.758,9.883,9.758h21.427
		C173.021,489.163,172.322,485.921,172.322,482.495z"/>
</g>
<path style="fill:#5ECC66;" d="M359.454,118.22H201.769c-5.384,0-9.758,4.403-9.758,9.816v354.459c0,5.261,4.158,9.492,9.333,9.729
	h157.985c5.451,0,9.883-4.374,9.883-9.758V128.036C369.212,122.623,364.838,118.22,359.454,118.22z"/>
<path style="fill:#314E55;" d="M359.329,49.222H300.3V9.844c0-5.441-4.403-9.844-9.844-9.844h-68.911
	c-5.441,0-9.844,4.403-9.844,9.844v39.378h-59.029c-16.305,0-29.572,13.219-29.572,29.457v403.787
	c0,16.237,13.267,29.447,29.572,29.447h48.244c0.29,0.008,0.562,0.087,0.854,0.087h157.685c16.238,0,29.447-13.238,29.447-29.505
	v-0.029V128.036V78.679C388.901,62.441,375.634,49.222,359.329,49.222z M231.389,19.689h49.222v29.533h-49.222V19.689z
	 M142.789,482.467V78.679c0-5.48,4.345-9.768,9.883-9.768h68.873h68.911h68.873c5.451,0,9.883,4.384,9.883,9.768v21.647
	c-3.069-1.089-6.32-1.795-9.758-1.795H201.769c-16.238,0-29.447,13.238-29.447,29.504v354.459c0,3.426,0.699,6.667,1.776,9.729
	h-21.427C147.221,492.224,142.789,487.85,142.789,482.467z M369.212,482.467c0,5.384-4.432,9.758-9.883,9.758H201.344
	c-5.175-0.237-9.333-4.468-9.333-9.729V128.036c0-5.412,4.374-9.816,9.758-9.816h157.685c5.384,0,9.758,4.403,9.758,9.816
	L369.212,482.467L369.212,482.467z"/>
<g>
</g>
<g>
</g>
<g>
</g>
<g>
</g>
<g>
</g>
<g>
</g>
<g>
</g>
<g>
</g>
<g>
</g>
<g>
</g>
<g>
</g>
<g>
</g>
<g>
</g>
<g>
</g>
<g>
</g>
</svg>
