<?xml version="1.0" encoding="iso-8859-1"?>
<!-- Generator: Adobe Illustrator 19.0.0, SVG Export Plug-In . SVG Version: 6.00 Build 0)  -->
<svg version="1.1" id="Layer_1" xmlns="http://www.w3.org/2000/svg" xmlns:xlink="http://www.w3.org/1999/xlink" x="0px" y="0px"
	 viewBox="0 0 512 512" style="enable-background:new 0 0 512 512;" xml:space="preserve">
<path style="fill:#EAEAEA;" d="M17.655,450.207h476.69V132.414H17.655V450.207z M140.526,171.422
	c2.319-2.315,5.733-3.147,8.836-2.194l162.293,49.935c2.957,0.909,5.224,3.302,5.974,6.306c0.741,3.004-0.138,6.181-2.328,8.371
	l-31.215,31.211l106.121,106.116c1.655,1.655,2.586,3.901,2.586,6.241c0,2.34-0.931,4.586-2.586,6.241l-31.215,31.211
	c-1.724,1.724-3.983,2.586-6.241,2.586c-2.259,0-4.517-0.862-6.241-2.586L240.397,308.746l-37.457,37.452
	c-2.181,2.185-5.353,3.06-8.371,2.328c-3-0.75-5.397-3.013-6.31-5.974l-49.931-162.293
	C137.371,177.134,138.215,173.733,140.526,171.422z"/>
<path style="fill:#F58CAC;" d="M234.155,290.022c1.724-1.724,3.983-2.586,6.241-2.586c2.259,0,4.517,0.862,6.241,2.586
	L352.75,396.138l18.733-18.728L265.362,271.293c-1.655-1.655-2.586-3.901-2.586-6.241c0-2.34,0.931-4.586,2.586-6.241l27.086-27.086
	l-132.345-40.72l40.724,132.345L234.155,290.022z"/>
<path style="fill:#E4D759;" d="M17.655,61.793v52.966h476.69V61.793H17.655z M44.138,105.931c-9.733,0-17.655-7.918-17.655-17.655
	s7.922-17.655,17.655-17.655s17.655,7.918,17.655,17.655S53.871,105.931,44.138,105.931z M88.276,105.931
	c-9.733,0-17.655-7.918-17.655-17.655s7.922-17.655,17.655-17.655s17.655,7.918,17.655,17.655S98.009,105.931,88.276,105.931z
	 M132.414,105.931c-9.733,0-17.655-7.918-17.655-17.655s7.922-17.655,17.655-17.655s17.655,7.918,17.655,17.655
	S142.147,105.931,132.414,105.931z"/>
<g>
	<path style="fill:#314E55;" d="M0,44.138v70.621v17.655v335.448h512V132.414v-17.655V44.138H0z M494.345,450.207H17.655V132.414
		h476.69V450.207z M17.655,114.759V61.793h476.69v52.966H17.655z"/>
	<path style="fill:#314E55;" d="M44.138,70.621c-9.733,0-17.655,7.918-17.655,17.655s7.922,17.655,17.655,17.655
		s17.655-7.918,17.655-17.655S53.871,70.621,44.138,70.621z"/>
	<path style="fill:#314E55;" d="M88.276,70.621c-9.733,0-17.655,7.918-17.655,17.655s7.922,17.655,17.655,17.655
		s17.655-7.918,17.655-17.655S98.009,70.621,88.276,70.621z"/>
	<path style="fill:#314E55;" d="M132.414,70.621c-9.733,0-17.655,7.918-17.655,17.655s7.922,17.655,17.655,17.655
		s17.655-7.918,17.655-17.655S142.147,70.621,132.414,70.621z"/>
	<path style="fill:#314E55;" d="M188.259,342.552c0.914,2.961,3.31,5.224,6.31,5.974c3.017,0.733,6.19-0.142,8.371-2.328
		l37.457-37.453l106.112,106.116c1.724,1.724,3.983,2.586,6.241,2.586c2.259,0,4.517-0.862,6.241-2.586l31.215-31.211
		c1.655-1.655,2.586-3.901,2.586-6.241s-0.931-4.586-2.586-6.241L284.086,265.052l31.215-31.211c2.19-2.19,3.069-5.366,2.328-8.371
		c-0.75-3.004-3.017-5.397-5.974-6.306l-162.293-49.935c-3.103-0.952-6.517-0.121-8.836,2.194c-2.31,2.31-3.155,5.711-2.198,8.836
		L188.259,342.552z M292.448,231.724l-27.086,27.086c-1.655,1.655-2.586,3.901-2.586,6.241c0,2.34,0.931,4.586,2.586,6.241
		l106.121,106.116l-18.733,18.728L246.638,290.021c-1.724-1.724-3.983-2.586-6.241-2.586c-2.259,0-4.517,0.862-6.241,2.586
		l-33.328,33.328l-40.724-132.345L292.448,231.724z"/>
</g>
<g>
</g>
<g>
</g>
<g>
</g>
<g>
</g>
<g>
</g>
<g>
</g>
<g>
</g>
<g>
</g>
<g>
</g>
<g>
</g>
<g>
</g>
<g>
</g>
<g>
</g>
<g>
</g>
<g>
</g>
</svg>
