<?xml version="1.0" encoding="iso-8859-1"?>
<!-- Generator: Adobe Illustrator 19.0.0, SVG Export Plug-In . SVG Version: 6.00 Build 0)  -->
<svg version="1.1" id="Layer_1" xmlns="http://www.w3.org/2000/svg" xmlns:xlink="http://www.w3.org/1999/xlink" x="0px" y="0px"
	 viewBox="0 0 512 512" style="enable-background:new 0 0 512 512;" xml:space="preserve">
<path style="fill:#73C9C9;" d="M73.45,121.95l163.262,115.924c10.261,7.294,28.28,7.294,38.551,0L438.525,121.95
	c3.587-2.543,5.625-5.418,5.468-7.698c-0.161-2.275-2.583-4.838-6.477-6.85L278.754,25.367c-6.064-3.133-14.412-4.697-22.766-4.697
	c-8.349,0-16.703,1.564-22.766,4.697L74.46,107.401c-3.879,2.008-6.29,4.57-6.452,6.86C67.846,116.542,69.879,119.418,73.45,121.95z
	"/>
<g>
	<path style="fill:#314E55;" d="M61.485,138.799l163.262,115.924c8.762,6.22,19.997,9.327,31.241,9.327
		c11.239,0,22.479-3.113,31.241-9.327l163.257-115.924c9.65-6.845,14.796-16.324,14.12-25.995
		c-0.681-9.67-7.098-18.327-17.606-23.755L288.238,7.014c-18.075-9.353-46.415-9.353-64.5,0L64.976,89.049
		c-10.493,5.423-16.899,14.084-17.58,23.765C46.714,122.485,51.855,131.958,61.485,138.799z M74.46,107.401l158.762-82.035
		c6.064-3.133,14.417-4.697,22.766-4.697c8.354,0,16.703,1.564,22.766,4.697l158.763,82.035c3.894,2.013,6.316,4.575,6.477,6.85
		c0.156,2.28-1.882,5.156-5.468,7.698L275.263,237.874c-10.271,7.294-28.29,7.294-38.551,0L73.45,121.95
		c-3.572-2.532-5.604-5.408-5.443-7.688C68.169,111.972,70.58,109.409,74.46,107.401z"/>
	<path style="fill:#314E55;" d="M447,171.699l-9.484,18.352c3.894,2.013,6.316,4.575,6.477,6.85c0.156,2.28-1.882,5.156-5.468,7.698
		L275.263,320.524c-10.271,7.294-28.29,7.294-38.551,0L73.45,204.6c-3.572-2.532-5.604-5.408-5.443-7.688
		c0.161-2.29,2.573-4.853,6.452-6.86l-9.484-18.352c-10.493,5.423-16.899,14.084-17.58,23.765
		c-0.681,9.67,4.459,19.144,14.09,25.984l163.262,115.924c8.762,6.22,19.997,9.327,31.241,9.327c11.239,0,22.479-3.113,31.241-9.327
		l163.257-115.924c9.65-6.845,14.796-16.324,14.12-25.995C463.925,185.784,457.508,177.127,447,171.699z"/>
	<path style="fill:#314E55;" d="M447,254.349l-9.484,18.352c3.894,2.013,6.316,4.575,6.477,6.85c0.156,2.28-1.882,5.156-5.468,7.698
		L275.263,403.174c-10.271,7.294-28.29,7.294-38.551,0L73.45,287.25c-3.572-2.532-5.604-5.408-5.443-7.688
		c0.161-2.29,2.573-4.853,6.452-6.86l-9.484-18.352c-10.493,5.423-16.899,14.084-17.58,23.765
		c-0.681,9.67,4.459,19.144,14.09,25.984l163.262,115.924c8.762,6.22,19.997,9.327,31.241,9.327c11.239,0,22.478-3.113,31.241-9.327
		l163.257-115.924c9.65-6.845,14.796-16.324,14.12-25.995C463.925,268.434,457.508,259.777,447,254.349z"/>
	<path style="fill:#314E55;" d="M447,336.999l-9.484,18.352c3.894,2.013,6.316,4.575,6.477,6.85c0.156,2.28-1.882,5.156-5.468,7.698
		L275.263,485.824c-10.271,7.294-28.29,7.294-38.551,0L73.45,369.9c-3.572-2.532-5.604-5.408-5.443-7.688
		c0.161-2.29,2.573-4.853,6.452-6.86l-9.484-18.352c-10.493,5.423-16.899,14.084-17.58,23.765
		c-0.681,9.67,4.459,19.144,14.09,25.984l163.262,115.924c8.762,6.22,19.997,9.327,31.241,9.327c11.239,0,22.478-3.113,31.241-9.327
		l163.257-115.924c9.65-6.846,14.796-16.324,14.12-25.995C463.925,351.084,457.508,342.427,447,336.999z"/>
</g>
<g>
</g>
<g>
</g>
<g>
</g>
<g>
</g>
<g>
</g>
<g>
</g>
<g>
</g>
<g>
</g>
<g>
</g>
<g>
</g>
<g>
</g>
<g>
</g>
<g>
</g>
<g>
</g>
<g>
</g>
</svg>
