<?xml version="1.0" encoding="iso-8859-1"?>
<!-- Generator: Adobe Illustrator 19.0.0, SVG Export Plug-In . SVG Version: 6.00 Build 0)  -->
<svg version="1.1" id="Layer_1" xmlns="http://www.w3.org/2000/svg" xmlns:xlink="http://www.w3.org/1999/xlink" x="0px" y="0px"
	 viewBox="0 0 512 512" style="enable-background:new 0 0 512 512;" xml:space="preserve">
<path style="fill:#D26CBA;" d="M229.625,223.217l-6.409,6.408c-4.715,6.081-7.638,13.612-7.638,21.884
	c0,19.811,16.118,35.93,35.93,35.93s35.93-16.118,35.93-35.93s-16.118-35.93-35.93-35.93
	C243.238,215.579,235.705,218.502,229.625,223.217z"/>
<circle style="fill:#73C9C9;" cx="251.509" cy="35.93" r="17.965"/>
<g>
	<circle style="fill:#E9E7D1;" cx="107.789" cy="107.789" r="8.982"/>
	<circle style="fill:#E9E7D1;" cx="404.211" cy="107.789" r="8.982"/>
</g>
<g>
	<circle style="fill:#73C9C9;" cx="35.93" cy="251.509" r="17.965"/>
	<circle style="fill:#73C9C9;" cx="476.07" cy="251.509" r="17.965"/>
</g>
<g>
	<circle style="fill:#E9E7D1;" cx="404.211" cy="404.211" r="8.982"/>
	<circle style="fill:#E9E7D1;" cx="107.789" cy="404.211" r="8.982"/>
</g>
<circle style="fill:#73C9C9;" cx="251.509" cy="476.07" r="17.965"/>
<path style="fill:#314E55;" d="M476.07,215.579c-16.692,0-30.637,11.496-34.654,26.947H304.592
	c-1.004-5.947-2.926-11.583-5.713-16.704l93.786-93.785c3.513,1.68,7.398,2.7,11.545,2.7c14.86,0,26.947-12.088,26.947-26.947
	s-12.088-26.947-26.947-26.947s-26.947,12.088-26.947,26.947c0,4.147,1.019,8.033,2.7,11.546l-92.311,92.309
	c-7.462-6.772-16.803-11.469-27.161-13.219V70.583c15.452-4.018,26.947-17.96,26.947-34.653c0-19.811-16.118-35.93-35.93-35.93
	s-35.93,16.118-35.93,35.93c0,16.693,11.495,30.636,26.947,34.653v127.842c-8.168,1.379-15.709,4.579-22.196,9.202l-88.293-88.292
	c1.681-3.513,2.7-7.399,2.7-11.546c0-14.86-12.088-26.947-26.947-26.947S80.842,92.93,80.842,107.789s12.088,26.947,26.947,26.947
	c4.147,0,8.032-1.02,11.546-2.699l88.293,88.292c-4.623,6.487-7.824,14.029-9.203,22.197H70.584
	c-4.018-15.452-17.962-26.948-34.654-26.948c-19.811,0-35.93,16.118-35.93,35.93s16.118,35.93,35.93,35.93
	c16.692,0,30.636-11.496,34.654-26.947h127.841c1.749,10.357,6.448,19.7,13.22,27.162l-92.311,92.309
	c-3.513-1.68-7.398-2.699-11.545-2.699c-14.86,0-26.947,12.088-26.947,26.947s12.088,26.947,26.947,26.947
	s26.947-12.088,26.947-26.947c0-4.147-1.019-8.033-2.7-11.546l93.786-93.785c5.12,2.787,10.757,4.708,16.703,5.713v136.825
	c-15.452,4.018-26.947,17.96-26.947,34.653c0,19.811,16.118,35.93,35.93,35.93s35.93-16.118,35.93-35.93
	c0-16.693-11.495-30.636-26.947-34.653V304.592c8.168-1.38,15.709-4.579,22.196-9.202l97.276,97.274
	c-1.681,3.513-2.7,7.399-2.7,11.546c0,14.86,12.088,26.947,26.947,26.947s26.947-12.088,26.947-26.947s-12.088-26.947-26.947-26.947
	c-4.147,0-8.032,1.02-11.546,2.699l-97.276-97.274c4.623-6.487,7.824-14.029,9.203-22.197h136.824
	c4.018,15.452,17.962,26.947,34.654,26.947c19.811,0,35.93-16.118,35.93-35.93S495.882,215.579,476.07,215.579z M404.211,98.807
	c4.952,0,8.982,4.031,8.982,8.982s-4.031,8.982-8.982,8.982c-4.952,0-8.982-4.031-8.982-8.982S399.259,98.807,404.211,98.807z
	 M287.439,251.509c0,19.811-16.118,35.93-35.93,35.93s-35.93-16.118-35.93-35.93c0-8.272,2.923-15.803,7.638-21.884l6.409-6.408
	c6.08-4.715,13.612-7.638,21.883-7.638C271.32,215.579,287.439,231.697,287.439,251.509z M233.544,35.93
	c0-9.908,8.057-17.965,17.965-17.965s17.965,8.057,17.965,17.965s-8.057,17.965-17.965,17.965S233.544,45.838,233.544,35.93z
	 M98.807,107.789c0-4.952,4.031-8.982,8.982-8.982s8.982,4.031,8.982,8.982s-4.031,8.982-8.982,8.982S98.807,112.741,98.807,107.789
	z M35.93,269.474c-9.908,0-17.965-8.057-17.965-17.965s8.057-17.965,17.965-17.965s17.965,8.057,17.965,17.965
	S45.838,269.474,35.93,269.474z M107.789,413.193c-4.952,0-8.982-4.031-8.982-8.982c0-4.952,4.031-8.982,8.982-8.982
	s8.982,4.031,8.982,8.982C116.772,409.162,112.741,413.193,107.789,413.193z M269.474,476.07c0,9.908-8.057,17.965-17.965,17.965
	s-17.965-8.057-17.965-17.965c0-9.908,8.057-17.965,17.965-17.965S269.474,466.162,269.474,476.07z M413.193,404.211
	c0,4.952-4.031,8.982-8.982,8.982c-4.952,0-8.982-4.031-8.982-8.982c0-4.952,4.031-8.982,8.982-8.982
	C409.162,395.228,413.193,399.259,413.193,404.211z M476.07,269.474c-9.908,0-17.965-8.057-17.965-17.965
	s8.057-17.965,17.965-17.965c9.908,0,17.965,8.057,17.965,17.965S485.978,269.474,476.07,269.474z"/>
<g>
</g>
<g>
</g>
<g>
</g>
<g>
</g>
<g>
</g>
<g>
</g>
<g>
</g>
<g>
</g>
<g>
</g>
<g>
</g>
<g>
</g>
<g>
</g>
<g>
</g>
<g>
</g>
<g>
</g>
</svg>
