<?xml version="1.0" encoding="iso-8859-1"?>
<!-- Generator: Adobe Illustrator 19.0.0, SVG Export Plug-In . SVG Version: 6.00 Build 0)  -->
<svg version="1.1" id="Layer_1" xmlns="http://www.w3.org/2000/svg" xmlns:xlink="http://www.w3.org/1999/xlink" x="0px" y="0px"
	 viewBox="0 0 512 512" style="enable-background:new 0 0 512 512;" xml:space="preserve">
<g>
	<path style="fill:#E9E7D1;" d="M123.185,117.762L27.382,31.229c-4.042,1.373-7,5.07-7,9.544v188.36L123.185,117.762z"/>
	<polygon style="fill:#E9E7D1;" points="320,30.572 57.054,30.572 188.527,149.317 	"/>
	<path style="fill:#E9E7D1;" d="M349.672,31.229l-95.803,86.533l102.803,111.371V40.772
		C356.672,36.299,353.714,32.602,349.672,31.229z"/>
	<path style="fill:#E9E7D1;" d="M343.201,244.575L238.749,131.418l-43.395,39.195c-1.941,1.751-4.379,2.627-6.827,2.627
		s-4.886-0.876-6.827-2.627l-43.395-39.195L33.853,244.575H343.201z"/>
</g>
<g>
	<path style="fill:#314E55;" d="M377.054,234.375V40.772c0-16.784-13.63-30.428-30.418-30.557c-0.053-0.003-0.101-0.025-0.154-0.025
		h-0.079H30.651h-0.079c-0.054,0-0.101,0.022-0.154,0.025C13.63,10.345,0,23.989,0,40.772v193.602
		c0,16.863,13.753,30.582,30.651,30.582h315.751C363.3,264.956,377.054,251.238,377.054,234.375z M181.7,170.614
		c1.941,1.751,4.379,2.627,6.827,2.627s4.886-0.876,6.827-2.627l43.395-39.195l104.452,113.157H33.853l104.452-113.157
		L181.7,170.614z M356.672,229.133L253.869,117.762l95.803-86.533c4.043,1.373,7.001,5.07,7.001,9.544V229.133z M320,30.572
		L188.527,149.317L57.054,30.572H320z M27.382,31.229l95.803,86.533L20.381,229.133V40.772
		C20.381,36.299,23.339,32.602,27.382,31.229z"/>
	<path style="fill:#314E55;" d="M509.014,339.271l-43.231-43.236c-3.981-3.981-10.43-3.981-14.41,0c-3.98,3.981-3.981,10.43,0,14.41
		l25.841,25.845H280.242v20.381h196.962l-25.831,25.835c-3.981,3.981-3.981,10.43,0,14.41c1.99,1.99,4.598,2.986,7.205,2.986
		c2.607,0,5.215-0.995,7.205-2.986l43.231-43.236C512.995,349.701,512.995,343.252,509.014,339.271z"/>
	<path style="fill:#314E55;" d="M139.683,412.353c3.981-3.981,3.981-10.43,0-14.41c-3.981-3.98-10.43-3.981-14.41,0l-43.231,43.236
		c-3.981,3.981-3.981,10.43,0,14.41l43.231,43.236c1.99,1.99,4.598,2.986,7.205,2.986c2.607,0,5.215-0.995,7.205-2.986
		c3.981-3.981,3.981-10.43,0-14.41l-25.831-25.835h196.962v-20.381H113.842L139.683,412.353z"/>
</g>
<g>
</g>
<g>
</g>
<g>
</g>
<g>
</g>
<g>
</g>
<g>
</g>
<g>
</g>
<g>
</g>
<g>
</g>
<g>
</g>
<g>
</g>
<g>
</g>
<g>
</g>
<g>
</g>
<g>
</g>
</svg>
