<?xml version="1.0" encoding="iso-8859-1"?>
<!-- Generator: Adobe Illustrator 19.0.0, SVG Export Plug-In . SVG Version: 6.00 Build 0)  -->
<svg version="1.1" id="Layer_1" xmlns="http://www.w3.org/2000/svg" xmlns:xlink="http://www.w3.org/1999/xlink" x="0px" y="0px"
	 viewBox="0 0 512 512" style="enable-background:new 0 0 512 512;" xml:space="preserve">
<g>
	<path style="fill:#EAEAEA;" d="M379.586,238.865v87.755h70.621v-8.819C450.207,276.978,419.253,243.275,379.586,238.865z"/>
	<path style="fill:#EAEAEA;" d="M361.931,344.276H291.31v70.612c0,43.81,35.638,79.457,79.448,79.457s79.448-35.646,79.448-79.457
		v-70.612h-70.621H361.931z"/>
	<path style="fill:#EAEAEA;" d="M361.931,238.865c-39.667,4.41-70.621,38.113-70.621,78.937v8.819h70.621V238.865z"/>
</g>
<g>
	<path style="fill:#314E55;" d="M238.345,185.379h86.045c0.032,1.739,0.154,3.438,0.154,5.19c0,4.879,3.948,8.828,8.828,8.828
		s8.828-3.948,8.828-8.828c0-1.752-0.133-3.45-0.164-5.19h55.207h12.465h5.19c0-99.236-78.447-180.278-176.552-184.932V0H220.69
		v0.447C122.585,5.101,44.138,86.143,44.138,185.379c0,102.216,83.164,185.379,185.379,185.379c4.879,0,8.828-3.948,8.828-8.828
		c0-2.766-1.347-5.132-3.335-6.75h3.335V185.379z M134.491,190.569c0-1.752,0.121-3.451,0.154-5.19h86.045v166.96
		C172.421,344.689,134.491,275.093,134.491,190.569z M220.69,167.724h-85.148c6.121-73.906,41.318-131.972,85.148-138.916V167.724z
		 M238.345,167.724V28.808c43.829,6.945,79.026,65.011,85.148,138.916H238.345z M396.293,167.724H341.19
		c-5.271-66.165-33.015-121.139-70.619-144.775C337.699,39.934,388.891,97.319,396.293,167.724z M188.464,22.949
		c-37.604,23.636-65.348,78.61-70.619,144.775H62.742C70.144,97.319,121.335,39.934,188.464,22.949z M61.793,185.379h55.208
		c-0.031,1.74-0.164,3.438-0.164,5.19c0,62.969,20.341,118.416,51.031,150.643C105.832,316.579,61.793,256.083,61.793,185.379z"/>
	<path style="fill:#314E55;" d="M370.759,220.69c-53.543,0-97.103,43.56-97.103,97.112v8.819v17.655v70.612
		c0,53.552,43.56,97.112,97.103,97.112s97.103-43.56,97.103-97.112v-70.612v-17.655v-8.819
		C467.862,264.25,424.302,220.69,370.759,220.69z M291.31,317.802c0-40.824,30.954-74.526,70.621-78.936v87.755H291.31V317.802z
		 M450.207,414.888c0,43.81-35.638,79.457-79.448,79.457s-79.448-35.646-79.448-79.457v-70.612h70.621h17.655h70.621V414.888z
		 M379.586,326.621v-87.755c39.667,4.41,70.621,38.113,70.621,78.937v8.819H379.586z"/>
</g>
<g>
</g>
<g>
</g>
<g>
</g>
<g>
</g>
<g>
</g>
<g>
</g>
<g>
</g>
<g>
</g>
<g>
</g>
<g>
</g>
<g>
</g>
<g>
</g>
<g>
</g>
<g>
</g>
<g>
</g>
</svg>
