<?xml version="1.0" encoding="iso-8859-1"?>
<!-- Generator: Adobe Illustrator 19.0.0, SVG Export Plug-In . SVG Version: 6.00 Build 0)  -->
<svg version="1.1" id="Layer_1" xmlns="http://www.w3.org/2000/svg" xmlns:xlink="http://www.w3.org/1999/xlink" x="0px" y="0px"
	 viewBox="0 0 512 512" style="enable-background:new 0 0 512 512;" xml:space="preserve">
<path style="fill:#FFFFFF;" d="M256,54.857c-65.536,0-118.857,53.321-118.857,118.857S190.464,292.571,256,292.571
	s118.857-53.321,118.857-118.857S321.536,54.857,256,54.857z M323.25,151.339l-26.991,26.313l6.366,37.152
	c0.589,3.429-0.821,6.893-3.634,8.938c-1.598,1.161-3.482,1.75-5.375,1.75c-1.455,0-2.92-0.348-4.259-1.053L256,206.902
	l-33.357,17.536c-3.072,1.634-6.804,1.357-9.634-0.696c-2.813-2.045-4.223-5.509-3.634-8.938l6.366-37.152l-26.991-26.312
	c-2.491-2.429-3.384-6.062-2.312-9.366c1.08-3.312,3.938-5.723,7.384-6.223l37.295-5.429l16.688-33.795
	c3.072-6.25,13.321-6.25,16.393,0l16.688,33.795l37.295,5.429c3.446,0.5,6.304,2.911,7.384,6.223
	C326.634,145.277,325.741,148.911,323.25,151.339z"/>
<path style="fill:#5ECC66;" d="M266.616,142.723L256,121.223l-10.616,21.5c-1.33,2.696-3.902,4.571-6.884,5l-23.723,3.455
	l17.17,16.741c2.152,2.098,3.134,5.125,2.625,8.089l-4.045,23.625l21.214-11.152c1.339-0.705,2.795-1.054,4.259-1.054
	c1.464,0,2.92,0.348,4.259,1.053l21.214,11.152l-4.045-23.625c-0.509-2.964,0.473-5.991,2.625-8.089l17.17-16.741l-23.723-3.455
	C270.518,147.295,267.947,145.42,266.616,142.723z"/>
<path style="fill:#73C9C9;" d="M256,18.286c-85.705,0-155.429,69.723-155.429,155.429c0,91.464,118.679,320,155.429,320
	s155.429-228.536,155.429-320C411.429,88.009,341.705,18.286,256,18.286z M256,310.857c-75.625,0-137.143-61.518-137.143-137.143
	S180.375,36.571,256,36.571s137.143,61.518,137.143,137.143S331.625,310.857,256,310.857z"/>
<g>
	<path style="fill:#314E55;" d="M256,0C160.214,0,82.286,77.929,82.286,173.714C82.286,262.848,201.312,512,256,512
		s173.714-249.152,173.714-338.286C429.714,77.929,351.786,0,256,0z M256,493.714c-36.75,0-155.429-228.536-155.429-320
		c0-85.705,69.723-155.429,155.429-155.429s155.429,69.723,155.429,155.429C411.429,265.179,292.75,493.714,256,493.714z"/>
	<path style="fill:#314E55;" d="M256,36.571c-75.625,0-137.143,61.518-137.143,137.143S180.375,310.857,256,310.857
		s137.143-61.518,137.143-137.143S331.625,36.571,256,36.571z M256,292.571c-65.536,0-118.857-53.321-118.857-118.857
		S190.464,54.857,256,54.857s118.857,53.321,118.857,118.857S321.536,292.571,256,292.571z"/>
	<path style="fill:#314E55;" d="M318.179,135.75l-37.295-5.429l-16.688-33.795c-3.072-6.25-13.321-6.25-16.393,0l-16.688,33.795
		l-37.295,5.429c-3.446,0.5-6.304,2.911-7.384,6.223c-1.072,3.304-0.179,6.938,2.312,9.366l26.991,26.312l-6.366,37.152
		c-0.589,3.429,0.821,6.893,3.634,8.938c2.83,2.053,6.563,2.33,9.634,0.696L256,206.902l33.357,17.536
		c1.339,0.705,2.804,1.053,4.259,1.053c1.893,0,3.777-0.589,5.375-1.75c2.813-2.045,4.223-5.509,3.634-8.938l-6.366-37.152
		l26.991-26.312c2.491-2.429,3.384-6.062,2.312-9.366C324.482,138.661,321.625,136.25,318.179,135.75z M280.053,167.92
		c-2.152,2.098-3.134,5.125-2.625,8.089l4.045,23.625l-21.214-11.152c-1.339-0.705-2.795-1.053-4.259-1.053
		c-1.464,0-2.92,0.348-4.259,1.053l-21.214,11.152l4.045-23.625c0.509-2.964-0.473-5.991-2.625-8.089l-17.17-16.741l23.723-3.455
		c2.982-0.429,5.554-2.304,6.884-5l10.616-21.5l10.616,21.5c1.33,2.696,3.902,4.571,6.884,5l23.723,3.455L280.053,167.92z"/>
</g>
<g>
</g>
<g>
</g>
<g>
</g>
<g>
</g>
<g>
</g>
<g>
</g>
<g>
</g>
<g>
</g>
<g>
</g>
<g>
</g>
<g>
</g>
<g>
</g>
<g>
</g>
<g>
</g>
<g>
</g>
</svg>
