<?xml version="1.0" encoding="iso-8859-1"?>
<!-- Generator: Adobe Illustrator 19.0.0, SVG Export Plug-In . SVG Version: 6.00 Build 0)  -->
<svg version="1.1" id="Layer_1" xmlns="http://www.w3.org/2000/svg" xmlns:xlink="http://www.w3.org/1999/xlink" x="0px" y="0px"
	 viewBox="0 0 512 512" style="enable-background:new 0 0 512 512;" xml:space="preserve">
<rect x="178.458" y="342.149" style="fill:#F58CAC;" width="275.677" height="25.845"/>
<rect x="66.473" y="342.149" style="fill:#73C9C9;" width="94.764" height="25.845"/>
<path style="fill:#E9E7D1;" d="M409.802,204.31H102.198c-39.301,0-73.269,31.919-75.717,71.149l-9.187,147.278
	c-0.526,8.43,2.242,16.321,7.79,22.227c5.561,5.923,13.288,9.179,21.76,9.179h418.311c8.468,0,16.195-3.264,21.756-9.179
	c5.553-5.914,8.32-13.806,7.795-22.227l-9.187-147.278C483.071,236.229,449.103,204.31,409.802,204.31z M92.317,221.54h327.367
	c4.758,0,8.615,3.853,8.615,8.615s-3.857,8.615-8.615,8.615H92.317c-4.758,0-8.615-3.853-8.615-8.615S87.559,221.54,92.317,221.54z
	 M66.472,256h379.056c4.758,0,8.615,3.853,8.615,8.615c0,4.762-3.857,8.615-8.615,8.615H66.472c-4.758,0-8.615-3.853-8.615-8.615
	C57.857,259.853,61.714,256,66.472,256z M66.472,290.459h379.056c4.758,0,8.615,3.853,8.615,8.615c0,4.762-3.857,8.615-8.615,8.615
	H66.472c-4.758,0-8.615-3.853-8.615-8.615C57.857,294.313,61.714,290.459,66.472,290.459z M75.087,436.913
	c-9.502,0-17.23-7.731-17.23-17.23s7.727-17.23,17.23-17.23s17.23,7.731,17.23,17.23S84.589,436.913,75.087,436.913z
	 M161.236,436.913h-43.075v-17.23h43.075V436.913z M221.54,436.913h-43.075v-17.23h43.075V436.913z M281.845,436.913H238.77v-17.23
	h43.075V436.913z M342.149,436.913h-43.075v-17.23h43.075V436.913z M402.453,436.913h-43.075v-17.23h43.075V436.913z
	 M445.528,436.913c-9.502,0-17.23-7.731-17.23-17.23s7.727-17.23,17.23-17.23s17.23,7.731,17.23,17.23
	S455.03,436.913,445.528,436.913z M471.373,385.223H178.466h-17.23H49.242v-60.304h111.994h17.23h292.907V385.223z"/>
<g>
	<path style="fill:#314E55;" d="M511.902,421.66l-9.187-147.278c-2.704-43.345-36.791-79.309-78.757-86.063
		c-0.159-0.093-0.256-0.247-0.422-0.33L130.63,41.536c-4.261-2.12-9.431-0.404-11.559,3.853c-2.129,4.257-0.404,9.431,3.853,11.559
		l260.265,130.132h-280.99c-48.228,0-89.91,39.163-92.913,87.302L0.098,421.66c-0.824,13.234,3.592,25.693,12.43,35.107
		c8.851,9.414,21.041,14.605,34.317,14.605h418.311c13.271,0,25.458-5.191,34.312-14.613
		C508.31,447.345,512.727,434.885,511.902,421.66z M486.912,444.964c-5.561,5.914-13.288,9.179-21.756,9.179H46.844
		c-8.472,0-16.199-3.256-21.76-9.179c-5.548-5.906-8.316-13.797-7.79-22.227l9.187-147.278c2.448-39.23,36.416-71.149,75.717-71.149
		h307.604c39.301,0,73.269,31.919,75.717,71.149l9.187,147.278C495.232,431.158,492.464,439.05,486.912,444.964z"/>
	<path style="fill:#314E55;" d="M92.317,238.77h327.367c4.758,0,8.615-3.853,8.615-8.615s-3.857-8.615-8.615-8.615H92.317
		c-4.758,0-8.615,3.853-8.615,8.615S87.559,238.77,92.317,238.77z"/>
	<path style="fill:#314E55;" d="M66.472,273.229h379.056c4.758,0,8.615-3.853,8.615-8.615c0-4.762-3.857-8.615-8.615-8.615H66.472
		c-4.758,0-8.615,3.853-8.615,8.615C57.857,269.376,61.714,273.229,66.472,273.229z"/>
	<path style="fill:#314E55;" d="M66.472,307.689h379.056c4.758,0,8.615-3.853,8.615-8.615c0-4.762-3.857-8.615-8.615-8.615H66.472
		c-4.758,0-8.615,3.853-8.615,8.615C57.857,303.836,61.714,307.689,66.472,307.689z"/>
	<path style="fill:#314E55;" d="M161.236,324.919H49.242v60.304h111.994h17.23h292.907v-60.304H178.466H161.236z M161.236,367.993
		H66.472v-25.845h94.764V367.993z M454.143,342.149v25.845H178.466v-25.845H454.143z"/>
	<path style="fill:#314E55;" d="M75.087,402.453c-9.502,0-17.23,7.731-17.23,17.23s7.727,17.23,17.23,17.23s17.23-7.731,17.23-17.23
		S84.589,402.453,75.087,402.453z"/>
	<path style="fill:#314E55;" d="M445.528,402.453c-9.502,0-17.23,7.731-17.23,17.23s7.727,17.23,17.23,17.23
		s17.23-7.731,17.23-17.23S455.03,402.453,445.528,402.453z"/>
	<rect x="118.162" y="419.683" style="fill:#314E55;" width="43.075" height="17.23"/>
	<rect x="178.458" y="419.683" style="fill:#314E55;" width="43.075" height="17.23"/>
	<rect x="238.762" y="419.683" style="fill:#314E55;" width="43.075" height="17.23"/>
	<rect x="299.066" y="419.683" style="fill:#314E55;" width="43.075" height="17.23"/>
	<rect x="359.371" y="419.683" style="fill:#314E55;" width="43.075" height="17.23"/>
</g>
<g>
</g>
<g>
</g>
<g>
</g>
<g>
</g>
<g>
</g>
<g>
</g>
<g>
</g>
<g>
</g>
<g>
</g>
<g>
</g>
<g>
</g>
<g>
</g>
<g>
</g>
<g>
</g>
<g>
</g>
</svg>
