<?xml version="1.0" encoding="iso-8859-1"?>
<!-- Generator: Adobe Illustrator 19.0.0, SVG Export Plug-In . SVG Version: 6.00 Build 0)  -->
<svg version="1.1" id="Layer_1" xmlns="http://www.w3.org/2000/svg" xmlns:xlink="http://www.w3.org/1999/xlink" x="0px" y="0px"
	 viewBox="0 0 512 512" style="enable-background:new 0 0 512 512;" xml:space="preserve">
<polygon style="fill:#81A4E3;" points="397.714,133.652 397.714,177.205 441.268,155.429 "/>
<circle style="fill:#EAEAEA;" cx="187.429" cy="457.143" r="9.143"/>
<path style="fill:#73C9C9;" d="M59.429,484.576c0,5.125,3.991,9.138,9.08,9.138h228.696c5.009,0,9.08-4.098,9.08-9.138v-64.005
	H59.429V484.576z M187.429,429.714c15.125,0,27.429,12.304,27.429,27.429s-12.304,27.429-27.429,27.429
	c-15.125,0-27.429-12.304-27.429-27.429S172.304,429.714,187.429,429.714z"/>
<polygon style="fill:#81A4E3;" points="397.714,314.348 441.268,292.571 397.714,270.795 "/>
<path style="fill:#EAEAEA;" d="M224,283.429h82.286V164.571H224v-18.286h82.286V27.464c0-5.062-4.071-9.179-9.08-9.179H68.509
	c-5.009,0-9.08,4.116-9.08,9.179v374.603h246.857V301.714H224V283.429z"/>
<g>
	<path style="fill:#314E55;" d="M187.429,484.571c15.125,0,27.429-12.304,27.429-27.429s-12.304-27.429-27.429-27.429
		c-15.125,0-27.429,12.304-27.429,27.429S172.304,484.571,187.429,484.571z M187.429,448c5.045,0,9.143,4.103,9.143,9.143
		s-4.098,9.143-9.143,9.143c-5.045,0-9.143-4.103-9.143-9.143S182.384,448,187.429,448z"/>
	<path style="fill:#314E55;" d="M465.804,284.393l-73.143-36.571c-2.839-1.406-6.196-1.268-8.893,0.402
		c-2.696,1.665-4.339,4.607-4.339,7.777v27.429h-54.857V164.571h54.857V192c0,3.17,1.643,6.112,4.339,7.777
		c1.464,0.906,3.134,1.366,4.804,1.366c1.402,0,2.795-0.321,4.089-0.964l73.143-36.571c3.098-1.549,5.054-4.714,5.054-8.179
		s-1.955-6.629-5.054-8.179l-73.143-36.571c-2.839-1.406-6.196-1.263-8.893,0.402c-2.696,1.665-4.339,4.607-4.339,7.777v27.429
		h-54.857V27.464C324.571,12.321,312.295,0,297.205,0H68.509C53.42,0,41.143,12.321,41.143,27.464v374.822v18.067v64.223
		c0,15.12,12.277,27.424,27.366,27.424h228.696c15.089,0,27.366-12.304,27.366-27.424v-64.223v-18.067V301.714h54.857v27.429
		c0,3.17,1.643,6.112,4.339,7.777c1.464,0.906,3.134,1.366,4.804,1.366c1.402,0,2.795-0.321,4.089-0.964l73.143-36.571
		c3.098-1.549,5.054-4.714,5.054-8.178S468.902,285.942,465.804,284.393z M397.714,133.652l43.554,21.777l-43.554,21.777V133.652z
		 M306.286,484.576c0,5.04-4.071,9.138-9.08,9.138H68.509c-5.089,0-9.08-4.013-9.08-9.138v-64.005h246.857V484.576z
		 M306.286,402.067H59.429V27.464c0-5.062,4.071-9.179,9.08-9.179h228.696c5.009,0,9.08,4.116,9.08,9.179v118.821H224v18.286h82.286
		v118.857H224v18.286h82.286V402.067z M397.714,314.348v-43.554l43.554,21.777L397.714,314.348z"/>
</g>
<g>
</g>
<g>
</g>
<g>
</g>
<g>
</g>
<g>
</g>
<g>
</g>
<g>
</g>
<g>
</g>
<g>
</g>
<g>
</g>
<g>
</g>
<g>
</g>
<g>
</g>
<g>
</g>
<g>
</g>
</svg>
