<?xml version="1.0" encoding="iso-8859-1"?>
<!-- Generator: Adobe Illustrator 19.0.0, SVG Export Plug-In . SVG Version: 6.00 Build 0)  -->
<svg version="1.1" id="Layer_1" xmlns="http://www.w3.org/2000/svg" xmlns:xlink="http://www.w3.org/1999/xlink" x="0px" y="0px"
	 viewBox="0 0 512 512" style="enable-background:new 0 0 512 512;" xml:space="preserve">
<path style="fill:#D8D8D8;" d="M18.286,141.652v228.696c0,5.009,4.098,9.08,9.138,9.08h64.005V132.571H27.424
	C22.299,132.571,18.286,136.563,18.286,141.652z M54.857,233.143c15.125,0,27.429,12.304,27.429,27.429S69.982,288,54.857,288
	s-27.429-12.304-27.429-27.429S39.732,233.143,54.857,233.143z"/>
<polygon style="fill:#5ECC66;" points="273.545,280.634 311.496,256.241 273.545,231.848 "/>
<circle style="fill:#E9E7D1;" cx="54.857" cy="260.571" r="9.143"/>
<path style="fill:#D8D8D8;" d="M287.259,178.527c-42.853,0-77.714,34.866-77.714,77.714s34.862,77.714,77.714,77.714
	s77.714-34.866,77.714-77.714S330.112,178.527,287.259,178.527z M333.344,263.929l-64,41.143c-1.5,0.964-3.219,1.455-4.942,1.455
	c-1.504,0-3.013-0.375-4.379-1.116c-2.938-1.607-4.763-4.679-4.763-8.027v-82.286c0-3.348,1.826-6.42,4.763-8.027
	c2.924-1.589,6.509-1.491,9.321,0.339l64,41.143c2.621,1.679,4.201,4.58,4.201,7.688S335.964,262.25,333.344,263.929z"/>
<path style="fill:#81A4E3;" d="M484.536,132.571H109.714v246.857h374.822c5.062,0,9.178-4.071,9.178-9.08V141.652
	C493.714,136.643,489.598,132.571,484.536,132.571z M287.259,352.241c-52.933,0-96-43.062-96-96s43.067-96,96-96s96,43.062,96,96
	S340.192,352.241,287.259,352.241z"/>
<g>
	<path style="fill:#314E55;" d="M484.536,114.286H109.714h-8.924H27.424C12.304,114.286,0,126.563,0,141.652v228.696
		c0,15.089,12.304,27.366,27.424,27.366h73.366h8.924h374.822c15.143,0,27.464-12.277,27.464-27.366V141.652
		C512,126.563,499.679,114.286,484.536,114.286z M91.429,379.429H27.424c-5.04,0-9.138-4.071-9.138-9.08V141.652
		c0-5.089,4.013-9.08,9.138-9.08h64.005V379.429z M493.714,370.348c0,5.009-4.116,9.08-9.178,9.08H109.714V132.571h374.822
		c5.062,0,9.178,4.071,9.178,9.08V370.348z"/>
	<path style="fill:#314E55;" d="M54.857,288c15.125,0,27.429-12.304,27.429-27.429s-12.304-27.429-27.429-27.429
		s-27.429,12.304-27.429,27.429S39.732,288,54.857,288z M54.857,251.429c5.04,0,9.143,4.098,9.143,9.143
		c0,5.045-4.103,9.143-9.143,9.143s-9.143-4.098-9.143-9.143C45.714,255.527,49.817,251.429,54.857,251.429z"/>
	<path style="fill:#314E55;" d="M333.344,248.554l-64-41.143c-2.813-1.83-6.397-1.929-9.321-0.339
		c-2.938,1.607-4.763,4.679-4.763,8.027v82.286c0,3.348,1.826,6.42,4.763,8.027c1.366,0.741,2.875,1.116,4.379,1.116
		c1.723,0,3.442-0.491,4.942-1.455l64-41.143c2.621-1.679,4.201-4.58,4.201-7.688S335.964,250.232,333.344,248.554z
		 M273.545,280.634v-48.786l37.951,24.393L273.545,280.634z"/>
	<path style="fill:#314E55;" d="M287.259,160.241c-52.933,0-96,43.062-96,96s43.067,96,96,96s96-43.062,96-96
		S340.192,160.241,287.259,160.241z M287.259,333.955c-42.853,0-77.714-34.866-77.714-77.714s34.862-77.714,77.714-77.714
		s77.714,34.866,77.714,77.714S330.112,333.955,287.259,333.955z"/>
</g>
<g>
</g>
<g>
</g>
<g>
</g>
<g>
</g>
<g>
</g>
<g>
</g>
<g>
</g>
<g>
</g>
<g>
</g>
<g>
</g>
<g>
</g>
<g>
</g>
<g>
</g>
<g>
</g>
<g>
</g>
</svg>
