<?xml version="1.0" encoding="iso-8859-1"?>
<!-- Generator: Adobe Illustrator 19.0.0, SVG Export Plug-In . SVG Version: 6.00 Build 0)  -->
<svg version="1.1" id="Layer_1" xmlns="http://www.w3.org/2000/svg" xmlns:xlink="http://www.w3.org/1999/xlink" x="0px" y="0px"
	 viewBox="0 0 512 512" style="enable-background:new 0 0 512 512;" xml:space="preserve">
<path style="fill:#EAEAEA;" d="M457.143,185.996H54.857V423.71h402.286V185.996z M210.286,396.281c0,5.049-4.094,9.143-9.143,9.143
	H91.429c-5.049,0-9.143-4.094-9.143-9.143V213.424c0-5.049,4.094-9.143,9.143-9.143h109.714c5.049,0,9.143,4.094,9.143,9.143
	V396.281z M420.571,359.71H242.286c-5.049,0-9.143-4.094-9.143-9.143s4.094-9.143,9.143-9.143h178.286
	c5.049,0,9.143,4.094,9.143,9.143S425.621,359.71,420.571,359.71z M420.571,313.996H242.286c-5.049,0-9.143-4.094-9.143-9.143
	s4.094-9.143,9.143-9.143h178.286c5.049,0,9.143,4.094,9.143,9.143S425.621,313.996,420.571,313.996z M420.571,268.281H242.286
	c-5.049,0-9.143-4.094-9.143-9.143c0-5.049,4.094-9.143,9.143-9.143h178.286c5.049,0,9.143,4.094,9.143,9.143
	C429.714,264.188,425.621,268.281,420.571,268.281z M420.571,222.567H242.286c-5.049,0-9.143-4.094-9.143-9.143
	s4.094-9.143,9.143-9.143h178.286c5.049,0,9.143,4.094,9.143,9.143S425.621,222.567,420.571,222.567z"/>
<rect x="100.571" y="222.576" style="fill:#E4AD40;" width="91.429" height="164.571"/>
<path style="fill:#73C9C9;" d="M484.554,149.424H27.446c-5.049,0-9.161,4.112-9.161,9.17v310.804c0,5.058,4.112,9.17,9.161,9.17
	h457.107c5.049,0,9.161-4.112,9.161-9.17V158.594C493.714,153.536,489.603,149.424,484.554,149.424z M306.286,469.424H205.714
	c-5.049,0-9.143-4.094-9.143-9.143c0-5.049,4.094-9.143,9.143-9.143h100.571c5.049,0,9.143,4.094,9.143,9.143
	C315.429,465.33,311.335,469.424,306.286,469.424z M475.429,441.996H36.571V167.71h438.857V441.996z"/>
<g>
	<path style="fill:#314E55;" d="M484.554,131.138H27.446C12.312,131.138,0,143.455,0,158.594v310.804
		c0,15.138,12.312,27.455,27.446,27.455h457.107c15.134,0,27.446-12.317,27.446-27.455V158.594
		C512,143.455,499.688,131.138,484.554,131.138z M493.714,469.397c0,5.058-4.112,9.17-9.161,9.17H27.446
		c-5.049,0-9.161-4.112-9.161-9.17V158.594c0-5.058,4.112-9.17,9.161-9.17h457.107c5.049,0,9.161,4.112,9.161,9.17V469.397z"/>
	<path style="fill:#314E55;" d="M36.571,441.996h438.857V167.71H36.571V441.996z M54.857,185.996h402.286V423.71H54.857V185.996z"/>
	<path style="fill:#314E55;" d="M306.286,451.138H205.714c-5.049,0-9.143,4.094-9.143,9.143c0,5.049,4.094,9.143,9.143,9.143
		h100.571c5.049,0,9.143-4.094,9.143-9.143C315.429,455.232,311.335,451.138,306.286,451.138z"/>
	<path style="fill:#314E55;" d="M420.571,204.281H242.286c-5.049,0-9.143,4.094-9.143,9.143s4.094,9.143,9.143,9.143h178.286
		c5.049,0,9.143-4.094,9.143-9.143S425.621,204.281,420.571,204.281z"/>
	<path style="fill:#314E55;" d="M420.571,249.996H242.286c-5.049,0-9.143,4.094-9.143,9.143c0,5.049,4.094,9.143,9.143,9.143
		h178.286c5.049,0,9.143-4.094,9.143-9.143C429.714,254.089,425.621,249.996,420.571,249.996z"/>
	<path style="fill:#314E55;" d="M420.571,295.71H242.286c-5.049,0-9.143,4.094-9.143,9.143c0,5.049,4.094,9.143,9.143,9.143h178.286
		c5.049,0,9.143-4.094,9.143-9.143S425.621,295.71,420.571,295.71z"/>
	<path style="fill:#314E55;" d="M420.571,341.424H242.286c-5.049,0-9.143,4.094-9.143,9.143s4.094,9.143,9.143,9.143h178.286
		c5.049,0,9.143-4.094,9.143-9.143S425.621,341.424,420.571,341.424z"/>
	<path style="fill:#314E55;" d="M194.027,88.103c-3.571,3.571-3.571,9.357,0,12.928c3.571,3.571,9.357,3.571,12.928,0
		c32.089-32.08,84.286-32.08,116.375,0c1.786,1.786,4.125,2.679,6.464,2.679c2.339,0,4.679-0.893,6.464-2.679
		c3.571-3.571,3.571-9.357,0-12.928C297.045,48.888,233.241,48.888,194.027,88.103z"/>
	<path style="fill:#314E55;" d="M168.17,73.603c25.902-25.902,60.339-40.17,96.973-40.17s71.072,14.268,96.973,40.17
		c1.786,1.786,4.125,2.679,6.464,2.679c2.339,0,4.679-0.893,6.464-2.679c3.571-3.571,3.571-9.357,0-12.928
		c-29.353-29.357-68.384-45.527-109.902-45.527s-80.549,16.17-109.902,45.527c-3.571,3.571-3.571,9.357,0,12.928
		S164.598,77.174,168.17,73.603z"/>
	<path style="fill:#314E55;" d="M201.143,204.281H91.429c-5.049,0-9.143,4.094-9.143,9.143v182.857c0,5.049,4.094,9.143,9.143,9.143
		h109.714c5.049,0,9.143-4.094,9.143-9.143V213.424C210.286,208.375,206.192,204.281,201.143,204.281z M192,387.138h-91.429V222.567
		H192V387.138z"/>
</g>
<g>
</g>
<g>
</g>
<g>
</g>
<g>
</g>
<g>
</g>
<g>
</g>
<g>
</g>
<g>
</g>
<g>
</g>
<g>
</g>
<g>
</g>
<g>
</g>
<g>
</g>
<g>
</g>
<g>
</g>
</svg>
