<?xml version="1.0" encoding="iso-8859-1"?>
<!-- Generator: Adobe Illustrator 19.0.0, SVG Export Plug-In . SVG Version: 6.00 Build 0)  -->
<svg version="1.1" id="Layer_1" xmlns="http://www.w3.org/2000/svg" xmlns:xlink="http://www.w3.org/1999/xlink" x="0px" y="0px"
	 viewBox="0 0 512 512" style="enable-background:new 0 0 512 512;" xml:space="preserve">
<path style="fill:#E65F58;" d="M304.092,32.832L21.345,315.579l175.062,175.071l282.755-282.755
	c-19.567-31.042-15.353-72.187,11.104-98.635l-87.531-87.531C376.27,48.185,335.125,52.407,304.092,32.832z M114.057,285.4
	L290.19,109.259l12.503,12.503L126.56,297.903L114.057,285.4z M176.573,347.925l-12.503-12.503l119.868-119.877l12.503,12.503
	L176.573,347.925z M226.594,397.938l-12.503-12.503l151.126-151.135l12.503,12.503L226.594,397.938z M431.852,115.51
	c0,9.446-3.678,18.323-10.362,25.006c-6.899,6.899-15.957,10.345-25.006,10.345c-9.058,0-18.116-3.445-25.015-10.345
	c-13.781-13.798-13.781-36.232,0-50.013c13.798-13.79,36.223-13.807,50.021,0C428.174,97.179,431.852,106.055,431.852,115.51z"/>
<g>
	<path style="fill:#314E55;" d="M509.41,103.396L408.599,2.584c-1.796-1.796-4.257-2.659-6.787-2.573
		c-2.53,0.155-4.87,1.382-6.433,3.376c-1.58,2.021-3.299,3.981-5.146,5.837c-22.045,22.036-57.162,24.229-81.72,5.138
		c-3.514-2.737-8.523-2.444-11.683,0.725L2.59,309.327c-3.454,3.454-3.454,9.049,0,12.503l187.565,187.574
		c1.658,1.658,3.903,2.591,6.252,2.591s4.594-0.933,6.252-2.591l294.248-294.248c3.152-3.152,3.463-8.16,0.725-11.683
		c-19.1-24.549-16.898-59.675,5.138-81.711c1.848-1.848,3.791-3.566,5.803-5.129c2.012-1.554,3.247-3.894,3.411-6.433
		C512.139,107.67,511.206,105.192,509.41,103.396z M479.162,207.894L196.407,490.649L21.345,315.579L304.092,32.832
		c31.034,19.575,72.178,15.353,98.644-11.104l87.531,87.531C463.81,135.707,459.596,176.852,479.162,207.894z"/>
	<path style="fill:#314E55;" d="M371.469,90.504c-13.781,13.781-13.781,36.214,0,50.013c6.899,6.899,15.957,10.345,25.015,10.345
		c9.049,0,18.107-3.445,25.006-10.345c6.683-6.683,10.362-15.56,10.362-25.006c0-9.455-3.678-18.332-10.362-25.006
		C407.692,76.697,385.268,76.714,371.469,90.504z M414.168,115.51c0,4.723-1.839,9.161-5.181,12.503
		c-6.891,6.891-18.107,6.891-25.015,0c-6.891-6.899-6.891-18.116,0-25.006c6.891-6.899,18.124-6.891,25.015,0
		C412.329,106.349,414.168,110.787,414.168,115.51z"/>
	
		<rect x="83.816" y="194.731" transform="matrix(-0.7071 0.7071 -0.7071 -0.7071 499.6505 200.1817)" style="fill:#314E55;" width="249.1" height="17.682"/>
	
		<rect x="145.494" y="272.905" transform="matrix(-0.7071 0.7071 -0.7071 -0.7071 592.295 318.1559)" style="fill:#314E55;" width="169.522" height="17.682"/>
	
		<rect x="189.046" y="307.281" transform="matrix(-0.7071 0.7071 -0.7071 -0.7071 728.6849 330.4121)" style="fill:#314E55;" width="213.732" height="17.682"/>
</g>
<g>
</g>
<g>
</g>
<g>
</g>
<g>
</g>
<g>
</g>
<g>
</g>
<g>
</g>
<g>
</g>
<g>
</g>
<g>
</g>
<g>
</g>
<g>
</g>
<g>
</g>
<g>
</g>
<g>
</g>
</svg>
