<?xml version="1.0" encoding="iso-8859-1"?>
<!-- Generator: Adobe Illustrator 19.0.0, SVG Export Plug-In . SVG Version: 6.00 Build 0)  -->
<svg version="1.1" id="Layer_1" xmlns="http://www.w3.org/2000/svg" xmlns:xlink="http://www.w3.org/1999/xlink" x="0px" y="0px"
	 viewBox="0 0 512 512" style="enable-background:new 0 0 512 512;" xml:space="preserve">
<polygon style="fill:#5ECC66;" points="452.923,405.764 59.077,405.764 59.077,336.841 19.692,336.841 19.692,445.149 
	492.308,445.149 492.308,336.841 452.923,336.841 "/>
<g>
	<polygon style="fill:#314E55;" points="255.683,71.505 254.99,70.813 254.298,71.505 	"/>
	<path style="fill:#314E55;" d="M433.231,317.149v68.923H78.769v-68.923H0v147.692h512V317.149L433.231,317.149L433.231,317.149z
		 M492.308,445.149H19.692V336.841h39.385v68.923h393.846v-68.923h39.385V445.149z"/>
	<path style="fill:#314E55;" d="M196.76,129.053l49.394-49.403v257.191h19.692V81.671l49.394,49.401
		c1.923,1.923,4.442,2.885,6.961,2.885c2.519,0,5.039-0.961,6.961-2.885c3.846-3.846,3.846-10.077,0-13.923l-67.211-67.221
		c-3.692-3.692-10.231-3.692-13.923,0l-65.193,65.202c-3.846,3.846-3.846,10.077,0,13.923
		C186.683,132.899,192.913,132.899,196.76,129.053z M255.683,71.505h-1.385l0.692-0.692L255.683,71.505z"/>
</g>
<g>
</g>
<g>
</g>
<g>
</g>
<g>
</g>
<g>
</g>
<g>
</g>
<g>
</g>
<g>
</g>
<g>
</g>
<g>
</g>
<g>
</g>
<g>
</g>
<g>
</g>
<g>
</g>
<g>
</g>
</svg>
