<?xml version="1.0" encoding="iso-8859-1"?>
<!-- Generator: Adobe Illustrator 19.0.0, SVG Export Plug-In . SVG Version: 6.00 Build 0)  -->
<svg version="1.1" id="Layer_1" xmlns="http://www.w3.org/2000/svg" xmlns:xlink="http://www.w3.org/1999/xlink" x="0px" y="0px"
	 viewBox="0 0 512 512" style="enable-background:new 0 0 512 512;" xml:space="preserve">
<g>
	<polygon style="fill:#81A4E3;" points="288.091,113.45 246.511,30.289 204.93,113.45 237.021,113.45 256,113.45 	"/>
	<path style="fill:#81A4E3;" d="M245.044,436.234c-15.005,0.781-27.001,13.123-27.001,28.32c0,15.698,12.77,28.468,28.468,28.468
		s28.468-12.77,28.468-28.468c0-15.196-11.995-27.538-27.001-28.32H245.044z"/>
	<path style="fill:#81A4E3;" d="M170.596,236.81c0-10.462-8.516-18.979-18.979-18.979s-18.979,8.516-18.979,18.979
		s8.516,18.979,18.979,18.979S170.596,247.273,170.596,236.81z"/>
	<rect x="322.425" y="160.895" style="fill:#81A4E3;" width="56.936" height="56.936"/>
</g>
<path style="fill:#314E55;" d="M256,294.866c7.967,2.14,22.107,5.238,37.698,5.238c14.818,0,30.812-2.817,43.638-11.991
	c15.06-10.755,23.011-28.058,23.861-51.301h27.654c5.245,0,9.489-4.244,9.489-9.489v-75.914c0-5.245-4.244-9.489-9.489-9.489
	h-75.914c-5.245,0-9.489,4.244-9.489,9.489v75.914c0,5.245,4.244,9.489,9.489,9.489h29.298c-0.749,16.694-6.05,28.782-15.899,35.844
	c-23.328,16.699-65.385,4.032-70.336,2.459V132.428h47.446c3.29,0,6.339-1.705,8.071-4.504c1.733-2.798,1.891-6.292,0.417-9.23
	L254.999,4.823c-3.225-6.431-13.752-6.431-16.977,0l-56.936,113.871c-1.473,2.938-1.316,6.431,0.417,9.23s4.782,4.504,8.071,4.504
	h47.446v192.051c-14.018,3.517-44.751,9.01-63.46-4.378c-10.647-7.636-16.05-21.073-16.05-39.94c0-2.214-0.876-4.159-2.145-5.773
	c19.154-1.914,34.208-17.928,34.208-37.578c0-20.934-17.023-37.957-37.957-37.957s-37.957,17.023-37.957,37.957
	c0,17.443,11.885,32.018,27.938,36.445c-1.863,1.732-3.066,4.158-3.066,6.906c0,25.363,8.081,44.008,24.029,55.397
	c12.835,9.174,28.811,11.991,43.638,11.991c11.738,0,22.697-1.77,30.822-3.558v74.075c-21.629,4.409-37.957,23.576-37.957,46.487
	c0,26.16,21.286,47.446,47.446,47.446s47.446-21.286,47.446-47.446c0-22.911-16.328-42.078-37.957-46.487V294.866z M204.93,113.45
	l41.58-83.161l41.58,83.161H256h-18.979H204.93z M132.639,236.81c0-10.462,8.516-18.979,18.979-18.979s18.979,8.516,18.979,18.979
	s-8.516,18.979-18.979,18.979S132.639,247.273,132.639,236.81z M274.978,464.553c0,15.698-12.77,28.468-28.468,28.468
	s-28.468-12.77-28.468-28.468c0-15.196,11.995-27.538,27.001-28.32h2.934C262.983,437.015,274.978,449.357,274.978,464.553z
	 M379.361,217.832h-56.936v-56.936h56.936V217.832z"/>
<g>
</g>
<g>
</g>
<g>
</g>
<g>
</g>
<g>
</g>
<g>
</g>
<g>
</g>
<g>
</g>
<g>
</g>
<g>
</g>
<g>
</g>
<g>
</g>
<g>
</g>
<g>
</g>
<g>
</g>
</svg>
