<?xml version="1.0" encoding="iso-8859-1"?>
<!-- Generator: Adobe Illustrator 19.0.0, SVG Export Plug-In . SVG Version: 6.00 Build 0)  -->
<svg version="1.1" id="Layer_1" xmlns="http://www.w3.org/2000/svg" xmlns:xlink="http://www.w3.org/1999/xlink" x="0px" y="0px"
	 viewBox="0 0 512 512" style="enable-background:new 0 0 512 512;" xml:space="preserve">
<path style="fill:#F58CAC;" d="M262.245,247.168c53.57,0,97.153-43.582,97.153-97.153s-43.582-97.153-97.153-97.153
	s-97.153,43.582-97.153,97.153S208.674,247.168,262.245,247.168z M200.42,141.183h52.992V88.191c0-4.877,3.95-8.832,8.832-8.832
	c4.882,0,8.832,3.955,8.832,8.832v52.992h52.992c4.882,0,8.832,3.955,8.832,8.832c0,4.877-3.95,8.832-8.832,8.832h-52.992v52.992
	c0,4.878-3.95,8.832-8.832,8.832c-4.882,0-8.832-3.955-8.832-8.832v-52.992H200.42c-4.882,0-8.832-3.955-8.832-8.832
	C191.588,145.138,195.538,141.183,200.42,141.183z"/>
<g>
	<path style="fill:#314E55;" d="M17.664,388.77c0-38.804,31.594-70.372,70.432-70.372h176.831c38.838,0,70.432,31.568,70.432,70.372
		v8.832h17.664v-8.832c0-48.542-39.52-88.036-88.096-88.036H88.096C39.52,300.734,0,340.228,0,388.77s39.52,88.031,88.096,88.031
		h68.457v-17.664H88.096C49.258,459.137,17.664,427.569,17.664,388.77z"/>
	<path style="fill:#314E55;" d="M423.904,300.734h-68.457v17.664h68.457c38.838,0,70.432,31.568,70.432,70.367
		c0,38.804-31.594,70.372-70.432,70.372H247.073c-38.839,0-70.432-31.568-70.432-70.372v-8.832h-17.664v8.832
		c0,48.542,39.52,88.036,88.096,88.036h176.831c48.576,0,88.096-39.494,88.096-88.036S472.48,300.734,423.904,300.734z"/>
	<path style="fill:#314E55;" d="M262.245,264.832c63.308,0,114.817-51.505,114.817-114.817S325.552,35.199,262.245,35.199
		S147.428,86.703,147.428,150.015S198.937,264.832,262.245,264.832z M262.245,52.863c53.57,0,97.153,43.582,97.153,97.153
		s-43.582,97.153-97.153,97.153s-97.153-43.582-97.153-97.153S208.674,52.863,262.245,52.863z"/>
	<path style="fill:#314E55;" d="M200.42,158.847h52.992v52.992c0,4.878,3.95,8.832,8.832,8.832c4.882,0,8.832-3.955,8.832-8.832
		v-52.992h52.992c4.882,0,8.832-3.955,8.832-8.832c0-4.878-3.95-8.832-8.832-8.832h-52.992V88.191c0-4.877-3.95-8.832-8.832-8.832
		c-4.882,0-8.832,3.955-8.832,8.832v52.992H200.42c-4.882,0-8.832,3.955-8.832,8.832
		C191.588,154.893,195.538,158.847,200.42,158.847z"/>
</g>
<g>
</g>
<g>
</g>
<g>
</g>
<g>
</g>
<g>
</g>
<g>
</g>
<g>
</g>
<g>
</g>
<g>
</g>
<g>
</g>
<g>
</g>
<g>
</g>
<g>
</g>
<g>
</g>
<g>
</g>
</svg>
