<?xml version="1.0" encoding="iso-8859-1"?>
<!-- Generator: Adobe Illustrator 19.0.0, SVG Export Plug-In . SVG Version: 6.00 Build 0)  -->
<svg version="1.1" id="Layer_1" xmlns="http://www.w3.org/2000/svg" xmlns:xlink="http://www.w3.org/1999/xlink" x="0px" y="0px"
	 viewBox="0 0 512 512" style="enable-background:new 0 0 512 512;" xml:space="preserve">
<rect x="231.389" y="19.689" style="fill:#EAEAEA;" width="49.222" height="29.533"/>
<path style="fill:#F28544;" d="M359.454,285.577H201.769c-5.384,0-9.758,4.422-9.758,9.854v187.026c0,5.28,4.159,9.53,9.334,9.768
	h157.984c5.3,0,9.56-4.159,9.797-9.336c0.007-0.151,0.087-0.278,0.087-0.431V295.431
	C369.212,289.999,364.838,285.577,359.454,285.577z"/>
<path style="fill:#EAEAEA;" d="M359.329,68.911h-68.873h-68.911h-68.873c-5.538,0-9.883,4.288-9.883,9.768v403.787
	c0,5.384,4.432,9.758,9.883,9.758h21.435c-1.083-3.073-1.785-6.328-1.785-9.768V295.431c0-16.286,13.209-29.543,29.447-29.543
	h157.685c3.437,0,6.689,0.706,9.758,1.797V78.679C369.212,73.295,364.78,68.911,359.329,68.911z"/>
<path style="fill:#314E55;" d="M359.329,49.222H300.3V9.844c0-5.441-4.403-9.844-9.844-9.844h-68.911
	c-5.441,0-9.844,4.403-9.844,9.844v39.378h-59.029c-16.305,0-29.572,13.219-29.572,29.457v403.787
	c0,16.237,13.267,29.447,29.572,29.447h48.245c0.29,0.008,0.561,0.087,0.853,0.087h157.685c15.823,0,28.672-12.615,29.324-28.327
	c0.017-0.409,0.123-0.794,0.123-1.206v-0.01V295.431V78.679C388.901,62.441,375.634,49.222,359.329,49.222z M231.389,19.689h49.222
	v29.533h-49.222V19.689z M369.212,482.457c0,0.153-0.08,0.28-0.087,0.431c-0.237,5.177-4.497,9.336-9.796,9.336H201.345
	c-5.176-0.237-9.334-4.487-9.334-9.768V295.431c0-5.432,4.374-9.854,9.758-9.854h157.685c5.384,0,9.758,4.422,9.758,9.854
	L369.212,482.457L369.212,482.457z M359.454,265.888H201.769c-16.238,0-29.447,13.257-29.447,29.543v187.026
	c0,3.44,0.702,6.694,1.785,9.768h-21.435c-5.451,0-9.883-4.374-9.883-9.758V78.679c0-5.48,4.345-9.768,9.883-9.768h68.873h68.911
	h68.873c5.451,0,9.883,4.384,9.883,9.768v189.006C366.142,266.594,362.891,265.888,359.454,265.888z"/>
<g>
</g>
<g>
</g>
<g>
</g>
<g>
</g>
<g>
</g>
<g>
</g>
<g>
</g>
<g>
</g>
<g>
</g>
<g>
</g>
<g>
</g>
<g>
</g>
<g>
</g>
<g>
</g>
<g>
</g>
</svg>
