<?xml version="1.0" encoding="iso-8859-1"?>
<!-- Generator: Adobe Illustrator 19.0.0, SVG Export Plug-In . SVG Version: 6.00 Build 0)  -->
<svg version="1.1" id="Layer_1" xmlns="http://www.w3.org/2000/svg" xmlns:xlink="http://www.w3.org/1999/xlink" x="0px" y="0px"
	 viewBox="0 0 512 512" style="enable-background:new 0 0 512 512;" xml:space="preserve">
<path style="fill:#EAEAEA;" d="M17.655,450.207h476.69V132.414H17.655V450.207z M314.026,164.621c5-4.991,11.638-7.741,18.707-7.741
	h0.009c7.069,0.004,13.715,2.754,18.707,7.754l31.233,31.237c5,4.991,7.75,11.638,7.75,18.707c0.009,7.073-2.75,13.715-7.741,18.711
	L226.621,389.358l-68.664-68.664L314.026,164.621z M133.983,402.168l15.603-46.819c0.966-2.901,3.362-5.095,6.345-5.798
	c2.983-0.703,6.103,0.181,8.267,2.349l31.207,31.211c2.164,2.164,3.052,5.293,2.353,8.271c-0.707,2.974-2.897,5.375-5.802,6.345
	l-46.81,15.608c-0.914,0.306-1.862,0.453-2.793,0.453c-2.302,0-4.56-0.901-6.241-2.586
	C133.75,408.841,132.922,405.34,133.983,402.168z"/>
<polygon style="fill:#314E55;" points="161.819,374.487 156.31,391.004 172.828,385.496 "/>
<path style="fill:#E65F58;" d="M17.655,61.793v52.966h476.69V61.793H17.655z M44.138,105.931c-9.733,0-17.655-7.918-17.655-17.655
	s7.922-17.655,17.655-17.655s17.655,7.918,17.655,17.655S53.871,105.931,44.138,105.931z M88.276,105.931
	c-9.733,0-17.655-7.918-17.655-17.655s7.922-17.655,17.655-17.655s17.655,7.918,17.655,17.655S98.009,105.931,88.276,105.931z
	 M132.414,105.931c-9.733,0-17.655-7.918-17.655-17.655s7.922-17.655,17.655-17.655s17.655,7.918,17.655,17.655
	S142.147,105.931,132.414,105.931z"/>
<path style="fill:#E4AD40;" d="M370.207,220.802c1.664-1.66,2.569-3.866,2.569-6.22c0-2.353-0.914-4.565-2.578-6.224l-31.241-31.246
	c-1.664-1.664-3.871-2.578-6.224-2.578c-2.353,0-4.56,0.914-6.224,2.573L182.922,320.694l43.698,43.698L370.207,220.802z"/>
<g>
	<path style="fill:#314E55;" d="M0,44.138v70.621v17.655v335.448h512V132.414v-17.655V44.138H0z M494.345,450.207H17.655V132.414
		h476.69V450.207z M17.655,114.759V61.793h476.69v52.966H17.655z"/>
	<path style="fill:#314E55;" d="M44.138,70.621c-9.733,0-17.655,7.918-17.655,17.655s7.922,17.655,17.655,17.655
		s17.655-7.918,17.655-17.655S53.871,70.621,44.138,70.621z"/>
	<path style="fill:#314E55;" d="M88.276,70.621c-9.733,0-17.655,7.918-17.655,17.655s7.922,17.655,17.655,17.655
		s17.655-7.918,17.655-17.655S98.009,70.621,88.276,70.621z"/>
	<path style="fill:#314E55;" d="M132.414,70.621c-9.733,0-17.655,7.918-17.655,17.655s7.922,17.655,17.655,17.655
		s17.655-7.918,17.655-17.655S142.147,70.621,132.414,70.621z"/>
	<path style="fill:#314E55;" d="M382.69,233.289c4.991-4.996,7.75-11.638,7.741-18.711c0-7.069-2.75-13.715-7.75-18.707
		l-31.233-31.237c-4.991-5-11.638-7.75-18.707-7.754h-0.009c-7.069,0-13.707,2.75-18.707,7.741L157.957,320.694l68.664,68.664
		L382.69,233.289z M326.509,177.108c1.664-1.66,3.871-2.573,6.224-2.573c2.353,0,4.56,0.914,6.224,2.578l31.241,31.246
		c1.664,1.66,2.578,3.871,2.578,6.224c0,2.353-0.905,4.56-2.569,6.22L226.621,364.393l-43.698-43.698L326.509,177.108z"/>
	<path style="fill:#314E55;" d="M142.353,413.789c0.931,0,1.879-0.147,2.793-0.453l46.81-15.608c2.905-0.97,5.095-3.371,5.802-6.345
		c0.698-2.978-0.19-6.108-2.353-8.271l-31.207-31.211c-2.164-2.168-5.284-3.052-8.267-2.349c-2.983,0.702-5.379,2.897-6.345,5.798
		l-15.603,46.819c-1.06,3.172-0.233,6.672,2.129,9.035C137.793,412.888,140.052,413.789,142.353,413.789z M161.819,374.487
		l11.009,11.009l-16.517,5.509L161.819,374.487z"/>
</g>
<g>
</g>
<g>
</g>
<g>
</g>
<g>
</g>
<g>
</g>
<g>
</g>
<g>
</g>
<g>
</g>
<g>
</g>
<g>
</g>
<g>
</g>
<g>
</g>
<g>
</g>
<g>
</g>
<g>
</g>
</svg>
