<?xml version="1.0" encoding="iso-8859-1"?>
<!-- Generator: Adobe Illustrator 19.0.0, SVG Export Plug-In . SVG Version: 6.00 Build 0)  -->
<svg version="1.1" id="Layer_1" xmlns="http://www.w3.org/2000/svg" xmlns:xlink="http://www.w3.org/1999/xlink" x="0px" y="0px"
	 viewBox="0 0 512 512" style="enable-background:new 0 0 512 512;" xml:space="preserve">
<g>
	<path style="fill:#D8D8D8;" d="M449.113,396.075H62.887c-10.955,0-20.956-3.781-29.076-9.916v67.199
		c0,21.679,18.123,39.321,40.406,39.321h363.566c22.283,0,40.406-17.642,40.406-39.321V386.16
		C470.069,392.294,460.068,396.075,449.113,396.075z M391.434,454.038H120.755v-19.321h270.679V454.038z"/>
	<path style="fill:#D8D8D8;" d="M260.83,154.566c-29.292,0-53.132,23.84-53.132,53.132s23.84,53.132,53.132,53.132
		c29.292,0,53.132-23.84,53.132-53.132S290.123,154.566,260.83,154.566z"/>
</g>
<path style="fill:#EAEAEA;" d="M449.113,19.321H62.887c-16.028,0-29.076,12.962-29.076,28.887v260.925v38.736
	c0,15.924,13.047,28.887,29.076,28.887h386.227c16.028,0,29.075-12.962,29.075-28.887v-38.736V48.207
	C478.189,32.283,465.142,19.321,449.113,19.321z M260.83,280.151c-39.953,0-72.453-32.5-72.453-72.453s32.5-72.453,72.453-72.453
	s72.453,32.5,72.453,72.453S300.783,280.151,260.83,280.151z"/>
<g>
	<path style="fill:#314E55;" d="M449.113,0H62.887C36.198,0,14.491,21.623,14.491,48.207v260.925v38.736v105.491
		c0,32.34,26.793,58.641,59.726,58.641h363.566c32.934,0,59.726-26.302,59.726-58.641V347.868v-38.736V48.207
		C497.509,21.623,475.802,0,449.113,0z M437.783,492.679H74.217c-22.283,0-40.406-17.642-40.406-39.321V386.16
		c8.12,6.134,18.12,9.916,29.076,9.916h386.227c10.955,0,20.956-3.781,29.076-9.916v67.199
		C478.189,475.038,460.066,492.679,437.783,492.679z M478.189,347.868c0,15.924-13.047,28.887-29.076,28.887H62.887
		c-16.028,0-29.076-12.962-29.076-28.887v-38.736V48.207c0-15.924,13.047-28.887,29.076-28.887h386.227
		c16.028,0,29.075,12.962,29.075,28.887v260.925V347.868z"/>
	<path style="fill:#314E55;" d="M260.83,135.245c-39.953,0-72.453,32.5-72.453,72.453s32.5,72.453,72.453,72.453
		s72.453-32.5,72.453-72.453S300.783,135.245,260.83,135.245z M260.83,260.83c-29.292,0-53.132-23.84-53.132-53.132
		s23.84-53.132,53.132-53.132c29.292,0,53.132,23.84,53.132,53.132S290.123,260.83,260.83,260.83z"/>
	<rect x="120.755" y="434.717" style="fill:#314E55;" width="270.684" height="19.321"/>
</g>
<g>
</g>
<g>
</g>
<g>
</g>
<g>
</g>
<g>
</g>
<g>
</g>
<g>
</g>
<g>
</g>
<g>
</g>
<g>
</g>
<g>
</g>
<g>
</g>
<g>
</g>
<g>
</g>
<g>
</g>
</svg>
