<?xml version="1.0" encoding="iso-8859-1"?>
<!-- Generator: Adobe Illustrator 19.0.0, SVG Export Plug-In . SVG Version: 6.00 Build 0)  -->
<svg version="1.1" id="Layer_1" xmlns="http://www.w3.org/2000/svg" xmlns:xlink="http://www.w3.org/1999/xlink" x="0px" y="0px"
	 viewBox="0 0 512 512" style="enable-background:new 0 0 512 512;" xml:space="preserve">
<g>
	<circle style="fill:#5ECC66;" cx="360.973" cy="237.428" r="13.691"/>
	<circle style="fill:#5ECC66;" cx="269.697" cy="237.428" r="13.691"/>
</g>
<path style="fill:#81A4E3;" d="M383.412,123.284c-21.411,0-42.162,6.088-60.033,17.613l-9.003,5.812l-4.305-9.814
	c-16.276-37.117-53.125-61.094-93.887-61.094c-50.621,0-94.182,37.455-101.322,87.131l-1.132,7.826h-9.038
	c-47.661,0-86.436,38.498-86.436,85.821S57.03,342.4,104.691,342.4h42.251v64.098l57.056-64.098h181.295
	c59.739-0.927,108.452-50.077,108.452-109.558C493.745,172.434,444.247,123.284,383.412,123.284z M178.416,269.379
	c-17.613,0-31.947-14.333-31.947-31.947s14.333-31.947,31.947-31.947s31.947,14.333,31.947,31.947S196.029,269.379,178.416,269.379z
	 M269.691,269.379c-17.613,0-31.947-14.333-31.947-31.947s14.333-31.947,31.947-31.947s31.947,14.333,31.947,31.947
	S287.305,269.379,269.691,269.379z M360.967,269.379c-17.613,0-31.947-14.333-31.947-31.947s14.333-31.947,31.947-31.947
	c17.613,0,31.947,14.333,31.947,31.947S378.58,269.379,360.967,269.379z"/>
<circle style="fill:#5ECC66;" cx="178.421" cy="237.428" r="13.691"/>
<g>
	<path style="fill:#314E55;" d="M383.412,105.029c-21.491,0-42.42,5.277-61.13,15.34c-20.947-38.471-61.549-62.824-106.099-62.824
		c-57.021,0-106.447,40.397-118.044,95.162C43.454,156.078,0,201.377,0,256.579c0,57.386,46.966,104.076,104.691,104.076h23.995
		v93.798l83.494-93.798l173.255-0.018C455.22,359.577,512,302.244,512,232.842C512,162.362,454.32,105.029,383.412,105.029z
		 M385.293,342.4H203.998l-57.056,64.098V342.4h-42.251c-47.661,0-86.436-38.498-86.436-85.82s38.774-85.821,86.436-85.821h9.038
		l1.132-7.826c7.14-49.676,50.701-87.131,101.322-87.131c40.762,0,77.611,23.978,93.887,61.094l4.305,9.814l9.003-5.812
		c17.872-11.525,38.623-17.613,60.033-17.613c60.836,0,110.333,49.15,110.333,109.558
		C493.745,292.323,445.032,341.473,385.293,342.4z"/>
	<path style="fill:#314E55;" d="M178.416,205.486c-17.613,0-31.947,14.333-31.947,31.947s14.333,31.947,31.947,31.947
		s31.947-14.333,31.947-31.947S196.029,205.486,178.416,205.486z M178.416,251.124c-7.55,0-13.691-6.141-13.691-13.691
		c0-7.55,6.141-13.691,13.691-13.691s13.691,6.141,13.691,13.691C192.107,244.982,185.965,251.124,178.416,251.124z"/>
	<path style="fill:#314E55;" d="M269.691,205.486c-17.613,0-31.947,14.333-31.947,31.947s14.333,31.947,31.947,31.947
		s31.947-14.333,31.947-31.947S287.305,205.486,269.691,205.486z M269.691,251.124c-7.55,0-13.691-6.141-13.691-13.691
		c0-7.55,6.141-13.691,13.691-13.691c7.55,0,13.691,6.141,13.691,13.691C283.383,244.982,277.241,251.124,269.691,251.124z"/>
	<path style="fill:#314E55;" d="M360.967,205.486c-17.613,0-31.947,14.333-31.947,31.947s14.333,31.947,31.947,31.947
		c17.613,0,31.947-14.333,31.947-31.947S378.58,205.486,360.967,205.486z M360.967,251.124c-7.55,0-13.691-6.141-13.691-13.691
		c0-7.55,6.141-13.691,13.691-13.691s13.691,6.141,13.691,13.691C374.659,244.982,368.517,251.124,360.967,251.124z"/>
</g>
<g>
</g>
<g>
</g>
<g>
</g>
<g>
</g>
<g>
</g>
<g>
</g>
<g>
</g>
<g>
</g>
<g>
</g>
<g>
</g>
<g>
</g>
<g>
</g>
<g>
</g>
<g>
</g>
<g>
</g>
</svg>
