<?xml version="1.0" encoding="iso-8859-1"?>
<!-- Generator: Adobe Illustrator 19.0.0, SVG Export Plug-In . SVG Version: 6.00 Build 0)  -->
<svg version="1.1" id="Layer_1" xmlns="http://www.w3.org/2000/svg" xmlns:xlink="http://www.w3.org/1999/xlink" x="0px" y="0px"
	 viewBox="0 0 512 512" style="enable-background:new 0 0 512 512;" xml:space="preserve">
<g>
	<path style="fill:#73C9C9;" d="M57.194,199.111h125.704v-0.657l10.111,0.551c1.111,0.074,2.222,0.106,3.352,0.106
		c27.657,0,50.158-22.329,50.158-49.778s-22.5-49.778-50.158-49.778c-9.741,0-19.185,2.769-27.296,8.009l-9.361,6.042l-4.472-10.194
		c-7.343-16.741-23.972-27.56-42.37-27.56c-22.843,0-42.5,16.884-45.713,39.278l-1.204,8.343l-8.426-0.213
		c-21.407,0-38.555,17.014-38.555,37.926S36.111,199.111,57.194,199.111z"/>
	<path style="fill:#73C9C9;" d="M442.88,336.593c-9.741,0-19.185,2.769-27.296,8.009l-9.361,6.042l-4.472-10.194
		c-7.343-16.741-23.972-27.56-42.37-27.56c-22.843,0-42.5,16.884-45.713,39.278l-1.204,8.343l-8.426-0.213
		c-21.407,0-38.555,17.014-38.555,37.926s17.148,37.926,38.231,37.926h125.704v-0.657l10.111,0.551
		c1.111,0.074,2.222,0.106,3.352,0.106c27.658,0,50.158-22.329,50.158-49.778C493.037,358.921,470.537,336.593,442.88,336.593z"/>
</g>
<g>
	<path style="fill:#314E55;" d="M57.194,218.074H192.38l1.991-0.028c0.657,0.018,1.324,0.028,1.991,0.028
		c1.306,0,2.602-0.037,3.889-0.106l1.611-0.023v-0.088c35.546-2.796,63.62-32.463,63.62-68.523c0-37.903-31.009-68.741-69.12-68.741
		c-9.954,0-19.685,2.107-28.62,6.153c-11.852-18.412-32.435-29.856-54.88-29.856c-29.546,0-55.324,20.093-62.898,47.861
		C21.833,108.292,0,132.25,0,161.185C0,192.556,25.657,218.074,57.194,218.074z M57.518,123.259l8.426,0.213l1.204-8.343
		c3.213-22.394,22.871-39.278,45.713-39.278c18.398,0,35.028,10.82,42.37,27.56l4.472,10.194l9.361-6.042
		c8.111-5.241,17.556-8.009,27.296-8.009c27.657,0,50.158,22.329,50.158,49.778s-22.5,49.778-50.158,49.778
		c-1.13,0-2.241-0.032-3.352-0.106l-10.111-0.551v0.657H57.194c-21.083,0-38.231-17.014-38.231-37.926
		S36.111,123.259,57.518,123.259z"/>
	<path style="fill:#314E55;" d="M442.88,317.63c-9.954,0-19.685,2.107-28.62,6.153c-11.852-18.412-32.435-29.856-54.88-29.856
		c-29.546,0-55.324,20.093-62.898,47.861c-28.13,3.542-49.963,27.5-49.963,56.435c0,31.37,25.657,56.889,57.194,56.889h135.185
		l1.991-0.028c0.657,0.018,1.324,0.028,1.991,0.028c1.306,0,2.602-0.037,3.889-0.106l1.611-0.023v-0.088
		C483.926,452.097,512,422.431,512,386.37C512,348.468,480.991,317.63,442.88,317.63z M442.88,436.148
		c-1.13,0-2.241-0.033-3.352-0.106l-10.111-0.551v0.657H303.713c-21.083,0-38.231-17.014-38.231-37.926s17.148-37.926,38.555-37.926
		l8.426,0.213l1.204-8.343c3.213-22.394,22.871-39.278,45.713-39.278c18.398,0,35.028,10.82,42.37,27.56l4.472,10.194l9.361-6.042
		c8.111-5.241,17.555-8.009,27.296-8.009c27.658,0,50.158,22.328,50.158,49.778C493.037,413.82,470.537,436.148,442.88,436.148z"/>
	<path style="fill:#314E55;" d="M448.407,185.222c-3.704,3.704-3.704,9.704,0,13.407c1.852,1.852,4.278,2.778,6.704,2.778
		s4.852-0.926,6.704-2.778l40.222-40.227c3.704-3.704,3.704-9.704,0-13.407l-40.222-40.227c-3.704-3.704-9.704-3.704-13.407,0
		c-3.703,3.704-3.704,9.704,0,13.407l24.043,24.046H289.185v18.963h183.256L448.407,185.222z"/>
	<path style="fill:#314E55;" d="M63.593,364.695c3.704-3.704,3.704-9.704,0-13.407c-3.704-3.703-9.704-3.704-13.407,0L9.963,391.514
		c-3.704,3.704-3.704,9.704,0,13.407l40.222,40.227c1.852,1.852,4.278,2.778,6.704,2.778s4.852-0.926,6.704-2.778
		c3.704-3.704,3.704-9.704,0-13.407l-24.033-24.037h183.256v-18.963H39.55L63.593,364.695z"/>
</g>
<g>
</g>
<g>
</g>
<g>
</g>
<g>
</g>
<g>
</g>
<g>
</g>
<g>
</g>
<g>
</g>
<g>
</g>
<g>
</g>
<g>
</g>
<g>
</g>
<g>
</g>
<g>
</g>
<g>
</g>
</svg>
