<?xml version="1.0" encoding="iso-8859-1"?>
<!-- Generator: Adobe Illustrator 19.0.0, SVG Export Plug-In . SVG Version: 6.00 Build 0)  -->
<svg version="1.1" id="Layer_1" xmlns="http://www.w3.org/2000/svg" xmlns:xlink="http://www.w3.org/1999/xlink" x="0px" y="0px"
	 viewBox="0 0 512 512" style="enable-background:new 0 0 512 512;" xml:space="preserve">
<path style="fill:#E9E7D1;" d="M425.564,201.582l-5.927-2.408l0.492-6.381c0.175-2.262,0.265-4.55,0.265-6.859
	c0-48.294-39.288-87.582-87.582-87.582c-32.796,0-62.586,18.085-77.738,47.204l-3.31,6.355l-6.885-1.984
	c-9.301-2.681-18.979-4.041-28.755-4.041c-50.886,0-94.677,37.654-101.861,87.591l-1.09,7.595l-8.707-0.094
	c-47.943,0-86.949,38.732-86.949,86.337s39.006,86.333,86.949,86.333h279.142c61.136,0,110.876-49.393,110.876-110.106
	C494.484,258.617,467.431,218.594,425.564,201.582z M105.098,273.516c-28.977,0-52.549,23.572-52.549,52.549
	c0,4.837-3.921,8.758-8.758,8.758s-8.758-3.922-8.758-8.758c0-38.634,31.432-70.066,70.066-70.066c4.837,0,8.758,3.921,8.758,8.758
	C113.857,269.595,109.935,273.516,105.098,273.516z M306.537,299.607v79.008H245.23v-79.008
	c-16.336-10.417-26.275-28.34-26.275-47.986c0-31.389,25.539-56.928,56.928-56.928s56.928,25.539,56.928,56.928
	C332.812,271.267,322.873,289.19,306.537,299.607z"/>
<path style="fill:#E65F58;" d="M275.883,212.209c-21.733,0-39.412,17.679-39.412,39.412c0,14.882,8.241,28.336,21.502,35.123
	l4.773,2.438v71.917h26.275v-71.917l4.773-2.438c13.261-6.787,21.502-20.24,21.502-35.123
	C315.295,229.888,297.616,212.209,275.883,212.209z"/>
<g>
	<path style="fill:#314E55;" d="M437.893,187.846c0.013-0.637,0.017-1.274,0.017-1.911c0-57.95-47.148-105.098-105.098-105.098
		c-37.004,0-70.818,19.189-89.84,50.522c-8.771-1.984-17.773-2.989-26.848-2.989c-57.022,0-106.437,40.464-117.906,95.275
		C43.513,226.865,0,272.131,0,327.314c0,57.262,46.861,103.85,104.465,103.85h279.142c70.797,0,128.392-57.253,128.392-127.623
		C512,253.537,483.117,208.779,437.893,187.846z M383.608,413.648H104.465c-47.943,0-86.949-38.728-86.949-86.333
		s39.006-86.337,86.949-86.337l8.707,0.094l1.09-7.595c7.185-49.936,50.976-87.591,101.861-87.591c9.776,0,19.454,1.36,28.755,4.041
		l6.885,1.984l3.31-6.355c15.152-29.118,44.942-47.204,77.738-47.204c48.294,0,87.582,39.288,87.582,87.582
		c0,2.309-0.09,4.597-0.265,6.859l-0.492,6.381l5.927,2.408c41.867,17.012,68.92,57.035,68.92,101.96
		C494.484,364.254,444.744,413.648,383.608,413.648z"/>
	<path style="fill:#314E55;" d="M105.098,256c-38.634,0-70.066,31.432-70.066,70.066c0,4.837,3.921,8.758,8.758,8.758
		s8.758-3.922,8.758-8.758c0-28.977,23.572-52.549,52.549-52.549c4.837,0,8.758-3.921,8.758-8.758
		C113.857,259.921,109.935,256,105.098,256z"/>
	<path style="fill:#314E55;" d="M275.883,194.693c-31.389,0-56.928,25.539-56.928,56.928c0,19.646,9.939,37.569,26.275,47.986
		v79.008h61.307v-79.008c16.336-10.417,26.275-28.34,26.275-47.986C332.812,220.232,307.273,194.693,275.883,194.693z
		 M293.793,286.743l-4.773,2.438v71.917h-26.275v-71.917l-4.773-2.438c-13.261-6.787-21.502-20.24-21.502-35.123
		c0-21.733,17.679-39.412,39.412-39.412s39.412,17.679,39.412,39.412C315.295,266.503,307.055,279.957,293.793,286.743z"/>
</g>
<g>
</g>
<g>
</g>
<g>
</g>
<g>
</g>
<g>
</g>
<g>
</g>
<g>
</g>
<g>
</g>
<g>
</g>
<g>
</g>
<g>
</g>
<g>
</g>
<g>
</g>
<g>
</g>
<g>
</g>
</svg>
