<?xml version="1.0" encoding="iso-8859-1"?>
<!-- Generator: Adobe Illustrator 19.0.0, SVG Export Plug-In . SVG Version: 6.00 Build 0)  -->
<svg version="1.1" id="Layer_1" xmlns="http://www.w3.org/2000/svg" xmlns:xlink="http://www.w3.org/1999/xlink" x="0px" y="0px"
	 viewBox="0 0 512 512" style="enable-background:new 0 0 512 512;" xml:space="preserve">
<circle style="fill:#6CBCBD;" cx="315.429" cy="237.714" r="9.143"/>
<circle style="fill:#F28544;" cx="315.429" cy="301.714" r="9.143"/>
<g>
	<rect x="150.857" y="466.286" style="fill:#E9E7D1;" width="210.286" height="27.429"/>
	<path style="fill:#E9E7D1;" d="M150.857,18.286V448h210.286V18.286H150.857z M173.714,45.714h164.857V64H173.714V45.714z
		 M342.857,237.714c0,15.125-12.304,27.429-27.429,27.429S288,252.839,288,237.714s12.304-27.429,27.429-27.429
		S342.857,222.589,342.857,237.714z M173.714,91.429h164.857v18.286H173.714V91.429z M315.429,329.143
		c-15.125,0-27.429-12.304-27.429-27.429s12.304-27.429,27.429-27.429s27.429,12.304,27.429,27.429S330.554,329.143,315.429,329.143
		z"/>
</g>
<g>
	<path style="fill:#314E55;" d="M132.571,0v448v18.286V512h246.857v-45.714V448V0H132.571z M361.143,493.714H150.857v-27.429
		h210.286V493.714z M150.857,448V18.286h210.286V448H150.857z"/>
	<path style="fill:#314E55;" d="M315.429,210.286c-15.125,0-27.429,12.304-27.429,27.429s12.304,27.429,27.429,27.429
		s27.429-12.304,27.429-27.429S330.554,210.286,315.429,210.286z M315.429,246.857c-5.04,0-9.143-4.103-9.143-9.143
		c0-5.04,4.103-9.143,9.143-9.143s9.143,4.103,9.143,9.143C324.571,242.755,320.469,246.857,315.429,246.857z"/>
	<path style="fill:#314E55;" d="M315.429,274.286c-15.125,0-27.429,12.304-27.429,27.429s12.304,27.429,27.429,27.429
		s27.429-12.304,27.429-27.429S330.554,274.286,315.429,274.286z M315.429,310.857c-5.04,0-9.143-4.103-9.143-9.143
		s4.103-9.143,9.143-9.143s9.143,4.103,9.143,9.143S320.469,310.857,315.429,310.857z"/>
	<rect x="173.714" y="45.714" style="fill:#314E55;" width="164.846" height="18.286"/>
	<rect x="173.714" y="91.429" style="fill:#314E55;" width="164.846" height="18.286"/>
</g>
<g>
</g>
<g>
</g>
<g>
</g>
<g>
</g>
<g>
</g>
<g>
</g>
<g>
</g>
<g>
</g>
<g>
</g>
<g>
</g>
<g>
</g>
<g>
</g>
<g>
</g>
<g>
</g>
<g>
</g>
</svg>
