<?xml version="1.0" encoding="iso-8859-1"?>
<!-- Generator: Adobe Illustrator 19.0.0, SVG Export Plug-In . SVG Version: 6.00 Build 0)  -->
<svg version="1.1" id="Layer_1" xmlns="http://www.w3.org/2000/svg" xmlns:xlink="http://www.w3.org/1999/xlink" x="0px" y="0px"
	 viewBox="0 0 512 512" style="enable-background:new 0 0 512 512;" xml:space="preserve">
<rect x="179.594" y="150.812" style="fill:#73C9C9;" width="195.53" height="97.765"/>
<polygon style="fill:#EAEAEA;" points="176.444,268.13 164.711,297.459 390.018,297.459 378.285,268.13 "/>
<g>
	<path style="fill:#81A4E3;" d="M137.448,365.121c8.04,14.967,12.822,34.119,12.822,55.27c0,15.054-2.432,29.09-6.722,41.337
		c10.279-12.218,16.498-27.957,16.498-45.137C160.047,396.253,151.307,377.962,137.448,365.121z"/>
	<path style="fill:#81A4E3;" d="M33.707,420.391c0-24.476,6.381-46.301,16.835-62.027c-18.683,12.639-30.989,34.023-30.989,58.227
		c0,20.913,9.237,39.664,23.787,52.542C37.242,455.288,33.707,438.577,33.707,420.391z"/>
	<path style="fill:#81A4E3;" d="M83.176,486.355V354.427c-16.909,7.215-29.917,34.461-29.917,65.964S66.267,479.14,83.176,486.355z"
		/>
	<path style="fill:#81A4E3;" d="M102.729,355.319v130.143c15.961-8.396,27.988-34.774,27.988-65.072
		C130.717,390.093,118.69,363.715,102.729,355.319z"/>
</g>
<g>
	<path style="fill:#314E55;" d="M394.682,256.468V141.036c0-5.404-4.377-9.776-9.776-9.776H169.823
		c-5.399,0-9.776,4.373-9.776,9.776v115.432l-18.856,47.14c-1.203,3.007-0.835,6.425,0.983,9.108s4.85,4.296,8.096,4.296h254.188
		c3.246,0,6.277-1.614,8.096-4.296s2.186-6.101,0.983-9.108L394.682,256.468z M179.6,150.812h195.53v97.765H179.6L179.6,150.812
		L179.6,150.812z M164.711,297.459l11.734-29.329h201.84l11.734,29.329H164.711z"/>
	<path style="fill:#314E55;" d="M360.465,62.824c-5.399,0-9.776,4.373-9.776,9.776s4.377,9.776,9.776,9.776
		c40.433,0,73.324,32.891,73.324,73.324c0,5.404,4.377,9.776,9.776,9.776s9.776-4.373,9.776-9.776
		C453.341,104.489,411.676,62.824,360.465,62.824z"/>
	<path style="fill:#314E55;" d="M360.465,4.165c-5.399,0-9.776,4.373-9.776,9.776s4.377,9.776,9.776,9.776
		c72.775,0,131.982,59.203,131.982,131.982c0,5.404,4.377,9.776,9.776,9.776c5.399,0,9.776-4.373,9.776-9.776
		C512,72.142,444.023,4.165,360.465,4.165z"/>
	<path style="fill:#314E55;" d="M94.011,327.002c-0.365-0.041-0.683-0.214-1.058-0.214c-0.224,0-0.412,0.113-0.633,0.128
		c-0.844-0.024-1.668-0.128-2.517-0.128C40.285,326.789,0,367.079,0,416.591c0,45.844,34.558,83.706,78.981,89.075
		c4.176,1.379,8.516,2.168,13.007,2.168c5.611,0,10.992-1.207,16.092-3.331c40.777-8.467,71.519-44.662,71.519-87.913
		C179.6,368.499,141.564,329.223,94.011,327.002z M83.176,354.427v131.929c-16.909-7.215-29.917-34.461-29.917-65.964
		S66.267,361.641,83.176,354.427z M102.729,485.463V355.319c15.961,8.396,27.988,34.774,27.988,65.072
		S118.69,477.067,102.729,485.463z M19.553,416.591c0-24.204,12.306-45.588,30.989-58.227
		c-10.454,15.726-16.835,37.55-16.835,62.027c0,18.186,3.535,34.897,9.633,48.742C28.79,456.255,19.553,437.504,19.553,416.591z
		 M143.549,461.728c4.29-12.247,6.722-26.283,6.722-41.337c0-21.151-4.782-40.302-12.822-55.27
		c13.859,12.841,22.599,31.132,22.599,51.47C160.047,433.771,153.827,449.51,143.549,461.728z"/>
</g>
<g>
</g>
<g>
</g>
<g>
</g>
<g>
</g>
<g>
</g>
<g>
</g>
<g>
</g>
<g>
</g>
<g>
</g>
<g>
</g>
<g>
</g>
<g>
</g>
<g>
</g>
<g>
</g>
<g>
</g>
</svg>
