<?xml version="1.0" encoding="iso-8859-1"?>
<!-- Generator: Adobe Illustrator 19.0.0, SVG Export Plug-In . SVG Version: 6.00 Build 0)  -->
<svg version="1.1" id="Layer_1" xmlns="http://www.w3.org/2000/svg" xmlns:xlink="http://www.w3.org/1999/xlink" x="0px" y="0px"
	 viewBox="0 0 512 512" style="enable-background:new 0 0 512 512;" xml:space="preserve">
<path style="fill:#D8D8D8;" d="M352,86.857c0-17.935-6.976-34.232-18.286-46.464v88.116h-18.286V26.254
	c-8.285-4.393-17.579-7.083-27.429-7.737V128h-18.286V18.286h-27.429V128H224V18.517c-9.85,0.653-19.143,3.344-27.429,7.737v102.255
	h-18.286V40.393C166.976,52.625,160,68.922,160,86.857v68.571h192V86.857z"/>
<path style="fill:#E65F58;" d="M256,365.714c52.933,0,96-43.062,96-96v-96H160v96C160,322.652,203.067,365.714,256,365.714z"/>
<g>
	<path style="fill:#314E55;" d="M256,384c63.018,0,114.286-51.268,114.286-114.286V164.571V86.857
		c0-46.353-36.523-84.231-82.286-86.626V0h-4.563h-13.723h-27.429h-13.723H224v0.231c-45.762,2.395-82.286,40.273-82.286,86.626
		v77.714v105.143C141.714,332.732,192.982,384,256,384z M160,86.857c0-17.935,6.976-34.232,18.286-46.464v88.116h18.286V26.254
		c8.285-4.393,17.579-7.083,27.429-7.737V128h18.286V18.286h27.429V128H288V18.517c9.85,0.653,19.143,3.344,27.429,7.737v102.255
		h18.286V40.393C345.024,52.625,352,68.922,352,86.857v68.571H160V86.857z M160,173.714h192v96c0,52.938-43.067,96-96,96
		s-96-43.062-96-96V173.714z"/>
	<path style="fill:#314E55;" d="M420.571,272c0-5.053-4.094-9.143-9.143-9.143s-9.143,4.089-9.143,9.143
		c0,80.661-65.625,146.286-146.286,146.286S109.714,352.661,109.714,272c0-5.053-4.094-9.143-9.143-9.143s-9.143,4.089-9.143,9.143
		c0,79.79,57.098,146.453,132.571,161.394V512h18.286v-76.124c4.533,0.377,9.085,0.695,13.714,0.695
		c4.629,0,9.181-0.319,13.714-0.695V512H288v-78.606C363.473,418.453,420.571,351.79,420.571,272z"/>
</g>
<g>
</g>
<g>
</g>
<g>
</g>
<g>
</g>
<g>
</g>
<g>
</g>
<g>
</g>
<g>
</g>
<g>
</g>
<g>
</g>
<g>
</g>
<g>
</g>
<g>
</g>
<g>
</g>
<g>
</g>
</svg>
