<?xml version="1.0" encoding="iso-8859-1"?>
<!-- Generator: Adobe Illustrator 19.0.0, SVG Export Plug-In . SVG Version: 6.00 Build 0)  -->
<svg version="1.1" id="Layer_1" xmlns="http://www.w3.org/2000/svg" xmlns:xlink="http://www.w3.org/1999/xlink" x="0px" y="0px"
	 viewBox="0 0 512 512" style="enable-background:new 0 0 512 512;" xml:space="preserve">
<rect x="243.097" y="395.702" style="fill:#D8D8D8;" width="25.807" height="43.011"/>
<path style="fill:#F58CAC;" d="M256,335.487c54.549,0,98.926-44.38,98.926-98.934V116.138c0-54.554-44.376-98.934-98.926-98.934
	s-98.926,44.38-98.926,98.934v120.414C157.075,291.106,201.451,335.487,256,335.487z M208.688,94.624h95.015
	c4.751,0,8.602,3.848,8.602,8.602c0,4.755-3.852,8.602-8.602,8.602h-95.015c-4.751,0-8.602-3.848-8.602-8.602
	C200.086,98.472,203.937,94.624,208.688,94.624z M208.688,146.238h95.015c4.751,0,8.602,3.848,8.602,8.602
	c0,4.755-3.852,8.602-8.602,8.602h-95.015c-4.751,0-8.602-3.848-8.602-8.602C200.086,150.085,203.937,146.238,208.688,146.238z
	 M208.688,197.851h95.015c4.751,0,8.602,3.848,8.602,8.602c0,4.755-3.852,8.602-8.602,8.602h-95.015
	c-4.751,0-8.602-3.848-8.602-8.602C200.086,201.699,203.937,197.851,208.688,197.851z M208.688,249.464h95.015
	c4.751,0,8.602,3.848,8.602,8.602s-3.852,8.602-8.602,8.602h-95.015c-4.751,0-8.602-3.848-8.602-8.602
	S203.937,249.464,208.688,249.464z"/>
<g>
	<path style="fill:#314E55;" d="M256,352.691c64.034,0,116.13-52.101,116.13-116.138V116.138C372.13,52.101,320.034,0,256,0
		S139.87,52.101,139.87,116.138v120.414C139.87,300.59,191.966,352.691,256,352.691z M157.075,116.138
		c0-54.554,44.376-98.934,98.926-98.934s98.926,44.38,98.926,98.934v120.414c0,54.554-44.376,98.934-98.926,98.934
		s-98.926-44.38-98.926-98.934V116.138z"/>
	<path style="fill:#314E55;" d="M286.108,390.562c71.01-14.058,124.732-76.779,124.732-151.85c0-4.755-3.852-8.602-8.602-8.602
		s-8.602,3.848-8.602,8.602c0,75.891-61.744,137.636-137.635,137.636s-137.636-61.744-137.636-137.636
		c0-4.755-3.852-8.602-8.602-8.602c-4.751,0-8.602,3.848-8.602,8.602c0,75.072,53.722,137.792,124.732,151.85v56.753
		c0,1.452,0.451,2.757,1.085,3.956l-46.041,46.044c-3.36,3.36-3.36,8.804,0,12.164c1.68,1.68,3.881,2.52,6.082,2.52
		s4.402-0.84,6.082-2.52l53.558-53.562h18.683L318.9,509.48c1.68,1.68,3.881,2.52,6.082,2.52s4.402-0.84,6.082-2.52
		c3.36-3.36,3.36-8.804,0-12.164l-46.041-46.044c0.635-1.199,1.085-2.504,1.085-3.956V390.562z M268.903,438.713h-25.807v-43.011
		h25.807V438.713z"/>
	<path style="fill:#314E55;" d="M208.688,111.829h95.015c4.751,0,8.602-3.848,8.602-8.602c0-4.755-3.852-8.602-8.602-8.602h-95.015
		c-4.751,0-8.602,3.848-8.602,8.602C200.086,107.981,203.937,111.829,208.688,111.829z"/>
	<path style="fill:#314E55;" d="M208.688,163.442h95.015c4.751,0,8.602-3.848,8.602-8.602c0-4.755-3.852-8.602-8.602-8.602h-95.015
		c-4.751,0-8.602,3.848-8.602,8.602C200.086,159.595,203.937,163.442,208.688,163.442z"/>
	<path style="fill:#314E55;" d="M208.688,215.055h95.015c4.751,0,8.602-3.848,8.602-8.602c0-4.755-3.852-8.602-8.602-8.602h-95.015
		c-4.751,0-8.602,3.848-8.602,8.602C200.086,211.208,203.937,215.055,208.688,215.055z"/>
	<path style="fill:#314E55;" d="M208.688,266.669h95.015c4.751,0,8.602-3.848,8.602-8.602s-3.852-8.602-8.602-8.602h-95.015
		c-4.751,0-8.602,3.848-8.602,8.602S203.937,266.669,208.688,266.669z"/>
</g>
<g>
</g>
<g>
</g>
<g>
</g>
<g>
</g>
<g>
</g>
<g>
</g>
<g>
</g>
<g>
</g>
<g>
</g>
<g>
</g>
<g>
</g>
<g>
</g>
<g>
</g>
<g>
</g>
<g>
</g>
</svg>
