<?xml version="1.0" encoding="iso-8859-1"?>
<!-- Generator: Adobe Illustrator 19.0.0, SVG Export Plug-In . SVG Version: 6.00 Build 0)  -->
<svg version="1.1" id="Layer_1" xmlns="http://www.w3.org/2000/svg" xmlns:xlink="http://www.w3.org/1999/xlink" x="0px" y="0px"
	 viewBox="0 0 512 512" style="enable-background:new 0 0 512 512;" xml:space="preserve">
<path style="fill:#EAEAEA;" d="M18.963,393.481h189.63h94.815h189.63v-56.889H18.963V393.481z M256,346.074
	c10.458,0,18.963,8.509,18.963,18.963c0,10.454-8.505,18.963-18.963,18.963s-18.963-8.509-18.963-18.963
	C237.037,354.583,245.542,346.074,256,346.074z"/>
<g>
	<path style="fill:#E4AD40;" d="M256,141.446c-11.729,12.685-18.963,29.585-18.963,48.184s7.234,35.499,18.963,48.184
		c11.729-12.685,18.963-29.585,18.963-48.184S267.729,154.13,256,141.446z"/>
	<path style="fill:#E4AD40;" d="M218.074,189.63c0-23.19,8.885-44.292,23.333-60.274c-10.914-6.825-23.76-10.837-37.555-10.837
		c-39.213,0-71.111,31.898-71.111,71.111s31.898,71.111,71.111,71.111c13.795,0,26.641-4.012,37.555-10.837
		C226.959,233.921,218.074,212.82,218.074,189.63z"/>
</g>
<polygon style="fill:#EAEAEA;" points="194.528,459.852 317.472,459.852 297.157,412.444 214.843,412.444 "/>
<g>
	<path style="fill:#E4AD40;" d="M483.491,52.148H28.509c-5.264,0-9.546,4.213-9.546,9.398V317.63h474.074V61.546
		C493.037,56.361,488.755,52.148,483.491,52.148z M308.148,279.704c-19.44,0-37.413-6.254-52.148-16.768
		c-14.736,10.514-32.708,16.768-52.148,16.768c-49.667,0-90.074-40.407-90.074-90.074s40.407-90.074,90.074-90.074
		c19.44,0,37.413,6.254,52.148,16.768c14.736-10.514,32.708-16.768,52.148-16.768c49.667,0,90.074,40.407,90.074,90.074
		S357.815,279.704,308.148,279.704z"/>
	<path style="fill:#E4AD40;" d="M308.148,118.519c-13.795,0-26.641,4.012-37.555,10.837c14.448,15.983,23.333,37.084,23.333,60.274
		s-8.885,44.292-23.333,60.274c10.914,6.825,23.76,10.837,37.555,10.837c39.213,0,71.111-31.898,71.111-71.111
		S347.361,118.519,308.148,118.519z"/>
</g>
<g>
	<path style="fill:#314E55;" d="M483.491,33.185H28.509C12.787,33.185,0,45.907,0,61.546V317.63v18.963v75.852h194.217
		l-22.782,53.157c-1.259,2.926-0.958,6.287,0.796,8.954c1.755,2.657,4.731,4.259,7.917,4.259h151.704
		c3.185,0,6.162-1.602,7.917-4.259c1.755-2.667,2.056-6.028,0.796-8.954l-22.782-53.157H512v-75.852V317.63V61.546
		C512,45.907,499.213,33.185,483.491,33.185z M317.472,459.852H194.528l20.315-47.407h82.315L317.472,459.852z M493.037,393.481
		h-189.63h-94.815H18.963v-56.889h474.074V393.481z M18.963,317.63V61.546c0-5.185,4.282-9.398,9.546-9.398h454.981
		c5.264,0,9.546,4.213,9.546,9.398V317.63H18.963z"/>
	<path style="fill:#314E55;" d="M256,384c10.458,0,18.963-8.509,18.963-18.963c0-10.454-8.505-18.963-18.963-18.963
		s-18.963,8.509-18.963,18.963C237.037,375.491,245.542,384,256,384z"/>
	<path style="fill:#314E55;" d="M308.148,99.556c-19.44,0-37.413,6.254-52.148,16.768c-14.736-10.514-32.708-16.768-52.148-16.768
		c-49.667,0-90.074,40.407-90.074,90.074s40.407,90.074,90.074,90.074c19.44,0,37.413-6.254,52.148-16.768
		c14.736,10.514,32.708,16.768,52.148,16.768c49.667,0,90.074-40.407,90.074-90.074S357.815,99.556,308.148,99.556z M256,237.814
		c-11.729-12.685-18.963-29.585-18.963-48.184s7.234-35.499,18.963-48.184c11.729,12.685,18.963,29.585,18.963,48.184
		S267.729,225.129,256,237.814z M132.741,189.63c0-39.213,31.898-71.111,71.111-71.111c13.795,0,26.641,4.012,37.555,10.837
		c-14.448,15.983-23.333,37.084-23.333,60.274s8.885,44.292,23.333,60.274c-10.914,6.825-23.76,10.837-37.555,10.837
		C164.639,260.741,132.741,228.843,132.741,189.63z M308.148,260.741c-13.795,0-26.641-4.012-37.555-10.837
		c14.448-15.983,23.333-37.084,23.333-60.274s-8.885-44.292-23.333-60.274c10.914-6.825,23.76-10.837,37.555-10.837
		c39.213,0,71.111,31.898,71.111,71.111S347.361,260.741,308.148,260.741z"/>
</g>
<g>
</g>
<g>
</g>
<g>
</g>
<g>
</g>
<g>
</g>
<g>
</g>
<g>
</g>
<g>
</g>
<g>
</g>
<g>
</g>
<g>
</g>
<g>
</g>
<g>
</g>
<g>
</g>
<g>
</g>
</svg>
