<?xml version="1.0" encoding="iso-8859-1"?>
<!-- Generator: Adobe Illustrator 19.0.0, SVG Export Plug-In . SVG Version: 6.00 Build 0)  -->
<svg version="1.1" id="Layer_1" xmlns="http://www.w3.org/2000/svg" xmlns:xlink="http://www.w3.org/1999/xlink" x="0px" y="0px"
	 viewBox="0 0 512 512" style="enable-background:new 0 0 512 512;" xml:space="preserve">
<polygon style="fill:#EAEAEA;" points="194.528,459.852 317.472,459.852 297.157,412.444 214.843,412.444 "/>
<rect x="189.63" y="109.037" style="fill:#81A4E3;" width="132.741" height="151.704"/>
<path style="fill:#EAEAEA;" d="M18.963,393.481h189.63h94.815h189.63v-56.889H18.963V393.481z M256,346.074
	c10.454,0,18.963,8.509,18.963,18.963c0,10.454-8.509,18.963-18.963,18.963c-10.454,0-18.963-8.509-18.963-18.963
	C237.037,354.583,245.546,346.074,256,346.074z"/>
<path style="fill:#81A4E3;" d="M483.491,52.148H28.509c-5.268,0-9.546,4.213-9.546,9.398V317.63h474.074V61.546
	C493.037,56.361,488.759,52.148,483.491,52.148z M161.185,279.704h-28.444v-18.963h28.444V279.704z M161.185,251.259h-28.444
	v-18.963h28.444V251.259z M161.185,222.815h-28.444v-18.963h28.444V222.815z M161.185,194.37h-28.444v-18.963h28.444V194.37z
	 M161.185,165.926h-28.444v-18.963h28.444V165.926z M161.185,137.481h-28.444v-18.963h28.444V137.481z M161.185,109.037h-28.444
	V90.074h28.444V109.037z M341.333,279.704H170.667V90.074h170.667V279.704z M379.259,279.704h-28.444v-18.963h28.444V279.704z
	 M379.259,251.259h-28.444v-18.963h28.444V251.259z M379.259,222.815h-28.444v-18.963h28.444V222.815z M379.259,194.37h-28.444
	v-18.963h28.444V194.37z M379.259,165.926h-28.444v-18.963h28.444V165.926z M379.259,137.481h-28.444v-18.963h28.444V137.481z
	 M379.259,109.037h-28.444V90.074h28.444V109.037z"/>
<g>
	<path style="fill:#314E55;" d="M483.491,33.185H28.509C12.787,33.185,0,45.907,0,61.546V317.63v18.963v75.852h194.217
		l-22.782,53.157c-1.259,2.926-0.954,6.287,0.796,8.954c1.759,2.657,4.731,4.259,7.917,4.259h151.704
		c3.185,0,6.158-1.602,7.917-4.259c1.75-2.667,2.056-6.028,0.796-8.954l-22.782-53.157H512v-75.852V317.63V61.546
		C512,45.907,499.213,33.185,483.491,33.185z M317.472,459.852H194.528l20.315-47.407h82.315L317.472,459.852z M493.037,393.481
		h-189.63h-94.815H18.963v-56.889h474.074V393.481z M18.963,317.63V61.546c0-5.185,4.278-9.398,9.546-9.398h454.981
		c5.269,0,9.546,4.213,9.546,9.398V317.63H18.963z"/>
	<path style="fill:#314E55;" d="M256,384c10.454,0,18.963-8.509,18.963-18.963c0-10.454-8.509-18.963-18.963-18.963
		c-10.454,0-18.963,8.509-18.963,18.963C237.037,375.491,245.546,384,256,384z"/>
	<path style="fill:#314E55;" d="M170.667,279.704h170.667V90.074H170.667V279.704z M189.63,109.037H322.37v151.704H189.63V109.037z"
		/>
	<rect x="350.815" y="90.074" style="fill:#314E55;" width="28.444" height="18.963"/>
	<rect x="132.741" y="90.074" style="fill:#314E55;" width="28.444" height="18.963"/>
	<rect x="350.815" y="118.519" style="fill:#314E55;" width="28.444" height="18.963"/>
	<rect x="132.741" y="118.519" style="fill:#314E55;" width="28.444" height="18.963"/>
	<rect x="350.815" y="146.963" style="fill:#314E55;" width="28.444" height="18.963"/>
	<rect x="132.741" y="146.963" style="fill:#314E55;" width="28.444" height="18.963"/>
	<rect x="350.815" y="175.407" style="fill:#314E55;" width="28.444" height="18.963"/>
	<rect x="132.741" y="175.407" style="fill:#314E55;" width="28.444" height="18.963"/>
	<rect x="350.815" y="203.852" style="fill:#314E55;" width="28.444" height="18.963"/>
	<rect x="132.741" y="203.852" style="fill:#314E55;" width="28.444" height="18.963"/>
	<rect x="350.815" y="232.296" style="fill:#314E55;" width="28.444" height="18.963"/>
	<rect x="132.741" y="232.296" style="fill:#314E55;" width="28.444" height="18.963"/>
	<rect x="350.815" y="260.741" style="fill:#314E55;" width="28.444" height="18.963"/>
	<rect x="132.741" y="260.741" style="fill:#314E55;" width="28.444" height="18.963"/>
</g>
<g>
</g>
<g>
</g>
<g>
</g>
<g>
</g>
<g>
</g>
<g>
</g>
<g>
</g>
<g>
</g>
<g>
</g>
<g>
</g>
<g>
</g>
<g>
</g>
<g>
</g>
<g>
</g>
<g>
</g>
</svg>
