<?xml version="1.0" encoding="iso-8859-1"?>
<!-- Generator: Adobe Illustrator 19.0.0, SVG Export Plug-In . SVG Version: 6.00 Build 0)  -->
<svg version="1.1" id="Layer_1" xmlns="http://www.w3.org/2000/svg" xmlns:xlink="http://www.w3.org/1999/xlink" x="0px" y="0px"
	 viewBox="0 0 512 512" style="enable-background:new 0 0 512 512;" xml:space="preserve">
<g>
	<polygon style="fill:#EAEAEA;" points="194.528,459.852 317.472,459.852 297.157,412.444 214.843,412.444 	"/>
	<path style="fill:#EAEAEA;" d="M18.963,393.481h189.63h94.815h189.63v-56.889H18.963V393.481z M256,346.074
		c10.454,0,18.963,8.509,18.963,18.963c0,10.454-8.509,18.963-18.963,18.963c-10.454,0-18.963-8.509-18.963-18.963
		C237.037,354.583,245.546,346.074,256,346.074z"/>
</g>
<path style="fill:#5ECC66;" d="M483.491,52.148H28.509c-5.268,0-9.546,4.213-9.546,9.398V317.63h474.074V61.546
	C493.037,56.361,488.759,52.148,483.491,52.148z M461.676,176.37c-19.167-3.157-49-3.259-55.065,4.805
	c-2.926,3.889-6.667,11.38-10.62,19.305c-12.657,25.361-30.074,60.037-57.778,52.278c-26.611-7.491-20.611-35.602-15.324-60.407
	c2.759-12.907,5.611-26.259,5.611-39.093c0-9.509-2.528-16.176-6.435-16.991c-6.611-1.481-21.769,9.028-33.361,35.704
	c-16.75,38.5-36.556,38.861-44.343,37.287c-16.343-3.398-26.491-22.861-26.491-50.778c0-41.278-20.324-73.611-46.259-73.611
	c-3.731,4.352-0.805,32.537,1.333,53.111c4.491,43.195,10.074,96.944-8.991,136.695c-5.426,11.324-14.046,26.019-27.056,26.019
	c-0.685,0-1.38-0.046-2.093-0.13c-19.426-2.306-27.75-34.583-38.25-83.565c-2.602-12.176-5.074-23.685-7.093-29.259
	c-1.981-5.454-4.833-7.074-6.815-7.824c-7.37-2.843-19.546,1.602-24.296,4.185c-4.602,2.5-10.37,0.787-12.852-3.815
	c-2.5-4.602-0.787-10.352,3.815-12.852c2.259-1.231,22.676-11.861,40.065-5.25c8.324,3.157,14.519,9.759,17.898,19.074
	c2.472,6.806,4.954,18.38,7.824,31.778c4.046,18.87,13.38,62.463,21.75,68.435c1.278-0.898,4.805-4.157,10.009-15
	c16.741-34.917,11.463-85.713,7.222-126.528c-3.574-34.425-5.935-57.166,3.935-68.12c3.491-3.87,8.185-5.917,13.593-5.917
	c37.185,0,65.222,39.796,65.222,92.574c0,21.741,6.991,31.296,11.389,32.213c5.343,1.12,14.583-6.713,23.093-26.278
	c14.065-32.361,35.556-50.722,54.611-46.713c13.481,2.806,21.537,16.093,21.537,35.556c0,14.833-3.204,29.824-6.028,43.056
	c-5.778,27.083-6.268,35.889,1.907,38.185c12.861,3.648,26.537-24.139,35.685-42.491c4.537-9.102,8.463-16.963,12.435-22.241
	c15.472-20.546,63.787-13.676,73.315-12.102c5.167,0.852,8.648,5.741,7.796,10.898C471.713,173.741,466.741,177.287,461.676,176.37z
	"/>
<g>
	<path style="fill:#314E55;" d="M483.491,33.185H28.509C12.787,33.185,0,45.907,0,61.546V317.63v18.963v75.852h194.217
		l-22.782,53.157c-1.259,2.926-0.954,6.287,0.796,8.954c1.759,2.657,4.731,4.259,7.917,4.259h151.704
		c3.185,0,6.158-1.602,7.917-4.259c1.75-2.667,2.056-6.028,0.796-8.954l-22.782-53.157H512v-75.852V317.63V61.546
		C512,45.907,499.213,33.185,483.491,33.185z M317.472,459.852H194.528l20.315-47.407h82.315L317.472,459.852z M493.037,393.481
		h-189.63h-94.815H18.963v-56.889h474.074V393.481z M18.963,317.63V61.546c0-5.185,4.278-9.398,9.546-9.398h454.981
		c5.269,0,9.546,4.213,9.546,9.398V317.63H18.963z"/>
	<path style="fill:#314E55;" d="M256,384c10.454,0,18.963-8.509,18.963-18.963c0-10.454-8.509-18.963-18.963-18.963
		c-10.454,0-18.963,8.509-18.963,18.963C237.037,375.491,245.546,384,256,384z"/>
	<path style="fill:#314E55;" d="M464.778,157.667c-9.528-1.574-57.842-8.444-73.315,12.102c-3.972,5.278-7.898,13.139-12.435,22.241
		c-9.148,18.352-22.824,46.139-35.685,42.491c-8.176-2.296-7.685-11.102-1.907-38.185c2.824-13.231,6.028-28.222,6.028-43.056
		c0-19.463-8.055-32.75-21.537-35.556c-19.056-4.009-40.546,14.352-54.611,46.713c-8.509,19.565-17.75,27.398-23.093,26.278
		c-4.398-0.917-11.389-10.472-11.389-32.213c0-52.778-28.037-92.574-65.222-92.574c-5.407,0-10.102,2.046-13.593,5.917
		c-9.87,10.954-7.509,33.694-3.935,68.12c4.241,40.815,9.518,91.611-7.222,126.528c-5.204,10.843-8.732,14.102-10.009,15
		c-8.37-5.972-17.704-49.565-21.75-68.435c-2.87-13.398-5.352-24.972-7.824-31.778c-3.38-9.315-9.574-15.917-17.898-19.074
		c-17.389-6.611-37.806,4.018-40.065,5.25c-4.602,2.5-6.315,8.25-3.815,12.852c2.482,4.602,8.25,6.315,12.852,3.815
		c4.75-2.583,16.926-7.028,24.296-4.185c1.981,0.75,4.833,2.37,6.815,7.824c2.019,5.574,4.491,17.083,7.093,29.259
		c10.5,48.982,18.824,81.259,38.25,83.565c0.713,0.083,1.408,0.13,2.093,0.13c13.009,0,21.63-14.694,27.056-26.019
		c19.065-39.75,13.481-93.5,8.991-136.695c-2.139-20.574-5.065-48.759-1.333-53.111c25.935,0,46.259,32.333,46.259,73.611
		c0,27.917,10.148,47.38,26.491,50.778c7.787,1.574,27.593,1.213,44.343-37.287c11.593-26.676,26.75-37.185,33.361-35.704
		c3.907,0.815,6.435,7.481,6.435,16.991c0,12.833-2.852,26.185-5.611,39.093c-5.287,24.805-11.287,52.917,15.324,60.407
		c27.704,7.759,45.12-26.917,57.778-52.278c3.954-7.926,7.694-15.417,10.62-19.305c6.065-8.065,35.898-7.963,55.065-4.805
		c5.065,0.917,10.037-2.63,10.898-7.806C473.426,163.407,469.944,158.519,464.778,157.667z"/>
</g>
<g>
</g>
<g>
</g>
<g>
</g>
<g>
</g>
<g>
</g>
<g>
</g>
<g>
</g>
<g>
</g>
<g>
</g>
<g>
</g>
<g>
</g>
<g>
</g>
<g>
</g>
<g>
</g>
<g>
</g>
</svg>
