<?xml version="1.0" encoding="iso-8859-1"?>
<!-- Generator: Adobe Illustrator 19.0.0, SVG Export Plug-In . SVG Version: 6.00 Build 0)  -->
<svg version="1.1" id="Layer_1" xmlns="http://www.w3.org/2000/svg" xmlns:xlink="http://www.w3.org/1999/xlink" x="0px" y="0px"
	 viewBox="0 0 512 512" style="enable-background:new 0 0 512 512;" xml:space="preserve">
<polygon style="fill:#EAEAEA;" points="174.018,90.516 111.369,27.866 104.407,34.829 128.769,59.191 114.849,73.111 90.487,48.749 
	76.569,62.666 100.929,87.031 87.009,100.951 62.649,76.586 48.72,90.516 73.089,114.88 59.169,128.8 34.801,104.436 27.84,111.396 
	90.489,174.045 "/>
<path style="fill:#F58CAC;" d="M466.337,341.074L208.818,83.556L83.529,208.85l257.519,257.524
	c34.56,34.555,90.778,34.56,125.318,0.024c16.737-16.737,25.946-38.986,25.946-62.654
	C492.303,380.075,483.083,357.821,466.337,341.074z M445.486,445.508c-11.517,11.512-26.638,17.27-41.77,17.27
	c-15.122,0-30.243-5.758-41.76-17.27c-3.845-3.84-3.845-10.075,0-13.92s10.075-3.845,13.92,0c15.352,15.338,40.318,15.347,55.689,0
	c3.845-3.845,10.075-3.845,13.92,0C449.331,435.433,449.331,441.667,445.486,445.508z"/>
<g>
	<path style="fill:#314E55;" d="M480.257,327.155L208.818,55.716l-20.879,20.88l-76.57-76.569l-48.72,48.72l-13.92,13.92
		L34.8,76.596l-13.92,13.92L0,111.396l76.571,76.572L55.689,208.85l271.439,271.444c21.12,21.12,48.864,31.68,76.598,31.68
		c27.734,0,55.459-10.55,76.56-31.656c20.457-20.452,31.724-47.648,31.714-76.579C511.99,374.812,500.724,347.616,480.257,327.155z
		 M34.801,104.436L59.169,128.8l13.92-13.92L48.72,90.516l13.928-13.93l24.361,24.365l13.92-13.92L76.569,62.666l13.918-13.918
		l24.362,24.362l13.92-13.92l-24.362-24.362l6.962-6.962l62.649,62.649l-83.529,83.529L27.84,111.396L34.801,104.436z
		 M466.366,466.397c-34.54,34.535-90.758,34.531-125.318-0.024L83.529,208.85L208.818,83.556l257.519,257.519
		c16.746,16.746,25.965,39.001,25.975,62.668C492.312,427.411,483.103,449.661,466.366,466.397z"/>
	<path style="fill:#314E55;" d="M431.566,431.588c-15.372,15.347-40.337,15.338-55.689,0c-3.845-3.845-10.075-3.845-13.92,0
		s-3.845,10.079,0,13.92c11.517,11.512,26.638,17.27,41.76,17.27c15.131,0,30.253-5.758,41.77-17.27
		c3.845-3.84,3.845-10.075,0-13.92C441.641,427.743,435.411,427.742,431.566,431.588z"/>
</g>
<g>
</g>
<g>
</g>
<g>
</g>
<g>
</g>
<g>
</g>
<g>
</g>
<g>
</g>
<g>
</g>
<g>
</g>
<g>
</g>
<g>
</g>
<g>
</g>
<g>
</g>
<g>
</g>
<g>
</g>
</svg>
