<?xml version="1.0" encoding="iso-8859-1"?>
<!-- Generator: Adobe Illustrator 19.0.0, SVG Export Plug-In . SVG Version: 6.00 Build 0)  -->
<svg version="1.1" id="Layer_1" xmlns="http://www.w3.org/2000/svg" xmlns:xlink="http://www.w3.org/1999/xlink" x="0px" y="0px"
	 viewBox="0 0 512 512" style="enable-background:new 0 0 512 512;" xml:space="preserve">
<g>
	<circle style="fill:#EAEAEA;" cx="423.724" cy="242.759" r="8.828"/>
	<path style="fill:#EAEAEA;" d="M176.53,163.31h44.181c4.858,0,8.806-3.961,8.806-8.828s-3.948-8.828-8.806-8.828H176.53
		c-4.858,0-8.806,3.961-8.806,8.828C167.724,159.431,171.591,163.31,176.53,163.31z"/>
</g>
<rect x="52.966" y="207.448" style="fill:#E4AD40;" width="282.483" height="194.207"/>
<g>
	<path style="fill:#D8D8D8;" d="M105.931,83.862h17.655v17.655h17.655V83.862h17.655v17.655h17.655V85.31
		c0-5.668-4.647-10.276-10.358-10.276H98.629c-5.806,0-10.353,4.513-10.353,10.276v16.207h17.655V83.862z"/>
	<rect x="388.414" y="83.862" style="fill:#D8D8D8;" width="44.138" height="17.655"/>
</g>
<path style="fill:#EAEAEA;" d="M485.577,119.172h-35.371h-79.448H26.423c-4.836,0-8.767,3.97-8.767,8.853v300.086
	c0,4.879,3.931,8.853,8.767,8.853h459.155c4.836,0,8.767-3.974,8.767-8.853V128.026
	C494.345,123.142,490.414,119.172,485.577,119.172z M176.53,128h44.181c14.591,0,26.461,11.879,26.461,26.483
	s-11.871,26.483-26.461,26.483H176.53c-14.59,0-26.461-11.879-26.461-26.483S161.94,128,176.53,128z M353.103,419.31H35.31V189.793
	h317.793V419.31z M423.724,295.724c-29.207,0-52.966-23.759-52.966-52.966s23.759-52.966,52.966-52.966
	c29.207,0,52.966,23.759,52.966,52.966S452.931,295.724,423.724,295.724z"/>
<path style="fill:#73C9C9;" d="M423.724,207.448c-19.47,0-35.31,15.84-35.31,35.31c0,19.474,15.84,35.31,35.31,35.31
	c19.47,0,35.31-15.836,35.31-35.31C459.034,223.289,443.194,207.448,423.724,207.448z M423.724,269.241
	c-14.603,0-26.483-11.879-26.483-26.483c0-14.603,11.879-26.483,26.483-26.483c14.603,0,26.483,11.879,26.483,26.483
	C450.207,257.362,438.328,269.241,423.724,269.241z"/>
<g>
	<path style="fill:#314E55;" d="M485.577,101.517h-35.371v-35.31h-79.448v35.31H194.207V85.31c0-15.401-12.565-27.931-28.013-27.931
		H98.629c-15.444,0-28.009,12.53-28.009,27.931v16.207H26.423C11.853,101.517,0,113.41,0,128.026v300.086
		c0,14.621,11.853,26.509,26.423,26.509h459.155c14.569,0,26.422-11.888,26.422-26.509V128.026
		C512,113.41,500.147,101.517,485.577,101.517z M388.414,83.862h44.138v17.655h-44.138V83.862z M88.276,85.31
		c0-5.763,4.547-10.276,10.353-10.276h67.565c5.711,0,10.358,4.608,10.358,10.276v16.207h-17.655V83.862h-17.655v17.655h-17.655
		V83.862h-17.655v17.655H88.276V85.31z M494.345,428.112c0,4.879-3.931,8.853-8.767,8.853H26.423c-4.836,0-8.767-3.974-8.767-8.853
		V128.026c0-4.884,3.931-8.853,8.767-8.853h344.336h79.448h35.371c4.836,0,8.767,3.97,8.767,8.853V428.112z"/>
	<path style="fill:#314E55;" d="M35.31,419.31h317.793V189.793H35.31V419.31z M52.966,207.448h282.483v194.207H52.966V207.448z"/>
	<path style="fill:#314E55;" d="M176.53,180.966h44.181c14.591,0,26.461-11.879,26.461-26.483S235.302,128,220.711,128H176.53
		c-14.59,0-26.461,11.879-26.461,26.483S161.94,180.966,176.53,180.966z M176.53,145.655h44.181c4.858,0,8.806,3.961,8.806,8.828
		s-3.948,8.828-8.806,8.828H176.53c-4.939,0-8.806-3.879-8.806-8.828C167.724,149.616,171.673,145.655,176.53,145.655z"/>
	<path style="fill:#314E55;" d="M423.724,189.793c-29.207,0-52.966,23.759-52.966,52.966s23.759,52.966,52.966,52.966
		c29.207,0,52.966-23.759,52.966-52.966S452.931,189.793,423.724,189.793z M423.724,278.069c-19.47,0-35.31-15.836-35.31-35.31
		c0-19.47,15.84-35.31,35.31-35.31c19.47,0,35.31,15.84,35.31,35.31C459.034,262.233,443.194,278.069,423.724,278.069z"/>
	<path style="fill:#314E55;" d="M423.724,216.276c-14.603,0-26.483,11.879-26.483,26.483c0,14.603,11.879,26.483,26.483,26.483
		c14.603,0,26.483-11.879,26.483-26.483C450.207,228.155,438.328,216.276,423.724,216.276z M423.724,251.586
		c-4.866,0-8.828-3.961-8.828-8.828s3.961-8.828,8.828-8.828c4.866,0,8.828,3.961,8.828,8.828S428.591,251.586,423.724,251.586z"/>
</g>
<g>
</g>
<g>
</g>
<g>
</g>
<g>
</g>
<g>
</g>
<g>
</g>
<g>
</g>
<g>
</g>
<g>
</g>
<g>
</g>
<g>
</g>
<g>
</g>
<g>
</g>
<g>
</g>
<g>
</g>
</svg>
