<?xml version="1.0" encoding="iso-8859-1"?>
<!-- Generator: Adobe Illustrator 19.0.0, SVG Export Plug-In . SVG Version: 6.00 Build 0)  -->
<svg version="1.1" id="Layer_1" xmlns="http://www.w3.org/2000/svg" xmlns:xlink="http://www.w3.org/1999/xlink" x="0px" y="0px"
	 viewBox="0 0 512 512" style="enable-background:new 0 0 512 512;" xml:space="preserve">
<path style="fill:#DDD158;" d="M162.583,429.028c-4.343-0.963-7.431-4.815-7.431-9.259v-25.092c0-4.167,2.718-7.843,6.699-9.065
	c24.181-7.426,42.722-27.343,48.384-51.972c0.505-2.204,1.783-4.148,3.593-5.5c4.889-3.62,7.694-9.176,7.694-15.25
	c0-7.074-3.889-13.509-10.153-16.805c-1.995-1.046-3.551-2.769-4.389-4.861c-10.87-27.158-36.796-44.704-66.051-44.704
	S85.75,264.065,74.88,291.222c-0.838,2.093-2.394,3.815-4.389,4.861c-6.264,3.296-10.153,9.732-10.153,16.805
	c0,6.074,2.806,11.63,7.694,15.25c1.81,1.352,3.088,3.296,3.593,5.5c5.662,24.63,24.204,44.546,48.384,51.972
	c3.982,1.222,6.699,4.898,6.699,9.065v25.092c0,4.444-3.088,8.296-7.431,9.259c-33.63,7.454-60.917,32-72.241,64.009h187.787
	C223.5,461.028,196.213,436.481,162.583,429.028z"/>
<g>
	<path style="fill:#314E55;" d="M306.856,0.961V0h-18.963C178.102,0,88.782,89.324,88.782,199.111h5.579h13.384h59.297
		c-0.034,1.869-0.177,3.693-0.177,5.574c0,5.241,4.245,9.481,9.481,9.481s9.481-4.241,9.481-9.481c0-1.881,0.13-3.707,0.165-5.574
		h101.9v180.148c-5.236,0-9.481,4.241-9.481,9.481c0,5.241,4.245,9.481,9.481,9.481c109.792,0,199.111-89.324,199.111-199.111
		C487.004,95.725,407.779,10.548,306.856,0.961z M467.022,180.148h-59.185c-5.661-71.066-35.457-130.111-75.847-155.499
		C404.091,42.894,459.072,104.529,467.022,180.148z M388.83,180.148h-81.973V33.259C349.464,47.022,382.704,106.179,388.83,180.148z
		 M108.764,180.148c7.95-75.619,62.932-137.255,135.031-155.499c-40.389,25.388-70.186,84.433-75.847,155.499H108.764z
		 M186.957,180.148c7.011-84.651,49.54-150.028,100.936-150.028v150.028H186.957z M306.856,199.111h82.937
		c0.035,1.867,0.165,3.693,0.165,5.574c0,85.166-35.863,156.174-83.102,171.435L306.856,199.111L306.856,199.111z M354.114,366.486
		c32.962-34.615,54.807-94.168,54.807-161.8c0-1.881-0.143-3.705-0.177-5.574h59.297
		C468.041,275.05,420.742,340.026,354.114,366.486z"/>
	<path style="fill:#314E55;" d="M174.116,412.417v-11.028c26.315-10.435,46.412-32.861,53.801-60.296
		c7.926-7.157,12.569-17.454,12.569-28.204c0-12.926-6.5-24.796-17.185-31.759c-14.444-32.658-46.426-53.574-82.37-53.574
		s-67.926,20.917-82.37,53.574c-10.685,6.963-17.185,18.833-17.185,31.759c0,10.75,4.644,21.046,12.569,28.204
		c7.389,27.435,27.486,49.861,53.801,60.296v11.028c-41.18,12-73.167,45.824-82.523,88.046c-0.625,2.815,0.06,5.75,1.861,7.991
		c1.801,2.241,4.519,3.547,7.394,3.547h212.907c2.875,0,5.593-1.306,7.393-3.546s2.486-5.176,1.861-7.991
		C247.282,458.241,215.296,424.417,174.116,412.417z M47.037,493.037c11.324-32.009,38.611-56.556,72.241-64.009
		c4.343-0.963,7.431-4.815,7.431-9.259v-25.092c0-4.167-2.718-7.843-6.699-9.065c-24.181-7.426-42.722-27.343-48.384-51.972
		c-0.505-2.204-1.783-4.148-3.593-5.5c-4.889-3.62-7.694-9.176-7.694-15.25c0-7.074,3.889-13.509,10.153-16.805
		c1.995-1.046,3.551-2.769,4.389-4.861c10.87-27.158,36.796-44.704,66.051-44.704s55.181,17.546,66.051,44.704
		c0.838,2.093,2.394,3.815,4.389,4.861c6.264,3.296,10.153,9.732,10.153,16.805c0,6.074-2.806,11.63-7.694,15.25
		c-1.81,1.352-3.088,3.296-3.593,5.5c-5.662,24.63-24.204,44.546-48.384,51.972c-3.982,1.222-6.699,4.898-6.699,9.065v25.092
		c0,4.444,3.088,8.296,7.431,9.259c33.63,7.454,60.917,32,72.241,64.009L47.037,493.037L47.037,493.037z"/>
</g>
<g>
</g>
<g>
</g>
<g>
</g>
<g>
</g>
<g>
</g>
<g>
</g>
<g>
</g>
<g>
</g>
<g>
</g>
<g>
</g>
<g>
</g>
<g>
</g>
<g>
</g>
<g>
</g>
<g>
</g>
</svg>
