<?xml version="1.0" encoding="iso-8859-1"?>
<!-- Generator: Adobe Illustrator 19.0.0, SVG Export Plug-In . SVG Version: 6.00 Build 0)  -->
<svg version="1.1" id="Layer_1" xmlns="http://www.w3.org/2000/svg" xmlns:xlink="http://www.w3.org/1999/xlink" x="0px" y="0px"
	 viewBox="0 0 512 512" style="enable-background:new 0 0 512 512;" xml:space="preserve">
<circle style="fill:#EAEAEA;" cx="224" cy="457.143" r="9.143"/>
<path style="fill:#73C9C9;" d="M96,484.576c0,5.125,3.987,9.138,9.08,9.138h228.696c5.009,0,9.08-4.098,9.08-9.138v-64.005H96
	V484.576z M224,429.714c15.125,0,27.429,12.304,27.429,27.429S239.125,484.571,224,484.571c-15.125,0-27.429-12.304-27.429-27.429
	S208.875,429.714,224,429.714z"/>
<path style="fill:#EAEAEA;" d="M278.857,192c0,3.17-1.643,6.112-4.335,7.777c-1.469,0.906-3.138,1.366-4.808,1.366
	c-1.397,0-2.799-0.321-4.089-0.964l-73.143-36.571c-3.098-1.549-5.053-4.714-5.053-8.179s1.955-6.629,5.053-8.179l73.143-36.571
	c2.83-1.411,6.201-1.263,8.897,0.402c2.692,1.665,4.335,4.607,4.335,7.777v27.429h64V27.464c0-5.062-4.071-9.179-9.08-9.179H105.08
	c-5.009,0-9.08,4.116-9.08,9.179v374.603h246.857V301.714h-64v27.429c0,3.17-1.643,6.112-4.335,7.777
	c-1.469,0.906-3.138,1.366-4.808,1.366c-1.397,0-2.799-0.321-4.089-0.964l-73.143-36.571c-3.098-1.549-5.053-4.714-5.053-8.178
	s1.955-6.629,5.053-8.179l73.143-36.571c2.83-1.411,6.201-1.263,8.897,0.402c2.692,1.665,4.335,4.607,4.335,7.777v27.429h64V164.571
	h-64V192z"/>
<g>
	<polygon style="fill:#E4AD40;" points="260.571,270.795 217.014,292.571 260.571,314.348 	"/>
	<polygon style="fill:#E4AD40;" points="260.571,133.652 217.014,155.429 260.571,177.205 	"/>
</g>
<g>
	<path style="fill:#314E55;" d="M224,484.571c15.125,0,27.429-12.304,27.429-27.429S239.125,429.714,224,429.714
		c-15.125,0-27.429,12.304-27.429,27.429S208.875,484.571,224,484.571z M224,448c5.04,0,9.143,4.103,9.143,9.143
		s-4.103,9.143-9.143,9.143c-5.04,0-9.143-4.103-9.143-9.143S218.96,448,224,448z"/>
	<path style="fill:#314E55;" d="M434.286,164.571v-18.286h-73.143V27.464C361.143,12.321,348.866,0,333.777,0H105.08
		C89.991,0,77.714,12.321,77.714,27.464v374.822v18.067v64.223c0,15.12,12.277,27.424,27.366,27.424h228.696
		c15.089,0,27.366-12.304,27.366-27.424v-64.223v-18.067V301.714h73.143v-18.286h-73.143V164.571H434.286z M342.857,484.576
		c0,5.04-4.071,9.138-9.08,9.138H105.08c-5.094,0-9.08-4.013-9.08-9.138v-64.005h246.857V484.576z M342.857,283.429h-64V256
		c0-3.17-1.643-6.112-4.335-7.777c-2.696-1.665-6.067-1.813-8.897-0.402l-73.143,36.571c-3.098,1.549-5.053,4.714-5.053,8.178
		c0,3.464,1.955,6.629,5.053,8.178l73.143,36.571c1.29,0.643,2.692,0.964,4.089,0.964c1.67,0,3.339-0.46,4.808-1.366
		c2.692-1.665,4.335-4.607,4.335-7.777v-27.429h64v100.353H96V27.464c0-5.062,4.071-9.179,9.08-9.179h228.696
		c5.009,0,9.08,4.116,9.08,9.179v118.821h-64v-27.429c0-3.17-1.643-6.112-4.335-7.777c-2.696-1.665-6.067-1.813-8.897-0.402
		l-73.143,36.571c-3.098,1.549-5.053,4.714-5.053,8.178s1.955,6.629,5.053,8.179l73.143,36.571c1.29,0.643,2.692,0.964,4.089,0.964
		c1.67,0,3.339-0.46,4.808-1.366c2.692-1.665,4.335-4.607,4.335-7.777v-27.429h64V283.429z M260.571,270.795v43.554l-43.558-21.777
		L260.571,270.795z M260.571,133.652v43.554l-43.558-21.777L260.571,133.652z"/>
</g>
<g>
</g>
<g>
</g>
<g>
</g>
<g>
</g>
<g>
</g>
<g>
</g>
<g>
</g>
<g>
</g>
<g>
</g>
<g>
</g>
<g>
</g>
<g>
</g>
<g>
</g>
<g>
</g>
<g>
</g>
</svg>
