<?xml version="1.0" encoding="iso-8859-1"?>
<!-- Generator: Adobe Illustrator 19.0.0, SVG Export Plug-In . SVG Version: 6.00 Build 0)  -->
<svg version="1.1" id="Layer_1" xmlns="http://www.w3.org/2000/svg" xmlns:xlink="http://www.w3.org/1999/xlink" x="0px" y="0px"
	 viewBox="0 0 512 512" style="enable-background:new 0 0 512 512;" xml:space="preserve">
<path style="fill:#73C9C9;" d="M132.571,484.576c0,5.125,3.991,9.138,9.08,9.138h228.696c5.009,0,9.08-4.098,9.08-9.138v-64.005
	H132.571V484.576z M260.571,429.714c15.125,0,27.429,12.304,27.429,27.429s-12.304,27.429-27.429,27.429
	s-27.429-12.304-27.429-27.429S245.446,429.714,260.571,429.714z"/>
<polygon style="fill:#5ECC66;" points="183.187,164.321 228.509,164.321 205.75,117.125 "/>
<g>
	<circle style="fill:#EAEAEA;" cx="260.571" cy="457.143" r="9.143"/>
	<path style="fill:#EAEAEA;" d="M379.429,27.464c0-5.062-4.071-9.179-9.08-9.179H141.652c-5.009,0-9.08,4.116-9.08,9.179v374.603
		h246.857V27.464z M214.857,283.429h-18.286V182.857h18.286V283.429z M250.813,178.326c-1.67,2.665-4.598,4.281-7.741,4.281h-74.384
		c-3.143,0-6.062-1.612-7.732-4.268c-1.679-2.656-1.875-5.987-0.518-8.817l37.027-77.464c1.518-3.174,4.714-5.196,8.232-5.201
		c0.009,0,0.009,0,0.018,0c3.509,0,6.714,2.009,8.232,5.17l37.357,77.464C252.67,172.326,252.491,175.661,250.813,178.326z
		 M324.571,347.429h-18.286V182.857h18.286V347.429z M360.984,178.326c-1.67,2.665-4.598,4.281-7.741,4.281h-74.384
		c-3.143,0-6.062-1.612-7.732-4.268c-1.679-2.656-1.875-5.987-0.518-8.817l37.027-77.464c1.518-3.174,4.714-5.196,8.232-5.201
		c0.009,0,0.009,0,0.018,0c3.509,0,6.714,2.009,8.232,5.17l37.357,77.464C362.842,172.326,362.663,175.661,360.984,178.326z"/>
</g>
<polygon style="fill:#5ECC66;" points="293.359,164.321 338.681,164.321 315.922,117.125 "/>
<g>
	<path style="fill:#314E55;" d="M370.348,0H141.652c-15.089,0-27.366,12.321-27.366,27.464v374.822v18.067v64.223
		c0,15.12,12.277,27.424,27.366,27.424h228.696c15.089,0,27.366-12.304,27.366-27.424v-64.223v-18.067V27.464
		C397.714,12.321,385.438,0,370.348,0z M379.429,484.576c0,5.04-4.071,9.138-9.08,9.138H141.652c-5.089,0-9.08-4.013-9.08-9.138
		v-64.005h246.857V484.576z M132.571,27.464c0-5.062,4.071-9.179,9.08-9.179h228.696c5.009,0,9.08,4.116,9.08,9.179v374.603H132.571
		V27.464z"/>
	<path style="fill:#314E55;" d="M260.571,484.571c15.125,0,27.429-12.304,27.429-27.429s-12.304-27.429-27.429-27.429
		s-27.429,12.304-27.429,27.429S245.446,484.571,260.571,484.571z M260.571,448c5.045,0,9.143,4.103,9.143,9.143
		s-4.098,9.143-9.143,9.143c-5.045,0-9.143-4.103-9.143-9.143S255.527,448,260.571,448z"/>
	<rect x="306.286" y="182.857" style="fill:#314E55;" width="18.286" height="164.571"/>
	<path style="fill:#314E55;" d="M324.118,92.027c-1.518-3.161-4.723-5.17-8.232-5.17c-0.009,0-0.009,0-0.018,0
		c-3.518,0.005-6.714,2.027-8.232,5.201l-37.027,77.464c-1.357,2.83-1.161,6.161,0.518,8.817c1.67,2.656,4.589,4.268,7.732,4.268
		h74.384c3.143,0,6.071-1.616,7.741-4.281c1.679-2.665,1.857-6,0.491-8.835L324.118,92.027z M293.359,164.321l22.563-47.196
		l22.759,47.196H293.359z"/>
	<rect x="196.571" y="182.857" style="fill:#314E55;" width="18.286" height="100.571"/>
	<path style="fill:#314E55;" d="M213.947,92.027c-1.518-3.161-4.723-5.17-8.232-5.17c-0.009,0-0.009,0-0.018,0
		c-3.518,0.005-6.714,2.027-8.232,5.201l-37.027,77.464c-1.357,2.83-1.161,6.161,0.518,8.817c1.67,2.656,4.589,4.268,7.732,4.268
		h74.384c3.143,0,6.071-1.616,7.741-4.281c1.679-2.665,1.857-6,0.491-8.835L213.947,92.027z M183.187,164.321l22.563-47.196
		l22.759,47.196H183.187z"/>
</g>
<g>
</g>
<g>
</g>
<g>
</g>
<g>
</g>
<g>
</g>
<g>
</g>
<g>
</g>
<g>
</g>
<g>
</g>
<g>
</g>
<g>
</g>
<g>
</g>
<g>
</g>
<g>
</g>
<g>
</g>
</svg>
