<?xml version="1.0" encoding="iso-8859-1"?>
<!-- Generator: Adobe Illustrator 19.0.0, SVG Export Plug-In . SVG Version: 6.00 Build 0)  -->
<svg version="1.1" id="Layer_1" xmlns="http://www.w3.org/2000/svg" xmlns:xlink="http://www.w3.org/1999/xlink" x="0px" y="0px"
	 viewBox="0 0 512 512" style="enable-background:new 0 0 512 512;" xml:space="preserve">
<g>
	<circle style="fill:#E9E7D1;" cx="426.665" cy="341.331" r="8.982"/>
	<circle style="fill:#E9E7D1;" cx="426.665" cy="269.472" r="8.982"/>
	<rect x="58.387" y="242.525" style="fill:#E9E7D1;" width="287.437" height="215.578"/>
</g>
<path style="fill:#81A4E3;" d="M480.542,206.598H31.458c-4.965,0-9,4.031-9,8.982v269.472c0,4.952,4.035,8.982,9,8.982h449.085
	c4.965,0,9-4.031,9-8.982V215.581C489.542,210.629,485.507,206.598,480.542,206.598z M363.789,476.07H40.422V224.563h323.366V476.07
	z M426.665,368.281c-14.86,0-26.947-12.088-26.947-26.947s12.088-26.947,26.947-26.947s26.947,12.088,26.947,26.947
	S441.525,368.281,426.665,368.281z M426.665,296.422c-14.86,0-26.947-12.088-26.947-26.947s12.088-26.947,26.947-26.947
	s26.947,12.088,26.947,26.947S441.525,296.422,426.665,296.422z"/>
<path style="fill:#E9E7D1;" d="M215.579,170.669c-10.848,0-19.916,7.728-22.002,17.965h44.004
	C235.495,178.397,226.427,170.669,215.579,170.669z"/>
<g>
	<path style="fill:#314E55;" d="M480.542,188.634H255.546c-1.485-13.201-9.252-24.399-20.335-30.623L344,14.411
		c3-3.956,2.219-9.588-1.737-12.583c-3.965-3.009-9.596-2.215-12.579,1.732l-112.28,148.21c-0.249,0.329-0.318,0.718-0.515,1.067
		c-0.445-0.014-0.862-0.133-1.31-0.133c-0.448,0-0.865,0.118-1.31,0.133c-0.197-0.349-0.266-0.738-0.515-1.067L101.475,3.56
		c-2.991-3.947-8.623-4.741-12.579-1.732c-3.956,2.996-4.737,8.627-1.737,12.583l108.788,143.6
		c-11.083,6.224-18.85,17.422-20.335,30.623H31.458c-14.868,0-26.965,12.088-26.965,26.947v269.472
		c0,14.86,12.096,26.947,26.965,26.947h449.085c14.868,0,26.965-12.088,26.965-26.947V215.581
		C507.507,200.721,495.411,188.634,480.542,188.634z M215.579,170.669c10.848,0,19.916,7.728,22.002,17.965h-44.004
		C195.664,178.397,204.732,170.669,215.579,170.669z M489.542,485.053c0,4.952-4.035,8.982-9,8.982H31.458c-4.965,0-9-4.031-9-8.982
		V215.581c0-4.952,4.035-8.982,9-8.982h449.085c4.965,0,9,4.031,9,8.982V485.053z"/>
	<path style="fill:#314E55;" d="M40.422,476.07h323.366V224.563H40.422V476.07z M58.387,242.528h287.437v215.578H58.387V242.528z"/>
	<path style="fill:#314E55;" d="M426.665,242.528c-14.86,0-26.947,12.088-26.947,26.947s12.088,26.947,26.947,26.947
		s26.947-12.088,26.947-26.947S441.525,242.528,426.665,242.528z M426.665,278.458c-4.956,0-8.982-4.031-8.982-8.982
		c0-4.952,4.026-8.982,8.982-8.982c4.956,0,8.982,4.031,8.982,8.982C435.648,274.427,431.622,278.458,426.665,278.458z"/>
	<path style="fill:#314E55;" d="M426.665,314.387c-14.86,0-26.947,12.088-26.947,26.947s12.088,26.947,26.947,26.947
		s26.947-12.088,26.947-26.947S441.525,314.387,426.665,314.387z M426.665,350.317c-4.956,0-8.982-4.031-8.982-8.982
		c0-4.952,4.026-8.982,8.982-8.982c4.956,0,8.982,4.031,8.982,8.982C435.648,346.286,431.622,350.317,426.665,350.317z"/>
</g>
<g>
</g>
<g>
</g>
<g>
</g>
<g>
</g>
<g>
</g>
<g>
</g>
<g>
</g>
<g>
</g>
<g>
</g>
<g>
</g>
<g>
</g>
<g>
</g>
<g>
</g>
<g>
</g>
<g>
</g>
</svg>
