<?xml version="1.0" encoding="iso-8859-1"?>
<!-- Generator: Adobe Illustrator 19.0.0, SVG Export Plug-In . SVG Version: 6.00 Build 0)  -->
<svg version="1.1" id="Layer_1" xmlns="http://www.w3.org/2000/svg" xmlns:xlink="http://www.w3.org/1999/xlink" x="0px" y="0px"
	 viewBox="0 0 512 512" style="enable-background:new 0 0 512 512;" xml:space="preserve">
<g>
	<path style="fill:#D8D8D8;" d="M340.273,381.617l-38.166,38.158l6.36,6.36c3.584,3.566,9.162,3.566,12.71,0.018l25.465-25.465
		c3.557-3.557,3.557-9.144-0.009-12.71L340.273,381.617z"/>
	<path style="fill:#D8D8D8;" d="M391.159,343.451c3.566,3.566,9.153,3.557,12.702,0.009l25.465-25.465
		c3.557-3.557,3.557-9.144-0.009-12.71l-6.36-6.36l-8.297,8.297l-29.866,29.863L391.159,343.451z"/>
</g>
<path style="fill:#73C9C9;" d="M276.642,63.572c-7.001-7.005-18.394-6.988-25.412,0.018L66.776,248.048
	c-3.382,3.382-5.244,7.892-5.253,12.702c-0.009,4.814,1.853,9.328,5.235,12.71l165.411,165.42c3.399,3.399,7.906,5.27,12.684,5.27
	c0.009,0,0.018,0,0.026,0c4.787-0.009,9.293-1.888,12.702-5.297l101.773-101.769l-0.002-0.002l53.56-53.552l29.133-29.132
	c3.382-3.382,5.244-7.892,5.253-12.702c0.009-4.814-1.853-9.328-5.235-12.71L276.642,63.572z M358.781,172.778l-99.839,99.83
	l-90.598-27.415c-4.752-1.436-7.44-6.456-6-11.213c1.441-4.752,6.456-7.453,11.217-6.004l80.285,24.292l92.214-92.21
	c3.514-3.514,9.206-3.514,12.719,0C362.294,163.573,362.295,169.265,358.781,172.778z"/>
<g>
	<path style="fill:#314E55;" d="M435.674,197.161L512,120.839l-12.719-12.719l-76.326,76.322l-95.402-95.398l76.325-76.322
		l-12.719-12.72l-76.325,76.322l-25.472-25.471c-14.01-14.015-36.822-14.015-50.85,0.018L54.057,235.329
		c-6.772,6.768-10.514,15.789-10.523,25.403c-0.009,9.618,3.716,18.657,10.506,25.447l25.469,25.469L0,391.157l12.719,12.719
		l79.507-79.507l95.4,95.405l-79.505,79.505l12.719,12.719l79.504-79.504l19.104,19.105c6.799,6.799,15.82,10.541,25.403,10.541
		c0.018,0,0.035,0,0.053,0c9.583-0.018,18.604-3.768,25.395-10.567l19.084-19.083l6.363,6.364
		c5.261,5.262,12.175,7.897,19.088,7.897c6.904,0,13.808-2.626,19.061-7.879l25.465-25.465c5.121-5.121,7.932-11.902,7.914-19.105
		c-0.009-7.185-2.82-13.949-7.923-19.044l-6.366-6.366l19.088-19.088l6.366,6.366c5.262,5.261,12.166,7.888,19.079,7.888
		c6.904,0,13.808-2.626,19.061-7.879l25.465-25.465c10.514-10.514,10.514-27.626-0.009-38.149l-6.36-6.36l19.088-19.088
		c6.772-6.772,10.514-15.789,10.523-25.399c0.009-9.627-3.716-18.666-10.506-25.452L435.674,197.161z M346.642,400.687
		l-25.465,25.465c-3.549,3.549-9.127,3.549-12.71-0.018l-6.36-6.36l38.166-38.158l6.36,6.36
		C350.199,391.543,350.199,397.13,346.642,400.687z M422.957,298.925l6.36,6.36c3.566,3.566,3.566,9.153,0.009,12.71l-25.465,25.465
		c-3.549,3.549-9.135,3.557-12.702-0.009l-6.366-6.366l29.866-29.863L422.957,298.925z M442.044,254.399l-29.133,29.132
		l-53.56,53.552l0.002,0.002L257.581,438.854c-3.408,3.408-7.914,5.288-12.702,5.297c-0.009,0-0.018,0-0.026,0
		c-4.778,0-9.285-1.871-12.684-5.27L66.758,273.46c-3.382-3.382-5.244-7.897-5.235-12.71c0.009-4.809,1.871-9.32,5.253-12.702
		L251.23,63.59c7.018-7.005,18.411-7.023,25.412-0.018l165.42,165.415c3.382,3.382,5.244,7.897,5.235,12.71
		C447.289,246.507,445.426,251.017,442.044,254.399z"/>
	<path style="fill:#314E55;" d="M346.062,160.059l-92.214,92.21l-80.285-24.292c-4.761-1.449-9.777,1.252-11.217,6.004
		c-1.441,4.756,1.247,9.777,6,11.213l90.598,27.415l99.839-99.83c3.514-3.514,3.514-9.206,0-12.719S349.576,156.546,346.062,160.059
		z"/>
	<path style="fill:#314E55;" d="M384.799,95.4c-3.514,3.514-3.514,9.206,0,12.719l25.438,25.438c1.757,1.757,4.058,2.635,6.36,2.635
		s4.603-0.878,6.36-2.635c3.514-3.514,3.514-9.206,0-12.719L397.518,95.4C394.005,91.887,388.313,91.887,384.799,95.4z"/>
	<path style="fill:#314E55;" d="M117.661,438.854c3.514-3.514,3.514-9.206,0-12.719l-25.438-25.438
		c-3.514-3.514-9.206-3.514-12.719,0c-3.513,3.514-3.514,9.206,0,12.719l25.438,25.438c1.757,1.757,4.058,2.635,6.36,2.635
		S115.905,440.611,117.661,438.854z"/>
	<path style="fill:#314E55;" d="M435.676,108.12c1.757,1.757,4.058,2.635,6.36,2.635s4.603-0.878,6.36-2.635
		c3.514-3.514,3.514-9.206,0-12.719l-25.438-25.438c-3.514-3.514-9.206-3.514-12.719,0c-3.513,3.514-3.514,9.206,0,12.719
		L435.676,108.12z"/>
	<path style="fill:#314E55;" d="M143.108,409.691c2.301,0,4.603-0.878,6.36-2.635c3.514-3.514,3.514-9.206,0-12.719l-25.447-25.438
		c-3.514-3.514-9.206-3.514-12.719,0s-3.514,9.206,0,12.719l25.447,25.438C138.506,408.812,140.807,409.691,143.108,409.691z"/>
</g>
<g>
</g>
<g>
</g>
<g>
</g>
<g>
</g>
<g>
</g>
<g>
</g>
<g>
</g>
<g>
</g>
<g>
</g>
<g>
</g>
<g>
</g>
<g>
</g>
<g>
</g>
<g>
</g>
<g>
</g>
</svg>
