<?xml version="1.0" encoding="iso-8859-1"?>
<!-- Generator: Adobe Illustrator 19.0.0, SVG Export Plug-In . SVG Version: 6.00 Build 0)  -->
<svg version="1.1" id="Layer_1" xmlns="http://www.w3.org/2000/svg" xmlns:xlink="http://www.w3.org/1999/xlink" x="0px" y="0px"
	 viewBox="0 0 512 512" style="enable-background:new 0 0 512 512;" xml:space="preserve">
<path style="fill:#C59981;" d="M395.562,263.272c0-5.115,4.147-9.261,9.261-9.261h2.406
	c-2.569-72.767-59.415-131.856-131.272-137.855c-0.369,4.251-3.479,7.862-7.885,8.42c-0.393,0.05-0.787,0.072-1.176,0.072
	c-4.595,0-8.583-3.419-9.176-8.099l-0.087-0.685c-12.297,0.538-24.229,2.485-35.541,5.94c-1.597,3.299-4.893,5.228-8.333,5.228
	c-1.282,0-2.572-0.303-3.812-0.862c-50.975,20.777-87.288,70.017-89.312,127.888c4.999,0.134,9.024,4.183,9.024,9.214
	c0,4.882-3.813,8.775-8.605,9.13c6.74,72.936,68.212,130.249,142.878,130.249c10.13,0,20.006-1.085,29.549-3.091l-3.252-25.734
	c-0.642-5.074,2.953-9.709,8.027-10.351c5.033-0.611,9.709,2.953,10.351,8.027l2.891,22.878c8.471-2.987,16.573-6.716,24.235-11.165
	c-0.28-1.429-0.339-2.906,0.107-4.396l10.596-35.499c1.465-4.897,6.607-7.706,11.523-6.223c4.902,1.461,7.688,6.621,6.223,11.523
	l-5.341,17.897c26.599-23.529,44.481-56.656,47.965-93.983h-1.983C399.709,272.533,395.562,268.386,395.562,263.272z
	 M174.34,222.097l-15.927,33.446c-1.587,3.333-4.907,5.277-8.366,5.277c-1.339,0-2.691-0.289-3.98-0.9
	c-4.617-2.198-6.575-7.724-4.377-12.346l15.927-33.446c2.198-4.626,7.724-6.557,12.346-4.377
	C174.58,211.949,176.538,217.475,174.34,222.097z M206.199,155.2l-15.932,33.451c-1.587,3.333-4.907,5.277-8.366,5.277
	c-1.339,0-2.691-0.289-3.98-0.9c-4.617-2.198-6.575-7.724-4.377-12.346l15.932-33.451c2.202-4.626,7.733-6.557,12.346-4.377
	C206.439,145.052,208.397,150.578,206.199,155.2z M267.009,190.057l-4.644-36.752c-0.642-5.074,2.953-9.709,8.027-10.351
	c5.083-0.638,9.709,2.948,10.351,8.027l4.644,36.752c0.642,5.074-2.953,9.709-8.027,10.351c-0.393,0.05-0.787,0.072-1.176,0.072
	C271.59,198.156,267.602,194.738,267.009,190.057z M276.298,263.565l-4.644-36.757c-0.642-5.074,2.953-9.709,8.027-10.351
	c5.065-0.606,9.709,2.953,10.351,8.027l4.644,36.757c0.642,5.074-2.953,9.709-8.027,10.351c-0.393,0.05-0.787,0.072-1.176,0.072
	C280.879,271.665,276.89,268.246,276.298,263.565z M295.938,345.101c-0.393,0.05-0.787,0.072-1.176,0.072
	c-4.595,0-8.583-3.419-9.176-8.099l-4.644-36.757c-0.642-5.074,2.953-9.709,8.027-10.351c5.051-0.638,9.714,2.948,10.351,8.027
	l4.644,36.757C304.607,339.824,301.012,344.459,295.938,345.101z M385.369,277.616l-10.591,35.504
	c-1.203,4.016-4.884,6.616-8.872,6.616c-0.877,0-1.768-0.127-2.655-0.389c-4.897-1.465-7.688-6.625-6.227-11.527l10.591-35.499
	c1.465-4.897,6.598-7.688,11.527-6.227C384.039,267.559,386.83,272.718,385.369,277.616z"/>
<g>
	<path style="fill:#314E55;" d="M277.361,198.084c5.074-0.642,8.669-5.277,8.027-10.351l-4.644-36.752
		c-0.642-5.079-5.268-8.665-10.351-8.027c-5.074,0.642-8.669,5.277-8.027,10.351l4.644,36.752c0.592,4.681,4.581,8.099,9.176,8.099
		C276.574,198.156,276.967,198.134,277.361,198.084z"/>
	<path style="fill:#314E55;" d="M286.649,271.592c5.074-0.642,8.669-5.277,8.027-10.351l-4.644-36.757
		c-0.642-5.074-5.286-8.633-10.351-8.027c-5.074,0.642-8.669,5.277-8.027,10.351l4.644,36.757c0.592,4.681,4.581,8.099,9.176,8.099
		C285.862,271.665,286.256,271.642,286.649,271.592z"/>
	<path style="fill:#314E55;" d="M288.969,289.966c-5.074,0.642-8.669,5.277-8.027,10.351l4.644,36.757
		c0.592,4.681,4.581,8.099,9.176,8.099c0.389,0,0.782-0.023,1.176-0.072c5.074-0.642,8.669-5.277,8.027-10.351l-4.644-36.757
		C298.683,292.915,294.02,289.329,288.969,289.966z"/>
	<path style="fill:#314E55;" d="M502.738,254.01h-23.823c-5.115,0-9.261,4.147-9.261,9.261s4.147,9.261,9.261,9.261h23.823
		c5.115,0,9.262-4.147,9.262-9.261S507.853,254.01,502.738,254.01z"/>
	<path style="fill:#314E55;" d="M379.142,266.093c-4.929-1.461-10.062,1.329-11.527,6.227l-10.591,35.499
		c-1.461,4.902,1.329,10.062,6.227,11.527c0.886,0.262,1.777,0.389,2.655,0.389c3.989,0,7.67-2.6,8.872-6.616l10.591-35.504
		C386.83,272.718,384.039,267.559,379.142,266.093z"/>
	<path style="fill:#314E55;" d="M441.869,254.01h-16.117c-2.615-83.634-68.776-151.349-151.763-156.48l-2.535-20.058
		c-0.642-5.074-5.309-8.633-10.351-8.027c-5.074,0.642-8.669,5.277-8.027,10.351l2.232,17.661
		c-7.775,0.414-15.444,1.219-22.895,2.693l5.64-11.844c2.198-4.622,0.24-10.148-4.377-12.346
		c-4.617-2.189-10.143-0.244-12.346,4.377l-12.664,26.595c-60.667,22.111-104.433,79.36-106.55,147.076H83.353
		c-5.115,0-9.261,4.147-9.261,9.261s4.147,9.261,9.261,9.261h19.185c6.868,83.091,76.563,148.641,161.395,148.641
		c12.149,0,23.949-1.452,35.341-4c1.424,0.882,3.017,1.504,4.775,1.504c0.389,0,0.782-0.023,1.176-0.072
		c3.014-0.382,5.367-2.252,6.759-4.708c61.861-19.242,107.83-74.653,113.344-141.364h16.54c5.115,0,9.261-4.147,9.261-9.261
		S446.984,254.01,441.869,254.01z M358.841,366.516l5.341-17.897c1.465-4.902-1.32-10.062-6.223-11.523
		c-4.916-1.483-10.058,1.325-11.523,6.223l-10.596,35.499c-0.445,1.49-0.387,2.966-0.107,4.396
		c-7.662,4.45-15.764,8.178-24.235,11.165l-2.891-22.878c-0.642-5.074-5.318-8.637-10.351-8.027
		c-5.074,0.642-8.669,5.277-8.027,10.351l3.252,25.734c-9.542,2.006-19.419,3.091-29.549,3.091
		c-74.667,0-136.138-57.312-142.879-130.249c4.792-0.355,8.605-4.249,8.605-9.13c0-5.031-4.025-9.081-9.024-9.214
		c2.024-57.871,38.337-107.111,89.312-127.888c1.24,0.558,2.53,0.862,3.812,0.862c3.44,0,6.736-1.929,8.333-5.228
		c11.312-3.455,23.244-5.402,35.541-5.94l0.087,0.685c0.592,4.681,4.581,8.099,9.176,8.099c0.389,0,0.782-0.023,1.176-0.072
		c4.406-0.558,7.516-4.17,7.885-8.42c71.857,5.999,128.704,65.088,131.272,137.855h-2.406c-5.115,0-9.261,4.147-9.261,9.261
		s4.147,9.261,9.261,9.261h1.983C403.322,309.859,385.44,342.987,358.841,366.516z"/>
	<path style="fill:#314E55;" d="M201.822,142.854c-4.613-2.18-10.143-0.249-12.346,4.377l-15.932,33.451
		c-2.198,4.622-0.24,10.148,4.377,12.346c1.289,0.611,2.641,0.9,3.98,0.9c3.459,0,6.779-1.944,8.366-5.277l15.932-33.451
		C208.397,150.578,206.439,145.052,201.822,142.854z"/>
	<path style="fill:#314E55;" d="M241.635,59.239c1.289,0.611,2.641,0.9,3.98,0.9c3.459,0,6.779-1.944,8.366-5.277l1.85-3.889
		c0.95,0.185,1.949,0.222,2.953,0.1c5.074-0.642,8.669-5.277,8.027-10.351l-1.619-12.802c-0.516-4.079-3.659-7.33-7.719-7.982
		c-4.029-0.665-8.059,1.447-9.831,5.16l-10.383,21.797C235.06,51.51,237.018,57.041,241.635,59.239z"/>
	<path style="fill:#314E55;" d="M46.307,254.01H9.261c-5.115,0-9.261,4.147-9.261,9.261s4.147,9.261,9.261,9.261h37.046
		c5.115,0,9.261-4.147,9.261-9.261S51.422,254.01,46.307,254.01z"/>
	<path style="fill:#314E55;" d="M169.963,209.751c-4.622-2.18-10.148-0.249-12.346,4.377l-15.927,33.446
		c-2.198,4.622-0.24,10.148,4.377,12.346c1.289,0.611,2.641,0.9,3.98,0.9c3.459,0,6.779-1.944,8.366-5.277l15.927-33.446
		C176.538,217.475,174.58,211.949,169.963,209.751z"/>
	<path style="fill:#314E55;" d="M336.773,408.091c-4.925-1.47-10.062,1.325-11.527,6.227l-8.262,27.694
		c-1.709-3.405-5.44-5.526-9.438-5.029c-5.074,0.642-8.669,5.277-8.027,10.351l4.644,36.752c0.592,4.681,4.581,8.099,9.176,8.099
		c0.389,0,0.782-0.023,1.176-0.072c5.074-0.642,8.669-5.277,8.027-10.351l-2.628-20.766c0.317,0.131,0.638,0.249,0.968,0.348
		c4.92,1.461,10.062-1.325,11.527-6.227L343,419.613C344.461,414.716,341.671,409.556,336.773,408.091z"/>
</g>
<g>
</g>
<g>
</g>
<g>
</g>
<g>
</g>
<g>
</g>
<g>
</g>
<g>
</g>
<g>
</g>
<g>
</g>
<g>
</g>
<g>
</g>
<g>
</g>
<g>
</g>
<g>
</g>
<g>
</g>
</svg>
