<?xml version="1.0" encoding="iso-8859-1"?>
<!-- Generator: Adobe Illustrator 19.0.0, SVG Export Plug-In . SVG Version: 6.00 Build 0)  -->
<svg version="1.1" id="Layer_1" xmlns="http://www.w3.org/2000/svg" xmlns:xlink="http://www.w3.org/1999/xlink" x="0px" y="0px"
	 viewBox="0 0 512 512" style="enable-background:new 0 0 512 512;" xml:space="preserve">
<g>
	<path style="fill:#E9E7D1;" d="M313.512,335.127l-95.417-103.368l-39.641,35.805c-1.773,1.6-4,2.4-6.236,2.4
		c-2.236,0-4.464-0.8-6.236-2.4l-39.641-35.805L30.924,335.127H313.512z"/>
	<path style="fill:#E9E7D1;" d="M319.423,140.236l-87.515,79.048l93.91,101.736V148.955
		C325.818,144.868,323.116,141.491,319.423,140.236z"/>
	<polygon style="fill:#E9E7D1;" points="292.318,139.636 52.118,139.636 172.218,248.109 	"/>
	<path style="fill:#E9E7D1;" d="M112.529,219.284l-87.515-79.048c-3.693,1.255-6.395,4.632-6.395,8.718v172.066L112.529,219.284z"/>
</g>
<g>
	<path style="fill:#314E55;" d="M316.65,121.041c-0.049-0.002-0.092-0.023-0.141-0.023h-0.073H28h-0.073
		c-0.049,0-0.092,0.02-0.141,0.023C12.451,121.159,0,133.623,0,148.955v176.855c0,15.404,12.564,27.936,28,27.936h288.436
		c15.437,0,28-12.532,28-27.936V148.955C344.436,133.623,331.985,121.159,316.65,121.041z M325.818,321.021l-93.91-101.736
		l87.515-79.048c3.693,1.255,6.395,4.632,6.395,8.718V321.021z M165.982,267.564c1.773,1.6,4,2.4,6.236,2.4
		c2.236,0,4.464-0.8,6.236-2.4l39.641-35.805l95.417,103.368H30.924l95.417-103.368L165.982,267.564z M292.318,139.636
		l-120.1,108.473l-120.1-108.473H292.318z M25.013,140.236l87.515,79.048l-93.91,101.736V148.955
		C18.618,144.868,21.32,141.491,25.013,140.236z"/>
	<path style="fill:#314E55;" d="M457.435,206.795c4.413,4.023,11.264,3.666,15.233-0.798l36.605-41.161
		c3.636-3.636,3.636-9.527,0-13.164c-3.636-3.636-9.527-3.636-13.164,0l-21.346,24.03V65.164h-18.618v110.539l-21.346-24.03
		c-3.636-3.636-9.527-3.636-13.164,0c-3.636,3.636-3.636,18.836,0,22.473L457.435,206.795z"/>
	<path style="fill:#314E55;" d="M496.109,388.916l-21.346,24.03V302.407h-18.618v110.539l-21.346-24.03
		c-3.636-3.636-9.527-3.636-13.164,0s-3.636,18.836,0,22.473l35.798,32.648c4.413,4.025,11.264,3.668,15.233-0.795l36.605-41.161
		c3.636-3.636,3.636-9.527,0-13.164C505.636,385.28,499.746,385.28,496.109,388.916z"/>
</g>
<g>
</g>
<g>
</g>
<g>
</g>
<g>
</g>
<g>
</g>
<g>
</g>
<g>
</g>
<g>
</g>
<g>
</g>
<g>
</g>
<g>
</g>
<g>
</g>
<g>
</g>
<g>
</g>
<g>
</g>
</svg>
