<?xml version="1.0" encoding="iso-8859-1"?>
<!-- Generator: Adobe Illustrator 19.0.0, SVG Export Plug-In . SVG Version: 6.00 Build 0)  -->
<svg version="1.1" id="Layer_1" xmlns="http://www.w3.org/2000/svg" xmlns:xlink="http://www.w3.org/1999/xlink" x="0px" y="0px"
	 viewBox="0 0 512 512" style="enable-background:new 0 0 512 512;" xml:space="preserve">
<g>
	<rect x="52.966" y="250.211" style="fill:#81A4E3;" width="17.655" height="17.655"/>
	<rect x="52.966" y="373.798" style="fill:#81A4E3;" width="17.655" height="17.655"/>
	<rect x="353.103" y="373.798" style="fill:#81A4E3;" width="17.655" height="17.655"/>
	<rect x="123.586" y="373.798" style="fill:#81A4E3;" width="158.897" height="17.655"/>
	<rect x="353.103" y="312.004" style="fill:#81A4E3;" width="17.655" height="17.655"/>
	<rect x="220.69" y="312.004" style="fill:#81A4E3;" width="17.655" height="17.655"/>
	<rect x="194.207" y="250.211" style="fill:#81A4E3;" width="17.655" height="17.655"/>
	<rect x="123.586" y="250.211" style="fill:#81A4E3;" width="17.655" height="17.655"/>
	<rect x="79.448" y="312.004" style="fill:#81A4E3;" width="17.655" height="17.655"/>
	<rect x="150.069" y="312.004" style="fill:#81A4E3;" width="17.655" height="17.655"/>
	<rect x="423.724" y="312.004" style="fill:#81A4E3;" width="17.655" height="17.655"/>
</g>
<path style="fill:#EAEAEA;" d="M485.577,214.892H26.423c-4.836,0-8.767,3.948-8.767,8.802v194.259c0,4.853,3.931,8.802,8.767,8.802
	h459.155c4.836,0,8.767-3.948,8.767-8.802V223.694C494.345,218.841,490.414,214.892,485.577,214.892z M256,303.168v35.31
	c0,4.875-3.948,8.828-8.828,8.828h-35.31c-4.879,0-8.828-3.953-8.828-8.828v-35.31c0-4.875,3.948-8.828,8.828-8.828h35.31
	C252.052,294.341,256,298.293,256,303.168z M176.552,241.375c0-4.875,3.948-8.828,8.828-8.828h35.31
	c4.879,0,8.828,3.953,8.828,8.828v35.31c0,4.875-3.948,8.828-8.828,8.828h-35.31c-4.879,0-8.828-3.953-8.828-8.828V241.375z
	 M185.379,303.168v35.31c0,4.875-3.948,8.828-8.828,8.828h-35.31c-4.879,0-8.828-3.953-8.828-8.828v-35.31
	c0-4.875,3.948-8.828,8.828-8.828h35.31C181.431,294.341,185.379,298.293,185.379,303.168z M105.931,241.375
	c0-4.875,3.948-8.828,8.828-8.828h35.31c4.879,0,8.828,3.953,8.828,8.828v35.31c0,4.875-3.948,8.828-8.828,8.828h-35.31
	c-4.879,0-8.828-3.953-8.828-8.828V241.375z M114.759,303.168v35.31c0,4.875-3.948,8.828-8.828,8.828h-35.31
	c-4.879,0-8.828-3.953-8.828-8.828v-35.31c0-4.875,3.948-8.828,8.828-8.828h35.31C110.81,294.341,114.759,298.293,114.759,303.168z
	 M35.31,241.375c0-4.875,3.948-8.828,8.828-8.828h35.31c4.879,0,8.828,3.953,8.828,8.828v35.31c0,4.875-3.948,8.828-8.828,8.828
	h-35.31c-4.879,0-8.828-3.953-8.828-8.828V241.375z M88.276,400.272c0,4.875-3.948,8.828-8.828,8.828h-35.31
	c-4.879,0-8.828-3.953-8.828-8.828v-35.31c0-4.875,3.948-8.828,8.828-8.828h35.31c4.879,0,8.828,3.953,8.828,8.828V400.272z
	 M300.138,400.272c0,4.875-3.948,8.828-8.828,8.828H114.759c-4.879,0-8.828-3.953-8.828-8.828v-35.31
	c0-4.875,3.948-8.828,8.828-8.828H291.31c4.879,0,8.828,3.953,8.828,8.828V400.272z M388.414,400.272
	c0,4.875-3.948,8.828-8.828,8.828h-35.31c-4.879,0-8.828-3.953-8.828-8.828v-35.31c0-4.875,3.948-8.828,8.828-8.828h35.31
	c4.879,0,8.828,3.953,8.828,8.828V400.272z M388.414,338.479c0,4.875-3.948,8.828-8.828,8.828h-35.31
	c-4.879,0-8.828-3.953-8.828-8.828v-35.31c0-4.875,3.948-8.828,8.828-8.828h35.31c4.879,0,8.828,3.953,8.828,8.828V338.479z
	 M388.414,276.685c0,4.875-3.948,8.828-8.828,8.828h-35.31c-4.879,0-8.828-3.953-8.828-8.828v-35.31
	c0-4.875,3.948-8.828,8.828-8.828h35.31c4.879,0,8.828,3.953,8.828,8.828V276.685z M459.034,400.272
	c0,4.875-3.948,8.828-8.828,8.828h-35.31c-4.879,0-8.828-3.953-8.828-8.828v-35.31c0-4.875,3.948-8.828,8.828-8.828h35.31
	c4.879,0,8.828,3.953,8.828,8.828V400.272z M459.034,338.479c0,4.875-3.948,8.828-8.828,8.828h-35.31
	c-4.879,0-8.828-3.953-8.828-8.828v-35.31c0-4.875,3.948-8.828,8.828-8.828h35.31c4.879,0,8.828,3.953,8.828,8.828V338.479z
	 M459.034,276.685c0,4.875-3.948,8.828-8.828,8.828h-35.31c-4.879,0-8.828-3.953-8.828-8.828v-35.31
	c0-4.875,3.948-8.828,8.828-8.828h35.31c4.879,0,8.828,3.953,8.828,8.828V276.685z"/>
<g>
	<rect x="423.724" y="250.211" style="fill:#81A4E3;" width="17.655" height="17.655"/>
	<rect x="423.724" y="373.798" style="fill:#81A4E3;" width="17.655" height="17.655"/>
	<rect x="353.103" y="250.211" style="fill:#81A4E3;" width="17.655" height="17.655"/>
</g>
<g>
	<path style="fill:#314E55;" d="M485.577,197.237H26.423C11.853,197.237,0,209.103,0,223.694v194.259
		c0,14.59,11.853,26.457,26.423,26.457h459.155c14.569,0,26.423-11.866,26.423-26.457V223.694
		C512,209.103,500.147,197.237,485.577,197.237z M494.345,417.953c0,4.853-3.931,8.802-8.767,8.802H26.423
		c-4.836,0-8.767-3.948-8.767-8.802V223.694c0-4.853,3.931-8.802,8.767-8.802h459.155c4.836,0,8.767,3.948,8.767,8.802
		L494.345,417.953L494.345,417.953z"/>
	<path style="fill:#314E55;" d="M44.138,285.513h35.31c4.879,0,8.828-3.953,8.828-8.828v-35.31c0-4.875-3.948-8.828-8.828-8.828
		h-35.31c-4.879,0-8.828,3.953-8.828,8.828v35.31C35.31,281.561,39.259,285.513,44.138,285.513z M52.966,250.203h17.655v17.655
		H52.966V250.203z"/>
	<path style="fill:#314E55;" d="M114.759,285.513h35.31c4.879,0,8.828-3.953,8.828-8.828v-35.31c0-4.875-3.948-8.828-8.828-8.828
		h-35.31c-4.879,0-8.828,3.953-8.828,8.828v35.31C105.931,281.561,109.879,285.513,114.759,285.513z M123.586,250.203h17.655v17.655
		h-17.655V250.203z"/>
	<path style="fill:#314E55;" d="M132.414,303.168v35.31c0,4.875,3.948,8.828,8.828,8.828h35.31c4.879,0,8.828-3.953,8.828-8.828
		v-35.31c0-4.875-3.948-8.828-8.828-8.828h-35.31C136.362,294.341,132.414,298.293,132.414,303.168z M150.069,311.996h17.655v17.655
		h-17.655V311.996z"/>
	<path style="fill:#314E55;" d="M61.793,303.168v35.31c0,4.875,3.948,8.828,8.828,8.828h35.31c4.879,0,8.828-3.953,8.828-8.828
		v-35.31c0-4.875-3.948-8.828-8.828-8.828h-35.31C65.741,294.341,61.793,298.293,61.793,303.168z M79.448,311.996h17.655v17.655
		H79.448V311.996z"/>
	<path style="fill:#314E55;" d="M203.034,303.168v35.31c0,4.875,3.948,8.828,8.828,8.828h35.31c4.879,0,8.828-3.953,8.828-8.828
		v-35.31c0-4.875-3.948-8.828-8.828-8.828h-35.31C206.983,294.341,203.034,298.293,203.034,303.168z M220.69,311.996h17.655v17.655
		H220.69V311.996z"/>
	<path style="fill:#314E55;" d="M79.448,356.134h-35.31c-4.879,0-8.828,3.953-8.828,8.828v35.31c0,4.875,3.948,8.828,8.828,8.828
		h35.31c4.879,0,8.828-3.953,8.828-8.828v-35.31C88.276,360.086,84.327,356.134,79.448,356.134z M70.621,391.444H52.966v-17.655
		h17.655V391.444z"/>
	<path style="fill:#314E55;" d="M185.379,285.513h35.31c4.879,0,8.828-3.953,8.828-8.828v-35.31c0-4.875-3.948-8.828-8.828-8.828
		h-35.31c-4.879,0-8.828,3.953-8.828,8.828v35.31C176.552,281.561,180.5,285.513,185.379,285.513z M194.207,250.203h17.655v17.655
		h-17.655V250.203z"/>
	<path style="fill:#314E55;" d="M379.586,232.548h-35.31c-4.879,0-8.828,3.953-8.828,8.828v35.31c0,4.875,3.948,8.828,8.828,8.828
		h35.31c4.879,0,8.828-3.953,8.828-8.828v-35.31C388.414,236.5,384.465,232.548,379.586,232.548z M370.759,267.858h-17.655v-17.655
		h17.655V267.858z"/>
	<path style="fill:#314E55;" d="M379.586,294.341h-35.31c-4.879,0-8.828,3.953-8.828,8.828v35.31c0,4.875,3.948,8.828,8.828,8.828
		h35.31c4.879,0,8.828-3.953,8.828-8.828v-35.31C388.414,298.293,384.465,294.341,379.586,294.341z M370.759,329.651h-17.655
		v-17.655h17.655V329.651z"/>
	<path style="fill:#314E55;" d="M450.207,294.341h-35.31c-4.879,0-8.828,3.953-8.828,8.828v35.31c0,4.875,3.948,8.828,8.828,8.828
		h35.31c4.879,0,8.828-3.953,8.828-8.828v-35.31C459.034,298.293,455.086,294.341,450.207,294.341z M441.379,329.651h-17.655
		v-17.655h17.655V329.651z"/>
	<path style="fill:#314E55;" d="M379.586,356.134h-35.31c-4.879,0-8.828,3.953-8.828,8.828v35.31c0,4.875,3.948,8.828,8.828,8.828
		h35.31c4.879,0,8.828-3.953,8.828-8.828v-35.31C388.414,360.086,384.465,356.134,379.586,356.134z M370.759,391.444h-17.655
		v-17.655h17.655V391.444z"/>
	<path style="fill:#314E55;" d="M450.207,356.134h-35.31c-4.879,0-8.828,3.953-8.828,8.828v35.31c0,4.875,3.948,8.828,8.828,8.828
		h35.31c4.879,0,8.828-3.953,8.828-8.828v-35.31C459.034,360.086,455.086,356.134,450.207,356.134z M441.379,391.444h-17.655
		v-17.655h17.655V391.444z"/>
	<path style="fill:#314E55;" d="M450.207,232.548h-35.31c-4.879,0-8.828,3.953-8.828,8.828v35.31c0,4.875,3.948,8.828,8.828,8.828
		h35.31c4.879,0,8.828-3.953,8.828-8.828v-35.31C459.034,236.5,455.086,232.548,450.207,232.548z M441.379,267.858h-17.655v-17.655
		h17.655V267.858z"/>
	<path style="fill:#314E55;" d="M291.31,356.134H114.759c-4.879,0-8.828,3.953-8.828,8.828v35.31c0,4.875,3.948,8.828,8.828,8.828
		H291.31c4.879,0,8.828-3.953,8.828-8.828v-35.31C300.138,360.086,296.19,356.134,291.31,356.134z M282.483,391.444H123.586v-17.655
		h158.897V391.444z"/>
	<path style="fill:#314E55;" d="M187.336,138.03c-3.448,3.448-3.448,9.035,0,12.483c3.448,3.448,9.035,3.448,12.483,0
		c30.983-30.974,81.379-30.974,112.362,0c1.724,1.724,3.983,2.586,6.241,2.586s4.517-0.862,6.241-2.586
		c3.448-3.448,3.448-9.035,0-12.483C286.802,100.168,225.198,100.168,187.336,138.03z"/>
	<path style="fill:#314E55;" d="M162.371,124.03C187.379,99.022,220.629,85.246,256,85.246s68.621,13.776,93.629,38.784
		c1.724,1.724,3.983,2.586,6.241,2.586c2.259,0,4.517-0.862,6.241-2.586c3.448-3.448,3.448-9.035,0-12.483
		C333.767,83.203,296.086,67.591,256,67.591s-77.767,15.612-106.112,43.957c-3.448,3.448-3.448,9.035,0,12.483
		C153.336,127.478,158.922,127.479,162.371,124.03z"/>
</g>
<g>
</g>
<g>
</g>
<g>
</g>
<g>
</g>
<g>
</g>
<g>
</g>
<g>
</g>
<g>
</g>
<g>
</g>
<g>
</g>
<g>
</g>
<g>
</g>
<g>
</g>
<g>
</g>
<g>
</g>
</svg>
