<?xml version="1.0" encoding="iso-8859-1"?>
<!-- Generator: Adobe Illustrator 19.0.0, SVG Export Plug-In . SVG Version: 6.00 Build 0)  -->
<svg version="1.1" id="Layer_1" xmlns="http://www.w3.org/2000/svg" xmlns:xlink="http://www.w3.org/1999/xlink" x="0px" y="0px"
	 viewBox="0 0 512 512" style="enable-background:new 0 0 512 512;" xml:space="preserve">
<g>
	<rect x="173.559" y="303.729" style="fill:#81A4E3;" width="26.034" height="17.356"/>
	<rect x="242.983" y="442.576" style="fill:#81A4E3;" width="26.034" height="17.356"/>
	<rect x="242.983" y="373.153" style="fill:#81A4E3;" width="26.034" height="17.356"/>
	<rect x="242.983" y="303.729" style="fill:#81A4E3;" width="26.034" height="17.356"/>
</g>
<path style="fill:#73C9C9;" d="M225.703,242.983h60.593c19.182,0,34.788-15.572,34.788-34.712s-15.606-34.712-34.788-34.712h-60.593
	c-19.182,0-34.788,15.572-34.788,34.712S206.521,242.983,225.703,242.983z"/>
<g>
	<rect x="173.559" y="442.576" style="fill:#81A4E3;" width="26.034" height="17.356"/>
	<rect x="173.559" y="373.153" style="fill:#81A4E3;" width="26.034" height="17.356"/>
	<rect x="312.407" y="303.729" style="fill:#81A4E3;" width="26.034" height="17.356"/>
</g>
<path style="fill:#E9E7D1;" d="M338.441,128.936V17.356h-26.034v93.229l-11.051-3.144c-7.712-2.195-15.733-3.305-23.843-3.305
	h-43.025c-47.949,0-86.962,39.004-86.962,86.949v287.339c0,8.945,7.254,16.22,16.174,16.22h184.602
	c8.919,0,16.174-7.275,16.174-16.22V191.085c0-22.275-8.407-43.453-23.67-59.64L338.441,128.936z M225.703,156.203h60.593
	c28.754,0,52.144,23.356,52.144,52.068s-23.39,52.068-52.144,52.068h-60.593c-28.754,0-52.144-23.356-52.144-52.068
	S196.949,156.203,225.703,156.203z M216.949,477.288h-60.746V425.22h60.746V477.288z M216.949,407.864h-60.746v-52.068h60.746
	V407.864z M216.949,338.441h-60.746v-52.068h60.746V338.441z M286.373,477.288h-60.746V425.22h60.746V477.288z M286.373,407.864
	h-60.746v-52.068h60.746V407.864z M286.373,338.441h-60.746v-52.068h60.746V338.441z M355.797,477.288h-60.746V425.22h60.746
	V477.288z M355.797,407.864h-60.746v-52.068h60.746V407.864z M355.797,338.441h-60.746v-52.068h60.746V338.441z"/>
<g>
	<rect x="312.407" y="373.153" style="fill:#81A4E3;" width="26.034" height="17.356"/>
	<rect x="312.407" y="442.576" style="fill:#81A4E3;" width="26.034" height="17.356"/>
</g>
<g>
	<path style="fill:#314E55;" d="M355.797,122.131V0h-60.746v88.25c-5.771-0.979-11.636-1.47-17.538-1.47h-43.025
		c-57.521,0-104.318,46.792-104.318,104.305v287.339c0,18.513,15.042,33.576,33.53,33.576h184.602
		c18.487,0,33.53-15.064,33.53-33.576V191.085C381.831,165.538,372.61,141.191,355.797,122.131z M364.475,478.424
		c0,8.945-7.254,16.22-16.174,16.22H163.699c-8.919,0-16.174-7.275-16.174-16.22V191.085c0-47.945,39.013-86.949,86.962-86.949
		h43.025c8.11,0,16.131,1.11,23.843,3.305l11.051,3.144V17.356h26.034v111.58l2.364,2.508c15.263,16.187,23.67,37.365,23.67,59.64
		V478.424z"/>
	<path style="fill:#314E55;" d="M225.703,260.339h60.593c28.754,0,52.144-23.356,52.144-52.068s-23.39-52.068-52.144-52.068h-60.593
		c-28.754,0-52.144,23.356-52.144,52.068S196.949,260.339,225.703,260.339z M225.703,173.559h60.593
		c19.182,0,34.788,15.572,34.788,34.712s-15.606,34.712-34.788,34.712h-60.593c-19.182,0-34.788-15.572-34.788-34.712
		S206.521,173.559,225.703,173.559z"/>
	<path style="fill:#314E55;" d="M156.203,338.441h60.746v-52.068h-60.746V338.441z M173.559,303.729h26.034v17.356h-26.034V303.729z
		"/>
	<path style="fill:#314E55;" d="M295.051,338.441h60.746v-52.068h-60.746V338.441z M312.407,303.729h26.034v17.356h-26.034V303.729z
		"/>
	<path style="fill:#314E55;" d="M225.627,338.441h60.746v-52.068h-60.746V338.441z M242.983,303.729h26.034v17.356h-26.034V303.729z
		"/>
	<path style="fill:#314E55;" d="M156.203,407.864h60.746v-52.068h-60.746V407.864z M173.559,373.153h26.034v17.356h-26.034V373.153z
		"/>
	<path style="fill:#314E55;" d="M295.051,407.864h60.746v-52.068h-60.746V407.864z M312.407,373.153h26.034v17.356h-26.034V373.153z
		"/>
	<path style="fill:#314E55;" d="M225.627,407.864h60.746v-52.068h-60.746V407.864z M242.983,373.153h26.034v17.356h-26.034V373.153z
		"/>
	<path style="fill:#314E55;" d="M156.203,477.288h60.746V425.22h-60.746V477.288z M173.559,442.576h26.034v17.356h-26.034V442.576z"
		/>
	<path style="fill:#314E55;" d="M295.051,477.288h60.746V425.22h-60.746V477.288z M312.407,442.576h26.034v17.356h-26.034V442.576z"
		/>
	<path style="fill:#314E55;" d="M225.627,477.288h60.746V425.22h-60.746V477.288z M242.983,442.576h26.034v17.356h-26.034V442.576z"
		/>
</g>
<g>
</g>
<g>
</g>
<g>
</g>
<g>
</g>
<g>
</g>
<g>
</g>
<g>
</g>
<g>
</g>
<g>
</g>
<g>
</g>
<g>
</g>
<g>
</g>
<g>
</g>
<g>
</g>
<g>
</g>
</svg>
