<?xml version="1.0" encoding="iso-8859-1"?>
<!-- Generator: Adobe Illustrator 19.0.0, SVG Export Plug-In . SVG Version: 6.00 Build 0)  -->
<svg version="1.1" id="Layer_1" xmlns="http://www.w3.org/2000/svg" xmlns:xlink="http://www.w3.org/1999/xlink" x="0px" y="0px"
	 viewBox="0 0 512 512" style="enable-background:new 0 0 512 512;" xml:space="preserve">
<path style="fill:#73C9C9;" d="M132.571,484.576c0,5.125,3.987,9.138,9.08,9.138h228.696c5.009,0,9.08-4.098,9.08-9.138v-64.005
	H132.571V484.576z M260.571,429.714c15.125,0,27.429,12.304,27.429,27.429s-12.304,27.429-27.429,27.429
	s-27.429-12.304-27.429-27.429S245.446,429.714,260.571,429.714z"/>
<g>
	<circle style="fill:#EAEAEA;" cx="260.571" cy="457.143" r="9.143"/>
	<path style="fill:#EAEAEA;" d="M379.429,27.464c0-5.062-4.071-9.179-9.08-9.179H141.652c-5.009,0-9.08,4.116-9.08,9.179v374.603
		h246.857V27.464z M260.804,165.219l-13.161-12.696l97.848-101.451l13.161,12.696L260.804,165.219z"/>
</g>
<g>
	<path style="fill:#314E55;" d="M370.348,0H141.652c-15.089,0-27.366,12.321-27.366,27.464v374.822v18.067v64.223
		c0,15.12,12.277,27.424,27.366,27.424h228.696c15.089,0,27.366-12.304,27.366-27.424v-64.223v-18.067V27.464
		C397.714,12.321,385.438,0,370.348,0z M379.429,484.576c0,5.04-4.071,9.138-9.08,9.138H141.652c-5.094,0-9.08-4.013-9.08-9.138
		v-64.005h246.857V484.576z M132.571,27.464c0-5.062,4.071-9.179,9.08-9.179h228.696c5.009,0,9.08,4.116,9.08,9.179v374.603H132.571
		V27.464z"/>
	<path style="fill:#314E55;" d="M260.571,484.571c15.125,0,27.429-12.304,27.429-27.429s-12.304-27.429-27.429-27.429
		s-27.429,12.304-27.429,27.429S245.446,484.571,260.571,484.571z M260.571,448c5.04,0,9.143,4.103,9.143,9.143
		s-4.103,9.143-9.143,9.143c-5.04,0-9.143-4.103-9.143-9.143S255.531,448,260.571,448z"/>
	
		<rect x="232.665" y="98.99" transform="matrix(-0.6943 0.7197 -0.7197 -0.6943 591.4406 -34.9626)" style="fill:#314E55;" width="140.961" height="18.286"/>
</g>
<g>
</g>
<g>
</g>
<g>
</g>
<g>
</g>
<g>
</g>
<g>
</g>
<g>
</g>
<g>
</g>
<g>
</g>
<g>
</g>
<g>
</g>
<g>
</g>
<g>
</g>
<g>
</g>
<g>
</g>
</svg>
