<?xml version="1.0" encoding="iso-8859-1"?>
<!-- Generator: Adobe Illustrator 19.0.0, SVG Export Plug-In . SVG Version: 6.00 Build 0)  -->
<svg version="1.1" id="Layer_1" xmlns="http://www.w3.org/2000/svg" xmlns:xlink="http://www.w3.org/1999/xlink" x="0px" y="0px"
	 viewBox="0 0 512 512" style="enable-background:new 0 0 512 512;" xml:space="preserve">
<polygon style="fill:#81A4E3;" points="451.784,375.638 466.393,331.814 422.573,346.424 "/>
<path style="fill:#EAEAEA;" d="M130.299,400.106c3.379-3.383,3.379-8.884,0-12.268c-3.252-3.269-8.977-3.273-12.263,0.004
	c-3.379,3.379-3.379,8.88,0,12.263C121.313,403.384,127.039,403.375,130.299,400.106z"/>
<path style="fill:#73C9C9;" d="M19.92,326.521c-1.66,1.66-2.575,3.841-2.575,6.14c0,2.291,0.898,4.451,2.532,6.085l153.395,153.391
	c3.362,3.366,8.859,3.341,12.221-0.042l42.931-42.926L62.85,283.594L19.92,326.521z M105.773,375.575
	c9.824-9.833,26.966-9.816,36.791,0c10.146,10.142,10.146,26.653,0,36.795c-4.912,4.912-11.442,7.618-18.395,7.618
	c-6.945,0-13.483-2.706-18.395-7.614v-0.004C95.626,402.227,95.626,385.717,105.773,375.575z"/>
<polygon style="fill:#81A4E3;" points="171.528,36.949 127.708,51.558 156.918,80.773 "/>
<path style="fill:#EAEAEA;" d="M338.761,19.858c-3.371-3.362-8.859-3.324-12.246,0.064L75.258,271.183l165.574,165.574
	L492.089,185.5c1.651-1.651,2.558-3.837,2.566-6.161c0.008-2.308-0.881-4.467-2.498-6.089L338.761,19.858z M381.768,197.454H251.681
	v-17.345h130.088V197.454z M442.476,171.436H312.388v-17.345h130.088V171.436z"/>
<g>
	<path style="fill:#314E55;" d="M477.361,309.875l-73.589,24.531c-2.854,0.953-5.005,3.311-5.7,6.238
		c-0.686,2.922,0.186,5.996,2.312,8.122l12.264,12.263L308.399,465.281l12.263,12.263l104.249-104.253l24.534,24.532
		c1.643,1.647,3.862,2.541,6.132,2.541c0.661,0,1.33-0.076,1.99-0.233c2.93-0.69,5.285-2.846,6.233-5.696l24.527-73.589
		c1.042-3.117,0.229-6.555-2.092-8.876C483.916,309.642,480.486,308.829,477.361,309.875z M451.784,375.638l-29.211-29.215
		l43.82-14.609L451.784,375.638z"/>
	<path style="fill:#314E55;" d="M25.797,182.679L130.046,78.426l24.534,24.532c1.643,1.647,3.862,2.541,6.132,2.541
		c0.661,0,1.33-0.076,1.99-0.233c2.93-0.69,5.285-2.846,6.233-5.696l24.527-73.589c1.042-3.117,0.229-6.555-2.092-8.876
		c-2.321-2.329-5.751-3.142-8.876-2.096l-73.589,24.531c-2.854,0.953-5.005,3.311-5.7,6.238c-0.686,2.922,0.186,5.996,2.312,8.122
		l12.264,12.263L13.534,170.416L25.797,182.679z M171.528,36.949l-14.609,43.824l-29.211-29.215L171.528,36.949z"/>
	<path style="fill:#314E55;" d="M504.42,160.985L351.025,7.594c-10.121-10.129-26.619-10.091-36.773,0.064L50.731,271.183
		l0.001,0.001L7.656,314.253C2.727,319.186,0.008,325.721,0,332.657c0,6.928,2.702,13.445,7.614,18.353L161.009,504.4
		c5.056,5.052,11.688,7.58,18.336,7.58c6.665,0,13.331-2.541,18.412-7.618l55.194-55.194l-0.002-0.002l251.403-251.399
		c4.912-4.912,7.631-11.438,7.648-18.378C512.025,172.427,509.332,165.893,504.42,160.985z M185.493,492.095
		c-3.362,3.383-8.859,3.409-12.221,0.042L19.877,338.746c-1.635-1.635-2.532-3.794-2.532-6.085c0-2.299,0.915-4.48,2.575-6.14
		l42.931-42.926l165.574,165.574L185.493,492.095z M492.089,185.5L240.831,436.757L75.258,271.183L326.515,19.921
		c3.388-3.388,8.876-3.426,12.246-0.064l153.395,153.391c1.618,1.622,2.507,3.781,2.498,6.089
		C494.646,181.663,493.74,183.848,492.089,185.5z"/>
	<path style="fill:#314E55;" d="M105.773,412.374c4.912,4.908,11.45,7.614,18.395,7.614c6.953,0,13.483-2.706,18.395-7.618
		c10.146-10.142,10.146-26.653,0-36.795c-9.824-9.816-26.966-9.833-36.791,0c-10.146,10.142-10.146,26.653,0,36.795V412.374z
		 M118.036,387.842c3.286-3.278,9.011-3.273,12.263-0.004c3.379,3.383,3.379,8.884,0,12.268c-3.261,3.269-8.986,3.278-12.263,0
		C114.657,396.722,114.657,391.222,118.036,387.842z"/>
	<rect x="312.384" y="154.087" style="fill:#314E55;" width="130.088" height="17.345"/>
	<rect x="251.676" y="180.104" style="fill:#314E55;" width="130.088" height="17.345"/>
</g>
<g>
</g>
<g>
</g>
<g>
</g>
<g>
</g>
<g>
</g>
<g>
</g>
<g>
</g>
<g>
</g>
<g>
</g>
<g>
</g>
<g>
</g>
<g>
</g>
<g>
</g>
<g>
</g>
<g>
</g>
</svg>
