<?xml version="1.0" encoding="iso-8859-1"?>
<!-- Generator: Adobe Illustrator 19.0.0, SVG Export Plug-In . SVG Version: 6.00 Build 0)  -->
<svg version="1.1" id="Layer_1" xmlns="http://www.w3.org/2000/svg" xmlns:xlink="http://www.w3.org/1999/xlink" x="0px" y="0px"
	 viewBox="0 0 512 512" style="enable-background:new 0 0 512 512;" xml:space="preserve">
<g>
	<path style="fill:#73C9C9;" d="M256,467.692h236.308V280.615H256V467.692z M324.923,329.846c0-3.5,1.856-6.731,4.875-8.5
		c3.029-1.759,6.75-1.798,9.798-0.077l78.769,44.308c3.096,1.74,5.019,5.019,5.019,8.577c0,3.558-1.923,6.836-5.019,8.577
		l-78.769,44.308c-1.5,0.846-3.163,1.269-4.827,1.269c-1.721,0-3.433-0.452-4.971-1.346c-3.019-1.769-4.875-5-4.875-8.5V329.846z"/>
	<polygon style="fill:#73C9C9;" points="344.615,346.683 344.615,401.625 393.452,374.154 	"/>
</g>
<g>
	<path style="fill:#314E55;" d="M206.769,418.462V231.385h105.819c0.036,1.939,0.171,3.835,0.171,5.789
		c0,5.442,4.404,9.846,9.846,9.846s9.846-4.404,9.846-9.846c0-1.954-0.148-3.848-0.183-5.789h61.578h13.904h5.789
		c0-114.01-92.76-206.769-206.769-206.769h-19.692v0.998C82.276,35.569,0,124.022,0,231.385c0,114.01,92.76,206.769,206.769,206.769
		c5.442,0,9.846-4.404,9.846-9.846S212.211,418.462,206.769,418.462z M187.077,415.201c-49.055-15.847-86.298-89.586-86.298-178.028
		c0-1.954,0.135-3.849,0.171-5.789h86.127V415.201z M101.951,211.692c6.362-76.814,40.88-138.246,85.126-152.539v152.539H101.951z
		 M206.769,211.692V55.894c53.373,0,97.538,67.891,104.818,155.798H206.769z M392.788,211.692h-61.461
		c-5.879-73.8-36.825-135.117-78.767-161.48C327.434,69.157,384.532,133.164,392.788,211.692z M160.979,50.212
		c-41.943,26.364-72.888,87.68-78.768,161.48H20.751C29.007,133.164,86.105,69.157,160.979,50.212z M19.692,231.385H81.27
		c-0.035,1.94-0.183,3.835-0.183,5.789c0,70.234,22.688,132.079,56.919,168.025C68.813,377.722,19.692,310.246,19.692,231.385z"/>
	<path style="fill:#314E55;" d="M502.154,260.923h-256c-5.442,0-9.846,4.404-9.846,9.846v206.769c0,5.442,4.404,9.846,9.846,9.846
		h256c5.442,0,9.846-4.404,9.846-9.846V270.769C512,265.327,507.596,260.923,502.154,260.923z M492.308,467.692H256V280.615h236.308
		V467.692z"/>
	<path style="fill:#314E55;" d="M329.798,426.961c1.538,0.894,3.25,1.346,4.971,1.346c1.663,0,3.327-0.423,4.827-1.269
		l78.769-44.308c3.096-1.741,5.019-5.019,5.019-8.577c0-3.558-1.923-6.836-5.019-8.577l-78.769-44.308
		c-3.048-1.721-6.769-1.683-9.798,0.077c-3.019,1.769-4.875,5-4.875,8.5v88.615C324.923,421.962,326.779,425.192,329.798,426.961z
		 M344.615,346.683l48.836,27.471l-48.836,27.471V346.683z"/>
</g>
<g>
</g>
<g>
</g>
<g>
</g>
<g>
</g>
<g>
</g>
<g>
</g>
<g>
</g>
<g>
</g>
<g>
</g>
<g>
</g>
<g>
</g>
<g>
</g>
<g>
</g>
<g>
</g>
<g>
</g>
</svg>
