<?xml version="1.0" encoding="iso-8859-1"?>
<!-- Generator: Adobe Illustrator 19.0.0, SVG Export Plug-In . SVG Version: 6.00 Build 0)  -->
<svg version="1.1" id="Layer_1" xmlns="http://www.w3.org/2000/svg" xmlns:xlink="http://www.w3.org/1999/xlink" x="0px" y="0px"
	 viewBox="0 0 512 512" style="enable-background:new 0 0 512 512;" xml:space="preserve">
<g>
	<polygon style="fill:#E4D759;" points="405.319,457.191 430.957,485.935 489.211,427.667 460.476,402.037 	"/>
	<path style="fill:#E4D759;" d="M446.608,389.669L263.794,226.616c-3.243-2.895-4.041-7.656-1.912-11.452
		c28.249-50.459,19.388-114.298-21.553-155.244c-30.359-30.36-73.185-43.505-114.761-36.031l88.514,88.51
		c3.624,3.624,3.624,9.495,0,13.118l-91.839,91.844c-3.479,3.479-9.64,3.479-13.118,0l-88.515-88.514
		c-7.465,41.585,5.672,84.397,36.031,114.756c43.224,43.215,111.671,50.373,162.759,17.001c1.558-1.015,3.316-1.508,5.073-1.508
		c2.564,0,5.11,1.065,6.922,3.103L392.95,443.324L446.608,389.669z M146.433,253.016c-5.128,0-9.277-4.154-9.277-9.277
		s4.149-9.277,9.277-9.277c48.597,0,88.134-39.537,88.134-88.134c0-5.123,4.149-9.277,9.277-9.277c5.128,0,9.277,4.154,9.277,9.277
		C253.122,205.158,205.259,253.016,146.433,253.016z"/>
</g>
<g>
	<path style="fill:#314E55;" d="M508.898,420.36L281.561,217.597c27.977-56.542,16.897-125.777-28.113-170.795
		C214.427,7.781,157.378-6.343,104.614,9.924c-3.107,0.96-5.481,3.474-6.269,6.632c-0.779,3.157,0.145,6.491,2.446,8.792
		l93.615,93.61l-78.721,78.725L22.07,104.069c-2.301-2.297-5.635-3.221-8.797-2.446c-3.153,0.784-5.671,3.162-6.632,6.274
		c-16.271,52.778-2.138,109.805,36.882,148.825c47.492,47.492,121.655,56.85,179.194,23.619l200.928,225.272
		c1.694,1.907,4.104,3.026,6.659,3.098c0.091,0.005,0.172,0.005,0.263,0.005c2.455,0,4.82-0.974,6.559-2.718l72.152-72.157
		c1.803-1.803,2.79-4.272,2.718-6.822C511.924,424.464,510.801,422.059,508.898,420.36z M224.475,259.095
		c-1.758,0-3.515,0.494-5.073,1.508c-51.088,33.372-119.535,26.214-162.759-17.001c-30.36-30.359-43.496-73.171-36.031-114.756
		l88.515,88.514c3.479,3.479,9.64,3.479,13.118,0l91.839-91.844c3.624-3.624,3.624-9.495,0-13.118l-88.514-88.51
		c41.575-7.474,84.401,5.671,114.761,36.031c40.941,40.946,49.802,104.786,21.553,155.244c-2.129,3.796-1.332,8.557,1.912,11.452
		l182.814,163.053l-53.658,53.656L231.396,262.198C229.584,260.16,227.039,259.095,224.475,259.095z M430.957,485.935
		l-25.638-28.743l55.157-55.154l28.735,25.629L430.957,485.935z"/>
	<path style="fill:#314E55;" d="M243.844,137.051c-5.128,0-9.277,4.154-9.277,9.277c0,48.597-39.537,88.134-88.134,88.134
		c-5.128,0-9.277,4.154-9.277,9.277s4.149,9.277,9.277,9.277c58.825,0,106.688-47.858,106.688-106.688
		C253.122,141.205,248.972,137.051,243.844,137.051z"/>
</g>
<g>
</g>
<g>
</g>
<g>
</g>
<g>
</g>
<g>
</g>
<g>
</g>
<g>
</g>
<g>
</g>
<g>
</g>
<g>
</g>
<g>
</g>
<g>
</g>
<g>
</g>
<g>
</g>
<g>
</g>
</svg>
