<?xml version="1.0" encoding="iso-8859-1"?>
<!-- Generator: Adobe Illustrator 19.0.0, SVG Export Plug-In . SVG Version: 6.00 Build 0)  -->
<svg version="1.1" id="Layer_1" xmlns="http://www.w3.org/2000/svg" xmlns:xlink="http://www.w3.org/1999/xlink" x="0px" y="0px"
	 viewBox="0 0 512 512" style="enable-background:new 0 0 512 512;" xml:space="preserve">
<circle style="fill:#EAEAEA;" cx="256" cy="256" r="17.655"/>
<path style="fill:#E4AD40;" d="M326.621,264.828c0-38.94-31.681-70.621-70.621-70.621s-70.621,31.681-70.621,70.621
	c0,22.423,26.28,66.543,70.621,118.836C300.341,331.371,326.621,287.25,326.621,264.828z M220.69,256
	c0-19.47,15.84-35.31,35.31-35.31s35.31,15.84,35.31,35.31s-15.84,35.31-35.31,35.31S220.69,275.47,220.69,256z"/>
<path style="fill:#EAEAEA;" d="M17.655,450.207h476.69V132.414H17.655V450.207z M256,176.552c48.677,0,88.276,39.599,88.276,88.276
	c0,38.129-50.332,102.013-80.336,136.703l-0.414,0.487L256,418.47l-7.94-16.94c-30.004-34.69-80.336-98.573-80.336-136.702
	C167.724,216.151,207.323,176.552,256,176.552z"/>
<path style="fill:#73C9C9;" d="M17.655,61.793v52.966h476.69V61.793H17.655z M44.138,105.931c-9.737,0-17.655-7.918-17.655-17.655
	s7.918-17.655,17.655-17.655s17.655,7.918,17.655,17.655S53.875,105.931,44.138,105.931z M88.276,105.931
	c-9.737,0-17.655-7.918-17.655-17.655s7.918-17.655,17.655-17.655s17.655,7.918,17.655,17.655S98.013,105.931,88.276,105.931z
	 M132.414,105.931c-9.737,0-17.655-7.918-17.655-17.655s7.918-17.655,17.655-17.655c9.737,0,17.655,7.918,17.655,17.655
	S142.151,105.931,132.414,105.931z"/>
<g>
	<path style="fill:#314E55;" d="M0,44.138v70.621v17.655v335.448h512V132.414v-17.655V44.138H0z M494.345,450.207H17.655V132.414
		h476.69V450.207z M17.655,114.759V61.793h476.69v52.966H17.655z"/>
	<circle style="fill:#314E55;" cx="44.138" cy="88.276" r="17.655"/>
	<circle style="fill:#314E55;" cx="88.276" cy="88.276" r="17.655"/>
	<circle style="fill:#314E55;" cx="132.414" cy="88.276" r="17.655"/>
	<path style="fill:#314E55;" d="M256,418.47l7.526-16.453l0.414-0.487c30.004-34.69,80.336-98.573,80.336-136.702
		c0-48.677-39.599-88.276-88.276-88.276s-88.276,39.599-88.276,88.276c0,38.129,50.332,102.013,80.336,136.703L256,418.47z
		 M256,194.207c38.94,0,70.621,31.681,70.621,70.621c0,22.423-26.28,66.543-70.621,118.836
		c-44.341-52.293-70.621-96.414-70.621-118.836C185.379,225.888,217.06,194.207,256,194.207z"/>
	<path style="fill:#314E55;" d="M291.31,256c0-19.47-15.84-35.31-35.31-35.31s-35.31,15.84-35.31,35.31s15.84,35.31,35.31,35.31
		S291.31,275.47,291.31,256z M238.345,256c0-9.737,7.918-17.655,17.655-17.655s17.655,7.918,17.655,17.655
		s-7.918,17.655-17.655,17.655S238.345,265.737,238.345,256z"/>
</g>
<g>
</g>
<g>
</g>
<g>
</g>
<g>
</g>
<g>
</g>
<g>
</g>
<g>
</g>
<g>
</g>
<g>
</g>
<g>
</g>
<g>
</g>
<g>
</g>
<g>
</g>
<g>
</g>
<g>
</g>
</svg>
