<?xml version="1.0" encoding="iso-8859-1"?>
<!-- Generator: Adobe Illustrator 19.0.0, SVG Export Plug-In . SVG Version: 6.00 Build 0)  -->
<svg version="1.1" id="Layer_1" xmlns="http://www.w3.org/2000/svg" xmlns:xlink="http://www.w3.org/1999/xlink" x="0px" y="0px"
	 viewBox="0 0 512 512" style="enable-background:new 0 0 512 512;" xml:space="preserve">
<path style="fill:#EAEAEA;" d="M17.655,450.207h476.69V132.414H17.655V450.207z M315.168,241.414
	c-4.155-2.552-5.453-7.987-2.901-12.142c2.552-4.16,7.983-5.457,12.142-2.901l86.28,53.004c2.612,1.608,4.207,4.453,4.207,7.522
	s-1.595,5.918-4.207,7.522l-86.28,53c-1.44,0.884-3.039,1.306-4.612,1.306c-2.966,0-5.862-1.496-7.53-4.207
	c-2.552-4.155-1.254-9.591,2.901-12.142l74.034-45.478L315.168,241.414z M208.164,380.521l79.448-185.379
	c1.914-4.478,7.104-6.565,11.591-4.634c4.478,1.918,6.556,7.108,4.634,11.591l-79.448,185.379c-1.431,3.345-4.69,5.353-8.116,5.353
	c-1.16,0-2.34-0.233-3.474-0.72C208.319,390.194,206.241,385.004,208.164,380.521z M102.289,279.375l86.28-53.004
	c4.147-2.56,9.586-1.25,12.142,2.901c2.552,4.155,1.254,9.591-2.901,12.142l-74.035,45.483l74.035,45.478
	c4.155,2.552,5.453,7.987,2.901,12.142c-1.668,2.711-4.565,4.207-7.53,4.207c-1.577,0-3.172-0.422-4.612-1.306l-86.28-53
	c-2.612-1.604-4.207-4.453-4.207-7.522S99.677,280.983,102.289,279.375z"/>
<path style="fill:#5ECC66;" d="M17.655,61.793v52.966h476.69V61.793H17.655z M44.138,105.931c-9.737,0-17.655-7.918-17.655-17.655
	s7.918-17.655,17.655-17.655s17.655,7.918,17.655,17.655S53.875,105.931,44.138,105.931z M88.276,105.931
	c-9.737,0-17.655-7.918-17.655-17.655s7.918-17.655,17.655-17.655s17.655,7.918,17.655,17.655S98.013,105.931,88.276,105.931z
	 M132.414,105.931c-9.737,0-17.655-7.918-17.655-17.655s7.918-17.655,17.655-17.655c9.737,0,17.655,7.918,17.655,17.655
	S142.151,105.931,132.414,105.931z"/>
<g>
	<path style="fill:#314E55;" d="M0,44.138v70.621v17.655v335.448h512V132.414v-17.655V44.138H0z M494.345,450.207H17.655V132.414
		h476.69V450.207z M17.655,114.759V61.793h476.69v52.966H17.655z"/>
	<circle style="fill:#314E55;" cx="44.138" cy="88.276" r="17.655"/>
	<circle style="fill:#314E55;" cx="88.276" cy="88.276" r="17.655"/>
	<circle style="fill:#314E55;" cx="132.414" cy="88.276" r="17.655"/>
	<path style="fill:#314E55;" d="M212.797,392.112c1.134,0.487,2.315,0.72,3.474,0.72c3.427,0,6.685-2.009,8.116-5.353
		l79.448-185.379c1.922-4.483-0.155-9.672-4.634-11.591c-4.487-1.931-9.677,0.155-11.591,4.634l-79.448,185.379
		C206.241,385.004,208.319,390.194,212.797,392.112z"/>
	<path style="fill:#314E55;" d="M102.289,294.418l86.28,53c1.44,0.884,3.034,1.306,4.612,1.306c2.966,0,5.862-1.496,7.53-4.207
		c2.552-4.155,1.254-9.591-2.901-12.142l-74.034-45.478l74.035-45.483c4.155-2.552,5.453-7.987,2.901-12.142
		c-2.556-4.151-7.996-5.461-12.142-2.901l-86.28,53.004c-2.612,1.608-4.207,4.453-4.207,7.522
		C98.082,289.965,99.677,292.815,102.289,294.418z"/>
	<path style="fill:#314E55;" d="M312.267,344.517c1.668,2.711,4.565,4.207,7.53,4.207c1.573,0,3.172-0.422,4.612-1.306l86.28-53
		c2.612-1.604,4.207-4.453,4.207-7.522s-1.595-5.914-4.207-7.522l-86.28-53.004c-4.16-2.556-9.591-1.259-12.142,2.901
		c-2.552,4.155-1.254,9.591,2.901,12.142l74.035,45.483l-74.035,45.478C311.013,334.927,309.715,340.362,312.267,344.517z"/>
</g>
<g>
</g>
<g>
</g>
<g>
</g>
<g>
</g>
<g>
</g>
<g>
</g>
<g>
</g>
<g>
</g>
<g>
</g>
<g>
</g>
<g>
</g>
<g>
</g>
<g>
</g>
<g>
</g>
<g>
</g>
</svg>
