<?xml version="1.0" encoding="iso-8859-1"?>
<!-- Generator: Adobe Illustrator 19.0.0, SVG Export Plug-In . SVG Version: 6.00 Build 0)  -->
<svg version="1.1" id="Layer_1" xmlns="http://www.w3.org/2000/svg" xmlns:xlink="http://www.w3.org/1999/xlink" x="0px" y="0px"
	 viewBox="0 0 512 512" style="enable-background:new 0 0 512 512;" xml:space="preserve">
<path style="fill:#E4AD40;" d="M425.564,149.033l-5.927-2.408l0.492-6.381c0.175-2.262,0.265-4.55,0.265-6.859
	c0-48.294-39.288-87.582-87.582-87.582c-32.796,0-62.586,18.085-77.738,47.204l-3.31,6.355l-6.885-1.984
	c-9.301-2.681-18.979-4.041-28.755-4.041c-50.886,0-94.677,37.654-101.861,87.591l-1.09,7.595l-8.707-0.094
	c-47.943,0-86.949,38.732-86.949,86.337s39.006,86.333,86.949,86.333h279.142c61.136,0,110.876-49.393,110.876-110.106
	C494.484,206.068,467.431,166.044,425.564,149.033z M262.746,299.791h-35.033v-17.516h35.033V299.791z M297.779,220.967h35.033
	v17.516h-35.033V220.967z M271.504,247.242h35.033v17.516h-35.033V247.242z M315.295,334.824h-35.033v-17.516h35.033V334.824z
	 M315.295,256h35.033v17.516h-35.033V256z M359.086,352.34h-35.033v-17.516h35.033V352.34z M359.086,212.209h35.033v17.516h-35.033
	V212.209z M402.877,343.582h-35.033v-17.516h35.033V343.582z M424.773,299.791H389.74v-17.516h35.033V299.791z"/>
<g>
	<path style="fill:#314E55;" d="M437.893,135.297c0.013-0.637,0.017-1.274,0.017-1.911c0-57.95-47.148-105.098-105.098-105.098
		c-37.004,0-70.818,19.189-89.84,50.522c-8.771-1.984-17.773-2.989-26.848-2.989c-57.022,0-106.437,40.464-117.906,95.275
		C43.513,174.315,0,219.582,0,274.765c0,57.262,46.861,103.85,104.465,103.85h279.142c70.797,0,128.392-57.253,128.392-127.623
		C512,200.988,483.117,156.23,437.893,135.297z M383.608,361.098H104.465c-47.943,0-86.949-38.728-86.949-86.333
		s39.006-86.337,86.949-86.337l8.707,0.094l1.09-7.595c7.185-49.936,50.976-87.591,101.861-87.591c9.776,0,19.454,1.36,28.755,4.041
		l6.885,1.984l3.31-6.355c15.152-29.118,44.942-47.204,77.738-47.204c48.294,0,87.582,39.288,87.582,87.582
		c0,2.309-0.09,4.597-0.265,6.859l-0.492,6.381l5.927,2.408c41.867,17.012,68.92,57.035,68.92,101.96
		C494.484,311.705,444.744,361.098,383.608,361.098z"/>
	<rect x="245.23" y="387.373" style="fill:#314E55;" width="35.033" height="17.516"/>
	<rect x="367.845" y="326.066" style="fill:#314E55;" width="35.033" height="17.516"/>
	<rect x="297.779" y="220.967" style="fill:#314E55;" width="35.033" height="17.516"/>
	<rect x="315.295" y="256" style="fill:#314E55;" width="35.033" height="17.516"/>
	<rect x="262.746" y="413.648" style="fill:#314E55;" width="35.033" height="17.516"/>
	<rect x="157.648" y="404.889" style="fill:#314E55;" width="35.033" height="17.516"/>
	<rect x="389.74" y="282.275" style="fill:#314E55;" width="35.033" height="17.516"/>
	<rect x="315.295" y="431.164" style="fill:#314E55;" width="35.033" height="17.516"/>
	<rect x="289.021" y="466.197" style="fill:#314E55;" width="35.033" height="17.516"/>
	<rect x="183.922" y="431.164" style="fill:#314E55;" width="35.033" height="17.516"/>
	<rect x="306.537" y="396.131" style="fill:#314E55;" width="35.033" height="17.516"/>
	<rect x="324.054" y="334.824" style="fill:#314E55;" width="35.033" height="17.516"/>
	<rect x="280.263" y="317.307" style="fill:#314E55;" width="35.033" height="17.516"/>
	<rect x="227.713" y="282.275" style="fill:#314E55;" width="35.033" height="17.516"/>
	<rect x="271.504" y="247.242" style="fill:#314E55;" width="35.033" height="17.516"/>
	<rect x="359.086" y="212.209" style="fill:#314E55;" width="35.033" height="17.516"/>
</g>
<g>
</g>
<g>
</g>
<g>
</g>
<g>
</g>
<g>
</g>
<g>
</g>
<g>
</g>
<g>
</g>
<g>
</g>
<g>
</g>
<g>
</g>
<g>
</g>
<g>
</g>
<g>
</g>
<g>
</g>
</svg>
