<?xml version="1.0" encoding="iso-8859-1"?>
<!-- Generator: Adobe Illustrator 19.0.0, SVG Export Plug-In . SVG Version: 6.00 Build 0)  -->
<svg version="1.1" id="Layer_1" xmlns="http://www.w3.org/2000/svg" xmlns:xlink="http://www.w3.org/1999/xlink" x="0px" y="0px"
	 viewBox="0 0 512 512" style="enable-background:new 0 0 512 512;" xml:space="preserve">
<polygon style="fill:#EAEAEA;" points="194.528,459.852 317.472,459.852 297.157,412.444 214.843,412.444 "/>
<polygon style="fill:#E4AD40;" points="237.037,243.63 237.037,135.63 150.63,189.63 "/>
<path style="fill:#EAEAEA;" d="M18.963,393.481h189.63h94.815h189.63v-56.889H18.963V393.481z M256,346.074
	c10.454,0,18.963,8.509,18.963,18.963c0,10.454-8.509,18.963-18.963,18.963c-10.454,0-18.963-8.509-18.963-18.963
	C237.037,354.583,245.546,346.074,256,346.074z"/>
<path style="fill:#F28544;" d="M483.491,52.148H28.509c-5.268,0-9.546,4.213-9.546,9.398V317.63h474.074V61.546
	C493.037,56.361,488.759,52.148,483.491,52.148z M256,260.741c0,3.444-1.87,6.62-4.889,8.296c-1.426,0.787-3.009,1.185-4.593,1.185
	c-1.75,0-3.491-0.481-5.028-1.444l-113.778-71.111c-2.769-1.731-4.454-4.768-4.454-8.037c0-3.269,1.685-6.306,4.454-8.037
	l113.778-71.111c2.926-1.833,6.611-1.917,9.62-0.259c3.018,1.676,4.889,4.852,4.889,8.296V260.741z M312.889,260.741
	c0,5.241-4.241,9.481-9.481,9.481s-9.481-4.241-9.481-9.481V118.519c0-5.241,4.241-9.481,9.481-9.481s9.481,4.241,9.481,9.481
	V260.741z M350.815,260.741c0,5.241-4.241,9.481-9.481,9.481s-9.481-4.241-9.481-9.481V118.519c0-5.241,4.241-9.481,9.481-9.481
	s9.481,4.241,9.481,9.481V260.741z"/>
<g>
	<path style="fill:#314E55;" d="M483.491,33.185H28.509C12.787,33.185,0,45.907,0,61.546V317.63v18.963v75.852h194.217
		l-22.782,53.157c-1.259,2.926-0.954,6.287,0.796,8.954c1.759,2.657,4.731,4.259,7.917,4.259h151.704
		c3.185,0,6.158-1.602,7.917-4.259c1.75-2.667,2.056-6.028,0.796-8.954l-22.782-53.157H512v-75.852V317.63V61.546
		C512,45.907,499.213,33.185,483.491,33.185z M317.472,459.852H194.528l20.315-47.407h82.315L317.472,459.852z M493.037,393.481
		h-189.63h-94.815H18.963v-56.889h474.074V393.481z M18.963,317.63V61.546c0-5.185,4.278-9.398,9.546-9.398h454.981
		c5.269,0,9.546,4.213,9.546,9.398V317.63H18.963z"/>
	<path style="fill:#314E55;" d="M256,384c10.454,0,18.963-8.509,18.963-18.963c0-10.454-8.509-18.963-18.963-18.963
		c-10.454,0-18.963,8.509-18.963,18.963C237.037,375.491,245.546,384,256,384z"/>
	<path style="fill:#314E55;" d="M251.111,110.222c-3.009-1.657-6.694-1.574-9.62,0.259l-113.778,71.111
		c-2.769,1.731-4.454,4.768-4.454,8.037c0,3.268,1.685,6.306,4.454,8.037l113.778,71.111c1.537,0.963,3.278,1.444,5.028,1.444
		c1.583,0,3.167-0.398,4.593-1.185c3.018-1.676,4.889-4.852,4.889-8.296V118.519C256,115.074,254.13,111.898,251.111,110.222z
		 M237.037,243.63l-86.407-54l86.407-54V243.63z"/>
	<path style="fill:#314E55;" d="M303.407,109.037c-5.241,0-9.481,4.241-9.481,9.481v142.222c0,5.241,4.241,9.481,9.481,9.481
		s9.481-4.241,9.481-9.481V118.519C312.889,113.278,308.648,109.037,303.407,109.037z"/>
	<path style="fill:#314E55;" d="M341.333,109.037c-5.241,0-9.481,4.241-9.481,9.481v142.222c0,5.241,4.241,9.481,9.481,9.481
		s9.481-4.241,9.481-9.481V118.519C350.815,113.278,346.574,109.037,341.333,109.037z"/>
</g>
<g>
</g>
<g>
</g>
<g>
</g>
<g>
</g>
<g>
</g>
<g>
</g>
<g>
</g>
<g>
</g>
<g>
</g>
<g>
</g>
<g>
</g>
<g>
</g>
<g>
</g>
<g>
</g>
<g>
</g>
</svg>
