<?xml version="1.0" encoding="iso-8859-1"?>
<!-- Generator: Adobe Illustrator 19.0.0, SVG Export Plug-In . SVG Version: 6.00 Build 0)  -->
<svg version="1.1" id="Layer_1" xmlns="http://www.w3.org/2000/svg" xmlns:xlink="http://www.w3.org/1999/xlink" x="0px" y="0px"
	 viewBox="0 0 512 512" style="enable-background:new 0 0 512 512;" xml:space="preserve">
<g>
	<rect x="17.655" y="326.621" style="fill:#E4AD40;" width="176.552" height="105.931"/>
	<rect x="167.724" y="52.966" style="fill:#E4AD40;" width="176.552" height="105.931"/>
	<rect x="317.793" y="326.621" style="fill:#E4AD40;" width="176.552" height="105.931"/>
</g>
<g>
	<path style="fill:#314E55;" d="M300.138,308.966v141.241H512V308.966H300.138z M494.345,432.552H317.793V326.621h176.552V432.552z"
		/>
	<rect x="370.759" y="459.034" style="fill:#314E55;" width="70.621" height="17.655"/>
	<path style="fill:#314E55;" d="M0,450.207h211.862V308.966H0V450.207z M17.655,326.621h176.552v105.931H17.655V326.621z"/>
	<rect x="70.621" y="459.034" style="fill:#314E55;" width="70.621" height="17.655"/>
	<path style="fill:#314E55;" d="M361.931,35.31H150.069v141.241h211.862V35.31z M344.276,158.897H167.724V52.966h176.552V158.897z"
		/>
	<rect x="220.69" y="185.379" style="fill:#314E55;" width="70.621" height="17.655"/>
	<polygon style="fill:#314E55;" points="114.759,273.655 397.241,273.655 397.241,300.138 414.897,300.138 414.897,273.655 
		414.897,269.241 414.897,256 264.828,256 264.828,211.862 247.172,211.862 247.172,256 97.103,256 97.103,269.241 97.103,273.655 
		97.103,300.138 114.759,300.138 	"/>
</g>
<g>
</g>
<g>
</g>
<g>
</g>
<g>
</g>
<g>
</g>
<g>
</g>
<g>
</g>
<g>
</g>
<g>
</g>
<g>
</g>
<g>
</g>
<g>
</g>
<g>
</g>
<g>
</g>
<g>
</g>
</svg>
