<?xml version="1.0" encoding="iso-8859-1"?>
<!-- Generator: Adobe Illustrator 19.0.0, SVG Export Plug-In . SVG Version: 6.00 Build 0)  -->
<svg version="1.1" id="Layer_1" xmlns="http://www.w3.org/2000/svg" xmlns:xlink="http://www.w3.org/1999/xlink" x="0px" y="0px"
	 viewBox="0 0 512 512" style="enable-background:new 0 0 512 512;" xml:space="preserve">
<path style="fill:#5ECC66;" d="M312.469,132.208v76.205h82.068C390.049,166.541,355.174,133.624,312.469,132.208z"/>
<g>
	<path style="fill:#314E55;" d="M413.377,256v-9.173H395.03V256c0,70.816-57.612,128.428-128.428,128.428
		S138.175,326.816,138.175,256s57.612-128.428,128.428-128.428h9.173v-18.347h-9.173c-80.93,0-146.775,65.844-146.775,146.775
		s65.844,146.775,146.775,146.775S413.377,336.93,413.377,256z"/>
	<path style="fill:#314E55;" d="M413.377,217.586c0-57.222-46.557-103.774-103.774-103.774c-2.32,0-4.614,0.076-6.898,0.224
		l-8.582,0.555V226.76h119.254L413.377,217.586L413.377,217.586z M312.469,208.413v-76.205c42.705,1.415,77.58,34.333,82.068,76.205
		H312.469z"/>
	<polygon style="fill:#314E55;" points="402.385,45.012 371.577,109.835 388.15,117.709 413.977,63.358 512,63.358 512,45.012 	"/>
	<polygon style="fill:#314E55;" points="78.431,393.807 0,393.807 0,412.154 90.364,412.154 120.482,344.155 103.712,336.729 	"/>
	<polygon style="fill:#314E55;" points="329.374,405.346 313.141,413.892 341.082,466.988 474.383,466.988 474.383,448.642 
		352.155,448.642 	"/>
</g>
<g>
</g>
<g>
</g>
<g>
</g>
<g>
</g>
<g>
</g>
<g>
</g>
<g>
</g>
<g>
</g>
<g>
</g>
<g>
</g>
<g>
</g>
<g>
</g>
<g>
</g>
<g>
</g>
<g>
</g>
</svg>
