<?xml version="1.0" encoding="iso-8859-1"?>
<!-- Generator: Adobe Illustrator 19.0.0, SVG Export Plug-In . SVG Version: 6.00 Build 0)  -->
<svg version="1.1" id="Layer_1" xmlns="http://www.w3.org/2000/svg" xmlns:xlink="http://www.w3.org/1999/xlink" x="0px" y="0px"
	 viewBox="0 0 512 512" style="enable-background:new 0 0 512 512;" xml:space="preserve">
<g>
	<rect x="348.16" y="384" style="fill:#D8D8D8;" width="30.72" height="30.72"/>
	<rect x="348.16" y="332.8" style="fill:#D8D8D8;" width="30.72" height="30.72"/>
	<rect x="245.76" y="384" style="fill:#D8D8D8;" width="30.72" height="30.72"/>
	<rect x="296.96" y="384" style="fill:#D8D8D8;" width="30.72" height="30.72"/>
	<rect x="143.36" y="332.8" style="fill:#D8D8D8;" width="30.72" height="30.72"/>
	<rect x="143.36" y="384" style="fill:#D8D8D8;" width="30.72" height="30.72"/>
	<rect x="245.76" y="332.8" style="fill:#D8D8D8;" width="30.72" height="30.72"/>
	<rect x="399.36" y="384" style="fill:#D8D8D8;" width="30.72" height="30.72"/>
	<rect x="194.56" y="332.8" style="fill:#D8D8D8;" width="30.72" height="30.72"/>
	<rect x="194.56" y="384" style="fill:#D8D8D8;" width="30.72" height="30.72"/>
	<rect x="296.96" y="332.8" style="fill:#D8D8D8;" width="30.72" height="30.72"/>
	<rect x="399.36" y="332.8" style="fill:#D8D8D8;" width="30.72" height="30.72"/>
</g>
<circle style="fill:#FFFFFF;" cx="481.28" cy="35.84" r="10.24"/>
<circle style="fill:#D8D8D8;" cx="71.68" cy="343.04" r="10.24"/>
<path style="fill:#F58CAC;" d="M20.48,189.44V486.4h460.8V189.44H20.48z M184.32,476.16h-61.44v-20.48h61.44V476.16z M266.24,476.16
	H204.8v-20.48h61.44V476.16z M348.16,476.16h-61.44v-20.48h61.44V476.16z M430.08,476.16h-61.44v-20.48h61.44V476.16z
	 M450.56,363.52V384v40.96c0,5.66-4.585,10.24-10.24,10.24h-307.2c-5.655,0-10.24-4.58-10.24-10.24V384v-20.48v-40.96
	c0-5.66,4.585-10.24,10.24-10.24h307.2c5.655,0,10.24,4.58,10.24,10.24V363.52z M40.96,220.16c0-5.66,4.585-10.24,10.24-10.24
	h317.44h20.48h61.44c5.655,0,10.24,4.58,10.24,10.24v61.44c0,5.66-4.585,10.24-10.24,10.24h-61.44h-20.48H51.2
	c-5.655,0-10.24-4.58-10.24-10.24V220.16z M71.68,312.32c16.94,0,30.72,13.78,30.72,30.72c0,16.94-13.78,30.72-30.72,30.72
	s-30.72-13.78-30.72-30.72C40.96,326.1,54.74,312.32,71.68,312.32z M40.96,455.68h61.44v20.48H40.96V455.68z"/>
<g>
	<rect x="389.12" y="230.4" style="fill:#D8D8D8;" width="51.2" height="40.96"/>
	<rect x="61.44" y="230.4" style="fill:#D8D8D8;" width="307.2" height="40.96"/>
</g>
<g>
	<path style="fill:#314E55;" d="M51.2,291.84h317.44h20.48h61.44c5.655,0,10.24-4.58,10.24-10.24v-61.44
		c0-5.66-4.585-10.24-10.24-10.24h-61.44h-20.48H51.2c-5.655,0-10.24,4.58-10.24,10.24v61.44
		C40.96,287.26,45.545,291.84,51.2,291.84z M440.32,230.4v40.96h-51.2V230.4H440.32z M61.44,230.4h307.2v40.96H61.44V230.4z"/>
	<path style="fill:#314E55;" d="M481.28,66.56c16.94,0,30.72-13.78,30.72-30.72S498.22,5.12,481.28,5.12
		c-16.94,0-30.72,13.78-30.72,30.72c0,0.37,0.096,0.714,0.109,1.081L29.161,168.96H10.24C4.585,168.96,0,173.54,0,179.2v317.44
		c0,5.66,4.585,10.24,10.24,10.24h481.28c5.655,0,10.24-4.58,10.24-10.24V179.2c0-5.66-4.585-10.24-10.24-10.24H97.658
		L458.281,55.994C463.915,62.416,472.084,66.56,481.28,66.56z M481.28,486.4H20.48V189.44h460.8V486.4z M481.28,25.6
		c5.645,0,10.24,4.59,10.24,10.24s-4.595,10.24-10.24,10.24c-5.645,0-10.24-4.59-10.24-10.24S475.635,25.6,481.28,25.6z"/>
	<path style="fill:#314E55;" d="M71.68,373.76c16.94,0,30.72-13.78,30.72-30.72c0-16.94-13.78-30.72-30.72-30.72
		s-30.72,13.78-30.72,30.72C40.96,359.98,54.74,373.76,71.68,373.76z M71.68,332.8c5.645,0,10.24,4.59,10.24,10.24
		c0,5.65-4.595,10.24-10.24,10.24s-10.24-4.59-10.24-10.24C61.44,337.39,66.035,332.8,71.68,332.8z"/>
	<rect x="40.96" y="455.68" style="fill:#314E55;" width="61.44" height="20.48"/>
	<rect x="122.88" y="455.68" style="fill:#314E55;" width="61.44" height="20.48"/>
	<rect x="204.8" y="455.68" style="fill:#314E55;" width="61.44" height="20.48"/>
	<rect x="286.72" y="455.68" style="fill:#314E55;" width="61.44" height="20.48"/>
	<rect x="368.64" y="455.68" style="fill:#314E55;" width="61.44" height="20.48"/>
	<path style="fill:#314E55;" d="M440.32,312.32h-307.2c-5.655,0-10.24,4.58-10.24,10.24v40.96V384v40.96
		c0,5.66,4.585,10.24,10.24,10.24h307.2c5.655,0,10.24-4.58,10.24-10.24V384v-20.48v-40.96
		C450.56,316.9,445.975,312.32,440.32,312.32z M276.48,363.52h-30.72V332.8h30.72V363.52z M296.96,332.8h30.72v30.72h-30.72V332.8z
		 M225.28,363.52h-30.72V332.8h30.72V363.52z M225.28,384v30.72h-30.72V384H225.28z M245.76,384h30.72v30.72h-30.72V384z
		 M296.96,384h30.72v30.72h-30.72V384z M348.16,384h30.72v30.72h-30.72V384z M348.16,363.52V332.8h30.72v30.72H348.16z
		 M143.36,332.8h30.72v30.72h-30.72V332.8z M143.36,384h30.72v30.72h-30.72V384z M430.08,414.72h-30.72V384h30.72V414.72z
		 M399.36,363.52V332.8h30.72v30.72H399.36z"/>
</g>
<g>
</g>
<g>
</g>
<g>
</g>
<g>
</g>
<g>
</g>
<g>
</g>
<g>
</g>
<g>
</g>
<g>
</g>
<g>
</g>
<g>
</g>
<g>
</g>
<g>
</g>
<g>
</g>
<g>
</g>
</svg>
