<?xml version="1.0" encoding="iso-8859-1"?>
<!-- Generator: Adobe Illustrator 19.0.0, SVG Export Plug-In . SVG Version: 6.00 Build 0)  -->
<svg version="1.1" id="Layer_1" xmlns="http://www.w3.org/2000/svg" xmlns:xlink="http://www.w3.org/1999/xlink" x="0px" y="0px"
	 viewBox="0 0 512 512" style="enable-background:new 0 0 512 512;" xml:space="preserve">
<g>
	<circle style="fill:#EAEAEA;" cx="187.429" cy="457.143" r="9.143"/>
	<path style="fill:#EAEAEA;" d="M224,228.571h82.286V27.464c0-5.062-4.071-9.179-9.08-9.179H68.509c-5.009,0-9.08,4.116-9.08,9.179
		v374.603h246.857v-155.21H224V228.571z"/>
</g>
<path style="fill:#73C9C9;" d="M59.429,484.576c0,5.125,3.987,9.138,9.08,9.138h228.696c5.009,0,9.08-4.098,9.08-9.138v-64.005
	H59.429V484.576z M187.429,429.714c15.125,0,27.429,12.304,27.429,27.429s-12.304,27.429-27.429,27.429
	c-15.125,0-27.429-12.304-27.429-27.429S172.304,429.714,187.429,429.714z"/>
<polygon style="fill:#E4AD40;" points="397.714,259.491 441.272,237.714 397.714,215.938 "/>
<g>
	<path style="fill:#314E55;" d="M187.429,484.571c15.125,0,27.429-12.304,27.429-27.429s-12.304-27.429-27.429-27.429
		c-15.125,0-27.429,12.304-27.429,27.429S172.304,484.571,187.429,484.571z M187.429,448c5.04,0,9.143,4.103,9.143,9.143
		s-4.103,9.143-9.143,9.143c-5.04,0-9.143-4.103-9.143-9.143S182.388,448,187.429,448z"/>
	<path style="fill:#314E55;" d="M465.804,229.536l-73.143-36.571c-2.835-1.411-6.201-1.263-8.897,0.402
		c-2.692,1.665-4.335,4.607-4.335,7.777v27.429h-54.857V27.464C324.571,12.321,312.295,0,297.205,0H68.509
		C53.42,0,41.143,12.321,41.143,27.464v374.822v18.067v64.223c0,15.12,12.277,27.424,27.366,27.424h228.696
		c15.089,0,27.366-12.304,27.366-27.424v-64.223v-18.067V246.857h54.857v27.429c0,3.17,1.643,6.112,4.335,7.777
		c1.469,0.906,3.138,1.366,4.808,1.366c1.397,0,2.799-0.321,4.089-0.964l73.143-36.571c3.098-1.549,5.054-4.714,5.054-8.179
		S468.902,231.085,465.804,229.536z M306.286,484.576c0,5.04-4.071,9.138-9.08,9.138H68.509c-5.094,0-9.08-4.013-9.08-9.138v-64.005
		h246.857V484.576z M306.286,402.067H59.429V27.464c0-5.062,4.071-9.179,9.08-9.179h228.696c5.009,0,9.08,4.116,9.08,9.179v201.107
		H224v18.286h82.286V402.067z M397.714,259.491v-43.553l43.558,21.777L397.714,259.491z"/>
</g>
<g>
</g>
<g>
</g>
<g>
</g>
<g>
</g>
<g>
</g>
<g>
</g>
<g>
</g>
<g>
</g>
<g>
</g>
<g>
</g>
<g>
</g>
<g>
</g>
<g>
</g>
<g>
</g>
<g>
</g>
</svg>
