<?xml version="1.0" encoding="iso-8859-1"?>
<!-- Generator: Adobe Illustrator 19.0.0, SVG Export Plug-In . SVG Version: 6.00 Build 0)  -->
<svg version="1.1" id="Layer_1" xmlns="http://www.w3.org/2000/svg" xmlns:xlink="http://www.w3.org/1999/xlink" x="0px" y="0px"
	 viewBox="0 0 512 512" style="enable-background:new 0 0 512 512;" xml:space="preserve">
<rect x="296.421" y="233.544" style="fill:#FFFFFF;" width="143.719" height="17.965"/>
<rect x="296.421" y="458.105" style="fill:#EAEAEA;" width="143.719" height="35.93"/>
<path style="fill:#E4D759;" d="M440.14,269.474H296.421V440.14H440.14V269.474z M338.702,293.789l-17.965,17.965
	c-1.754,1.755-4.053,2.632-6.351,2.632s-4.597-0.877-6.351-2.632c-3.509-3.509-3.509-9.193,0-12.702L326,281.088
	c3.509-3.509,9.193-3.509,12.702,0C342.21,284.597,342.21,290.281,338.702,293.789z"/>
<g>
	<path style="fill:#314E55;" d="M242.526,359.298V188.632h96.537c0.033,1.769,0.156,3.498,0.156,5.281
		c0,4.965,4.022,8.982,8.982,8.982c4.961,0,8.982-4.018,8.982-8.982c0-1.782-0.135-3.51-0.167-5.281h56.176h12.68h5.285
		C431.158,84.623,346.54,0,242.526,0h-17.965v0.91C128.951,9.993,53.895,90.686,53.895,188.632
		c0,104.009,84.618,188.632,188.632,188.632c4.961,0,8.982-4.018,8.982-8.982S247.487,359.298,242.526,359.298z M224.561,356.324
		c-44.752-14.457-78.728-81.728-78.728-162.412c0-1.782,0.123-3.511,0.156-5.281h78.572V356.324z M146.902,170.667
		c5.804-70.076,37.294-126.119,77.659-139.158v139.158H146.902z M242.526,170.667V28.535c48.691,0,88.982,61.936,95.624,142.132
		H242.526z M412.228,170.667h-56.07c-5.363-67.326-33.591-123.263-71.855-147.315C352.608,40.636,404.696,99.027,412.228,170.667z
		 M200.749,23.352c-38.264,24.052-66.492,79.989-71.855,147.315h-56.07C80.357,99.027,132.445,40.636,200.749,23.352z
		 M71.86,188.632h56.176c-0.032,1.77-0.167,3.498-0.167,5.281c0,64.072,20.696,120.492,51.923,153.285
		C116.669,322.13,71.86,260.573,71.86,188.632z"/>
	<path style="fill:#314E55;" d="M326,281.088l-17.965,17.965c-3.509,3.509-3.509,9.193,0,12.702
		c1.754,1.754,4.053,2.632,6.351,2.632s4.597-0.877,6.351-2.632l17.965-17.965c3.509-3.509,3.509-9.193,0-12.702
		C335.193,277.579,329.509,277.579,326,281.088z"/>
	<path style="fill:#314E55;" d="M449.123,215.579H287.439c-4.961,0-8.982,4.018-8.982,8.982v35.93v188.632v53.895
		c0,4.965,4.022,8.982,8.982,8.982h161.684c4.961,0,8.982-4.018,8.982-8.982v-53.895V260.491v-35.93
		C458.105,219.597,454.083,215.579,449.123,215.579z M296.421,269.474H440.14V440.14H296.421V269.474z M296.421,233.544H440.14
		v17.965H296.421V233.544z M440.14,494.035H296.421v-35.93H440.14V494.035z"/>
</g>
<g>
</g>
<g>
</g>
<g>
</g>
<g>
</g>
<g>
</g>
<g>
</g>
<g>
</g>
<g>
</g>
<g>
</g>
<g>
</g>
<g>
</g>
<g>
</g>
<g>
</g>
<g>
</g>
<g>
</g>
</svg>
