<?xml version="1.0" encoding="iso-8859-1"?>
<!-- Generator: Adobe Illustrator 19.0.0, SVG Export Plug-In . SVG Version: 6.00 Build 0)  -->
<svg version="1.1" id="Layer_1" xmlns="http://www.w3.org/2000/svg" xmlns:xlink="http://www.w3.org/1999/xlink" x="0px" y="0px"
	 viewBox="0 0 512 512" style="enable-background:new 0 0 512 512;" xml:space="preserve">
<rect x="133.333" y="277.333" style="fill:#F28544;" width="32" height="170.667"/>
<rect x="346.667" y="149.333" style="fill:#73C9C9;" width="32" height="298.667"/>
<rect x="453.333" y="234.667" style="fill:#F28544;" width="32" height="213.333"/>
<g>
	<rect x="240" y="192" style="fill:#73C9C9;" width="32" height="256"/>
	<rect x="26.667" y="234.667" style="fill:#73C9C9;" width="32" height="213.333"/>
</g>
<g>
	<path style="fill:#314E55;" d="M69.333,213.333H16c-5.891,0-10.667,4.776-10.667,10.667v234.667
		c0,5.891,4.776,10.667,10.667,10.667h53.333c5.891,0,10.667-4.776,10.667-10.667V224C80,218.109,75.224,213.333,69.333,213.333z
		 M58.667,448h-32V234.667h32V448z"/>
	<path style="fill:#314E55;" d="M176,256h-53.333c-5.891,0-10.667,4.776-10.667,10.667v192c0,5.891,4.776,10.667,10.667,10.667H176
		c5.891,0,10.667-4.776,10.667-10.667v-192C186.667,260.776,181.891,256,176,256z M165.333,448h-32V277.333h32V448z"/>
	<path style="fill:#314E55;" d="M282.667,170.667h-53.333c-5.891,0-10.667,4.776-10.667,10.667v277.333
		c0,5.891,4.776,10.667,10.667,10.667h53.333c5.891,0,10.667-4.776,10.667-10.667V181.333
		C293.333,175.443,288.557,170.667,282.667,170.667z M272,448h-32V192h32V448z"/>
	<path style="fill:#314E55;" d="M389.333,128H336c-5.891,0-10.667,4.776-10.667,10.667v320c0,5.891,4.776,10.667,10.667,10.667
		h53.333c5.891,0,10.667-4.776,10.667-10.667v-320C400,132.776,395.224,128,389.333,128z M378.667,448h-32V149.333h32V448z"/>
	<path style="fill:#314E55;" d="M496,213.333h-53.333c-5.891,0-10.667,4.776-10.667,10.667v234.667
		c0,5.891,4.776,10.667,10.667,10.667H496c5.891,0,10.667-4.776,10.667-10.667V224C506.667,218.109,501.891,213.333,496,213.333z
		 M485.333,448h-32V234.667h32V448z"/>
	<path style="fill:#314E55;" d="M74.667,170.667h-64C4.776,170.667,0,175.443,0,181.333C0,187.224,4.776,192,10.667,192h64
		c5.891,0,10.667-4.776,10.667-10.667C85.333,175.443,80.557,170.667,74.667,170.667z"/>
	<path style="fill:#314E55;" d="M74.667,128h-64C4.776,128,0,132.776,0,138.667s4.776,10.667,10.667,10.667h64
		c5.891,0,10.667-4.776,10.667-10.667S80.557,128,74.667,128z"/>
	<path style="fill:#314E55;" d="M288,128h-64c-5.891,0-10.667,4.776-10.667,10.667s4.776,10.667,10.667,10.667h64
		c5.891,0,10.667-4.776,10.667-10.667S293.891,128,288,128z"/>
	<path style="fill:#314E55;" d="M288,85.333h-64c-5.891,0-10.667,4.776-10.667,10.667c0,5.891,4.776,10.667,10.667,10.667h64
		c5.891,0,10.667-4.776,10.667-10.667C298.667,90.109,293.891,85.333,288,85.333z"/>
	<path style="fill:#314E55;" d="M181.333,85.333h-64c-5.891,0-10.667,4.776-10.667,10.667c0,5.891,4.776,10.667,10.667,10.667h64
		c5.891,0,10.667-4.776,10.667-10.667C192,90.109,187.224,85.333,181.333,85.333z"/>
	<path style="fill:#314E55;" d="M74.667,85.333h-64C4.776,85.333,0,90.109,0,96c0,5.891,4.776,10.667,10.667,10.667h64
		c5.891,0,10.667-4.776,10.667-10.667C85.333,90.109,80.557,85.333,74.667,85.333z"/>
	<path style="fill:#314E55;" d="M394.667,85.333h-64C324.776,85.333,320,90.109,320,96c0,5.891,4.776,10.667,10.667,10.667h64
		c5.891,0,10.667-4.776,10.667-10.667C405.333,90.109,400.557,85.333,394.667,85.333z"/>
	<path style="fill:#314E55;" d="M501.333,128h-64c-5.891,0-10.667,4.776-10.667,10.667s4.776,10.667,10.667,10.667h64
		c5.891,0,10.667-4.776,10.667-10.667S507.224,128,501.333,128z"/>
	<path style="fill:#314E55;" d="M501.333,85.333h-64c-5.891,0-10.667,4.776-10.667,10.667c0,5.891,4.776,10.667,10.667,10.667h64
		c5.891,0,10.667-4.776,10.667-10.667C512,90.109,507.224,85.333,501.333,85.333z"/>
	<path style="fill:#314E55;" d="M288,42.667h-64c-5.891,0-10.667,4.776-10.667,10.667S218.109,64,224,64h64
		c5.891,0,10.667-4.776,10.667-10.667S293.891,42.667,288,42.667z"/>
	<path style="fill:#314E55;" d="M181.333,42.667h-64c-5.891,0-10.667,4.776-10.667,10.667S111.443,64,117.333,64h64
		C187.224,64,192,59.224,192,53.333S187.224,42.667,181.333,42.667z"/>
	<path style="fill:#314E55;" d="M74.667,42.667h-64C4.776,42.667,0,47.443,0,53.333S4.776,64,10.667,64h64
		c5.891,0,10.667-4.776,10.667-10.667S80.557,42.667,74.667,42.667z"/>
	<path style="fill:#314E55;" d="M394.667,42.667h-64c-5.891,0-10.667,4.776-10.667,10.667S324.776,64,330.667,64h64
		c5.891,0,10.667-4.776,10.667-10.667S400.557,42.667,394.667,42.667z"/>
	<path style="fill:#314E55;" d="M437.333,64h64C507.224,64,512,59.224,512,53.333s-4.776-10.667-10.667-10.667h-64
		c-5.891,0-10.667,4.776-10.667,10.667S431.443,64,437.333,64z"/>
	<path style="fill:#314E55;" d="M501.333,170.667h-64c-5.891,0-10.667,4.776-10.667,10.667c0,5.891,4.776,10.667,10.667,10.667h64
		c5.891,0,10.667-4.776,10.667-10.667C512,175.443,507.224,170.667,501.333,170.667z"/>
	<path style="fill:#314E55;" d="M181.333,170.667h-64c-5.891,0-10.667,4.776-10.667,10.667c0,5.891,4.776,10.667,10.667,10.667h64
		c5.891,0,10.667-4.776,10.667-10.667C192,175.443,187.224,170.667,181.333,170.667z"/>
	<path style="fill:#314E55;" d="M181.333,213.333h-64c-5.891,0-10.667,4.776-10.667,10.667c0,5.891,4.776,10.667,10.667,10.667h64
		c5.891,0,10.667-4.776,10.667-10.667C192,218.109,187.224,213.333,181.333,213.333z"/>
	<path style="fill:#314E55;" d="M181.333,128h-64c-5.891,0-10.667,4.776-10.667,10.667s4.776,10.667,10.667,10.667h64
		c5.891,0,10.667-4.776,10.667-10.667S187.224,128,181.333,128z"/>
</g>
<g>
</g>
<g>
</g>
<g>
</g>
<g>
</g>
<g>
</g>
<g>
</g>
<g>
</g>
<g>
</g>
<g>
</g>
<g>
</g>
<g>
</g>
<g>
</g>
<g>
</g>
<g>
</g>
<g>
</g>
</svg>
