<?xml version="1.0" encoding="iso-8859-1"?>
<!-- Generator: Adobe Illustrator 19.0.0, SVG Export Plug-In . SVG Version: 6.00 Build 0)  -->
<svg version="1.1" id="Layer_1" xmlns="http://www.w3.org/2000/svg" xmlns:xlink="http://www.w3.org/1999/xlink" x="0px" y="0px"
	 viewBox="0 0 512 512" style="enable-background:new 0 0 512 512;" xml:space="preserve">
<path style="fill:#D8D8D8;" d="M204.8,181.527c0,28.227,22.968,51.2,51.2,51.2s51.2-22.973,51.2-51.2
	c0-9.402-2.592-18.192-7.035-25.774l-10.752-12.399l0.301-0.261c-9.018-7.92-20.798-12.766-33.714-12.766
	C227.768,130.327,204.8,153.3,204.8,181.527z M297.891,181.527c0,23.1-18.791,41.891-41.891,41.891
	c-23.1,0-41.891-18.791-41.891-41.891S232.9,139.636,256,139.636C279.1,139.636,297.891,158.427,297.891,181.527z"/>
<g>
	<path style="fill:#EAEAEA;" d="M232.727,181.527c0,12.836,10.441,23.273,23.273,23.273c12.832,0,23.273-10.436,23.273-23.273
		S268.832,158.255,256,158.255C243.168,158.255,232.727,168.691,232.727,181.527z"/>
	<path style="fill:#EAEAEA;" d="M256,325.818c79.564,0,144.291-64.727,144.291-144.291c0-31.907-10.536-61.329-28.137-85.246
		l-56.576,49.031c6.452,10.575,10.24,22.946,10.24,36.215c0,38.5-31.318,69.818-69.818,69.818s-69.818-31.318-69.818-69.818
		S217.5,111.709,256,111.709c2.261,0,4.491,0.128,6.698,0.34l19.049-72.381c-8.369-1.516-16.947-2.432-25.747-2.432
		c-79.564,0-144.291,64.727-144.291,144.291S176.436,325.818,256,325.818z"/>
</g>
<g>
	<path style="fill:#D8D8D8;" d="M303.863,130.832l56.348-48.834c-16.484-17.252-37.124-30.473-60.378-37.907l-19.016,72.257
		C289.453,119.648,297.259,124.593,303.863,130.832z"/>
	<path style="fill:#D8D8D8;" d="M446.814,381.673H65.186c-25.677,0-46.568,20.882-46.568,46.545
		c0,25.664,20.891,46.545,46.568,46.545h381.627c25.677,0,46.568-20.882,46.568-46.545
		C493.382,402.555,472.491,381.673,446.814,381.673z M465.455,437.527H46.545v-18.618h418.909V437.527z"/>
</g>
<g>
	<path style="fill:#314E55;" d="M446.814,363.055H65.186C29.241,363.055,0,392.291,0,428.218s29.241,65.164,65.186,65.164h381.627
		c35.945,0,65.186-29.236,65.186-65.164S482.759,363.055,446.814,363.055z M446.814,474.764H65.186
		c-25.677,0-46.568-20.882-46.568-46.545c0-25.664,20.891-46.545,46.568-46.545h381.627c25.677,0,46.568,20.882,46.568,46.545
		C493.382,453.882,472.491,474.764,446.814,474.764z"/>
	<path style="fill:#314E55;" d="M256,344.436c89.827,0,162.909-73.082,162.909-162.909c0-72.911-48.152-134.78-114.322-155.501
		l0.022-0.081l-18.004-4.736l-0.099,0.376c-9.894-1.884-20.071-2.966-30.506-2.966c-89.827,0-162.909,73.082-162.909,162.909
		S166.173,344.436,256,344.436z M360.211,81.998l-56.348,48.834c-6.605-6.239-14.41-11.183-23.045-14.484l19.016-72.257
		C323.087,51.525,343.728,64.746,360.211,81.998z M289.714,143.094l-0.301,0.261l10.752,12.399
		c4.443,7.582,7.035,16.372,7.035,25.774c0,28.227-22.968,51.2-51.2,51.2s-51.2-22.973-51.2-51.2s22.968-51.2,51.2-51.2
		C268.916,130.327,280.697,135.173,289.714,143.094z M256,37.236c8.8,0,17.377,0.916,25.747,2.432l-19.049,72.381
		c-2.206-0.211-4.437-0.34-6.698-0.34c-38.5,0-69.818,31.318-69.818,69.818S217.5,251.345,256,251.345s69.818-31.318,69.818-69.818
		c0-13.269-3.788-25.64-10.24-36.215l56.576-49.031c17.601,23.918,28.137,53.339,28.137,85.246
		c0,79.564-64.727,144.291-144.291,144.291s-144.291-64.727-144.291-144.291S176.436,37.236,256,37.236z"/>
	<path style="fill:#314E55;" d="M214.109,181.527c0,23.1,18.791,41.891,41.891,41.891c23.1,0,41.891-18.791,41.891-41.891
		S279.1,139.636,256,139.636C232.9,139.636,214.109,158.427,214.109,181.527z M279.273,181.527
		c0,12.836-10.441,23.273-23.273,23.273c-12.832,0-23.273-10.436-23.273-23.273s10.441-23.273,23.273-23.273
		C268.832,158.255,279.273,168.691,279.273,181.527z"/>
	<rect x="46.545" y="418.909" style="fill:#314E55;" width="418.909" height="18.618"/>
</g>
<g>
</g>
<g>
</g>
<g>
</g>
<g>
</g>
<g>
</g>
<g>
</g>
<g>
</g>
<g>
</g>
<g>
</g>
<g>
</g>
<g>
</g>
<g>
</g>
<g>
</g>
<g>
</g>
<g>
</g>
</svg>
