<?xml version="1.0" encoding="iso-8859-1"?>
<!-- Generator: Adobe Illustrator 19.0.0, SVG Export Plug-In . SVG Version: 6.00 Build 0)  -->
<svg version="1.1" id="Layer_1" xmlns="http://www.w3.org/2000/svg" xmlns:xlink="http://www.w3.org/1999/xlink" x="0px" y="0px"
	 viewBox="0 0 512 512" style="enable-background:new 0 0 512 512;" xml:space="preserve">
<polygon style="fill:#5ECC66;" points="411.429,292.571 411.429,274.286 411.429,265.143 411.429,246.857 411.429,237.714 
	411.429,219.429 411.429,210.286 411.429,192 301.714,192 301.714,210.286 301.714,219.429 301.714,237.714 301.714,246.857 
	301.714,265.143 301.714,274.286 301.714,292.571 "/>
<rect x="27.429" y="164.577" style="fill:#F28544;" width="18.286" height="73.143"/>
<g>
	<path style="fill:#E4AD40;" d="M118.938,173.714h72.982c5.089,0,9.223-4.125,9.223-9.187v-9.054c0-5.062-4.134-9.187-9.223-9.187
		h-72.982c-5.089,0-9.223,4.125-9.223,9.187v9.053C109.714,169.589,113.848,173.714,118.938,173.714z"/>
	<path style="fill:#E4AD40;" d="M118.938,256h72.982c5.089,0,9.223-4.125,9.223-9.187v-9.054c0-5.062-4.134-9.187-9.223-9.187
		h-72.982c-5.089,0-9.223,4.125-9.223,9.187v9.053C109.714,251.875,113.848,256,118.938,256z"/>
</g>
<path style="fill:#EAEAEA;" d="M64,146.286V256v109.714h36.571v36.571h393.143V100.571H64V146.286z M192,384
	c-10.08,0-18.286-8.205-18.286-18.286c0-10.08,8.205-18.286,18.286-18.286c10.08,0,18.286,8.205,18.286,18.286
	C210.286,375.795,202.08,384,192,384z M420.571,384c-10.08,0-18.286-8.205-18.286-18.286c0-10.08,8.205-18.286,18.286-18.286
	c10.08,0,18.286,8.205,18.286,18.286C438.857,375.795,430.652,384,420.571,384z M265.143,274.286h18.286v-9.143h-18.286v-18.286
	h18.286v-9.143h-18.286v-18.286h18.286v-9.143h-18.286V192h18.286v-18.286h146.286V192H448v18.286h-18.286v9.143H448v18.286h-18.286
	v9.143H448v18.286h-18.286v9.143H448v18.286h-18.286v18.286H283.429v-18.286h-18.286V274.286z M246.857,347.429
	c10.08,0,18.286,8.205,18.286,18.286c0,10.08-8.205,18.286-18.286,18.286c-10.08,0-18.286-8.205-18.286-18.286
	C228.571,355.634,236.777,347.429,246.857,347.429z M91.429,155.473c0-15.152,12.339-27.473,27.509-27.473h72.982
	c15.17,0,27.509,12.321,27.509,27.473v9.053c0,15.152-12.339,27.473-27.509,27.473h-72.982c-15.17,0-27.509-12.321-27.509-27.473
	V155.473z M91.429,237.759c0-15.152,12.339-27.473,27.509-27.473h72.982c15.17,0,27.509,12.321,27.509,27.473v9.053
	c0,15.152-12.339,27.473-27.509,27.473h-72.982c-15.17,0-27.509-12.321-27.509-27.473V237.759z"/>
<g>
	<path style="fill:#314E55;" d="M64,82.286V36.143H0v18.286h45.714v27.857v64H9.143V256h36.571v128v91.857H64V384h18.286v36.571H512
		V82.286H64z M27.429,237.714v-73.143h18.286v73.143H27.429z M493.714,402.286H100.571v-36.571H64V256V146.286v-45.714h429.714
		V402.286z"/>
	<path style="fill:#314E55;" d="M118.938,192h72.982c15.17,0,27.509-12.321,27.509-27.473v-9.054
		c0-15.152-12.339-27.473-27.509-27.473h-72.982c-15.17,0-27.509,12.321-27.509,27.473v9.053
		C91.429,179.679,103.768,192,118.938,192z M109.714,155.473c0-5.062,4.134-9.187,9.223-9.187h72.982
		c5.089,0,9.223,4.125,9.223,9.187v9.053c0,5.062-4.134,9.187-9.223,9.187h-72.982c-5.089,0-9.223-4.125-9.223-9.187V155.473z"/>
	<path style="fill:#314E55;" d="M118.938,274.286h72.982c15.17,0,27.509-12.321,27.509-27.473v-9.054
		c0-15.152-12.339-27.473-27.509-27.473h-72.982c-15.17,0-27.509,12.321-27.509,27.473v9.053
		C91.429,261.964,103.768,274.286,118.938,274.286z M109.714,237.759c0-5.062,4.134-9.187,9.223-9.187h72.982
		c5.089,0,9.223,4.125,9.223,9.187v9.053c0,5.062-4.134,9.187-9.223,9.187h-72.982c-5.089,0-9.223-4.125-9.223-9.187V237.759z"/>
	<path style="fill:#314E55;" d="M283.429,310.857h146.286v-18.286H448v-18.286h-18.286v-9.143H448v-18.286h-18.286v-9.143H448
		v-18.286h-18.286v-9.143H448V192h-18.286v-18.286H283.429V192h-18.286v18.286h18.286v9.143h-18.286v18.286h18.286v9.143h-18.286
		v18.286h18.286v9.143h-18.286v18.286h18.286V310.857z M301.714,265.143v-18.286v-9.143v-18.286v-9.143V192h109.714v18.286v9.143
		v18.286v9.143v18.286v9.143v18.286H301.714v-18.286V265.143z"/>
	<path style="fill:#314E55;" d="M192,347.429c-10.08,0-18.286,8.205-18.286,18.286c0,10.08,8.205,18.286,18.286,18.286
		c10.08,0,18.286-8.205,18.286-18.286C210.286,355.634,202.08,347.429,192,347.429z"/>
	<path style="fill:#314E55;" d="M246.857,384c10.08,0,18.286-8.205,18.286-18.286c0-10.08-8.205-18.286-18.286-18.286
		c-10.08,0-18.286,8.205-18.286,18.286C228.571,375.795,236.777,384,246.857,384z"/>
	<path style="fill:#314E55;" d="M420.571,347.429c-10.08,0-18.286,8.205-18.286,18.286c0,10.08,8.205,18.286,18.286,18.286
		c10.08,0,18.286-8.205,18.286-18.286C438.857,355.634,430.652,347.429,420.571,347.429z"/>
</g>
<g>
</g>
<g>
</g>
<g>
</g>
<g>
</g>
<g>
</g>
<g>
</g>
<g>
</g>
<g>
</g>
<g>
</g>
<g>
</g>
<g>
</g>
<g>
</g>
<g>
</g>
<g>
</g>
<g>
</g>
</svg>
