<?xml version="1.0" encoding="iso-8859-1"?>
<!-- Generator: Adobe Illustrator 19.0.0, SVG Export Plug-In . SVG Version: 6.00 Build 0)  -->
<svg version="1.1" id="Layer_1" xmlns="http://www.w3.org/2000/svg" xmlns:xlink="http://www.w3.org/1999/xlink" x="0px" y="0px"
	 viewBox="0 0 512 512" style="enable-background:new 0 0 512 512;" xml:space="preserve">
<path style="fill:#5ECC66;" d="M451.358,378.918c0-43.011-35.001-78.012-78.012-78.012s-78.012,35.001-78.012,78.012
	s35.001,78.012,78.012,78.012S451.358,421.929,451.358,378.918z"/>
<g>
	<path style="fill:#314E55;" d="M239.61,445.785V234.037h119.774c0.041,2.195,0.194,4.341,0.194,6.552
		c0,6.16,4.985,11.145,11.145,11.145c6.16,0,11.145-4.985,11.145-11.145c0-2.211-0.168-4.355-0.208-6.552h69.698h15.737h6.552
		C473.647,104.992,368.654,0,239.61,0H217.32v1.129C98.699,12.398,5.572,112.516,5.572,234.037
		c0,129.045,104.992,234.037,234.037,234.037c6.16,0,11.145-4.985,11.145-11.145S245.77,445.785,239.61,445.785z M217.32,442.095
		c-55.525-17.937-97.679-101.401-97.679-201.506c0-2.211,0.153-4.357,0.194-6.552h97.485V442.095z M120.968,211.748
		c7.201-86.944,46.271-156.477,96.352-172.655v172.655H120.968z M239.61,211.748V35.404c60.412,0,110.401,76.844,118.642,176.344
		H239.61z M450.16,211.748h-69.566c-6.654-83.532-41.681-152.935-89.155-182.776C376.187,50.416,440.815,122.863,450.16,211.748z
		 M187.781,28.972c-47.474,29.84-82.5,99.243-89.155,182.776H29.059C38.404,122.863,103.032,50.416,187.781,28.972z M27.862,234.037
		H97.56c-0.04,2.196-0.208,4.341-0.208,6.552c0,79.497,25.68,149.497,64.425,190.184C83.46,399.674,27.862,323.299,27.862,234.037z"
		/>
	<path style="fill:#314E55;" d="M506.428,496.241l-54.79-54.79c13.737-17.165,22.009-38.887,22.009-62.534
		c0-55.31-44.992-100.302-100.302-100.302s-100.302,44.992-100.302,100.302c0,55.31,44.992,100.302,100.302,100.302
		c23.646,0,45.368-8.272,62.533-22.009l54.79,54.79L506.428,496.241z M295.333,378.918c0-43.011,35.001-78.012,78.012-78.012
		s78.012,35.001,78.012,78.012s-35.001,78.012-78.012,78.012S295.333,421.929,295.333,378.918z"/>
</g>
<g>
</g>
<g>
</g>
<g>
</g>
<g>
</g>
<g>
</g>
<g>
</g>
<g>
</g>
<g>
</g>
<g>
</g>
<g>
</g>
<g>
</g>
<g>
</g>
<g>
</g>
<g>
</g>
<g>
</g>
</svg>
