<?xml version="1.0" encoding="iso-8859-1"?>
<!-- Generator: Adobe Illustrator 19.0.0, SVG Export Plug-In . SVG Version: 6.00 Build 0)  -->
<svg version="1.1" id="Layer_1" xmlns="http://www.w3.org/2000/svg" xmlns:xlink="http://www.w3.org/1999/xlink" x="0px" y="0px"
	 viewBox="0 0 512 512" style="enable-background:new 0 0 512 512;" xml:space="preserve">
<polygon style="fill:#FFFFFF;" points="278.946,239.475 267.556,201.887 243.907,201.887 232.517,239.475 "/>
<circle style="fill:#F28544;" cx="255.72" cy="117.313" r="18.794"/>
<polygon style="fill:#E4AD40;" points="193.742,371.034 179.243,418.02 332.844,418.02 318.744,371.034 "/>
<polygon style="fill:#FFFFFF;" points="226.822,258.269 198.346,352.24 313.116,352.24 284.641,258.269 "/>
<g>
	<path style="fill:#314E55;" d="M255.731,154.901c20.726,0,37.588-16.862,37.588-37.588s-16.862-37.588-37.588-37.588
		s-37.588,16.862-37.588,37.588S235.006,154.901,255.731,154.901z M255.731,98.519c10.365,0,18.794,8.429,18.794,18.794
		s-8.429,18.794-18.794,18.794s-18.794-8.429-18.794-18.794S245.366,98.519,255.731,98.519z"/>
	<path style="fill:#314E55;" d="M315.39,190.521c1.835,1.845,4.244,2.767,6.658,2.767c2.4,0,4.8-0.913,6.63-2.739
		c19.615-19.537,30.421-45.545,30.421-73.231c0-27.053-10.379-52.634-29.228-72.034c-3.62-3.717-9.562-3.804-13.288-0.193
		c-3.721,3.616-3.808,9.567-0.193,13.288c15.422,15.876,23.915,36.804,23.915,58.938c0,22.653-8.837,43.929-24.888,59.916
		C311.738,180.895,311.728,186.846,315.39,190.521z"/>
	<path style="fill:#314E55;" d="M189.952,193.288c2.409,0,4.822-0.922,6.658-2.767c3.662-3.675,3.652-9.627-0.027-13.288
		c-16.05-15.986-24.888-37.262-24.888-59.916c0-22.135,8.493-43.062,23.915-58.938c3.616-3.721,3.529-9.672-0.193-13.288
		c-3.721-3.62-9.672-3.524-13.288,0.193c-18.849,19.4-29.228,44.98-29.228,72.034c0,27.687,10.806,53.694,30.421,73.231
		C185.152,192.375,187.552,193.288,189.952,193.288z"/>
	<path style="fill:#314E55;" d="M362.885,232.96c1.835,1.845,4.244,2.767,6.658,2.767c2.4,0,4.8-0.913,6.63-2.739
		c31.082-30.958,48.197-72.162,48.197-116.027c0-42.851-16.445-83.376-46.306-114.109c-3.62-3.721-9.562-3.804-13.288-0.193
		c-3.721,3.616-3.808,9.567-0.193,13.288c26.434,27.209,40.993,63.082,40.993,101.014c0,38.832-15.151,75.305-42.663,102.712
		C359.232,223.333,359.223,229.284,362.885,232.96z"/>
	<path style="fill:#314E55;" d="M142.457,235.726c2.409,0,4.822-0.922,6.658-2.767c3.662-3.675,3.652-9.627-0.027-13.288
		c-27.512-27.407-42.663-63.88-42.663-102.712c0-37.932,14.559-73.805,40.993-101.014c3.616-3.721,3.529-9.672-0.193-13.288
		c-3.721-3.62-9.672-3.529-13.288,0.193C104.075,33.584,87.63,74.108,87.63,116.96c0,43.865,17.115,85.069,48.197,116.027
		C137.658,234.813,140.057,235.726,142.457,235.726z"/>
	<path style="fill:#314E55;" d="M281.495,183.093h-51.528l-95.994,316.775c-1.505,4.969,1.303,10.214,6.268,11.719
		c4.978,1.523,10.218-1.298,11.719-6.268l20.759-68.505h166.026l20.759,68.505c1.23,4.056,4.956,6.676,8.989,6.676
		c0.904,0,1.822-0.133,2.73-0.408c4.965-1.505,7.773-6.749,6.268-11.719L281.495,183.093z M267.556,201.887l11.39,37.588h-46.429
		l11.39-37.588H267.556z M179.243,418.02l14.499-46.985h125.002l14.1,46.985H179.243z M198.346,352.24l28.475-93.971h57.82
		l28.475,93.971H198.346z"/>
</g>
<g>
</g>
<g>
</g>
<g>
</g>
<g>
</g>
<g>
</g>
<g>
</g>
<g>
</g>
<g>
</g>
<g>
</g>
<g>
</g>
<g>
</g>
<g>
</g>
<g>
</g>
<g>
</g>
<g>
</g>
</svg>
