<?xml version="1.0" encoding="iso-8859-1"?>
<!-- Generator: Adobe Illustrator 19.0.0, SVG Export Plug-In . SVG Version: 6.00 Build 0)  -->
<svg version="1.1" id="Layer_1" xmlns="http://www.w3.org/2000/svg" xmlns:xlink="http://www.w3.org/1999/xlink" x="0px" y="0px"
	 viewBox="0 0 512 512" style="enable-background:new 0 0 512 512;" xml:space="preserve">
<path style="fill:#F58CAC;" d="M17.655,61.793v52.966h476.69V61.793H17.655z M44.138,105.931c-9.733,0-17.655-7.918-17.655-17.655
	s7.922-17.655,17.655-17.655s17.655,7.918,17.655,17.655S53.871,105.931,44.138,105.931z M88.276,105.931
	c-9.733,0-17.655-7.918-17.655-17.655s7.922-17.655,17.655-17.655s17.655,7.918,17.655,17.655S98.009,105.931,88.276,105.931z
	 M132.414,105.931c-9.733,0-17.655-7.918-17.655-17.655s7.922-17.655,17.655-17.655s17.655,7.918,17.655,17.655
	S142.147,105.931,132.414,105.931z"/>
<path style="fill:#5ECC66;" d="M264.147,294.806c2.767-3.091,7.302-3.84,10.897-1.828c24.284,13.599,54.983,9.328,74.681-10.371
	c12.629-12.629,19.069-29.737,18.25-47.069l-39.379,39.384c-3.31,3.31-9.172,3.31-12.483,0l-47.06-47.065
	c-3.448-3.448-3.448-9.035,0-12.483l39.379-39.379c-17.422-0.841-34.44,5.629-47.069,18.25
	c-20.785,20.793-24.224,53.72-8.181,78.293c2.388,3.655,1.75,8.509-1.509,11.414l-111.44,99.388l23.759,23.763L264.147,294.806z"/>
<path style="fill:#EAEAEA;" d="M17.655,450.207h476.69V132.414H17.655V450.207z M121.5,376.388l113.026-100.802
	c-16.009-30.625-10.491-68.979,14.353-93.823c21.06-21.065,51.845-28.698,80.345-19.91c2.957,0.914,5.216,3.306,5.965,6.31
	c0.741,3.004-0.138,6.177-2.328,8.366l-45.086,45.086l34.578,34.582l45.086-45.09c2.19-2.19,5.388-3.069,8.362-2.328
	c3.009,0.746,5.405,3.009,6.31,5.965c8.793,28.491,1.164,59.28-19.905,80.345c-23.543,23.569-59.388,29.901-89.379,16.509
	L170.948,425.828c-1.612,1.815-3.905,2.879-6.336,2.948c-0.086,0.004-0.164,0.004-0.25,0.004c-2.336,0-4.586-0.927-6.241-2.586
	l-36.983-36.979c-1.715-1.715-2.655-4.065-2.586-6.491C118.62,380.293,119.69,378.004,121.5,376.388z"/>
<g>
	<path style="fill:#314E55;" d="M0,44.138v70.621v17.655v335.448h512V132.414v-17.655V44.138H0z M494.345,450.207H17.655V132.414
		h476.69V450.207z M17.655,114.759V61.793h476.69v52.966H17.655z"/>
	<path style="fill:#314E55;" d="M44.138,70.621c-9.733,0-17.655,7.918-17.655,17.655s7.922,17.655,17.655,17.655
		s17.655-7.918,17.655-17.655S53.871,70.621,44.138,70.621z"/>
	<path style="fill:#314E55;" d="M88.276,70.621c-9.733,0-17.655,7.918-17.655,17.655s7.922,17.655,17.655,17.655
		s17.655-7.918,17.655-17.655S98.009,70.621,88.276,70.621z"/>
	<path style="fill:#314E55;" d="M132.414,70.621c-9.733,0-17.655,7.918-17.655,17.655s7.922,17.655,17.655,17.655
		s17.655-7.918,17.655-17.655S142.147,70.621,132.414,70.621z"/>
	<path style="fill:#314E55;" d="M158.121,426.194c1.655,1.66,3.905,2.586,6.241,2.586c0.086,0,0.164,0,0.25-0.004
		c2.431-0.069,4.724-1.134,6.336-2.948l101.879-114.229c29.991,13.392,65.836,7.06,89.379-16.509
		c21.069-21.065,28.698-51.853,19.905-80.345c-0.905-2.957-3.302-5.22-6.31-5.965c-2.974-0.741-6.172,0.138-8.362,2.328
		l-45.086,45.09l-34.578-34.582l45.086-45.086c2.19-2.19,3.069-5.362,2.328-8.366c-0.75-3.004-3.009-5.397-5.965-6.31
		c-28.5-8.789-59.285-1.155-80.345,19.91c-24.845,24.845-30.362,63.198-14.353,93.823L121.5,376.388
		c-1.81,1.616-2.88,3.905-2.948,6.336c-0.069,2.427,0.871,4.776,2.586,6.491L158.121,426.194z M251.673,283.953
		c3.259-2.905,3.896-7.759,1.509-11.414c-16.043-24.573-12.603-57.5,8.181-78.293c12.629-12.621,29.647-19.091,47.069-18.25
		l-39.379,39.379c-3.448,3.448-3.448,9.035,0,12.483l47.06,47.065c3.31,3.31,9.172,3.31,12.483,0l39.379-39.384
		c0.819,17.332-5.621,34.44-18.25,47.069c-19.698,19.698-50.396,23.97-74.681,10.371c-3.595-2.013-8.129-1.263-10.897,1.828
		L163.991,407.103l-23.759-23.763L251.673,283.953z"/>
</g>
<g>
</g>
<g>
</g>
<g>
</g>
<g>
</g>
<g>
</g>
<g>
</g>
<g>
</g>
<g>
</g>
<g>
</g>
<g>
</g>
<g>
</g>
<g>
</g>
<g>
</g>
<g>
</g>
<g>
</g>
</svg>
