<?xml version="1.0" encoding="iso-8859-1"?>
<!-- Generator: Adobe Illustrator 19.0.0, SVG Export Plug-In . SVG Version: 6.00 Build 0)  -->
<svg version="1.1" id="Layer_1" xmlns="http://www.w3.org/2000/svg" xmlns:xlink="http://www.w3.org/1999/xlink" x="0px" y="0px"
	 viewBox="0 0 512 512" style="enable-background:new 0 0 512 512;" xml:space="preserve">
<path style="fill:#73C9C9;" d="M383.412,78.908c-21.411,0-42.162,6.088-60.033,17.613l-9.003,5.812l-4.305-9.814
	c-16.276-37.117-53.125-61.094-93.887-61.094c-50.621,0-94.182,37.455-101.322,87.131l-1.132,7.826h-9.038
	c-47.661,0-86.436,38.498-86.436,85.821s38.774,85.821,86.436,85.821h280.602c59.739-0.927,108.452-50.077,108.452-109.558
	C493.745,128.058,444.247,78.908,383.412,78.908z M456.807,197.62c-5.045,0-9.128-4.083-9.128-9.128
	c0-35.227-28.666-63.893-63.893-63.893c-5.045,0-9.128-4.083-9.128-9.128c0-5.045,4.083-9.128,9.128-9.128
	c45.299,0,82.148,36.849,82.148,82.148C465.934,193.538,461.852,197.62,456.807,197.62z"/>
<path style="fill:#E65F58;" d="M265.128,389.299h-27.383H219.49h-9.128v50.13c0,22.685,18.424,41.145,41.074,41.145
	s41.074-18.46,41.074-41.145v-50.13h-9.128H265.128z"/>
<g>
	<path style="fill:#314E55;" d="M383.412,60.653c-21.491,0-42.42,5.277-61.13,15.34C301.335,37.522,260.733,13.17,216.183,13.17
		c-57.021,0-106.447,40.397-118.044,95.162C43.454,111.701,0,157,0,212.203c0,57.386,46.966,104.076,104.691,104.076l280.744-0.018
		C455.22,315.2,512,257.868,512,188.466C512,117.985,454.32,60.653,383.412,60.653z M385.293,298.023H104.691
		c-47.661,0-86.436-38.498-86.436-85.82s38.774-85.821,86.436-85.821h9.038l1.132-7.826c7.14-49.676,50.701-87.131,101.322-87.131
		c40.762,0,77.611,23.978,93.887,61.094l4.305,9.814l9.003-5.812c17.872-11.525,38.623-17.613,60.033-17.613
		c60.836,0,110.333,49.15,110.333,109.558C493.745,247.946,445.032,297.096,385.293,298.023z"/>
	<path style="fill:#314E55;" d="M383.786,106.344c-5.045,0-9.128,4.083-9.128,9.128c0,5.045,4.083,9.128,9.128,9.128
		c35.227,0,63.893,28.666,63.893,63.893c0,5.045,4.083,9.128,9.128,9.128c5.045,0,9.128-4.083,9.128-9.128
		C465.934,143.193,429.085,106.344,383.786,106.344z"/>
	<path style="fill:#314E55;" d="M301.638,371.044h-18.255v-45.638h-18.255v45.638h-27.383v-45.638H219.49v45.638h-18.255
		c-5.045,0-9.128,4.083-9.128,9.128v59.258c0,32.758,26.616,59.4,59.329,59.4s59.329-26.643,59.329-59.4v-59.258
		C310.765,375.126,306.683,371.044,301.638,371.044z M292.51,439.429c0,22.685-18.424,41.145-41.074,41.145
		s-41.074-18.46-41.074-41.145v-50.13h9.128h18.255h27.383h18.255h9.128V439.429z"/>
</g>
<g>
</g>
<g>
</g>
<g>
</g>
<g>
</g>
<g>
</g>
<g>
</g>
<g>
</g>
<g>
</g>
<g>
</g>
<g>
</g>
<g>
</g>
<g>
</g>
<g>
</g>
<g>
</g>
<g>
</g>
</svg>
