<?xml version="1.0" encoding="iso-8859-1"?>
<!-- Generator: Adobe Illustrator 19.0.0, SVG Export Plug-In . SVG Version: 6.00 Build 0)  -->
<svg version="1.1" id="Layer_1" xmlns="http://www.w3.org/2000/svg" xmlns:xlink="http://www.w3.org/1999/xlink" x="0px" y="0px"
	 viewBox="0 0 512 512" style="enable-background:new 0 0 512 512;" xml:space="preserve">
<path style="fill:#F28544;" d="M479.932,47.146H32.068c-5.917,0-10.734,4.745-10.734,10.578v277.51
	c0,5.833,4.818,10.578,10.734,10.578h217.5c5.891,0,10.667,4.776,10.667,10.667v95.922l121.974-104.037
	c1.932-1.646,4.385-2.552,6.922-2.552h90.802c5.917,0,10.734-4.745,10.734-10.578V57.724
	C490.667,51.891,485.849,47.146,479.932,47.146z M69.333,79.146h325.333v21.333H69.333V79.146z M69.333,132.479h256v21.333h-256
	V132.479z M325.333,313.813h-256v-21.333h256V313.813z M325.333,260.479h-256v-21.333h256V260.479z M448,207.146H69.333v-21.333H448
	V207.146z"/>
<g>
	<path style="fill:#314E55;" d="M479.932,25.813H32.068C14.385,25.813,0,40.13,0,57.724v277.51
		c0,17.594,14.385,31.911,32.068,31.911h206.833v108.375c0,4.161,2.422,7.943,6.198,9.687c1.427,0.656,2.953,0.979,4.469,0.979
		c2.49,0,4.953-0.87,6.922-2.552l136.573-116.49h86.87c17.682,0,32.068-14.318,32.068-31.911V57.724
		C512,40.13,497.615,25.813,479.932,25.813z M490.667,335.234c0,5.833-4.818,10.578-10.734,10.578H389.13
		c-2.537,0-4.99,0.906-6.922,2.552L260.234,452.401v-95.922c0-5.891-4.776-10.667-10.667-10.667h-217.5
		c-5.917,0-10.734-4.745-10.734-10.578V57.724c0-5.833,4.818-10.578,10.734-10.578h447.865c5.917,0,10.734,4.745,10.734,10.578
		V335.234z"/>
	<rect x="69.333" y="79.146" style="fill:#314E55;" width="325.333" height="21.333"/>
	<rect x="69.333" y="132.479" style="fill:#314E55;" width="256" height="21.333"/>
	<rect x="69.333" y="185.813" style="fill:#314E55;" width="378.667" height="21.333"/>
	<rect x="69.333" y="239.146" style="fill:#314E55;" width="256" height="21.333"/>
	<rect x="69.333" y="292.479" style="fill:#314E55;" width="256" height="21.333"/>
</g>
<g>
</g>
<g>
</g>
<g>
</g>
<g>
</g>
<g>
</g>
<g>
</g>
<g>
</g>
<g>
</g>
<g>
</g>
<g>
</g>
<g>
</g>
<g>
</g>
<g>
</g>
<g>
</g>
<g>
</g>
</svg>
