<?xml version="1.0" encoding="iso-8859-1"?>
<!-- Generator: Adobe Illustrator 19.0.0, SVG Export Plug-In . SVG Version: 6.00 Build 0)  -->
<svg version="1.1" id="Layer_1" xmlns="http://www.w3.org/2000/svg" xmlns:xlink="http://www.w3.org/1999/xlink" x="0px" y="0px"
	 viewBox="0 0 512 512" style="enable-background:new 0 0 512 512;" xml:space="preserve">
<polygon style="fill:#FFFFFF;" points="194.528,459.852 317.472,459.852 297.157,412.444 214.843,412.444 "/>
<path style="fill:#EAEAEA;" d="M18.963,393.481h189.63h94.815h189.63v-56.889H18.963V393.481z M256,346.074
	c10.454,0,18.963,8.509,18.963,18.963c0,10.454-8.509,18.963-18.963,18.963c-10.454,0-18.963-8.509-18.963-18.963
	C237.037,354.583,245.546,346.074,256,346.074z"/>
<path style="fill:#D8D8D8;" d="M311.931,146.963c-4.406-21.611-23.557-37.926-46.449-37.926s-42.043,16.315-46.449,37.926H311.931z"
	/>
<path style="fill:#F28544;" d="M322.426,165.926H208.537c-5.194,0-9.426,4.269-9.426,9.509v85.278c0,5.241,4.232,9.509,9.426,9.509
	h113.889c5.194,0,9.426-4.269,9.426-9.509v-85.278C331.852,170.194,327.62,165.926,322.426,165.926z"/>
<path style="fill:#D8D8D8;" d="M483.491,52.148H28.509c-5.268,0-9.546,4.213-9.546,9.398V317.63h474.074V61.546
	C493.037,56.361,488.759,52.148,483.491,52.148z M350.815,260.713c0,15.704-12.731,28.472-28.389,28.472H208.537
	c-15.657,0-28.389-12.768-28.389-28.472v-85.278c0-12.564,8.202-23.126,19.479-26.897c3.928-32.873,31.941-58.464,65.854-58.464
	s61.926,25.591,65.854,58.464c11.276,3.771,19.479,14.334,19.479,26.897V260.713z"/>
<g>
	<path style="fill:#314E55;" d="M483.491,33.185H28.509C12.787,33.185,0,45.907,0,61.546V317.63v18.963v75.852h194.217
		l-22.782,53.157c-1.259,2.926-0.954,6.287,0.796,8.954c1.759,2.657,4.731,4.259,7.917,4.259h151.704
		c3.185,0,6.158-1.602,7.917-4.259c1.75-2.667,2.056-6.028,0.796-8.954l-22.782-53.157H512v-75.852V317.63V61.546
		C512,45.907,499.213,33.185,483.491,33.185z M317.472,459.852H194.528l20.315-47.407h82.315L317.472,459.852z M493.037,393.481
		h-189.63h-94.815H18.963v-56.889h474.074V393.481z M18.963,317.63V61.546c0-5.185,4.278-9.398,9.546-9.398h454.981
		c5.269,0,9.546,4.213,9.546,9.398V317.63H18.963z"/>
	<path style="fill:#314E55;" d="M256,384c10.454,0,18.963-8.509,18.963-18.963c0-10.454-8.509-18.963-18.963-18.963
		c-10.454,0-18.963,8.509-18.963,18.963C237.037,375.491,245.546,384,256,384z"/>
	<path style="fill:#314E55;" d="M331.336,148.538c-3.928-32.873-31.941-58.464-65.854-58.464s-61.926,25.591-65.854,58.464
		c-11.277,3.771-19.479,14.333-19.479,26.897v85.278c0,15.704,12.732,28.472,28.389,28.472h113.889
		c15.657,0,28.389-12.768,28.389-28.472v-85.278C350.815,162.872,342.612,152.309,331.336,148.538z M265.481,109.037
		c22.892,0,42.044,16.315,46.449,37.926h-92.898C223.438,125.352,242.589,109.037,265.481,109.037z M331.852,260.713
		c0,5.241-4.232,9.509-9.426,9.509H208.537c-5.194,0-9.426-4.269-9.426-9.509v-85.278c0-5.241,4.232-9.509,9.426-9.509h113.889
		c5.194,0,9.426,4.269,9.426,9.509V260.713z"/>
</g>
<g>
</g>
<g>
</g>
<g>
</g>
<g>
</g>
<g>
</g>
<g>
</g>
<g>
</g>
<g>
</g>
<g>
</g>
<g>
</g>
<g>
</g>
<g>
</g>
<g>
</g>
<g>
</g>
<g>
</g>
</svg>
