<?xml version="1.0" encoding="iso-8859-1"?>
<!-- Generator: Adobe Illustrator 19.0.0, SVG Export Plug-In . SVG Version: 6.00 Build 0)  -->
<svg version="1.1" id="Layer_1" xmlns="http://www.w3.org/2000/svg" xmlns:xlink="http://www.w3.org/1999/xlink" x="0px" y="0px"
	 viewBox="0 0 512 512" style="enable-background:new 0 0 512 512;" xml:space="preserve">
<g>
	<path style="fill:#73C9C9;" d="M242.537,111.287c-14.764-14.759-38.801-14.731-53.583,0.046
		c-14.782,14.787-14.806,38.833-0.051,53.593l0.051,0.051l53.638-53.635L242.537,111.287z"/>
	<path style="fill:#73C9C9;" d="M323.097,164.926c14.755-14.759,14.731-38.806-0.051-53.593
		c-7.153-7.148-16.671-11.093-26.801-11.111c-0.014,0-0.028,0-0.046,0c-10.111,0-19.607,3.935-26.731,11.065h-0.005l-0.055,0.055
		l53.638,53.635L323.097,164.926z"/>
	
		<rect x="218.076" y="140.469" transform="matrix(-0.7071 0.7071 -0.7071 -0.7071 563.1663 123.5177)" style="fill:#73C9C9;" width="75.851" height="75.851"/>
</g>
<g>
	<polygon style="fill:#EAEAEA;" points="194.528,459.852 317.472,459.852 297.157,412.444 214.843,412.444 	"/>
	<path style="fill:#EAEAEA;" d="M18.963,393.481h189.63h94.815h189.63v-56.889H18.963V393.481z M256,346.074
		c10.458,0,18.963,8.509,18.963,18.963c0,10.454-8.505,18.963-18.963,18.963s-18.963-8.509-18.963-18.963
		C237.037,354.583,245.542,346.074,256,346.074z"/>
</g>
<g>
	<path style="fill:#73C9C9;" d="M483.491,52.148H28.509c-5.264,0-9.546,4.213-9.546,9.398V317.63h474.074V61.546
		C493.037,56.361,488.755,52.148,483.491,52.148z M336.454,258.833c-11.097,11.102-25.676,16.657-40.245,16.657
		c-14.546,0-29.083-5.537-40.153-16.602L256,258.833l-0.055,0.055c-10.713,10.713-24.968,16.611-40.143,16.611
		c-0.023,0-0.046,0-0.069,0c-15.185-0.018-29.458-5.935-40.185-16.667c-10.745-10.741-16.671-25.009-16.69-40.185
		c-0.014-15.185,5.893-29.463,16.639-40.213l0.051-0.051l-0.051-0.051c-22.148-22.148-22.125-58.222,0.046-80.407
		c22.19-22.194,58.259-22.185,80.403-0.046L256,97.935l0.055-0.055c10.708-10.713,24.968-16.62,40.143-16.62
		c0.023,0,0.046,0,0.069,0c15.185,0.018,29.458,5.935,40.185,16.667c22.181,22.185,22.199,58.25,0.051,80.407l-0.051,0.051
		l0.051,0.051c10.731,10.722,16.63,25.009,16.616,40.213C353.102,233.833,347.181,248.111,336.454,258.833z"/>
	<path style="fill:#73C9C9;" d="M188.903,191.843c-7.157,7.157-11.093,16.676-11.083,26.787c0.014,10.111,3.968,19.63,11.134,26.796
		c7.153,7.157,16.671,11.102,26.801,11.111c0.014,0,0.028,0,0.046,0c10.111,0,19.607-3.926,26.736-11.056l0.055-0.055
		l-53.638-53.635L188.903,191.843z"/>
	<path style="fill:#73C9C9;" d="M323.046,191.791l-53.638,53.635l0.055,0.055c14.755,14.75,38.792,14.731,53.583-0.055
		c7.153-7.148,11.097-16.667,11.111-26.796c0.009-10.13-3.917-19.648-11.06-26.787L323.046,191.791z"/>
</g>
<g>
	<path style="fill:#314E55;" d="M483.491,33.185H28.509C12.787,33.185,0,45.907,0,61.546V317.63v18.963v75.852h194.217
		l-22.782,53.157c-1.259,2.926-0.958,6.287,0.796,8.954c1.755,2.657,4.731,4.259,7.917,4.259h151.704
		c3.185,0,6.162-1.602,7.917-4.259c1.755-2.667,2.056-6.028,0.796-8.954l-22.782-53.157H512v-75.852V317.63V61.546
		C512,45.907,499.213,33.185,483.491,33.185z M317.472,459.852H194.528l20.315-47.407h82.315L317.472,459.852z M493.037,393.481
		h-189.63h-94.815H18.963v-56.889h474.074V393.481z M18.963,317.63V61.546c0-5.185,4.282-9.398,9.546-9.398h454.981
		c5.264,0,9.546,4.213,9.546,9.398V317.63H18.963z"/>
	<path style="fill:#314E55;" d="M256,384c10.458,0,18.963-8.509,18.963-18.963c0-10.454-8.505-18.963-18.963-18.963
		s-18.963,8.509-18.963,18.963C237.037,375.491,245.542,384,256,384z"/>
	<path style="fill:#314E55;" d="M336.454,178.384l0.051-0.051c22.148-22.158,22.13-58.222-0.051-80.407
		c-10.727-10.731-25-16.648-40.185-16.667c-0.023,0-0.046,0-0.069,0c-15.176,0-29.435,5.907-40.143,16.62L256,97.935l-0.055-0.055
		c-22.144-22.139-58.213-22.148-80.403,0.046c-22.171,22.185-22.194,58.259-0.046,80.407l0.051,0.051l-0.051,0.051
		c-10.745,10.75-16.653,25.028-16.639,40.213c0.018,15.176,5.944,29.444,16.69,40.185c10.727,10.731,25,16.648,40.185,16.667
		c0.023,0,0.046,0,0.069,0c15.176,0,29.431-5.898,40.143-16.611l0.055-0.055l0.055,0.055c11.069,11.065,25.606,16.602,40.153,16.602
		c14.57,0,29.148-5.556,40.245-16.657c10.727-10.722,16.648-25,16.667-40.185c0.014-15.204-5.884-29.491-16.616-40.213
		L336.454,178.384z M269.463,111.287h0.005c7.125-7.13,16.62-11.065,26.731-11.065c0.018,0,0.032,0,0.046,0
		c10.13,0.018,19.648,3.963,26.801,11.111c14.782,14.787,14.806,38.833,0.051,53.593l-0.051,0.051l-53.638-53.635L269.463,111.287z
		 M309.638,178.384L256,232.019l-53.638-53.635L256,124.75L309.638,178.384z M188.903,164.926
		c-14.755-14.759-14.731-38.806,0.051-53.593c14.782-14.778,38.82-14.806,53.583-0.046l0.055,0.055l-53.638,53.636L188.903,164.926z
		 M242.537,245.481c-7.13,7.13-16.625,11.056-26.736,11.056c-0.018,0-0.032,0-0.046,0c-10.13-0.009-19.648-3.954-26.801-11.111
		c-7.167-7.167-11.12-16.685-11.134-26.796c-0.009-10.111,3.926-19.63,11.083-26.787l0.051-0.051l53.638,53.635L242.537,245.481z
		 M323.046,245.426c-14.792,14.787-38.829,14.806-53.583,0.055l-0.055-0.055l53.638-53.635l0.051,0.051
		c7.144,7.139,11.069,16.657,11.06,26.787C334.144,228.759,330.199,238.278,323.046,245.426z"/>
</g>
<g>
</g>
<g>
</g>
<g>
</g>
<g>
</g>
<g>
</g>
<g>
</g>
<g>
</g>
<g>
</g>
<g>
</g>
<g>
</g>
<g>
</g>
<g>
</g>
<g>
</g>
<g>
</g>
<g>
</g>
</svg>
