<?xml version="1.0" encoding="iso-8859-1"?>
<!-- Generator: Adobe Illustrator 19.0.0, SVG Export Plug-In . SVG Version: 6.00 Build 0)  -->
<svg version="1.1" id="Layer_1" xmlns="http://www.w3.org/2000/svg" xmlns:xlink="http://www.w3.org/1999/xlink" x="0px" y="0px"
	 viewBox="0 0 512 512" style="enable-background:new 0 0 512 512;" xml:space="preserve">
<path style="fill:#EAEAEA;" d="M166.445,166.762L56.388,276.819C7.11,326.102,7.119,406.297,56.407,455.589
	c49.307,49.297,129.506,49.288,178.775,0.019l110.057-110.057c49.278-49.278,49.269-129.478-0.019-178.77
	C295.922,117.493,215.742,117.489,166.445,166.762z M307.394,218.353l-37.816,37.82c-1.899,1.899-4.388,2.849-6.876,2.849
	c-2.488,0-4.976-0.95-6.876-2.849c-3.799-3.794-3.799-9.953,0-13.751l37.816-37.82c3.799-3.799,9.953-3.799,13.751,0
	C311.193,208.396,311.193,214.554,307.394,218.353z"/>
<g>
	<path style="fill:#314E55;" d="M152.693,153.011L42.636,263.068c-56.857,56.866-56.847,149.402,0.019,206.272
		c28.442,28.438,65.802,42.659,103.153,42.659s74.691-14.212,103.124-42.64L358.99,359.302
		c56.866-56.861,56.857-149.397-0.019-206.272C302.105,96.159,209.56,96.15,152.693,153.011z M345.238,345.551L235.181,455.608
		c-49.269,49.269-129.468,49.278-178.775-0.019c-49.288-49.293-49.297-129.487-0.019-178.77l110.057-110.057
		c49.297-49.274,129.478-49.269,178.775,0.019C394.507,216.074,394.517,296.273,345.238,345.551z"/>
	<path style="fill:#314E55;" d="M293.643,204.602l-37.816,37.82c-3.799,3.799-3.799,9.957,0,13.751
		c1.899,1.899,4.388,2.849,6.876,2.849c2.488,0,4.976-0.95,6.876-2.849l37.816-37.82c3.799-3.799,3.799-9.957,0-13.751
		C303.595,200.803,297.442,200.803,293.643,204.602z"/>
	<path style="fill:#314E55;" d="M346.682,48.624c-5.375,0-9.725,4.354-9.725,9.725s4.35,9.725,9.725,9.725
		c53.618,0,97.246,43.623,97.246,97.246c0,5.37,4.35,9.725,9.725,9.725s9.725-4.354,9.725-9.725
		C463.377,100.974,411.031,48.624,346.682,48.624z"/>
	<path style="fill:#314E55;" d="M346.682,0.001c-5.375,0-9.725,4.354-9.725,9.725s4.35,9.725,9.725,9.725
		c80.437,0,145.869,65.437,145.869,145.869c0,5.37,4.35,9.725,9.725,9.725c5.375,0,9.725-4.354,9.725-9.725
		C512,74.16,437.841,0.001,346.682,0.001z"/>
</g>
<g>
</g>
<g>
</g>
<g>
</g>
<g>
</g>
<g>
</g>
<g>
</g>
<g>
</g>
<g>
</g>
<g>
</g>
<g>
</g>
<g>
</g>
<g>
</g>
<g>
</g>
<g>
</g>
<g>
</g>
</svg>
