<?xml version="1.0" encoding="iso-8859-1"?>
<!-- Generator: Adobe Illustrator 19.0.0, SVG Export Plug-In . SVG Version: 6.00 Build 0)  -->
<svg version="1.1" id="Layer_1" xmlns="http://www.w3.org/2000/svg" xmlns:xlink="http://www.w3.org/1999/xlink" x="0px" y="0px"
	 viewBox="0 0 512 512" style="enable-background:new 0 0 512 512;" xml:space="preserve">
<rect x="307.2" y="315.733" style="fill:#81A4E3;" width="170.667" height="85.333"/>
<g>
	<polygon style="fill:#D8D8D8;" points="304.442,418.134 294.2,443.734 490.867,443.734 480.625,418.134 	"/>
	<polygon style="fill:#D8D8D8;" points="31.375,170.667 21.133,196.267 217.8,196.267 207.558,170.667 	"/>
</g>
<rect x="34.133" y="68.266" style="fill:#E4D759;" width="170.667" height="85.333"/>
<g>
	<path style="fill:#314E55;" d="M247.467,136.533c65.875,0,119.467,53.592,119.467,119.467c0,4.717,3.817,8.533,8.533,8.533
		c4.717,0,8.533-3.817,8.533-8.533c0-75.284-61.25-136.534-136.534-136.534c-4.717,0-8.533,3.817-8.533,8.533
		S242.75,136.533,247.467,136.533z"/>
	<path style="fill:#314E55;" d="M247.467,375.467C181.592,375.467,128,321.875,128,256c0-4.717-3.817-8.533-8.533-8.533
		s-8.533,3.817-8.533,8.533c0,75.284,61.25,136.534,136.534,136.534c4.717,0,8.533-3.817,8.533-8.533
		C256,379.284,252.183,375.467,247.467,375.467z"/>
	<path style="fill:#314E55;" d="M511.392,449.1l-16.458-41.146V307.2c0-4.717-3.817-8.533-8.533-8.533H298.667
		c-4.717,0-8.533,3.817-8.533,8.533v100.754L273.675,449.1c-1.05,2.625-0.725,5.608,0.858,7.95c1.592,2.342,4.233,3.75,7.067,3.75
		h221.867c2.833,0,5.475-1.408,7.067-3.75C512.117,454.709,512.442,451.725,511.392,449.1z M307.2,315.733h170.667v85.333H307.2
		V315.733z M294.2,443.734l10.242-25.6h176.183l10.242,25.6H294.2z"/>
	<path style="fill:#314E55;" d="M237.467,209.583c1.583-2.342,1.908-5.325,0.858-7.95l-16.458-41.146V59.733
		c0-4.717-3.817-8.533-8.533-8.533H25.6c-4.717,0-8.533,3.817-8.533,8.533v100.754L0.608,201.633
		c-1.05,2.625-0.725,5.608,0.858,7.95c1.592,2.342,4.233,3.75,7.067,3.75H230.4C233.233,213.333,235.875,211.925,237.467,209.583z
		 M34.133,68.266H204.8V153.6H34.133C34.133,153.6,34.133,68.266,34.133,68.266z M21.133,196.267l10.242-25.6h176.183l10.242,25.6
		H21.133z"/>
</g>
<g>
</g>
<g>
</g>
<g>
</g>
<g>
</g>
<g>
</g>
<g>
</g>
<g>
</g>
<g>
</g>
<g>
</g>
<g>
</g>
<g>
</g>
<g>
</g>
<g>
</g>
<g>
</g>
<g>
</g>
</svg>
