<?xml version="1.0" encoding="iso-8859-1"?>
<!-- Generator: Adobe Illustrator 19.0.0, SVG Export Plug-In . SVG Version: 6.00 Build 0)  -->
<svg version="1.1" id="Layer_1" xmlns="http://www.w3.org/2000/svg" xmlns:xlink="http://www.w3.org/1999/xlink" x="0px" y="0px"
	 viewBox="0 0 512 512" style="enable-background:new 0 0 512 512;" xml:space="preserve">
<path style="fill:#E65F58;" d="M268.377,485.877h215.571L376.163,288.265L268.377,485.877z M386.612,444.081h-20.898V329.143h20.898
	V444.081z"/>
<g>
	<path style="fill:#314E55;" d="M219.428,423.183v-198.53h112.298c0.038,2.058,0.182,4.07,0.182,6.143
		c0,5.775,4.674,10.449,10.449,10.449c5.775,0,10.449-4.674,10.449-10.449c0-2.073-0.158-4.083-0.195-6.143h65.348h14.755h6.143
		c0-120.99-98.439-219.428-219.428-219.428H198.53v1.059C87.313,16.849,0,110.717,0,224.653
		c0,120.99,98.439,219.428,219.428,219.428c5.775,0,10.449-4.674,10.449-10.449S225.204,423.183,219.428,423.183z M198.53,419.724
		c-52.059-16.818-91.582-95.071-91.582-188.928c0-2.073,0.143-4.085,0.182-6.143h91.4V419.724z M108.193,203.755
		c6.751-81.517,43.383-146.71,90.338-161.878v161.878H108.193z M219.428,203.755V38.418c56.641,0,103.51,72.048,111.236,165.337
		H219.428z M416.836,203.755h-65.224c-6.239-78.318-39.079-143.389-83.59-171.366C347.48,52.494,408.074,120.419,416.836,203.755z
		 M170.835,32.389c-44.511,27.978-77.351,93.048-83.59,171.366H22.021C30.782,120.419,91.376,52.494,170.835,32.389z
		 M20.898,224.653h65.348c-0.037,2.059-0.195,4.07-0.195,6.143c0,74.534,24.077,140.166,60.404,178.312
		C73.025,379.95,20.898,308.342,20.898,224.653z"/>
	<path style="fill:#314E55;" d="M510.724,491.326L385.336,261.449c-3.653-6.714-14.694-6.714-18.347,0L241.602,491.326
		c-1.765,3.235-1.694,7.163,0.184,10.337c1.888,3.163,5.306,5.112,8.99,5.112h250.775c3.684,0,7.102-1.949,8.99-5.112
		C512.418,498.489,512.489,494.561,510.724,491.326z M268.377,485.877l107.786-197.612l107.786,197.612H268.377z"/>
	<rect x="365.714" y="329.143" style="fill:#314E55;" width="20.898" height="114.939"/>
	<rect x="365.714" y="452.78" style="fill:#314E55;" width="20.898" height="12.844"/>
</g>
<g>
</g>
<g>
</g>
<g>
</g>
<g>
</g>
<g>
</g>
<g>
</g>
<g>
</g>
<g>
</g>
<g>
</g>
<g>
</g>
<g>
</g>
<g>
</g>
<g>
</g>
<g>
</g>
<g>
</g>
</svg>
