<?xml version="1.0" encoding="iso-8859-1"?>
<!-- Generator: Adobe Illustrator 19.0.0, SVG Export Plug-In . SVG Version: 6.00 Build 0)  -->
<svg version="1.1" id="Layer_1" xmlns="http://www.w3.org/2000/svg" xmlns:xlink="http://www.w3.org/1999/xlink" x="0px" y="0px"
	 viewBox="0 0 512 512" style="enable-background:new 0 0 512 512;" xml:space="preserve">
<path style="fill:#E4AD40;" d="M256,227.556c10.458,0,18.963-8.472,18.963-18.88V37.842c0-10.407-8.505-18.88-18.963-18.88
	s-18.963,8.472-18.963,18.88v170.833C237.037,219.083,245.542,227.556,256,227.556z"/>
<path style="fill:#5ECC66;" d="M350.815,139.148v22.333c47.597,31.796,75.852,84.463,75.852,141.926
	c0,94.102-76.56,170.667-170.667,170.667S85.333,397.509,85.333,303.407c0-57.463,28.255-110.13,75.852-141.926v-22.333
	c-58.06,33.648-94.815,96.546-94.815,164.259c0,104.565,85.07,189.63,189.63,189.63s189.63-85.065,189.63-189.63
	C445.63,235.694,408.875,172.796,350.815,139.148z"/>
<g>
	<path style="fill:#314E55;" d="M345.403,114.889c-2.93-1.389-6.38-1.185-9.134,0.546c-2.75,1.741-4.417,4.768-4.417,8.018v43.185
		c0,3.268,1.685,6.306,4.454,8.037c44.708,27.954,71.398,76.083,71.398,128.732c0,83.648-68.055,151.704-151.704,151.704
		s-151.704-68.055-151.704-151.704c0-52.648,26.69-100.778,71.398-128.732c2.769-1.732,4.454-4.768,4.454-8.037v-43.185
		c0-3.25-1.667-6.278-4.417-8.018c-2.755-1.732-6.199-1.935-9.134-0.546c-72.403,34.408-119.19,108.398-119.19,188.519
		C47.407,418.426,140.982,512,256,512s208.593-93.574,208.593-208.593C464.593,223.287,417.806,149.296,345.403,114.889z
		 M256,493.037c-104.56,0-189.63-85.065-189.63-189.63c0-67.713,36.755-130.611,94.815-164.259v22.333
		c-47.597,31.796-75.852,84.463-75.852,141.926c0,94.102,76.56,170.667,170.667,170.667s170.667-76.565,170.667-170.667
		c0-57.463-28.255-110.13-75.852-141.926v-22.333c58.06,33.648,94.815,96.546,94.815,164.259
		C445.63,407.972,360.56,493.037,256,493.037z"/>
	<path style="fill:#314E55;" d="M256,246.519c20.912,0,37.926-16.972,37.926-37.842V37.842C293.926,16.972,276.912,0,256,0
		s-37.926,16.972-37.926,37.842v170.833C218.074,229.546,235.088,246.519,256,246.519z M237.037,37.842
		c0-10.407,8.505-18.88,18.963-18.88s18.963,8.472,18.963,18.88v170.833c0,10.408-8.505,18.88-18.963,18.88
		s-18.963-8.472-18.963-18.88V37.842z"/>
</g>
<g>
</g>
<g>
</g>
<g>
</g>
<g>
</g>
<g>
</g>
<g>
</g>
<g>
</g>
<g>
</g>
<g>
</g>
<g>
</g>
<g>
</g>
<g>
</g>
<g>
</g>
<g>
</g>
<g>
</g>
</svg>
