<?xml version="1.0" encoding="iso-8859-1"?>
<!-- Generator: Adobe Illustrator 19.0.0, SVG Export Plug-In . SVG Version: 6.00 Build 0)  -->
<svg version="1.1" id="Layer_1" xmlns="http://www.w3.org/2000/svg" xmlns:xlink="http://www.w3.org/1999/xlink" x="0px" y="0px"
	 viewBox="0 0 512 512" style="enable-background:new 0 0 512 512;" xml:space="preserve">
<circle style="fill:#B5BCBE;" cx="189.63" cy="346.074" r="4.741"/>
<path style="fill:#73C9C9;" d="M317.63,128c0-7.843-6.352-14.222-14.162-14.222h-33.245V80.532c0-7.81-6.38-14.162-14.222-14.162
	s-14.222,6.352-14.222,14.162v33.245h-33.245c-7.81,0-14.162,6.38-14.162,14.222s6.352,14.222,14.162,14.222h33.245v33.245
	c0,7.81,6.38,14.162,14.222,14.162s14.222-6.352,14.222-14.162v-33.245h33.245C311.278,142.222,317.63,135.843,317.63,128z"/>
<g>
	<circle style="fill:#B5BCBE;" cx="322.37" cy="412.444" r="4.741"/>
	<circle style="fill:#B5BCBE;" cx="256" cy="412.444" r="4.741"/>
	<circle style="fill:#B5BCBE;" cx="256" cy="279.704" r="4.741"/>
	<circle style="fill:#B5BCBE;" cx="189.63" cy="279.704" r="4.741"/>
</g>
<path style="fill:#E4AD40;" d="M355.523,18.963H156.477c-5.245,0-9.514,4.282-9.514,9.546v454.981c0,5.264,4.269,9.546,9.514,9.546
	h199.046c5.245,0,9.514-4.282,9.514-9.546V28.509C365.037,23.245,360.768,18.963,355.523,18.963z M189.63,436.148
	c-13.07,0-23.704-10.634-23.704-23.704s10.634-23.704,23.704-23.704c13.07,0,23.704,10.634,23.704,23.704
	S202.699,436.148,189.63,436.148z M189.63,369.778c-13.07,0-23.704-10.634-23.704-23.704s10.634-23.704,23.704-23.704
	c13.07,0,23.704,10.634,23.704,23.704S202.699,369.778,189.63,369.778z M189.63,303.407c-13.07,0-23.704-10.634-23.704-23.704
	S176.56,256,189.63,256c13.07,0,23.704,10.634,23.704,23.704S202.699,303.407,189.63,303.407z M256,436.148
	c-13.07,0-23.704-10.634-23.704-23.704S242.93,388.741,256,388.741c13.07,0,23.704,10.634,23.704,23.704
	S269.069,436.148,256,436.148z M256,369.778c-13.07,0-23.704-10.634-23.704-23.704S242.93,322.37,256,322.37
	c13.07,0,23.704,10.634,23.704,23.704S269.069,369.778,256,369.778z M256,303.407c-13.07,0-23.704-10.634-23.704-23.704
	S242.93,256,256,256c13.07,0,23.704,10.634,23.704,23.704S269.069,303.407,256,303.407z M289.185,175.468
	c0,18.264-14.889,33.125-33.185,33.125s-33.185-14.861-33.185-33.125v-14.282h-14.282c-18.264,0-33.125-14.889-33.125-33.185
	s14.861-33.185,33.125-33.185h14.282V80.532c0-18.264,14.889-33.125,33.185-33.125s33.185,14.861,33.185,33.125v14.282h14.282
	c18.264,0,33.125,14.889,33.125,33.185s-14.861,33.185-33.125,33.185h-14.282V175.468z M322.37,436.148
	c-13.07,0-23.704-10.634-23.704-23.704s10.634-23.704,23.704-23.704s23.704,10.634,23.704,23.704S335.44,436.148,322.37,436.148z
	 M322.37,369.778c-13.07,0-23.704-10.634-23.704-23.704s10.634-23.704,23.704-23.704s23.704,10.634,23.704,23.704
	S335.44,369.778,322.37,369.778z M322.37,303.407c-13.07,0-23.704-10.634-23.704-23.704S309.301,256,322.37,256
	s23.704,10.634,23.704,23.704S335.44,303.407,322.37,303.407z"/>
<g>
	<circle style="fill:#B5BCBE;" cx="256" cy="346.074" r="4.741"/>
	<circle style="fill:#B5BCBE;" cx="322.37" cy="346.074" r="4.741"/>
	<circle style="fill:#B5BCBE;" cx="322.37" cy="279.704" r="4.741"/>
	<circle style="fill:#B5BCBE;" cx="189.63" cy="412.444" r="4.741"/>
</g>
<g>
	<path style="fill:#314E55;" d="M355.523,0H156.477C140.773,0,128,12.787,128,28.509v454.981C128,499.213,140.773,512,156.477,512
		h199.046C371.227,512,384,499.213,384,483.491V28.509C384,12.787,371.227,0,355.523,0z M365.037,483.491
		c0,5.264-4.269,9.546-9.514,9.546H156.477c-5.245,0-9.514-4.282-9.514-9.546V28.509c0-5.264,4.269-9.546,9.514-9.546h199.046
		c5.245,0,9.514,4.282,9.514,9.546V483.491z"/>
	<path style="fill:#314E55;" d="M336.592,128c0-18.296-14.861-33.185-33.125-33.185h-14.282V80.532
		c0-18.264-14.889-33.125-33.185-33.125s-33.185,14.861-33.185,33.125v14.282h-14.282c-18.264,0-33.125,14.889-33.125,33.185
		s14.861,33.185,33.125,33.185h14.282v14.282c0,18.264,14.889,33.125,33.185,33.125s33.185-14.861,33.185-33.125v-14.282h14.282
		C321.731,161.185,336.592,146.296,336.592,128z M270.222,142.222v33.245c0,7.81-6.38,14.162-14.222,14.162
		s-14.222-6.352-14.222-14.162v-33.245h-33.245c-7.81,0-14.162-6.38-14.162-14.222s6.352-14.222,14.162-14.222h33.245V80.532
		c0-7.81,6.38-14.162,14.222-14.162s14.222,6.352,14.222,14.162v33.245h33.245c7.81,0,14.162,6.38,14.162,14.222
		s-6.352,14.222-14.162,14.222H270.222z"/>
	<path style="fill:#314E55;" d="M256,256c-13.07,0-23.704,10.634-23.704,23.704S242.93,303.407,256,303.407
		c13.07,0,23.704-10.634,23.704-23.704S269.069,256,256,256z M256,284.444c-2.616,0-4.741-2.125-4.741-4.741
		s2.125-4.741,4.741-4.741c2.616,0,4.741,2.125,4.741,4.741S258.616,284.444,256,284.444z"/>
	<path style="fill:#314E55;" d="M189.63,256c-13.07,0-23.704,10.634-23.704,23.704s10.634,23.704,23.704,23.704
		c13.07,0,23.704-10.634,23.704-23.704S202.699,256,189.63,256z M189.63,284.444c-2.616,0-4.741-2.125-4.741-4.741
		s2.125-4.741,4.741-4.741s4.741,2.125,4.741,4.741S192.245,284.444,189.63,284.444z"/>
	<path style="fill:#314E55;" d="M322.37,256c-13.07,0-23.704,10.634-23.704,23.704s10.634,23.704,23.704,23.704
		s23.704-10.634,23.704-23.704S335.44,256,322.37,256z M322.37,284.444c-2.616,0-4.741-2.125-4.741-4.741s2.125-4.741,4.741-4.741
		c2.616,0,4.741,2.125,4.741,4.741S324.986,284.444,322.37,284.444z"/>
	<path style="fill:#314E55;" d="M256,322.37c-13.07,0-23.704,10.634-23.704,23.704S242.93,369.778,256,369.778
		c13.07,0,23.704-10.634,23.704-23.704S269.069,322.37,256,322.37z M256,350.815c-2.616,0-4.741-2.125-4.741-4.741
		c0-2.616,2.125-4.741,4.741-4.741c2.616,0,4.741,2.125,4.741,4.741C260.741,348.69,258.616,350.815,256,350.815z"/>
	<path style="fill:#314E55;" d="M189.63,322.37c-13.07,0-23.704,10.634-23.704,23.704s10.634,23.704,23.704,23.704
		c13.07,0,23.704-10.634,23.704-23.704S202.699,322.37,189.63,322.37z M189.63,350.815c-2.616,0-4.741-2.125-4.741-4.741
		c0-2.616,2.125-4.741,4.741-4.741s4.741,2.125,4.741,4.741C194.37,348.69,192.245,350.815,189.63,350.815z"/>
	<path style="fill:#314E55;" d="M322.37,322.37c-13.07,0-23.704,10.634-23.704,23.704s10.634,23.704,23.704,23.704
		s23.704-10.634,23.704-23.704S335.44,322.37,322.37,322.37z M322.37,350.815c-2.616,0-4.741-2.125-4.741-4.741
		c0-2.616,2.125-4.741,4.741-4.741c2.616,0,4.741,2.125,4.741,4.741C327.111,348.69,324.986,350.815,322.37,350.815z"/>
	<path style="fill:#314E55;" d="M256,388.741c-13.07,0-23.704,10.634-23.704,23.704S242.93,436.148,256,436.148
		c13.07,0,23.704-10.634,23.704-23.704S269.069,388.741,256,388.741z M256,417.185c-2.616,0-4.741-2.125-4.741-4.741
		c0-2.616,2.125-4.741,4.741-4.741c2.616,0,4.741,2.125,4.741,4.741C260.741,415.06,258.616,417.185,256,417.185z"/>
	<path style="fill:#314E55;" d="M189.63,388.741c-13.07,0-23.704,10.634-23.704,23.704s10.634,23.704,23.704,23.704
		c13.07,0,23.704-10.634,23.704-23.704S202.699,388.741,189.63,388.741z M189.63,417.185c-2.616,0-4.741-2.125-4.741-4.741
		c0-2.616,2.125-4.741,4.741-4.741s4.741,2.125,4.741,4.741C194.37,415.06,192.245,417.185,189.63,417.185z"/>
	<path style="fill:#314E55;" d="M322.37,388.741c-13.07,0-23.704,10.634-23.704,23.704s10.634,23.704,23.704,23.704
		s23.704-10.634,23.704-23.704S335.44,388.741,322.37,388.741z M322.37,417.185c-2.616,0-4.741-2.125-4.741-4.741
		c0-2.616,2.125-4.741,4.741-4.741c2.616,0,4.741,2.125,4.741,4.741C327.111,415.06,324.986,417.185,322.37,417.185z"/>
</g>
<g>
</g>
<g>
</g>
<g>
</g>
<g>
</g>
<g>
</g>
<g>
</g>
<g>
</g>
<g>
</g>
<g>
</g>
<g>
</g>
<g>
</g>
<g>
</g>
<g>
</g>
<g>
</g>
<g>
</g>
</svg>
