<?xml version="1.0" encoding="iso-8859-1"?>
<!-- Generator: Adobe Illustrator 19.0.0, SVG Export Plug-In . SVG Version: 6.00 Build 0)  -->
<svg version="1.1" id="Layer_1" xmlns="http://www.w3.org/2000/svg" xmlns:xlink="http://www.w3.org/1999/xlink" x="0px" y="0px"
	 viewBox="0 0 512 512" style="enable-background:new 0 0 512 512;" xml:space="preserve">
<g>
	<path style="fill:#5ECC66;" d="M265.143,18.286h-18.286c-35.29,0-64,28.696-64,63.973v347.482c0,35.277,28.71,63.973,64,63.973
		h18.286c35.29,0,64-28.696,64-63.973V82.259C329.143,46.982,300.433,18.286,265.143,18.286z M265.143,82.286h27.429v18.286h-27.429
		V82.286z M265.143,118.857h27.429v18.286h-27.429V118.857z M265.143,155.429h27.429v18.286h-27.429V155.429z M265.143,192h27.429
		v18.286h-27.429V192z M265.143,228.571h27.429v18.286h-27.429V228.571z M265.143,265.143h27.429v18.286h-27.429V265.143z
		 M219.429,82.286h27.429v18.286h-27.429V82.286z M219.429,118.857h27.429v18.286h-27.429V118.857z M219.429,155.429h27.429v18.286
		h-27.429V155.429z M219.429,192h27.429v18.286h-27.429V192z M219.429,228.571h27.429v18.286h-27.429V228.571z M219.429,265.143
		h27.429v18.286h-27.429V265.143z M256,420.571c-25.205,0-45.714-20.509-45.714-45.714c0-25.205,20.509-45.714,45.714-45.714
		s45.714,20.509,45.714,45.714C301.714,400.062,281.205,420.571,256,420.571z"/>
	<path style="fill:#5ECC66;" d="M256,347.429c-15.125,0-27.429,12.304-27.429,27.429c0,15.125,12.304,27.429,27.429,27.429
		c15.125,0,27.429-12.304,27.429-27.429C283.429,359.732,271.125,347.429,256,347.429z"/>
</g>
<g>
	<path style="fill:#314E55;" d="M265.143,0h-18.286c-45.371,0-82.286,36.902-82.286,82.259v347.482
		c0,45.357,36.915,82.259,82.286,82.259h18.286c45.371,0,82.286-36.902,82.286-82.259V82.259C347.429,36.902,310.513,0,265.143,0z
		 M329.143,429.741c0,35.277-28.71,63.973-64,63.973h-18.286c-35.29,0-64-28.696-64-63.973V82.259c0-35.277,28.71-63.973,64-63.973
		h18.286c35.29,0,64,28.696,64,63.973V429.741z"/>
	<path style="fill:#314E55;" d="M256,329.143c-25.205,0-45.714,20.509-45.714,45.714c0,25.205,20.509,45.714,45.714,45.714
		s45.714-20.509,45.714-45.714C301.714,349.652,281.205,329.143,256,329.143z M256,402.286c-15.125,0-27.429-12.304-27.429-27.429
		c0-15.125,12.304-27.429,27.429-27.429c15.125,0,27.429,12.304,27.429,27.429C283.429,389.982,271.125,402.286,256,402.286z"/>
	<rect x="219.429" y="82.286" style="fill:#314E55;" width="27.429" height="18.286"/>
	<rect x="265.143" y="82.286" style="fill:#314E55;" width="27.429" height="18.286"/>
	<rect x="219.429" y="118.857" style="fill:#314E55;" width="27.429" height="18.286"/>
	<rect x="265.143" y="118.857" style="fill:#314E55;" width="27.429" height="18.286"/>
	<rect x="219.429" y="155.429" style="fill:#314E55;" width="27.429" height="18.286"/>
	<rect x="265.143" y="155.429" style="fill:#314E55;" width="27.429" height="18.286"/>
	<rect x="219.429" y="192" style="fill:#314E55;" width="27.429" height="18.286"/>
	<rect x="265.143" y="192" style="fill:#314E55;" width="27.429" height="18.286"/>
	<rect x="219.429" y="228.571" style="fill:#314E55;" width="27.429" height="18.286"/>
	<rect x="265.143" y="228.571" style="fill:#314E55;" width="27.429" height="18.286"/>
	<rect x="219.429" y="265.143" style="fill:#314E55;" width="27.429" height="18.286"/>
	<rect x="265.143" y="265.143" style="fill:#314E55;" width="27.429" height="18.286"/>
</g>
<g>
</g>
<g>
</g>
<g>
</g>
<g>
</g>
<g>
</g>
<g>
</g>
<g>
</g>
<g>
</g>
<g>
</g>
<g>
</g>
<g>
</g>
<g>
</g>
<g>
</g>
<g>
</g>
<g>
</g>
</svg>
