<?xml version="1.0" encoding="iso-8859-1"?>
<!-- Generator: Adobe Illustrator 19.0.0, SVG Export Plug-In . SVG Version: 6.00 Build 0)  -->
<svg version="1.1" id="Layer_1" xmlns="http://www.w3.org/2000/svg" xmlns:xlink="http://www.w3.org/1999/xlink" x="0px" y="0px"
	 viewBox="0 0 512 512" style="enable-background:new 0 0 512 512;" xml:space="preserve">
<path style="fill:#73C9C9;" d="M132.571,484.576c0,5.125,3.991,9.138,9.08,9.138h228.696c5.009,0,9.08-4.098,9.08-9.138v-64.005
	H132.571V484.576z M260.571,429.714c15.125,0,27.429,12.304,27.429,27.429s-12.304,27.429-27.429,27.429
	s-27.429-12.304-27.429-27.429S245.446,429.714,260.571,429.714z"/>
<polygon style="fill:#E65F58;" points="315.922,312.589 338.681,265.393 293.359,265.393 "/>
<circle style="fill:#EAEAEA;" cx="260.571" cy="457.143" r="9.143"/>
<polygon style="fill:#E65F58;" points="205.75,248.589 228.509,201.393 183.187,201.393 "/>
<path style="fill:#EAEAEA;" d="M379.429,27.464c0-5.062-4.071-9.179-9.08-9.179H141.652c-5.009,0-9.08,4.116-9.08,9.179v374.603
	h246.857V27.464z M251.304,196.223l-37.357,77.464c-1.518,3.161-4.723,5.17-8.232,5.17c-0.009,0-0.009,0-0.018,0
	c-3.518-0.005-6.714-2.027-8.232-5.201l-37.027-77.464c-1.357-2.83-1.161-6.161,0.518-8.817c1.67-2.656,4.589-4.268,7.732-4.268
	h27.884V91.429h18.286v91.679h28.214c3.143,0,6.071,1.616,7.741,4.281C252.491,190.053,252.67,193.388,251.304,196.223z
	 M361.475,260.223l-37.357,77.464c-1.518,3.161-4.723,5.17-8.232,5.17c-0.009,0-0.009,0-0.018,0
	c-3.518-0.005-6.714-2.027-8.232-5.201l-37.027-77.464c-1.357-2.83-1.161-6.161,0.518-8.817c1.67-2.656,4.589-4.268,7.732-4.268
	h27.426V91.429h18.286v155.679h28.672c3.143,0,6.071,1.616,7.741,4.281C362.663,254.053,362.842,257.388,361.475,260.223z"/>
<g>
	<path style="fill:#314E55;" d="M370.348,0H141.652c-15.089,0-27.366,12.321-27.366,27.464v374.822v18.067v64.223
		c0,15.12,12.277,27.424,27.366,27.424h228.696c15.089,0,27.366-12.304,27.366-27.424v-64.223v-18.067V27.464
		C397.714,12.321,385.438,0,370.348,0z M379.429,484.576c0,5.04-4.071,9.138-9.08,9.138H141.652c-5.089,0-9.08-4.013-9.08-9.138
		v-64.005h246.857V484.576z M132.571,27.464c0-5.062,4.071-9.179,9.08-9.179h228.696c5.009,0,9.08,4.116,9.08,9.179v374.603H132.571
		V27.464z"/>
	<path style="fill:#314E55;" d="M260.571,484.571c15.125,0,27.429-12.304,27.429-27.429s-12.304-27.429-27.429-27.429
		s-27.429,12.304-27.429,27.429S245.446,484.571,260.571,484.571z M260.571,448c5.045,0,9.143,4.103,9.143,9.143
		s-4.098,9.143-9.143,9.143c-5.045,0-9.143-4.103-9.143-9.143S255.527,448,260.571,448z"/>
	<path style="fill:#314E55;" d="M353.243,247.107h-28.672V91.429h-18.286v155.679h-27.426c-3.143,0-6.062,1.612-7.732,4.268
		c-1.679,2.656-1.875,5.987-0.518,8.817l37.027,77.464c1.518,3.174,4.714,5.196,8.232,5.201c0.009,0,0.009,0,0.018,0
		c3.509,0,6.714-2.009,8.232-5.17l37.357-77.464c1.366-2.835,1.187-6.17-0.491-8.835
		C359.315,248.723,356.386,247.107,353.243,247.107z M315.922,312.589l-22.563-47.196h45.321L315.922,312.589z"/>
	<path style="fill:#314E55;" d="M243.072,183.107h-28.214V91.429h-18.286v91.679h-27.884c-3.143,0-6.062,1.612-7.732,4.268
		c-1.679,2.656-1.875,5.987-0.518,8.817l37.027,77.464c1.518,3.174,4.714,5.196,8.232,5.201c0.009,0,0.009,0,0.018,0
		c3.509,0,6.714-2.009,8.232-5.17l37.357-77.464c1.366-2.835,1.187-6.17-0.491-8.835
		C249.143,184.723,246.214,183.107,243.072,183.107z M205.75,248.589l-22.563-47.196h45.321L205.75,248.589z"/>
</g>
<g>
</g>
<g>
</g>
<g>
</g>
<g>
</g>
<g>
</g>
<g>
</g>
<g>
</g>
<g>
</g>
<g>
</g>
<g>
</g>
<g>
</g>
<g>
</g>
<g>
</g>
<g>
</g>
<g>
</g>
</svg>
