<?xml version="1.0" encoding="iso-8859-1"?>
<!-- Generator: Adobe Illustrator 19.0.0, SVG Export Plug-In . SVG Version: 6.00 Build 0)  -->
<svg version="1.1" id="Layer_1" xmlns="http://www.w3.org/2000/svg" xmlns:xlink="http://www.w3.org/1999/xlink" x="0px" y="0px"
	 viewBox="0 0 512 512" style="enable-background:new 0 0 512 512;" xml:space="preserve">
<path style="fill:#E4D759;" d="M69.864,400.291h372.273c5.154,0,9.354-4.182,9.354-9.327V27.945c0-5.145-4.2-9.327-9.354-9.327
	H69.864c-5.154,0-9.354,4.182-9.354,9.327v363.018C60.509,396.109,64.709,400.291,69.864,400.291z M162.909,42.691l13.164,13.164
	l-72.036,72.036l-13.164-13.164L162.909,42.691z M228.073,33.382l13.164,13.164L100.264,187.518L87.1,174.355L228.073,33.382z"/>
<g>
	<circle style="fill:#EAEAEA;" cx="256" cy="456.145" r="9.309"/>
	<path style="fill:#EAEAEA;" d="M69.864,418.909h-9.354v65.164c0,5.218,4.109,9.309,9.354,9.309h372.273
		c5.154,0,9.354-4.173,9.354-9.309v-65.164h-9.354H69.864z M256,484.073c-15.4,0-27.927-12.527-27.927-27.927
		c0-15.4,12.527-27.927,27.927-27.927s27.927,12.527,27.927,27.927C283.927,471.545,271.4,484.073,256,484.073z"/>
</g>
<g>
	<path style="fill:#314E55;" d="M470.109,27.945C470.109,12.536,457.564,0,442.136,0H69.864C54.436,0,41.891,12.536,41.891,27.945
		v363.018c0,4.309,1.063,8.344,2.814,11.993c-1.729,1.689-2.814,4.032-2.814,6.644v74.473c0,15.4,12.545,27.927,27.973,27.927
		h372.273c15.427,0,27.973-12.527,27.973-27.927V409.6c0-2.611-1.085-4.955-2.814-6.644c1.751-3.648,2.814-7.683,2.814-11.993
		V27.945z M60.509,27.945c0-5.145,4.2-9.327,9.354-9.327h372.273c5.155,0,9.355,4.182,9.355,9.327v363.018
		c0,5.145-4.2,9.327-9.354,9.327H69.864c-5.154,0-9.354-4.182-9.354-9.327V27.945z M451.491,484.073c0,5.136-4.2,9.309-9.354,9.309
		H69.864c-5.245,0-9.354-4.091-9.354-9.309v-65.164h9.354h372.273h9.355V484.073z"/>
	
		<rect x="82.533" y="75.985" transform="matrix(-0.7071 0.7071 -0.7071 -0.7071 288.1577 51.2259)" style="fill:#314E55;" width="101.873" height="18.616"/>
	
		<rect x="64.487" y="101.141" transform="matrix(-0.7071 0.7071 -0.7071 -0.7071 358.3431 72.4661)" style="fill:#314E55;" width="199.352" height="18.616"/>
	<path style="fill:#314E55;" d="M256,428.218c-15.4,0-27.927,12.527-27.927,27.927c0,15.4,12.527,27.927,27.927,27.927
		s27.927-12.527,27.927-27.927C283.927,440.745,271.4,428.218,256,428.218z M256,465.455c-5.136,0-9.309-4.173-9.309-9.309
		s4.173-9.309,9.309-9.309c5.136,0,9.309,4.173,9.309,9.309S261.136,465.455,256,465.455z"/>
</g>
<g>
</g>
<g>
</g>
<g>
</g>
<g>
</g>
<g>
</g>
<g>
</g>
<g>
</g>
<g>
</g>
<g>
</g>
<g>
</g>
<g>
</g>
<g>
</g>
<g>
</g>
<g>
</g>
<g>
</g>
</svg>
