<?xml version="1.0" encoding="iso-8859-1"?>
<!-- Generator: Adobe Illustrator 19.0.0, SVG Export Plug-In . SVG Version: 6.00 Build 0)  -->
<svg version="1.1" id="Layer_1" xmlns="http://www.w3.org/2000/svg" xmlns:xlink="http://www.w3.org/1999/xlink" x="0px" y="0px"
	 viewBox="0 0 512 512" style="enable-background:new 0 0 512 512;" xml:space="preserve">
<circle style="fill:#DDD158;" cx="254.065" cy="128" r="11.159"/>
<path style="fill:#E65F58;" d="M198.092,139.425c1.462,7.183,4.258,13.933,8.317,20.067c2.237,3.383,1.788,7.867-1.079,10.742
	l-5.587,5.592c-0.867,0.867-1.338,2.008-1.338,3.233c0,1.225,0.479,2.383,1.346,3.25c0.879,0.875,2.033,1.358,3.25,1.358h0.004
	c1.213,0,2.362-0.475,3.229-1.35l5.592-5.583c1.65-1.65,3.833-2.5,6.038-2.5c1.629,0,3.267,0.467,4.704,1.417
	c6.138,4.058,12.887,6.858,20.058,8.308c3.979,0.808,6.838,4.308,6.838,8.367v7.9c0,2.525,2.063,4.575,4.596,4.575
	c2.575,0,4.596-2.008,4.596-4.575v-7.9c0-4.058,2.858-7.558,6.838-8.367c7.171-1.45,13.921-4.25,20.058-8.308
	c3.379-2.242,7.871-1.792,10.742,1.083l5.587,5.583c1.783,1.783,4.696,1.758,6.487-0.008c1.817-1.825,1.825-4.667,0.013-6.483
	l-5.592-5.592c-2.867-2.875-3.317-7.358-1.079-10.742c4.058-6.133,6.854-12.883,8.317-20.067c0.808-3.975,4.304-6.833,8.362-6.833
	h7.896c2.521,0,4.575-2.058,4.575-4.592c0-2.575-2.008-4.592-4.575-4.592h-7.896c-4.058,0-7.554-2.858-8.362-6.833
	c-1.462-7.183-4.258-13.933-8.317-20.067c-2.237-3.383-1.788-7.875,1.083-10.742l5.587-5.583c1.783-1.783,1.779-4.7-0.013-6.492
	c-1.821-1.817-4.671-1.833-6.483-0.008l-5.592,5.583c-2.871,2.875-7.363,3.325-10.742,1.083c-6.138-4.058-12.887-6.858-20.058-8.308
	c-3.979-0.808-6.838-4.308-6.838-8.367v-7.9c0-2.525-2.063-4.575-4.596-4.575c-2.575,0-4.596,2.008-4.596,4.575v7.9
	c0,4.058-2.858,7.558-6.838,8.367c-7.171,1.45-13.921,4.25-20.058,8.308c-3.396,2.233-7.879,1.775-10.742-1.083l-5.587-5.583
	c-1.796-1.8-4.708-1.775-6.487,0.008c-1.821,1.825-1.825,4.675-0.008,6.492l5.583,5.583c2.871,2.867,3.321,7.358,1.083,10.742
	c-4.058,6.133-6.854,12.883-8.317,20.067c-0.808,3.975-4.304,6.833-8.362,6.833h-7.896c-2.521,0-4.575,2.058-4.575,4.592
	c0,2.575,2.008,4.592,4.575,4.592h7.896C193.787,132.592,197.283,135.45,198.092,139.425z M254.058,99.775
	c15.562,0,28.225,12.658,28.225,28.225s-12.662,28.225-28.225,28.225S225.833,143.567,225.833,128S238.496,99.775,254.058,99.775z"
	/>
<path style="fill:#DDD158;" d="M298.346,357.533c-3.908-0.867-6.688-4.333-6.688-8.333v-46.775c0-3.75,2.446-7.058,6.029-8.158
	c48.192-14.808,85.138-54.5,96.425-103.592c0.454-1.983,1.604-3.733,3.233-4.95c11.471-8.5,18.046-21.542,18.046-35.783
	c0-16.583-9.129-31.683-23.821-39.417c-1.796-0.942-3.196-2.492-3.95-4.375C365.962,52.033,314.296,17.067,256,17.067
	S146.038,52.033,124.375,106.15c-0.754,1.883-2.154,3.433-3.95,4.375c-14.692,7.733-23.817,22.833-23.817,39.417
	c0,14.242,6.575,27.283,18.042,35.783c1.629,1.217,2.779,2.967,3.233,4.95c11.287,49.092,48.237,88.783,96.429,103.592
	c3.583,1.1,6.029,4.408,6.029,8.158V349.2c0,4-2.779,7.467-6.688,8.333c-69.991,15.508-125.941,68.867-145.175,137.4h375.042
	C424.283,426.392,368.333,373.042,298.346,357.533z M183.096,149.658h-1.263c-11.933,0-21.642-9.717-21.642-21.658
	c0-11.942,9.708-21.658,21.642-21.658h1.263c1.392-4.567,3.217-8.975,5.471-13.2l-0.896-0.892
	c-8.433-8.442-8.429-22.175,0.008-30.625c8.458-8.442,22.192-8.433,30.625-0.008l0.896,0.892c4.221-2.25,8.629-4.075,13.196-5.467
	v-1.267c0-11.933,9.717-21.642,21.662-21.642s21.663,9.708,21.663,21.642v1.267c4.567,1.392,8.975,3.217,13.196,5.467l0.896-0.892
	c8.433-8.425,22.167-8.425,30.617,0c8.45,8.45,8.454,22.192,0.021,30.633l-0.9,0.892c2.254,4.225,4.079,8.633,5.471,13.2h1.262
	c11.933,0,21.642,9.717,21.642,21.658s-9.708,21.658-21.642,21.658h-1.262c-1.392,4.575-3.221,8.983-5.471,13.2l0.9,0.9
	c8.429,8.433,8.425,22.167-0.013,30.617c-8.45,8.45-22.183,8.45-30.625,0.008l-0.896-0.892c-4.221,2.25-8.629,4.075-13.196,5.467
	v1.267c0,11.933-9.717,21.642-21.662,21.642c-11.946,0-21.662-9.708-21.662-21.642v-1.267c-4.567-1.392-8.975-3.217-13.196-5.467
	l-0.896,0.892c-4.087,4.092-9.517,6.35-15.287,6.35c-0.004,0-0.013,0-0.013,0c-5.779,0-11.217-2.258-15.321-6.358
	c-4.087-4.092-6.342-9.525-6.346-15.308c-0.004-5.792,2.246-11.233,6.338-15.317l0.892-0.892
	C186.317,158.642,184.487,154.233,183.096,149.658z M185.792,230.4c0-4.717,3.821-8.533,8.533-8.533
	c4.713,0,8.533,3.817,8.533,8.533c0,12.108,22.779,25.6,55.467,25.6s55.467-13.492,55.467-25.6c0-4.717,3.821-8.533,8.533-8.533
	c4.713,0,8.533,3.817,8.533,8.533c0,23.925-31.858,42.667-72.533,42.667S185.792,254.325,185.792,230.4z"/>
<g>
	<path style="fill:#314E55;" d="M308.725,342.467V308.6c50.083-17.625,88.387-59.542,101.308-111.133
		c14.096-11.65,22.425-29.183,22.425-47.525c0-21.875-11.475-41.883-30.154-52.958C377.388,37.967,320.296,0,256,0
		c-64.292,0-121.388,37.967-146.308,96.983c-18.679,11.075-30.15,31.083-30.15,52.958c0,18.342,8.325,35.875,22.421,47.525
		c12.921,51.583,51.229,93.508,101.312,111.133v33.867c-76.75,19.667-136.842,81.458-154.063,159.15
		c-0.563,2.533,0.054,5.175,1.675,7.192S54.954,512,57.542,512h396.917c2.588,0,5.033-1.175,6.654-3.192s2.237-4.658,1.675-7.192
		C445.562,423.925,385.471,362.133,308.725,342.467z M68.479,494.933c19.233-68.533,75.183-121.892,145.175-137.4
		c3.908-0.867,6.688-4.333,6.688-8.333v-46.775c0-3.75-2.446-7.058-6.029-8.158c-48.192-14.808-85.142-54.5-96.429-103.592
		c-0.454-1.983-1.604-3.733-3.233-4.95c-11.467-8.5-18.042-21.542-18.042-35.783c0-16.583,9.125-31.683,23.817-39.417
		c1.796-0.942,3.196-2.492,3.95-4.375C146.038,52.033,197.704,17.067,256,17.067s109.962,34.967,131.621,89.083
		c0.754,1.883,2.154,3.433,3.95,4.375c14.692,7.733,23.821,22.833,23.821,39.417c0,14.242-6.575,27.283-18.046,35.783
		c-1.629,1.217-2.779,2.967-3.233,4.95c-11.287,49.092-48.233,88.783-96.425,103.592c-3.583,1.1-6.029,4.408-6.029,8.158V349.2
		c0,4,2.779,7.467,6.688,8.333c69.987,15.508,125.938,68.858,145.175,137.4L68.479,494.933L68.479,494.933z"/>
	<path style="fill:#314E55;" d="M254.058,156.225c15.562,0,28.225-12.658,28.225-28.225s-12.662-28.225-28.225-28.225
		S225.833,112.433,225.833,128C225.833,143.567,238.496,156.225,254.058,156.225z M254.058,116.842
		c6.154,0,11.158,5.008,11.158,11.158c0,6.15-5.004,11.158-11.158,11.158S242.9,134.15,242.9,128
		C242.9,121.85,247.904,116.842,254.058,116.842z"/>
	<path style="fill:#314E55;" d="M181.338,179.067c0.004,5.783,2.258,11.217,6.346,15.308c4.104,4.1,9.542,6.358,15.317,6.358
		c0,0,0.013,0,0.017,0c5.771,0,11.2-2.258,15.287-6.35l0.896-0.892c4.221,2.25,8.629,4.075,13.196,5.467v1.267
		c0,11.933,9.717,21.642,21.663,21.642s21.663-9.708,21.663-21.642v-1.267c4.567-1.392,8.975-3.217,13.196-5.467l0.896,0.892
		c8.442,8.442,22.175,8.442,30.625-0.008c8.438-8.45,8.442-22.183,0.013-30.617l-0.9-0.9c2.25-4.217,4.079-8.625,5.471-13.2h1.262
		c11.933,0,21.642-9.717,21.642-21.658c0-11.942-9.708-21.658-21.642-21.658h-1.262c-1.392-4.567-3.217-8.975-5.471-13.2l0.9-0.892
		c8.433-8.442,8.429-22.183-0.021-30.633c-8.45-8.425-22.183-8.425-30.617,0l-0.896,0.892c-4.221-2.25-8.629-4.075-13.196-5.467
		v-1.267c0-11.933-9.717-21.642-21.663-21.642c-11.946,0-21.662,9.708-21.662,21.642v1.267c-4.567,1.392-8.975,3.217-13.196,5.467
		l-0.896-0.892c-8.433-8.425-22.167-8.433-30.625,0.008c-8.438,8.45-8.442,22.183-0.008,30.625l0.896,0.892
		c-2.254,4.225-4.079,8.633-5.471,13.2h-1.262c-11.933,0-21.642,9.717-21.642,21.658s9.708,21.658,21.642,21.658h1.262
		c1.392,4.575,3.221,8.983,5.471,13.2l-0.892,0.892C183.583,167.833,181.333,173.275,181.338,179.067z M181.833,132.592
		c-2.567,0-4.575-2.017-4.575-4.592c0-2.533,2.054-4.592,4.575-4.592h7.896c4.058,0,7.554-2.858,8.362-6.833
		c1.462-7.183,4.258-13.933,8.317-20.067c2.237-3.383,1.788-7.875-1.083-10.742l-5.583-5.583c-1.817-1.817-1.812-4.667,0.008-6.492
		c1.779-1.783,4.692-1.808,6.487-0.008l5.587,5.583c2.863,2.858,7.346,3.317,10.742,1.083c6.138-4.058,12.887-6.858,20.058-8.308
		c3.979-0.808,6.838-4.308,6.838-8.367v-7.9c0-2.567,2.021-4.575,4.596-4.575c2.533,0,4.596,2.05,4.596,4.575v7.9
		c0,4.058,2.858,7.558,6.838,8.367c7.171,1.45,13.921,4.25,20.058,8.308c3.379,2.242,7.871,1.792,10.742-1.083l5.592-5.583
		c1.812-1.825,4.662-1.808,6.483,0.008c1.792,1.792,1.796,4.708,0.013,6.492l-5.587,5.583c-2.871,2.867-3.321,7.358-1.083,10.742
		c4.058,6.133,6.854,12.883,8.317,20.067c0.808,3.975,4.304,6.833,8.362,6.833h7.896c2.567,0,4.575,2.017,4.575,4.592
		c0,2.533-2.054,4.592-4.575,4.592h-7.896c-4.058,0-7.554,2.858-8.362,6.833c-1.462,7.183-4.258,13.933-8.317,20.067
		c-2.237,3.383-1.788,7.867,1.079,10.742l5.592,5.592c1.813,1.817,1.804,4.658-0.013,6.483c-1.792,1.767-4.704,1.792-6.487,0.008
		l-5.587-5.583c-2.871-2.875-7.363-3.325-10.742-1.083c-6.138,4.058-12.887,6.858-20.058,8.308
		c-3.979,0.808-6.838,4.308-6.838,8.367v7.9c0,2.567-2.021,4.575-4.596,4.575c-2.533,0-4.596-2.05-4.596-4.575v-7.9
		c0-4.058-2.858-7.558-6.838-8.367c-7.171-1.45-13.921-4.25-20.058-8.308c-1.437-0.95-3.075-1.417-4.704-1.417
		c-2.204,0-4.387,0.85-6.038,2.5l-5.592,5.583c-0.867,0.875-2.017,1.35-3.229,1.35H203c-1.217,0-2.371-0.483-3.25-1.358
		c-0.867-0.867-1.346-2.025-1.346-3.25c0-1.225,0.471-2.367,1.338-3.233l5.587-5.592c2.867-2.875,3.317-7.358,1.079-10.742
		c-4.058-6.133-6.854-12.883-8.317-20.067c-0.808-3.975-4.304-6.833-8.362-6.833L181.833,132.592L181.833,132.592z"/>
	<path style="fill:#314E55;" d="M330.858,230.4c0-4.717-3.821-8.533-8.533-8.533s-8.533,3.817-8.533,8.533
		c0,12.108-22.779,25.6-55.467,25.6s-55.467-13.492-55.467-25.6c0-4.717-3.821-8.533-8.533-8.533c-4.713,0-8.533,3.817-8.533,8.533
		c0,23.925,31.858,42.667,72.533,42.667S330.858,254.325,330.858,230.4z"/>
</g>
<g>
</g>
<g>
</g>
<g>
</g>
<g>
</g>
<g>
</g>
<g>
</g>
<g>
</g>
<g>
</g>
<g>
</g>
<g>
</g>
<g>
</g>
<g>
</g>
<g>
</g>
<g>
</g>
<g>
</g>
</svg>
