<?xml version="1.0" encoding="iso-8859-1"?>
<!-- Generator: Adobe Illustrator 19.0.0, SVG Export Plug-In . SVG Version: 6.00 Build 0)  -->
<svg version="1.1" id="Layer_1" xmlns="http://www.w3.org/2000/svg" xmlns:xlink="http://www.w3.org/1999/xlink" x="0px" y="0px"
	 viewBox="0 0 512 512" style="enable-background:new 0 0 512 512;" xml:space="preserve">
<path style="fill:#73C9C9;" d="M303.407,256c0-26.139-21.269-47.407-47.407-47.407S208.593,229.861,208.593,256
	s21.269,47.407,47.407,47.407S303.407,282.139,303.407,256z M227.556,265.481V256h18.963v9.481c0,5.231,4.255,9.481,9.481,9.481
	s9.481-4.25,9.481-9.481V256h18.963v9.481c0,15.685-12.759,28.444-28.444,28.444S227.556,281.167,227.556,265.481z"/>
<polygon style="fill:#F28544;" points="177.931,493.037 334.069,493.037 317,464.593 195,464.593 "/>
<path style="fill:#EAEAEA;" d="M369.778,256c0-62.736-51.042-113.778-113.778-113.778S142.222,193.264,142.222,256
	c0,62.741,51.042,113.778,113.778,113.778S369.778,318.741,369.778,256z M189.63,256c0-36.597,29.773-66.37,66.37-66.37
	s66.37,29.773,66.37,66.37c0,36.593-29.773,66.37-66.37,66.37S189.63,292.593,189.63,256z"/>
<path style="fill:#F28544;" d="M445.63,208.593c0-104.56-85.07-189.63-189.63-189.63s-189.63,85.07-189.63,189.63
	c0,104.565,85.07,189.63,189.63,189.63S445.63,313.157,445.63,208.593z M123.259,256c0-73.194,59.546-132.741,132.741-132.741
	S388.741,182.806,388.741,256S329.194,388.741,256,388.741S123.259,329.194,123.259,256z"/>
<g>
	<path style="fill:#314E55;" d="M464.593,208.593C464.593,93.574,371.018,0,256,0S47.407,93.574,47.407,208.593
		c0,111.839,88.479,203.375,199.111,208.352v28.685H189.63c-3.329,0-6.417,1.75-8.13,4.602l-28.444,47.407
		c-1.759,2.926-1.806,6.574-0.12,9.555c1.681,2.972,4.833,4.806,8.25,4.806h189.63c3.417,0,6.569-1.833,8.25-4.805
		c1.685-2.981,1.639-6.63-0.12-9.555L330.5,450.232c-1.713-2.852-4.801-4.602-8.13-4.602h-56.889v-28.685
		C376.114,411.968,464.593,320.432,464.593,208.593z M334.069,493.037H177.931L195,464.593h122L334.069,493.037z M66.37,208.593
		c0-104.56,85.07-189.63,189.63-189.63s189.63,85.07,189.63,189.63c0,104.565-85.07,189.63-189.63,189.63
		S66.37,313.157,66.37,208.593z"/>
	<path style="fill:#314E55;" d="M388.741,256c0-73.194-59.546-132.741-132.741-132.741S123.259,182.806,123.259,256
		S182.806,388.741,256,388.741S388.741,329.194,388.741,256z M142.222,256c0-62.736,51.042-113.778,113.778-113.778
		S369.778,193.264,369.778,256c0,62.741-51.042,113.778-113.778,113.778S142.222,318.741,142.222,256z"/>
	<path style="fill:#314E55;" d="M322.37,256c0-36.597-29.773-66.37-66.37-66.37s-66.37,29.773-66.37,66.37
		c0,36.593,29.773,66.37,66.37,66.37S322.37,292.593,322.37,256z M208.593,256c0-26.139,21.269-47.407,47.407-47.407
		s47.407,21.269,47.407,47.407S282.139,303.407,256,303.407S208.593,282.139,208.593,256z"/>
	<path style="fill:#314E55;" d="M284.444,265.481V256h-18.963v9.481c0,5.231-4.255,9.481-9.481,9.481s-9.481-4.25-9.481-9.481V256
		h-18.963v9.481c0,15.685,12.759,28.444,28.444,28.444S284.444,281.167,284.444,265.481z"/>
</g>
<g>
</g>
<g>
</g>
<g>
</g>
<g>
</g>
<g>
</g>
<g>
</g>
<g>
</g>
<g>
</g>
<g>
</g>
<g>
</g>
<g>
</g>
<g>
</g>
<g>
</g>
<g>
</g>
<g>
</g>
</svg>
