<svg width="252" height="163" viewBox="0 0 252 163" xmlns="http://www.w3.org/2000/svg">
  <path d="M180.334,54.364 C180.334,69.344 175.021,82.136 164.394,92.742 C153.757,103.358 140.949,108.666 125.969,108.666 C117.847,108.666 110.275,107.003 103.252,103.677 C96.24,100.36 90.238,95.884 85.248,90.247 C81.213,94.796 76.685,98.497 71.665,101.351 L71.665,54.364 C71.665,39.384 76.963,26.576 87.559,15.94 C98.154,5.313 110.958,0 125.969,0 C140.949,0 153.757,5.313 164.394,15.94 C175.021,26.576 180.334,39.384 180.334,54.364 Z M98.847,54.364 C98.847,61.869 101.491,68.266 106.779,73.553 C112.067,78.841 118.463,81.484 125.969,81.484 C133.443,81.484 139.845,78.841 145.174,73.553 C150.492,68.266 153.151,61.869 153.151,54.364 C153.151,46.89 150.492,40.488 145.174,35.159 C139.845,29.841 133.443,27.182 125.969,27.182 C118.463,27.182 112.067,29.841 106.779,35.159 C101.491,40.488 98.847,46.89 98.847,54.364 Z" fill="#4483ED"/>
  <path d="M19.675,149.524 L16.71,149.524 C15.812,149.524 15.048,149.21 14.419,148.581 C13.79,147.952 13.476,147.189 13.476,146.29 C13.476,145.392 13.79,144.628 14.419,143.999 C15.048,143.371 15.812,143.056 16.71,143.056 L19.675,143.056 C21.292,142.986 22.684,142.347 23.852,141.14 C25.02,139.937 25.604,138.509 25.604,136.857 C25.604,135.205 25.02,133.778 23.852,132.575 C22.684,131.367 21.292,130.729 19.675,130.659 L16.71,130.659 C15.812,130.659 15.048,130.344 14.419,129.715 C13.79,129.086 13.476,128.323 13.476,127.425 C13.476,126.526 13.79,125.763 14.419,125.134 C15.048,124.505 15.812,124.19 16.71,124.19 L19.675,124.19 C23.089,124.26 26.008,125.528 28.434,127.993 C30.86,130.454 32.073,133.409 32.073,136.857 C32.073,140.341 30.86,143.306 28.434,145.751 C26.008,148.197 23.089,149.454 19.675,149.524 Z M0,159.766 L0,127.425 C0,126.526 0.314,125.763 0.943,125.134 C1.572,124.505 2.336,124.19 3.234,124.19 C4.133,124.19 4.896,124.505 5.525,125.134 C6.154,125.763 6.468,126.526 6.468,127.425 L6.468,159.766 C6.468,160.664 6.154,161.428 5.525,162.057 C4.896,162.685 4.133,163 3.234,163 C2.336,163 1.572,162.685 0.943,162.057 C0.314,161.428 0,160.664 0,159.766 Z M57.407,127.425 L57.407,144.943 C57.407,147.134 57.956,149.138 59.054,150.954 C60.147,152.766 61.61,154.176 63.441,155.184 C64.45,155.653 65.133,156.327 65.493,157.205 C65.852,158.084 65.817,158.902 65.388,159.661 C64.989,160.484 64.385,161.041 63.576,161.33 C62.768,161.615 61.952,161.577 61.128,161.218 C58.074,159.746 55.61,157.545 53.739,154.615 C51.872,151.69 50.939,148.466 50.939,144.943 L50.939,127.425 C50.939,126.526 51.253,125.763 51.882,125.134 C52.511,124.505 53.275,124.19 54.173,124.19 C55.071,124.19 55.835,124.505 56.464,125.134 C57.093,125.763 57.407,126.526 57.407,127.425 Z M80.586,144.943 L80.586,127.425 C80.586,126.526 80.9,125.763 81.529,125.134 C82.158,124.505 82.922,124.19 83.82,124.19 C84.718,124.19 85.482,124.505 86.111,125.134 C86.74,125.763 87.054,126.526 87.054,127.425 L87.054,144.943 C87.054,148.466 86.128,151.683 84.277,154.593 C82.425,157.502 79.972,159.693 76.917,161.166 C76.019,161.56 75.175,161.615 74.387,161.33 C73.598,161.041 73.004,160.484 72.605,159.661 C72.211,158.832 72.193,157.987 72.553,157.123 C72.912,156.26 73.541,155.613 74.439,155.184 C76.311,154.251 77.803,152.868 78.916,151.037 C80.029,149.2 80.586,147.169 80.586,144.943 Z M125.865,158.905 C125.865,158.111 126.117,157.42 126.621,156.831 C127.125,156.237 127.754,155.868 128.507,155.723 C131.058,154.969 132.333,153.622 132.333,151.68 C132.333,148.446 129.009,146.829 122.361,146.829 C117.365,146.829 113.377,145.876 110.397,143.969 C107.413,142.068 105.92,139.248 105.92,135.51 C105.92,133.104 106.667,131.028 108.159,129.281 C109.651,127.539 111.708,126.219 114.328,125.321 C114.902,125.141 115.334,125.051 115.623,125.051 C116.521,125.051 117.285,125.366 117.914,125.995 C118.543,126.623 118.857,127.387 118.857,128.285 C118.857,129.723 117.959,130.783 116.162,131.467 C113.647,132.296 112.389,133.643 112.389,135.51 C112.389,138.744 115.713,140.361 122.361,140.361 C127.357,140.361 131.345,141.314 134.325,143.221 C137.309,145.122 138.802,147.942 138.802,151.68 C138.802,154.126 138.055,156.22 136.563,157.962 C135.071,159.703 132.997,161.023 130.342,161.922 C130.232,161.957 129.818,162.029 129.099,162.139 C128.201,162.139 127.437,161.825 126.808,161.196 C126.179,160.567 125.865,159.803 125.865,158.905 Z M110.285,154.48 C112.192,155.199 114.043,155.738 115.84,156.097 C116.704,156.277 117.422,156.664 117.996,157.258 C118.57,157.852 118.857,158.543 118.857,159.332 C118.857,160.23 118.543,160.994 117.914,161.622 C117.285,162.251 116.521,162.566 115.623,162.566 L114.814,162.461 C112.049,161.957 109.838,161.345 108.181,160.627 C107.358,160.342 106.739,159.776 106.325,158.927 C105.91,158.084 105.866,157.25 106.19,156.427 C106.549,155.528 107.116,154.907 107.889,154.563 C108.663,154.223 109.462,154.196 110.285,154.48 Z M125.865,128.128 C125.865,127.23 126.179,126.466 126.808,125.837 C127.437,125.209 128.201,124.894 129.099,124.894 C129.134,124.894 129.476,124.947 130.125,125.051 C131.597,125.376 133.197,125.897 134.923,126.616 C135.822,127.01 136.458,127.584 136.833,128.338 C137.212,129.096 137.239,129.888 136.915,130.711 C136.161,132.618 134.814,133.284 132.872,132.71 C131.649,132.206 130.177,131.737 128.455,131.302 C127.696,131.123 127.075,130.738 126.591,130.15 C126.107,129.556 125.865,128.882 125.865,128.128 Z M187.854,159.766 L187.854,146.829 L174.917,146.829 C174.019,146.829 173.255,146.515 172.626,145.886 C171.997,145.257 171.683,144.494 171.683,143.595 C171.683,142.697 171.997,141.933 172.626,141.304 C173.255,140.675 174.019,140.361 174.917,140.361 L187.854,140.361 L187.854,127.425 C187.854,126.526 188.168,125.763 188.797,125.134 C189.426,124.505 190.19,124.19 191.088,124.19 C191.986,124.19 192.75,124.505 193.379,125.134 C194.008,125.763 194.322,126.526 194.322,127.425 L194.322,159.766 C194.322,160.664 194.008,161.428 193.379,162.057 C192.75,162.685 191.986,163 191.088,163 C190.19,163 189.426,162.685 188.797,162.057 C188.168,161.428 187.854,160.664 187.854,159.766 Z M158.207,159.766 L158.207,127.425 C158.207,126.526 158.521,125.763 159.15,125.134 C159.779,124.505 160.543,124.19 161.441,124.19 C162.339,124.19 163.103,124.505 163.732,125.134 C164.361,125.763 164.675,126.526 164.675,127.425 L164.675,159.766 C164.675,160.664 164.361,161.428 163.732,162.057 C163.103,162.685 162.339,163 161.441,163 C160.543,163 159.779,162.685 159.15,162.057 C158.521,161.428 158.207,160.664 158.207,159.766 Z M229.359,159.766 L229.359,143.595 C229.359,142.697 229.719,141.888 230.438,141.17 L246.444,125.164 C247.093,124.515 247.866,124.19 248.765,124.19 C249.663,124.19 250.427,124.505 251.056,125.134 C251.685,125.763 251.999,126.526 251.999,127.425 C251.999,128.323 251.675,129.096 251.026,129.745 L235.828,144.943 L235.828,159.766 C235.828,160.664 235.513,161.428 234.885,162.057 C234.256,162.685 233.492,163 232.594,163 C231.695,163 230.932,162.685 230.303,162.057 C229.674,161.428 229.359,160.664 229.359,159.766 Z M213.188,127.425 C213.188,126.526 213.503,125.763 214.132,125.134 C214.761,124.505 215.524,124.19 216.423,124.19 C217.251,124.19 218.005,124.495 218.684,125.104 L225.212,131.632 C225.821,132.311 226.125,133.064 226.125,133.893 C226.125,134.791 225.811,135.555 225.182,136.184 C224.553,136.812 223.789,137.127 222.891,137.127 C221.958,137.127 221.184,136.822 220.57,136.214 L214.102,129.745 C213.493,129.131 213.188,128.358 213.188,127.425 Z" fill="#4483ED"/>
</svg>