<?xml version="1.0" encoding="iso-8859-1"?>
<!-- Generator: Adobe Illustrator 19.0.0, SVG Export Plug-In . SVG Version: 6.00 Build 0)  -->
<svg version="1.1" id="Layer_1" xmlns="http://www.w3.org/2000/svg" xmlns:xlink="http://www.w3.org/1999/xlink" x="0px" y="0px"
	 viewBox="0 0 512 512" style="enable-background:new 0 0 512 512;" xml:space="preserve">
<path style="fill:#F28544;" d="M182.857,219.429h18.286c10.085,0,18.286-8.205,18.286-18.286V100.571
	c0-10.08-8.201-18.286-18.286-18.286H100.571c-10.085,0-18.286,8.205-18.286,18.286v100.571c0,10.08,8.201,18.286,18.286,18.286
	h18.286H182.857z M100.571,150.857c0-27.723,22.558-50.286,50.286-50.286s50.286,22.563,50.286,50.286s-22.558,50.286-50.286,50.286
	S100.571,178.58,100.571,150.857z"/>
<g>
	<path style="fill:#D8D8D8;" d="M182.857,150.857c0-17.643-14.357-32-32-32s-32,14.357-32,32s14.357,32,32,32
		S182.857,168.5,182.857,150.857z"/>
	<rect x="411.429" y="402.286" style="fill:#D8D8D8;" width="45.714" height="27.429"/>
	<rect x="64" y="402.286" style="fill:#D8D8D8;" width="45.714" height="27.429"/>
	<path style="fill:#D8D8D8;" d="M402.286,150.857c0-17.643-14.357-32-32-32c-17.643,0-32,14.357-32,32s14.357,32,32,32
		C387.929,182.857,402.286,168.5,402.286,150.857z"/>
</g>
<path style="fill:#F28544;" d="M402.286,219.429h18.286c10.085,0,18.286-8.205,18.286-18.286V100.571
	c0-10.08-8.201-18.286-18.286-18.286H320c-10.085,0-18.286,8.205-18.286,18.286v100.571c0,10.08,8.201,18.286,18.286,18.286h18.286
	H402.286z M320,150.857c0-27.723,22.558-50.286,50.286-50.286s50.286,22.563,50.286,50.286s-22.558,50.286-50.286,50.286
	S320,178.58,320,150.857z"/>
<circle style="fill:#E4D759;" cx="77.714" cy="333.714" r="13.714"/>
<path style="fill:#DDD158;" d="M402.286,283.429h-64H320H201.143h-18.286h-64h-18.286H18.286V384h36.571h64h283.429h64h27.429
	V283.429h-73.143H402.286z M77.714,365.714c-17.643,0-32-14.357-32-32s14.357-32,32-32s32,14.357,32,32
	S95.357,365.714,77.714,365.714z M320,347.429H137.143v-18.286H320V347.429z M384,365.714h-18.286v-64H384V365.714z
	 M411.429,365.714h-18.286v-64h18.286V365.714z M438.857,365.714h-18.286v-64h18.286V365.714z"/>
<g>
	<path style="fill:#314E55;" d="M502.857,265.143h-82.286v-27.429c20.165,0,36.571-16.402,36.571-36.571V100.571
		c0-20.17-16.406-36.571-36.571-36.571H320c-20.165,0-36.571,16.402-36.571,36.571v100.571c0,20.17,16.406,36.571,36.571,36.571
		v27.429H201.143v-27.429c20.165,0,36.571-16.402,36.571-36.571V100.571c0-20.17-16.406-36.571-36.571-36.571H100.571
		C80.406,64,64,80.402,64,100.571v100.571c0,20.17,16.406,36.571,36.571,36.571v27.429H9.143c-5.049,0-9.143,4.089-9.143,9.143
		v118.857c0,5.053,4.094,9.143,9.143,9.143h36.571v36.571c0,5.053,4.094,9.143,9.143,9.143h64c5.049,0,9.143-4.089,9.143-9.143
		v-36.571h265.143v36.571c0,5.053,4.094,9.143,9.143,9.143h64c5.049,0,9.143-4.089,9.143-9.143v-36.571h27.429
		c5.049,0,9.143-4.089,9.143-9.143V274.286C512,269.232,507.906,265.143,502.857,265.143z M301.714,201.143V100.571
		c0-10.08,8.201-18.286,18.286-18.286h100.571c10.085,0,18.286,8.205,18.286,18.286v100.571c0,10.08-8.201,18.286-18.286,18.286
		h-18.286h-64H320C309.915,219.429,301.714,211.223,301.714,201.143z M338.286,237.714h64v27.429h-64V237.714z M82.286,201.143
		V100.571c0-10.08,8.201-18.286,18.286-18.286h100.571c10.085,0,18.286,8.205,18.286,18.286v100.571
		c0,10.08-8.201,18.286-18.286,18.286h-18.286h-64h-18.286C90.487,219.429,82.286,211.223,82.286,201.143z M118.857,237.714h64
		v27.429h-64V237.714z M109.714,429.714H64v-27.429h45.714V429.714z M457.143,429.714h-45.714v-27.429h45.714V429.714z M493.714,384
		h-27.429h-64H118.857h-64H18.286V283.429h82.286h18.286h64h18.286H320h18.286h64h18.286h73.143V384z"/>
	<path style="fill:#314E55;" d="M77.714,301.714c-17.643,0-32,14.357-32,32s14.357,32,32,32s32-14.357,32-32
		S95.357,301.714,77.714,301.714z M77.714,347.429c-7.563,0-13.714-6.152-13.714-13.714C64,326.152,70.152,320,77.714,320
		c7.563,0,13.714,6.152,13.714,13.714C91.429,341.277,85.277,347.429,77.714,347.429z"/>
	<rect x="137.143" y="329.143" style="fill:#314E55;" width="182.857" height="18.286"/>
	<rect x="365.714" y="301.714" style="fill:#314E55;" width="18.286" height="64"/>
	<rect x="393.143" y="301.714" style="fill:#314E55;" width="18.286" height="64"/>
	<rect x="420.571" y="301.714" style="fill:#314E55;" width="18.286" height="64"/>
	<path style="fill:#314E55;" d="M201.143,150.857c0-27.723-22.558-50.286-50.286-50.286s-50.286,22.563-50.286,50.286
		s22.558,50.286,50.286,50.286S201.143,178.58,201.143,150.857z M118.857,150.857c0-17.643,14.357-32,32-32s32,14.357,32,32
		s-14.357,32-32,32S118.857,168.5,118.857,150.857z"/>
	<path style="fill:#314E55;" d="M420.571,150.857c0-27.723-22.558-50.286-50.286-50.286S320,123.134,320,150.857
		s22.558,50.286,50.286,50.286S420.571,178.58,420.571,150.857z M338.286,150.857c0-17.643,14.357-32,32-32
		c17.643,0,32,14.357,32,32s-14.357,32-32,32C352.643,182.857,338.286,168.5,338.286,150.857z"/>
</g>
<g>
</g>
<g>
</g>
<g>
</g>
<g>
</g>
<g>
</g>
<g>
</g>
<g>
</g>
<g>
</g>
<g>
</g>
<g>
</g>
<g>
</g>
<g>
</g>
<g>
</g>
<g>
</g>
<g>
</g>
</svg>
