<?xml version="1.0" encoding="iso-8859-1"?>
<!-- Generator: Adobe Illustrator 19.0.0, SVG Export Plug-In . SVG Version: 6.00 Build 0)  -->
<svg version="1.1" id="Layer_1" xmlns="http://www.w3.org/2000/svg" xmlns:xlink="http://www.w3.org/1999/xlink" x="0px" y="0px"
	 viewBox="0 0 512 512" style="enable-background:new 0 0 512 512;" xml:space="preserve">
<g>
	<rect y="328.303" style="fill:#314E55;" width="20.165" height="141.157"/>
	<rect x="40.331" y="237.559" style="fill:#314E55;" width="20.165" height="231.901"/>
	<rect x="80.661" y="217.394" style="fill:#314E55;" width="20.165" height="251.159"/>
	<rect x="120.992" y="187.146" style="fill:#314E55;" width="20.165" height="281.407"/>
	<rect x="161.322" y="126.655" style="fill:#314E55;" width="20.165" height="342.81"/>
	<rect x="201.653" y="116.572" style="fill:#314E55;" width="20.165" height="352.893"/>
	<rect x="241.984" y="156.721" style="fill:#314E55;" width="20.165" height="312.739"/>
	<rect x="282.314" y="197.228" style="fill:#314E55;" width="20.165" height="271.123"/>
	<rect x="322.645" y="217.394" style="fill:#314E55;" width="20.165" height="250.957"/>
	<rect x="362.976" y="328.303" style="fill:#314E55;" width="20.165" height="141.157"/>
	<rect x="403.306" y="287.972" style="fill:#314E55;" width="20.165" height="181.488"/>
	<rect x="443.637" y="317.741" style="fill:#314E55;" width="20.165" height="151.719"/>
	<path style="fill:#314E55;" d="M350.254,68.532l42.138-5.923c5.514-0.773,9.354-5.873,8.581-11.387s-5.829-9.388-11.387-8.581
		l-77.599,10.905c-2.649,0.374-5.041,1.782-6.651,3.914c-1.61,2.137-2.304,4.825-1.93,7.473l11.279,80.238
		c0.709,5.036,5.026,8.68,9.969,8.68c0.468,0,0.94-0.029,1.418-0.099c5.514-0.773,9.359-5.873,8.581-11.387l-9.488-67.492
		l174.699,131.646L512,190.415L350.254,68.532z"/>
</g>
<g>
</g>
<g>
</g>
<g>
</g>
<g>
</g>
<g>
</g>
<g>
</g>
<g>
</g>
<g>
</g>
<g>
</g>
<g>
</g>
<g>
</g>
<g>
</g>
<g>
</g>
<g>
</g>
<g>
</g>
</svg>
