<?xml version="1.0" encoding="iso-8859-1"?>
<!-- Generator: Adobe Illustrator 19.0.0, SVG Export Plug-In . SVG Version: 6.00 Build 0)  -->
<svg version="1.1" id="Layer_1" xmlns="http://www.w3.org/2000/svg" xmlns:xlink="http://www.w3.org/1999/xlink" x="0px" y="0px"
	 viewBox="0 0 512 512" style="enable-background:new 0 0 512 512;" xml:space="preserve">
<g>
	<rect x="445.63" y="75.109" style="fill:#5ECC66;" width="28.444" height="142.222"/>
	<rect x="256" y="150.961" style="fill:#5ECC66;" width="28.444" height="66.37"/>
	<rect x="350.815" y="27.701" style="fill:#5ECC66;" width="28.444" height="189.63"/>
</g>
<rect x="170.667" y="293.183" style="fill:#E65F58;" width="28.444" height="37.926"/>
<g>
	<polygon style="fill:#314E55;" points="18.963,245.775 18.963,3.998 0,3.998 0,508.002 18.963,508.002 18.963,264.738 512,264.738 
		512,245.775 	"/>
	<rect x="36.44" y="56.146" style="fill:#314E55;" width="48.894" height="18.963"/>
	<rect x="36.44" y="103.553" style="fill:#314E55;" width="48.894" height="18.963"/>
	<rect x="36.44" y="150.961" style="fill:#314E55;" width="48.894" height="18.963"/>
	<rect x="36.44" y="198.368" style="fill:#314E55;" width="48.894" height="18.963"/>
	<rect x="36.44" y="293.183" style="fill:#314E55;" width="48.894" height="18.963"/>
	<rect x="36.44" y="340.59" style="fill:#314E55;" width="48.894" height="18.963"/>
	<rect x="36.44" y="387.998" style="fill:#314E55;" width="48.894" height="18.963"/>
	<rect x="36.44" y="435.405" style="fill:#314E55;" width="48.894" height="18.963"/>
	<path style="fill:#314E55;" d="M303.407,131.998h-66.37v104.296h66.37V131.998z M284.444,217.331H256v-66.37h28.444V217.331z"/>
	<path style="fill:#314E55;" d="M398.222,8.738h-66.37v227.556h66.37V8.738z M379.259,217.331h-28.444V27.701h28.444V217.331z"/>
	<path style="fill:#314E55;" d="M493.037,56.146h-66.37v180.148h66.37V56.146z M474.074,217.331H445.63V75.109h28.444V217.331z"/>
	<path style="fill:#314E55;" d="M151.704,350.072h66.37V274.22h-66.37V350.072z M170.667,293.183h28.444v37.926h-28.444V293.183z"/>
</g>
<g>
</g>
<g>
</g>
<g>
</g>
<g>
</g>
<g>
</g>
<g>
</g>
<g>
</g>
<g>
</g>
<g>
</g>
<g>
</g>
<g>
</g>
<g>
</g>
<g>
</g>
<g>
</g>
<g>
</g>
</svg>
