<?xml version="1.0" encoding="iso-8859-1"?>
<!-- Generator: Adobe Illustrator 19.0.0, SVG Export Plug-In . SVG Version: 6.00 Build 0)  -->
<svg version="1.1" id="Layer_1" xmlns="http://www.w3.org/2000/svg" xmlns:xlink="http://www.w3.org/1999/xlink" x="0px" y="0px"
	 viewBox="0 0 512 512" style="enable-background:new 0 0 512 512;" xml:space="preserve">
<rect x="231.385" y="19.692" style="fill:#EAEAEA;" width="49.231" height="29.538"/>
<path style="fill:#E4AD40;" d="M236.202,257.5l3.789-56.01l-39.423,94.433l66.115,7.106c2.798,0.298,5.327,1.779,6.961,4.067
	c1.634,2.288,2.211,5.164,1.596,7.904l-12.529,55.192l52.538-92.654l-70.548-9.615C239.567,267.221,235.856,262.663,236.202,257.5z"
	/>
<path style="fill:#EAEAEA;" d="M359.346,68.923h-68.885h-68.923h-68.885c-5.538,0-9.885,4.288-9.885,9.769v403.856
	c0,5.385,4.433,9.759,9.885,9.759h206.692c5.452,0,9.885-4.375,9.885-9.759V78.692C369.231,73.308,364.798,68.923,359.346,68.923z
	 M339.558,274.606L246.894,438c-1.798,3.164-5.115,4.99-8.567,4.99c-1.192,0-2.394-0.211-3.558-0.663
	c-4.548-1.769-7.125-6.596-6.048-11.365l24.865-109.538l-68.231-7.327c-3.096-0.327-5.846-2.106-7.423-4.779
	c-1.586-2.673-1.808-5.933-0.615-8.798l67.433-161.538c1.856-4.442,6.635-6.856,11.346-5.798c4.692,1.106,7.885,5.442,7.567,10.25
	l-7.192,106.221l75.846,10.337c3.24,0.442,6.048,2.462,7.5,5.394C341.26,268.308,341.164,271.769,339.558,274.606z"/>
<g>
	<path style="fill:#314E55;" d="M359.346,49.231h-59.039V9.846c0-5.442-4.404-9.846-9.846-9.846h-68.923
		c-5.442,0-9.846,4.404-9.846,9.846v39.385h-59.039c-16.308,0-29.577,13.221-29.577,29.462v403.856
		c0,16.24,13.269,29.452,29.577,29.452h206.692c16.308,0,29.577-13.212,29.577-29.452V78.692
		C388.923,62.452,375.654,49.231,359.346,49.231z M231.385,19.692h49.231v29.538h-49.231V19.692z M369.231,482.548
		c0,5.385-4.433,9.759-9.885,9.759H152.654c-5.452,0-9.885-4.375-9.885-9.759V78.692c0-5.481,4.346-9.769,9.885-9.769h68.885h68.923
		h68.885c5.452,0,9.885,4.384,9.885,9.769V482.548z"/>
	<path style="fill:#314E55;" d="M332.317,259.99l-75.846-10.337l7.192-106.221c0.317-4.808-2.875-9.144-7.567-10.25
		c-4.712-1.058-9.49,1.356-11.346,5.798l-67.433,161.538c-1.192,2.865-0.971,6.125,0.615,8.798c1.577,2.673,4.327,4.452,7.423,4.779
		l68.231,7.327l-24.865,109.538c-1.077,4.769,1.5,9.596,6.048,11.365c1.164,0.452,2.365,0.663,3.558,0.663
		c3.452,0,6.769-1.827,8.567-4.99l92.663-163.394c1.606-2.836,1.702-6.298,0.26-9.221
		C338.365,262.452,335.558,260.433,332.317,259.99z M262.712,370.192L275.24,315c0.615-2.74,0.038-5.615-1.596-7.904
		c-1.634-2.289-4.163-3.769-6.961-4.067l-66.115-7.106l39.423-94.433l-3.789,56.01c-0.346,5.164,3.365,9.721,8.5,10.423
		l70.548,9.615L262.712,370.192z"/>
</g>
<g>
</g>
<g>
</g>
<g>
</g>
<g>
</g>
<g>
</g>
<g>
</g>
<g>
</g>
<g>
</g>
<g>
</g>
<g>
</g>
<g>
</g>
<g>
</g>
<g>
</g>
<g>
</g>
<g>
</g>
</svg>
