<?xml version="1.0" encoding="iso-8859-1"?>
<!-- Generator: Adobe Illustrator 19.0.0, SVG Export Plug-In . SVG Version: 6.00 Build 0)  -->
<svg version="1.1" id="Layer_1" xmlns="http://www.w3.org/2000/svg" xmlns:xlink="http://www.w3.org/1999/xlink" x="0px" y="0px"
	 viewBox="0 0 512 512" style="enable-background:new 0 0 512 512;" xml:space="preserve">
<path style="fill:#EAEAEA;" d="M17.655,450.207h476.69V132.414H17.655V450.207z M52.47,343.474l59.724-89.53
	c1.552-2.323,4.116-3.776,6.905-3.914c2.72-0.228,5.483,1.047,7.263,3.211l36.034,43.884l48.121-93.556
	c1.672-3.254,5.237-5.121,8.815-4.737c3.634,0.401,6.647,3,7.573,6.539l46.069,175.961l45.522-132.09
	c1.155-3.362,4.216-5.698,7.763-5.935c3.474-0.22,6.888,1.681,8.478,4.862l25.129,50.263l64.504-126.267
	c2.216-4.341,7.53-6.06,11.879-3.845c4.341,2.22,6.06,7.535,3.845,11.879l-72.453,141.819c-1.509,2.953-4.547,4.81-7.862,4.81
	c-0.013,0-0.026,0-0.039,0c-3.328-0.013-6.366-1.901-7.858-4.879l-23.543-47.091l-48.177,139.793
	c-1.228,3.573-4.591,5.953-8.341,5.953c-0.112,0-0.224,0-0.341-0.004c-3.884-0.151-7.22-2.823-8.203-6.586l-47.612-181.858
	l-43.72,84.996c-1.358,2.642-3.957,4.422-6.914,4.737c-2.957,0.336-5.866-0.875-7.759-3.172l-37-45.065l-53.116,79.625
	c-2.707,4.047-8.177,5.146-12.246,2.444C50.862,353.013,49.767,347.53,52.47,343.474z"/>
<path style="fill:#E4AD40;" d="M17.655,61.793v52.966h476.69V61.793H17.655z M44.138,105.931c-9.737,0-17.655-7.918-17.655-17.655
	s7.918-17.655,17.655-17.655s17.655,7.918,17.655,17.655S53.875,105.931,44.138,105.931z M88.276,105.931
	c-9.737,0-17.655-7.918-17.655-17.655s7.918-17.655,17.655-17.655s17.655,7.918,17.655,17.655S98.013,105.931,88.276,105.931z
	 M132.414,105.931c-9.737,0-17.655-7.918-17.655-17.655s7.918-17.655,17.655-17.655c9.737,0,17.655,7.918,17.655,17.655
	S142.151,105.931,132.414,105.931z"/>
<g>
	<path style="fill:#314E55;" d="M0,44.138v70.621v17.655v335.448h512V132.414v-17.655V44.138H0z M494.345,450.207H17.655V132.414
		h476.69V450.207z M17.655,114.759V61.793h476.69v52.966H17.655z"/>
	<circle style="fill:#314E55;" cx="44.138" cy="88.276" r="17.655"/>
	<circle style="fill:#314E55;" cx="88.276" cy="88.276" r="17.655"/>
	<circle style="fill:#314E55;" cx="132.414" cy="88.276" r="17.655"/>
	<path style="fill:#314E55;" d="M67.159,353.276l53.116-79.625l37,45.065c1.892,2.297,4.802,3.509,7.759,3.172
		c2.957-0.315,5.556-2.095,6.914-4.737l43.72-84.996l47.612,181.858c0.983,3.763,4.319,6.435,8.203,6.586
		c0.116,0.004,0.228,0.004,0.341,0.004c3.75,0,7.112-2.379,8.341-5.953l48.177-139.793l23.543,47.091
		c1.491,2.978,4.53,4.866,7.858,4.879c0.013,0,0.026,0,0.039,0c3.315,0,6.353-1.858,7.862-4.81l72.453-141.819
		c2.216-4.345,0.496-9.66-3.845-11.879c-4.349-2.215-9.664-0.496-11.879,3.845l-64.504,126.267l-25.129-50.263
		c-1.591-3.181-5.004-5.082-8.478-4.862c-3.547,0.237-6.608,2.573-7.763,5.935l-45.522,132.09L226.905,205.37
		c-0.927-3.539-3.94-6.138-7.573-6.539c-3.578-0.384-7.142,1.483-8.815,4.737l-48.121,93.556l-36.034-43.883
		c-1.78-2.164-4.543-3.44-7.263-3.211c-2.789,0.138-5.353,1.591-6.905,3.914l-59.724,89.53c-2.703,4.056-1.608,9.539,2.444,12.246
		C58.983,358.423,64.453,357.323,67.159,353.276z"/>
</g>
<g>
</g>
<g>
</g>
<g>
</g>
<g>
</g>
<g>
</g>
<g>
</g>
<g>
</g>
<g>
</g>
<g>
</g>
<g>
</g>
<g>
</g>
<g>
</g>
<g>
</g>
<g>
</g>
<g>
</g>
</svg>
