<?xml version="1.0" encoding="iso-8859-1"?>
<!-- Generator: Adobe Illustrator 19.0.0, SVG Export Plug-In . SVG Version: 6.00 Build 0)  -->
<svg version="1.1" id="Layer_1" xmlns="http://www.w3.org/2000/svg" xmlns:xlink="http://www.w3.org/1999/xlink" x="0px" y="0px"
	 viewBox="0 0 512 512" style="enable-background:new 0 0 512 512;" xml:space="preserve">
<path style="fill:#EAEAEA;" d="M128,335.448c60.845,0,110.345-49.5,110.345-110.345S188.845,114.759,128,114.759
	s-110.345,49.5-110.345,110.345S67.155,335.448,128,335.448z M128,132.414c51.112,0,92.69,41.582,92.69,92.69
	c0,51.112-41.577,92.69-92.69,92.69s-92.69-41.577-92.69-92.69C35.31,173.996,76.888,132.414,128,132.414z"/>
<g>
	<path style="fill:#D8D8D8;" d="M128,353.103c-36.475,0-69.352-15.416-92.69-39.978v119.427H220.69V313.125
		C197.352,337.687,164.475,353.103,128,353.103z M198.621,414.897h-53.698c-4.879,0-8.828-3.948-8.828-8.828
		s3.948-8.828,8.828-8.828h53.698c4.879,0,8.828,3.948,8.828,8.828S203.5,414.897,198.621,414.897z M198.621,388.414h-53.698
		c-4.879,0-8.828-3.948-8.828-8.828s3.948-8.828,8.828-8.828h53.698c4.879,0,8.828,3.948,8.828,8.828S203.5,388.414,198.621,388.414
		z"/>
	<rect x="97.103" y="79.448" style="fill:#D8D8D8;" width="70.621" height="17.655"/>
</g>
<path style="fill:#73C9C9;" d="M128,300.138c41.371,0,75.034-33.664,75.034-75.034c0-41.375-33.664-75.034-75.034-75.034
	s-75.034,33.66-75.034,75.034C52.966,266.474,86.629,300.138,128,300.138z"/>
<path style="fill:#D8D8D8;" d="M450.129,132.414H300.215c-24.379,0-44.215,19.815-44.215,44.172v79.379
	c0,24.353,19.836,44.172,44.216,44.172h149.914c24.379,0,44.215-19.819,44.215-44.172v-79.379
	C494.345,152.228,474.509,132.414,450.129,132.414z M459.034,167.724H291.31c-4.879,0-8.828-3.953-8.828-8.828
	c0-4.875,3.948-8.828,8.828-8.828h167.724c4.879,0,8.828,3.953,8.828,8.828C467.862,163.772,463.914,167.724,459.034,167.724z"/>
<g>
	<path style="fill:#314E55;" d="M128,317.793c51.112,0,92.69-41.577,92.69-92.69c0-51.108-41.577-92.69-92.69-92.69
		s-92.69,41.582-92.69,92.69C35.31,276.216,76.888,317.793,128,317.793z M128,150.069c41.371,0,75.034,33.66,75.034,75.034
		c0,41.371-33.664,75.034-75.034,75.034s-75.034-33.664-75.034-75.034C52.966,183.729,86.629,150.069,128,150.069z"/>
	<path style="fill:#314E55;" d="M198.621,370.759h-53.698c-4.879,0-8.828,3.948-8.828,8.828s3.948,8.828,8.828,8.828h53.698
		c4.879,0,8.828-3.948,8.828-8.828S203.5,370.759,198.621,370.759z"/>
	<path style="fill:#314E55;" d="M459.034,150.069H291.31c-4.879,0-8.828,3.953-8.828,8.828c0,4.875,3.948,8.828,8.828,8.828h167.724
		c4.879,0,8.828-3.953,8.828-8.828C467.862,154.022,463.914,150.069,459.034,150.069z"/>
	<path style="fill:#314E55;" d="M198.621,397.241h-53.698c-4.879,0-8.828,3.948-8.828,8.828s3.948,8.828,8.828,8.828h53.698
		c4.879,0,8.828-3.948,8.828-8.828S203.5,397.241,198.621,397.241z"/>
	<path style="fill:#314E55;" d="M450.129,114.759H300.215c-29.464,0-54.146,20.709-60.336,48.317
		c-12.483-22.425-31.53-40.644-54.5-52.229V61.793H79.448v44.937C32.888,125.899,0,171.711,0,225.103
		c0,23.729,6.607,45.892,17.906,64.963c-0.062,0.425-0.25,0.802-0.25,1.244v158.897h220.69V291.31c0-0.442-0.188-0.82-0.25-1.244
		c1.887-3.187,3.627-6.459,5.238-9.815c9.465,22.052,31.395,37.541,56.883,37.541h149.914c34.112,0,61.871-27.733,61.871-61.828
		v-79.379C512,142.496,484.241,114.759,450.129,114.759z M97.103,97.103V79.448h70.621v17.655H97.103z M128,114.759
		c60.845,0,110.345,49.5,110.345,110.345S188.845,335.448,128,335.448s-110.345-49.5-110.345-110.345S67.155,114.759,128,114.759z
		 M220.69,432.552H35.31V313.125c23.338,24.562,56.215,39.978,92.69,39.978s69.352-15.416,92.69-39.978V432.552z M494.345,255.966
		c0,24.353-19.836,44.172-44.216,44.172H300.215c-24.379,0-44.215-19.819-44.215-44.172v-79.379
		c0-24.358,19.836-44.172,44.216-44.172h149.914c24.379,0,44.215,19.815,44.215,44.172V255.966z"/>
</g>
<g>
</g>
<g>
</g>
<g>
</g>
<g>
</g>
<g>
</g>
<g>
</g>
<g>
</g>
<g>
</g>
<g>
</g>
<g>
</g>
<g>
</g>
<g>
</g>
<g>
</g>
<g>
</g>
<g>
</g>
</svg>
