<?xml version="1.0" encoding="iso-8859-1"?>
<!-- Generator: Adobe Illustrator 19.0.0, SVG Export Plug-In . SVG Version: 6.00 Build 0)  -->
<svg version="1.1" id="Layer_1" xmlns="http://www.w3.org/2000/svg" xmlns:xlink="http://www.w3.org/1999/xlink" x="0px" y="0px"
	 viewBox="0 0 512 512" style="enable-background:new 0 0 512 512;" xml:space="preserve">
<path style="fill:#C59981;" d="M459.034,198.621H52.966v167.724h406.069V198.621z M353.108,322.207h-194.22
	c-24.332,0-44.129-19.802-44.129-44.138s19.797-44.138,44.129-44.138h194.22c24.336,0,44.134,19.802,44.134,44.138
	S377.444,322.207,353.108,322.207z"/>
<path style="fill:#EAEAEA;" d="M485.577,110.345H26.423c-4.836,0-8.767,3.987-8.767,8.892v273.522c0,4.905,3.931,8.896,8.767,8.896
	h459.155c4.836,0,8.767-3.991,8.767-8.896V119.237C494.345,114.332,490.414,110.345,485.577,110.345z M392.828,119.172h52.966
	v17.655h-52.966V119.172z M233.931,119.172h52.966v17.655h-52.966V119.172z M66.207,119.172h52.966v17.655H66.207V119.172z
	 M476.69,384H35.31V180.966H476.69V384z"/>
<path style="fill:#81A4E3;" d="M353.108,251.586h-194.22c-14.599,0-26.474,11.879-26.474,26.483s11.875,26.483,26.474,26.483h194.22
	c14.599,0,26.478-11.879,26.478-26.483S367.707,251.586,353.108,251.586z M167.724,295.724c-9.737,0-17.655-7.922-17.655-17.655
	c0-9.733,7.918-17.655,17.655-17.655c9.737,0,17.655,7.922,17.655,17.655C185.379,287.802,177.461,295.724,167.724,295.724z
	 M317.793,286.897H194.207v-17.655h123.586V286.897z M344.276,295.724c-9.737,0-17.655-7.922-17.655-17.655
	c0-9.733,7.918-17.655,17.655-17.655c9.737,0,17.655,7.922,17.655,17.655C361.931,287.802,354.013,295.724,344.276,295.724z"/>
<g>
	<path style="fill:#314E55;" d="M485.577,92.69H26.423C11.853,92.69,0,104.599,0,119.237v273.522
		c0,14.638,11.853,26.552,26.423,26.552h459.155c14.569,0,26.422-11.914,26.422-26.552V119.237
		C512,104.599,500.147,92.69,485.577,92.69z M494.345,392.759c0,4.905-3.931,8.896-8.767,8.896H26.423
		c-4.836,0-8.767-3.991-8.767-8.896V119.237c0-4.905,3.931-8.892,8.767-8.892h459.155c4.836,0,8.767,3.987,8.767,8.892V392.759z"/>
	<rect x="66.207" y="119.172" style="fill:#314E55;" width="52.966" height="17.655"/>
	<path style="fill:#314E55;" d="M35.31,384H476.69V180.966H35.31V384z M52.966,198.621h406.069v167.724H52.966V198.621z"/>
	<path style="fill:#314E55;" d="M353.108,233.931h-194.22c-24.332,0-44.129,19.802-44.129,44.138s19.797,44.138,44.129,44.138
		h194.22c24.336,0,44.134-19.802,44.134-44.138S377.444,233.931,353.108,233.931z M353.108,304.552h-194.22
		c-14.599,0-26.474-11.879-26.474-26.483s11.875-26.483,26.474-26.483h194.22c14.599,0,26.478,11.879,26.478,26.483
		S367.707,304.552,353.108,304.552z"/>
	<path style="fill:#314E55;" d="M344.276,260.414c-9.737,0-17.655,7.922-17.655,17.655c0,9.733,7.918,17.655,17.655,17.655
		c9.737,0,17.655-7.922,17.655-17.655C361.931,268.336,354.013,260.414,344.276,260.414z"/>
	<path style="fill:#314E55;" d="M167.724,260.414c-9.737,0-17.655,7.922-17.655,17.655c0,9.733,7.918,17.655,17.655,17.655
		c9.737,0,17.655-7.922,17.655-17.655C185.379,268.336,177.461,260.414,167.724,260.414z"/>
	<rect x="233.931" y="119.172" style="fill:#314E55;" width="52.966" height="17.655"/>
	<rect x="194.207" y="269.241" style="fill:#314E55;" width="123.586" height="17.655"/>
	<rect x="392.828" y="119.172" style="fill:#314E55;" width="52.966" height="17.655"/>
</g>
<g>
</g>
<g>
</g>
<g>
</g>
<g>
</g>
<g>
</g>
<g>
</g>
<g>
</g>
<g>
</g>
<g>
</g>
<g>
</g>
<g>
</g>
<g>
</g>
<g>
</g>
<g>
</g>
<g>
</g>
</svg>
