<?xml version="1.0" encoding="iso-8859-1"?>
<!-- Generator: Adobe Illustrator 19.0.0, SVG Export Plug-In . SVG Version: 6.00 Build 0)  -->
<svg version="1.1" id="Layer_1" xmlns="http://www.w3.org/2000/svg" xmlns:xlink="http://www.w3.org/1999/xlink" x="0px" y="0px"
	 viewBox="0 0 512 512" style="enable-background:new 0 0 512 512;" xml:space="preserve">
<path style="fill:#81A4E3;" d="M425.564,248.371l-5.927-2.408l0.492-6.381c0.175-2.262,0.265-4.55,0.265-6.859
	c0-48.294-39.288-87.582-87.582-87.582c-32.796,0-62.586,18.085-77.738,47.204l-3.31,6.355l-6.885-1.984
	c-9.301-2.681-18.979-4.041-28.755-4.041c-50.886,0-94.677,37.654-101.861,87.591l-1.09,7.595l-8.707-0.094
	c-47.943,0-86.949,38.732-86.949,86.337s39.006,86.333,86.949,86.333h279.142c61.136,0,110.876-49.393,110.876-110.106
	C494.484,305.406,467.431,265.383,425.564,248.371z"/>
<g>
	<path style="fill:#314E55;" d="M437.893,234.635c0.013-0.637,0.017-1.274,0.017-1.911c0-57.95-47.148-105.098-105.098-105.098
		c-37.004,0-70.818,19.189-89.84,50.522c-8.771-1.984-17.773-2.989-26.848-2.989c-57.022,0-106.437,40.464-117.906,95.275
		C43.513,273.654,0,318.92,0,374.104c0,57.262,46.861,103.85,104.465,103.85h279.142C454.404,477.953,512,420.7,512,350.331
		C512,300.326,483.117,255.569,437.893,234.635z M383.608,460.437H104.465c-47.943,0-86.949-38.728-86.949-86.333
		s39.006-86.337,86.949-86.337l8.707,0.094l1.09-7.595c7.184-49.936,50.975-87.591,101.861-87.591c9.776,0,19.454,1.36,28.755,4.041
		l6.885,1.984l3.31-6.355c15.152-29.119,44.942-47.204,77.738-47.204c48.294,0,87.582,39.288,87.582,87.582
		c0,2.309-0.09,4.597-0.265,6.859l-0.492,6.381l5.927,2.408c41.867,17.012,68.92,57.035,68.92,101.959
		C494.484,411.044,444.744,460.437,383.608,460.437z"/>
	<path style="fill:#314E55;" d="M234.269,117.293c-3.421,3.421-3.421,8.964,0,12.385c1.71,1.71,3.951,2.566,6.192,2.566
		s4.482-0.855,6.192-2.566c47.892-47.896,125.681-48.046,173.394-0.338c3.421,3.421,8.964,3.421,12.385,0
		c3.421-3.421,3.421-8.964,0-12.385C377.886,62.409,288.987,62.559,234.269,117.293z"/>
	<path style="fill:#314E55;" d="M198.112,107.731c2.241,0,4.482-0.855,6.192-2.566c71.297-71.289,187.07-71.507,258.093-0.492
		c3.421,3.421,8.964,3.421,12.385,0s3.421-8.964,0-12.385c-77.844-77.844-204.736-77.631-282.863,0.492
		c-3.421,3.421-3.421,8.964,0,12.385C193.63,106.876,195.871,107.731,198.112,107.731z"/>
</g>
<g>
</g>
<g>
</g>
<g>
</g>
<g>
</g>
<g>
</g>
<g>
</g>
<g>
</g>
<g>
</g>
<g>
</g>
<g>
</g>
<g>
</g>
<g>
</g>
<g>
</g>
<g>
</g>
<g>
</g>
</svg>
