<?xml version="1.0" encoding="iso-8859-1"?>
<!-- Generator: Adobe Illustrator 19.0.0, SVG Export Plug-In . SVG Version: 6.00 Build 0)  -->
<svg version="1.1" id="Layer_1" xmlns="http://www.w3.org/2000/svg" xmlns:xlink="http://www.w3.org/1999/xlink" x="0px" y="0px"
	 viewBox="0 0 512 512" style="enable-background:new 0 0 512 512;" xml:space="preserve">
<path style="fill:#73C9C9;" d="M471.237,165.6c0-55.453-45.429-100.566-101.272-100.566c-19.653,0-38.707,5.594-55.111,16.177
	l-8.968,5.785l-4.284-9.771c-14.939-34.051-48.754-56.052-86.147-56.052c-46.441,0-86.409,34.366-92.966,79.937l-1.136,7.898
	l-8.906-0.107c-43.671,0-79.2,35.276-79.2,78.631c0,43.36,35.529,78.636,79.2,78.636h259.254
	C426.523,265.314,471.237,220.201,471.237,165.6z"/>
<path style="fill:#314E55;" d="M466.997,358.032c-3.552-3.552-9.305-3.552-12.857,0c-3.551,3.552-3.552,9.305,0,12.857
	l23.054,23.054H343.177V284.339l28.661-0.002c64.838-0.99,117.583-54.254,117.583-118.737c0-65.477-53.589-118.75-119.456-118.75
	c-19.742,0-38.987,4.799-56.221,13.949c-19.56-35.427-57.109-57.81-98.289-57.81c-52.82,0-98.631,37.3-109.601,87.945
	c-50.632,3.383-90.791,45.415-90.791,96.598c0,53.389,43.684,96.82,97.384,96.82l56.376-0.002v109.594H34.805l23.054-23.054
	c3.552-3.552,3.552-9.305,0-12.857c-3.552-3.551-9.305-3.552-12.856,0L0,403.034l45.002,45.002c1.776,1.776,4.102,2.664,6.428,2.664
	c2.326,0,4.653-0.888,6.428-2.664c3.552-3.552,3.552-9.305,0-12.857l-23.054-23.054h152.201v-127.78l55.355-0.002v189.864
	l-23.054-23.054c-3.552-3.552-9.305-3.552-12.856,0c-3.551,3.552-3.552,9.305,0,12.857l45.002,45.002l45.003-45.002
	c3.552-3.552,3.552-9.305,0-12.857c-3.552-3.551-9.305-3.552-12.856,0l-23.054,23.054V284.342l64.447-0.003v127.787h152.202
	l-23.054,23.054c-3.552,3.552-3.552,9.305,0,12.857c1.776,1.776,4.102,2.664,6.428,2.664c2.326,0,4.653-0.888,6.428-2.664
	L512,403.034L466.997,358.032z M33.247,187.531c0-43.355,35.529-78.631,79.2-78.631l8.906,0.107l1.136-7.898
	c6.557-45.571,46.525-79.937,92.966-79.937c37.393,0,71.208,22.002,86.147,56.052l4.284,9.771l8.968-5.785
	c16.404-10.584,35.458-16.177,55.111-16.177c55.844,0,101.272,45.114,101.272,100.566c0,54.601-44.714,99.714-99.537,100.566
	H112.446C68.776,266.167,33.247,230.891,33.247,187.531z"/>
<g>
</g>
<g>
</g>
<g>
</g>
<g>
</g>
<g>
</g>
<g>
</g>
<g>
</g>
<g>
</g>
<g>
</g>
<g>
</g>
<g>
</g>
<g>
</g>
<g>
</g>
<g>
</g>
<g>
</g>
</svg>
