<?xml version="1.0" encoding="iso-8859-1"?>
<!-- Generator: Adobe Illustrator 19.0.0, SVG Export Plug-In . SVG Version: 6.00 Build 0)  -->
<svg version="1.1" id="Layer_1" xmlns="http://www.w3.org/2000/svg" xmlns:xlink="http://www.w3.org/1999/xlink" x="0px" y="0px"
	 viewBox="0 0 512 512" style="enable-background:new 0 0 512 512;" xml:space="preserve">
<path style="fill:#F58CAC;" d="M288.062,225.5l-8.784,5.669l-4.197-9.566c-6.89-15.709-22.495-25.862-39.76-25.862
	c-21.435,0-39.882,15.844-42.897,36.858l-1.13,7.829l-7.907-0.2c-20.088,0-36.18,15.966-36.18,35.589
	c0,19.624,16.092,35.589,35.876,35.589h130.592c25.953,0,47.067-20.953,47.067-46.711s-21.114-46.711-47.067-46.711
	C304.536,217.984,295.673,220.582,288.062,225.5z"/>
<g>
	<path style="fill:#314E55;" d="M286.819,205.963c-11.122-17.278-30.437-28.017-51.498-28.017
		c-27.726,0-51.915,18.855-59.023,44.912c-26.397,3.323-46.885,25.806-46.885,52.958c0,29.438,24.077,53.384,53.671,53.384h130.592
		c35.763,0,64.862-28.938,64.862-64.506s-29.099-64.506-64.862-64.506C304.336,200.19,295.204,202.167,286.819,205.963z
		 M360.743,264.695c0,25.758-21.114,46.711-47.067,46.711H183.084c-19.784,0-35.876-15.966-35.876-35.589
		c0-19.624,16.092-35.589,36.18-35.589l7.907,0.2l1.13-7.829c3.015-21.014,21.461-36.858,42.897-36.858
		c17.265,0,32.87,10.153,39.76,25.862l4.197,9.566l8.784-5.669c7.611-4.918,16.474-7.516,25.615-7.516
		C339.63,217.984,360.743,238.937,360.743,264.695z"/>
	<path style="fill:#314E55;" d="M493.708,275.987c-4.918-0.547-9.28,2.985-9.827,7.859
		c-11.773,106.047-97.254,191.835-203.266,203.987c-4.874,0.561-8.385,4.974-7.82,9.853c0.521,4.54,4.362,7.885,8.828,7.885
		c0.339,0,0.678-0.017,1.025-0.057c114.171-13.09,206.237-105.486,218.923-219.705C502.11,280.926,498.591,276.525,493.708,275.987z
		"/>
	<path style="fill:#314E55;" d="M280.502,28.195c106.733,12.177,192.326,98.566,203.535,205.407c0.478,4.57,4.336,7.968,8.837,7.968
		c0.304,0,0.625-0.017,0.938-0.048c4.883-0.513,8.428-4.892,7.915-9.779c-12.06-115.07-104.257-208.109-219.21-221.23
		c-4.961-0.573-9.297,2.959-9.844,7.833C272.109,23.23,275.619,27.639,280.502,28.195z"/>
	<path style="fill:#314E55;" d="M228.396,487.954c-106.29-11.686-192.187-97.28-204.265-203.518
		c-0.547-4.879-4.805-8.424-9.844-7.837c-4.883,0.556-8.385,4.961-7.829,9.844c12.999,114.427,105.517,206.611,219.991,219.201
		c0.33,0.035,0.66,0.052,0.982,0.052c4.483,0,8.333-3.371,8.837-7.924C236.806,492.889,233.279,488.493,228.396,487.954z"/>
	<path style="fill:#314E55;" d="M14.243,240.184c0.33,0.035,0.66,0.052,0.982,0.052c4.475,0,8.333-3.367,8.837-7.92
		C35.869,125.444,122.036,39.53,228.943,28.026c4.883-0.526,8.42-4.909,7.889-9.797c-0.521-4.879-4.718-8.42-9.801-7.894
		C111.896,22.721,19.091,115.257,6.371,230.362C5.832,235.245,9.351,239.641,14.243,240.184z"/>
	<path style="fill:#314E55;" d="M93.824,266.92c4.918,0,8.897-3.984,8.897-8.897c0-4.914-3.98-8.897-8.897-8.897H8.899
		c-4.918,0-8.897,3.984-8.897,8.897c0,4.914,3.98,8.897,8.897,8.897H93.824z"/>
	<path style="fill:#314E55;" d="M503.101,249.125h-84.924c-4.918,0-8.897,3.984-8.897,8.897c0,4.914,3.98,8.897,8.897,8.897h84.924
		c4.918,0,8.897-3.984,8.897-8.897C511.998,253.109,508.018,249.125,503.101,249.125z"/>
	<path style="fill:#314E55;" d="M253.976,102.723c4.918,0,8.897-3.984,8.897-8.897V8.897c0-4.914-3.98-8.897-8.897-8.897
		c-4.918,0-8.897,3.984-8.897,8.897v84.928C245.078,98.739,249.058,102.723,253.976,102.723z"/>
	<path style="fill:#314E55;" d="M253.976,409.277c-4.918,0-8.897,3.984-8.897,8.897v84.928c0,4.914,3.98,8.897,8.897,8.897
		c4.918,0,8.897-3.984,8.897-8.897v-84.928C262.873,413.261,258.893,409.277,253.976,409.277z"/>
</g>
<g>
</g>
<g>
</g>
<g>
</g>
<g>
</g>
<g>
</g>
<g>
</g>
<g>
</g>
<g>
</g>
<g>
</g>
<g>
</g>
<g>
</g>
<g>
</g>
<g>
</g>
<g>
</g>
<g>
</g>
</svg>
