<?xml version="1.0" encoding="iso-8859-1"?>
<!-- Generator: Adobe Illustrator 19.0.0, SVG Export Plug-In . SVG Version: 6.00 Build 0)  -->
<svg version="1.1" id="Layer_1" xmlns="http://www.w3.org/2000/svg" xmlns:xlink="http://www.w3.org/1999/xlink" x="0px" y="0px"
	 viewBox="0 0 512 512" style="enable-background:new 0 0 512 512;" xml:space="preserve">
<g>
	<rect x="224" y="266.667" style="fill:#F58CAC;" width="96" height="128"/>
	<rect x="85.333" y="85.333" style="fill:#F58CAC;" width="96" height="128"/>
</g>
<g>
	<path style="fill:#314E55;" d="M480,53.177v373.49C480,456.073,456.073,480,426.667,480s-53.333-23.927-53.333-53.333V53.177H352
		v384.156h0.852c5.204,36.12,36.273,64,73.814,64s68.611-27.88,73.814-64h0.852V53.177H480z"/>
	<path style="fill:#314E55;" d="M330.667,490.667H121.729C72.25,490.667,32,450.375,32,400.854V32.062
		c0-5.917,4.797-10.729,10.693-10.729h330.641c5.891,0,10.667-4.771,10.667-10.667S379.224,0,373.333,0H42.693
		C25.031,0,10.667,14.385,10.667,32.062v368.792C10.667,462.135,60.49,512,121.729,512h208.938c5.891,0,10.667-4.771,10.667-10.667
		S336.557,490.667,330.667,490.667z"/>
	<path style="fill:#314E55;" d="M448,437.333c5.891,0,10.667-4.771,10.667-10.667V64c0-5.896-4.776-10.667-10.667-10.667
		c-5.891,0-10.667,4.771-10.667,10.667v362.667C437.333,432.562,442.109,437.333,448,437.333z"/>
	<path style="fill:#314E55;" d="M405.333,437.333c5.891,0,10.667-4.771,10.667-10.667V64c0-5.896-4.776-10.667-10.667-10.667
		S394.667,58.104,394.667,64v362.667C394.667,432.562,399.443,437.333,405.333,437.333z"/>
	<path style="fill:#314E55;" d="M202.667,224V74.667C202.667,68.771,197.891,64,192,64H74.667C68.776,64,64,68.771,64,74.667V224
		c0,5.896,4.776,10.667,10.667,10.667H192C197.891,234.667,202.667,229.896,202.667,224z M181.333,213.333h-96v-128h96V213.333z"/>
	<path style="fill:#314E55;" d="M330.667,245.333H213.333c-5.891,0-10.667,4.771-10.667,10.667v149.333
		c0,5.896,4.776,10.667,10.667,10.667h117.333c5.891,0,10.667-4.771,10.667-10.667V256
		C341.333,250.104,336.557,245.333,330.667,245.333z M320,394.667h-96v-128h96V394.667z"/>
	<rect x="213.333" y="74.667" style="fill:#314E55;" width="117.333" height="21.333"/>
	<rect x="213.333" y="138.667" style="fill:#314E55;" width="117.333" height="21.333"/>
	<rect x="213.333" y="202.667" style="fill:#314E55;" width="117.333" height="21.333"/>
	<rect x="74.667" y="256" style="fill:#314E55;" width="117.333" height="21.333"/>
	<rect x="74.667" y="320" style="fill:#314E55;" width="117.333" height="21.333"/>
	<rect x="74.667" y="384" style="fill:#314E55;" width="117.333" height="21.333"/>
</g>
<g>
</g>
<g>
</g>
<g>
</g>
<g>
</g>
<g>
</g>
<g>
</g>
<g>
</g>
<g>
</g>
<g>
</g>
<g>
</g>
<g>
</g>
<g>
</g>
<g>
</g>
<g>
</g>
<g>
</g>
</svg>
