<?xml version="1.0" encoding="iso-8859-1"?>
<!-- Generator: Adobe Illustrator 19.0.0, SVG Export Plug-In . SVG Version: 6.00 Build 0)  -->
<svg version="1.1" id="Layer_1" xmlns="http://www.w3.org/2000/svg" xmlns:xlink="http://www.w3.org/1999/xlink" x="0px" y="0px"
	 viewBox="0 0 512 512" style="enable-background:new 0 0 512 512;" xml:space="preserve">
<g>
	<path style="fill:#E9E7D1;" d="M187.95,112.03L88.176,21.91c-4.21,1.43-7.291,5.281-7.291,9.939v196.167L187.95,112.03z"/>
	<path style="fill:#E9E7D1;" d="M417.085,244.099L308.303,126.252l-45.193,40.82c-2.021,1.824-4.56,2.736-7.11,2.736
		c-2.549,0-5.089-0.912-7.11-2.736l-45.193-40.82L94.915,244.099H417.085z"/>
	<path style="fill:#E9E7D1;" d="M423.824,21.91l-99.773,90.12l107.064,115.987V31.849C431.115,27.191,428.034,23.34,423.824,21.91z"
		/>
	<polygon style="fill:#E9E7D1;" points="392.922,21.226 119.078,21.226 256,144.893 	"/>
</g>
<g>
	<path style="fill:#314E55;" d="M91.581,265.325h328.838c17.599,0,31.922-14.287,31.922-31.849V31.849
		c0-17.479-14.195-31.689-31.678-31.823C420.607,0.023,420.557,0,420.502,0h-0.083H91.581h-0.083c-0.056,0-0.105,0.023-0.161,0.026
		C73.854,0.161,59.659,14.37,59.659,31.849v201.627C59.659,251.038,73.983,265.325,91.581,265.325z M248.89,167.072
		c2.021,1.824,4.56,2.736,7.11,2.736c2.55,0,5.089-0.912,7.11-2.736l45.193-40.82l108.781,117.847H94.915l108.781-117.847
		L248.89,167.072z M431.115,228.017L324.05,112.03l99.773-90.12c4.21,1.43,7.291,5.28,7.291,9.939V228.017z M392.922,21.226
		L256,144.893L119.078,21.226H392.922z M88.176,21.91l99.773,90.12L80.885,228.017V31.849C80.885,27.191,83.966,23.34,88.176,21.91z
		"/>
	<path style="fill:#314E55;" d="M468.26,339.616H263.129l26.907-26.911c4.146-4.146,4.146-10.862,0-15.007
		c-4.146-4.145-10.862-4.146-15.007,0l-45.023,45.028c-4.146,4.146-4.146,10.862,0,15.007l45.022,45.028
		c2.073,2.073,4.788,3.109,7.504,3.109c2.715,0,5.431-1.036,7.504-3.109c4.146-4.146,4.146-10.862,0-15.007l-26.907-26.911H468.26
		V339.616z"/>
	<path style="fill:#314E55;" d="M236.971,403.828c-4.146-4.146-10.862-4.146-15.007,0c-4.145,4.146-4.146,10.862,0,15.007
		l26.907,26.911H43.74v21.226h205.131l-26.907,26.911c-4.146,4.146-4.146,10.862,0,15.007c2.073,2.073,4.788,3.109,7.504,3.109
		c2.715,0,5.431-1.036,7.504-3.109l45.023-45.028c4.146-4.146,4.146-10.862,0-15.007L236.971,403.828z"/>
</g>
<g>
</g>
<g>
</g>
<g>
</g>
<g>
</g>
<g>
</g>
<g>
</g>
<g>
</g>
<g>
</g>
<g>
</g>
<g>
</g>
<g>
</g>
<g>
</g>
<g>
</g>
<g>
</g>
<g>
</g>
</svg>
