<?xml version="1.0" encoding="iso-8859-1"?>
<!-- Generator: Adobe Illustrator 19.0.0, SVG Export Plug-In . SVG Version: 6.00 Build 0)  -->
<svg version="1.1" id="Layer_1" xmlns="http://www.w3.org/2000/svg" xmlns:xlink="http://www.w3.org/1999/xlink" x="0px" y="0px"
	 viewBox="0 0 512 512" style="enable-background:new 0 0 512 512;" xml:space="preserve">
<circle style="fill:#D8D8D8;" cx="360.296" cy="123.259" r="9.481"/>
<circle style="fill:#CFD2D3;" cx="260.741" cy="298.667" r="4.741"/>
<g>
	<circle style="fill:#D8D8D8;" cx="417.185" cy="151.704" r="9.481"/>
	<path style="fill:#D8D8D8;" d="M260.741,265.481c-18.296,0-33.185,14.889-33.185,33.185c0,18.296,14.889,33.185,33.185,33.185
		s33.185-14.889,33.185-33.185C293.926,280.37,279.037,265.481,260.741,265.481z M260.741,322.37
		c-13.074,0-23.704-10.63-23.704-23.704c0-13.074,10.63-23.704,23.704-23.704c13.074,0,23.704,10.63,23.704,23.704
		C284.444,311.741,273.815,322.37,260.741,322.37z"/>
	<path style="fill:#D8D8D8;" d="M132.741,151.704v-18.963h-9.481v18.963c0,5.241-4.241,9.481-9.481,9.481H94.815v9.481h18.963
		c5.241,0,9.481,4.241,9.481,9.481v18.963h9.481v-18.963c0-5.241,4.241-9.481,9.481-9.481h18.963v-9.481h-18.963
		C136.982,161.185,132.741,156.944,132.741,151.704z"/>
</g>
<path style="fill:#73C9C9;" d="M116.611,254.963c-13.944-11.37-28.463-16.074-43.167-13.991
	c-26.883,3.845-48.075,28.811-54.254,36.823c2.319,85.974,28.414,148.872,51.92,148.872c24.62,0,52.148-68.935,52.148-161.185
	c0-1.22,0.275-2.369,0.694-3.44C121.473,259.336,119.02,256.929,116.611,254.963z"/>
<g>
	<circle style="fill:#D8D8D8;" cx="303.407" cy="151.704" r="9.481"/>
	<circle style="fill:#D8D8D8;" cx="360.296" cy="189.63" r="9.481"/>
</g>
<g>
	<path style="fill:#73C9C9;" d="M388.648,240.528c17.546-14.963,36.278-21.12,55.648-18.259
		c20.241,2.972,37.102,15.352,48.741,26.741v-49.861c0-73.213-59.574-132.778-132.796-132.778H151.759
		c-73.222,0-132.796,59.565-132.796,132.778v50.676c12.185-11.574,30.13-24.491,51.694-27.611c3.278-0.472,6.546-0.713,9.787-0.713
		c16.704,0,32.861,6.296,48.157,18.778c24.148,19.704,48.157,66.907,71.389,112.565c18.796,36.944,47.204,92.787,60.75,92.787
		c13.676,0,41.667-56.852,60.194-94.463C343.018,306.324,365.842,259.963,388.648,240.528z M180.148,180.148
		c0,5.241-4.241,9.481-9.481,9.481h-18.963v18.963c0,5.241-4.241,9.481-9.481,9.481h-28.444c-5.241,0-9.481-4.241-9.481-9.481
		V189.63H85.333c-5.241,0-9.481-4.241-9.481-9.481v-28.444c0-5.241,4.241-9.481,9.481-9.481h18.963v-18.963
		c0-5.241,4.241-9.481,9.481-9.481h28.444c5.241,0,9.481,4.241,9.481,9.481v18.963h18.963c5.241,0,9.481,4.241,9.481,9.481V180.148z
		 M417.185,123.259c15.685,0,28.444,12.759,28.444,28.444s-12.759,28.444-28.444,28.444c-15.685,0-28.444-12.759-28.444-28.444
		S401.5,123.259,417.185,123.259z M360.296,94.815c15.685,0,28.444,12.759,28.444,28.444s-12.759,28.444-28.444,28.444
		s-28.444-12.759-28.444-28.444S344.611,94.815,360.296,94.815z M260.741,350.815c-28.75,0-52.148-23.398-52.148-52.148
		c0-28.75,23.398-52.148,52.148-52.148c28.75,0,52.148,23.398,52.148,52.148C312.889,327.417,289.491,350.815,260.741,350.815z
		 M303.407,180.148c-15.685,0-28.444-12.759-28.444-28.444s12.759-28.444,28.444-28.444s28.444,12.759,28.444,28.444
		S319.093,180.148,303.407,180.148z M360.296,218.074c-15.685,0-28.444-12.759-28.444-28.444s12.759-28.444,28.444-28.444
		s28.444,12.759,28.444,28.444S375.982,218.074,360.296,218.074z"/>
	<path style="fill:#73C9C9;" d="M441.472,241.019c-13.944-1.991-27.167,2.546-40.528,13.935c-3.941,3.36-8.009,7.935-12.151,13.367
		c0.565,90.801,27.732,158.346,52.096,158.346c23.52,0,49.631-62.973,51.922-149.024
		C487.009,269.701,466.95,244.722,441.472,241.019z"/>
</g>
<g>
	<path style="fill:#314E55;" d="M303.407,123.259c-15.685,0-28.444,12.759-28.444,28.444s12.759,28.444,28.444,28.444
		s28.444-12.759,28.444-28.444S319.093,123.259,303.407,123.259z M303.407,161.185c-5.231,0-9.481-4.25-9.481-9.481
		s4.25-9.481,9.481-9.481s9.481,4.25,9.481,9.481S308.639,161.185,303.407,161.185z"/>
	<path style="fill:#314E55;" d="M360.296,161.185c-15.685,0-28.444,12.759-28.444,28.444s12.759,28.444,28.444,28.444
		s28.444-12.759,28.444-28.444S375.982,161.185,360.296,161.185z M360.296,199.111c-5.231,0-9.481-4.25-9.481-9.481
		c0-5.231,4.25-9.481,9.481-9.481s9.481,4.25,9.481,9.481C369.778,194.861,365.528,199.111,360.296,199.111z"/>
	<path style="fill:#314E55;" d="M360.296,151.704c15.685,0,28.444-12.759,28.444-28.444s-12.759-28.444-28.444-28.444
		s-28.444,12.759-28.444,28.444S344.611,151.704,360.296,151.704z M360.296,113.778c5.231,0,9.481,4.25,9.481,9.481
		s-4.25,9.481-9.481,9.481s-9.481-4.25-9.481-9.481S355.065,113.778,360.296,113.778z"/>
	<path style="fill:#314E55;" d="M417.185,180.148c15.685,0,28.444-12.759,28.444-28.444s-12.759-28.444-28.444-28.444
		c-15.685,0-28.444,12.759-28.444,28.444S401.5,180.148,417.185,180.148z M417.185,142.222c5.231,0,9.481,4.25,9.481,9.481
		s-4.25,9.481-9.481,9.481s-9.481-4.25-9.481-9.481S411.954,142.222,417.185,142.222z"/>
	<path style="fill:#314E55;" d="M360.241,47.407H151.759C68.083,47.407,0,115.482,0,199.148v75.815c0,0.274,0.105,0.521,0.128,0.791
		C1.997,359.937,26.733,445.63,71.111,445.63c42.592,0,67.086-78.933,70.642-159.709c13.931,21.672,28.174,49.65,41.33,75.515
		c32.537,63.963,53.704,103.157,77.658,103.157c24.241,0,45.13-39.917,77.204-105.056c10.497-21.316,21.72-44.075,32.859-63.435
		c5.092,77.096,29.287,149.527,70.086,149.527c44.38,0,69.117-85.701,70.984-169.888c0.023-0.266,0.127-0.508,0.127-0.778v-75.815
		C512,115.482,443.917,47.407,360.241,47.407z M123.259,265.481c0,92.25-27.528,161.185-52.148,161.185
		c-23.506,0-49.601-62.898-51.92-148.872c6.179-8.012,27.37-32.978,54.254-36.823c14.704-2.083,29.222,2.62,43.167,13.991
		c2.409,1.966,4.862,4.373,7.342,7.078C123.534,263.112,123.259,264.261,123.259,265.481z M320.935,351.167
		c-18.528,37.611-46.519,94.463-60.194,94.463c-13.546,0-41.954-55.843-60.75-92.787c-23.232-45.657-47.241-92.861-71.389-112.565
		C113.306,227.796,97.148,221.5,80.444,221.5c-3.241,0-6.509,0.241-9.787,0.713c-21.565,3.12-39.509,16.037-51.694,27.611v-50.676
		c0-73.213,59.574-132.778,132.796-132.778h208.481c73.222,0,132.796,59.565,132.796,132.778v49.861
		c-11.639-11.389-28.5-23.768-48.741-26.741c-19.37-2.861-38.102,3.296-55.648,18.259
		C365.842,259.963,343.018,306.324,320.935,351.167z M440.889,426.667c-24.363,0-51.53-67.545-52.096-158.346
		c4.142-5.432,8.21-10.006,12.151-13.367c13.361-11.389,26.583-15.926,40.528-13.935c25.477,3.703,45.536,28.682,51.339,36.624
		C490.52,363.694,464.409,426.667,440.889,426.667z"/>
	<path style="fill:#314E55;" d="M260.741,246.519c-28.75,0-52.148,23.398-52.148,52.148c0,28.75,23.398,52.148,52.148,52.148
		c28.75,0,52.148-23.398,52.148-52.148C312.889,269.917,289.491,246.519,260.741,246.519z M260.741,331.852
		c-18.296,0-33.185-14.889-33.185-33.185c0-18.296,14.889-33.185,33.185-33.185s33.185,14.889,33.185,33.185
		C293.926,316.963,279.037,331.852,260.741,331.852z"/>
	<path style="fill:#314E55;" d="M260.741,274.963c-13.074,0-23.704,10.63-23.704,23.704c0,13.074,10.63,23.704,23.704,23.704
		c13.074,0,23.704-10.63,23.704-23.704C284.444,285.593,273.815,274.963,260.741,274.963z M260.741,303.407
		c-2.611,0-4.741-2.13-4.741-4.741c0-2.611,2.13-4.741,4.741-4.741s4.741,2.13,4.741,4.741
		C265.481,301.278,263.352,303.407,260.741,303.407z"/>
	<path style="fill:#314E55;" d="M170.667,142.222h-18.963v-18.963c0-5.241-4.241-9.481-9.481-9.481h-28.444
		c-5.241,0-9.481,4.241-9.481,9.481v18.963H85.333c-5.241,0-9.481,4.241-9.481,9.481v28.444c0,5.241,4.241,9.481,9.481,9.481h18.963
		v18.963c0,5.241,4.241,9.481,9.481,9.481h28.444c5.241,0,9.481-4.241,9.481-9.481V189.63h18.963c5.241,0,9.481-4.241,9.481-9.481
		v-28.444C180.148,146.463,175.907,142.222,170.667,142.222z M161.185,170.667h-18.963c-5.241,0-9.481,4.241-9.481,9.481v18.963
		h-9.481v-18.963c0-5.241-4.241-9.481-9.481-9.481H94.815v-9.481h18.963c5.241,0,9.481-4.241,9.481-9.481v-18.963h9.481v18.963
		c0,5.241,4.241,9.481,9.481,9.481h18.963V170.667z"/>
</g>
<g>
</g>
<g>
</g>
<g>
</g>
<g>
</g>
<g>
</g>
<g>
</g>
<g>
</g>
<g>
</g>
<g>
</g>
<g>
</g>
<g>
</g>
<g>
</g>
<g>
</g>
<g>
</g>
<g>
</g>
</svg>
