<?xml version="1.0" encoding="iso-8859-1"?>
<!-- Generator: Adobe Illustrator 19.0.0, SVG Export Plug-In . SVG Version: 6.00 Build 0)  -->
<svg version="1.1" id="Layer_1" xmlns="http://www.w3.org/2000/svg" xmlns:xlink="http://www.w3.org/1999/xlink" x="0px" y="0px"
	 viewBox="0 0 512 512" style="enable-background:new 0 0 512 512;" xml:space="preserve">
<g>
	<rect x="242.526" y="134.736" style="fill:#5ECC66;" width="17.965" height="17.965"/>
	<rect x="242.526" y="206.596" style="fill:#5ECC66;" width="17.965" height="17.965"/>
	<rect x="179.65" y="134.736" style="fill:#5ECC66;" width="17.965" height="17.965"/>
	<rect x="305.403" y="134.736" style="fill:#5ECC66;" width="17.965" height="17.965"/>
	<rect x="305.403" y="206.596" style="fill:#5ECC66;" width="17.965" height="17.965"/>
	<rect x="179.65" y="206.596" style="fill:#5ECC66;" width="17.965" height="17.965"/>
</g>
<g>
	<path style="fill:#F58CAC;" d="M314.386,340.094c-18.294,6.498-37.891,10.22-58.386,10.22s-40.091-3.721-58.386-10.22v130.541
		l54.903-23.059c2.228-0.93,4.737-0.93,6.965,0l54.903,23.059V340.094z"/>
	<path style="fill:#F58CAC;" d="M332.351,478.18l26.947,11.317V316.291c-8.446,6.199-17.449,11.634-26.947,16.261V478.18z"/>
	<path style="fill:#F58CAC;" d="M179.65,332.552c-9.498-4.627-18.501-10.061-26.947-16.261v173.206l26.947-11.317V332.552z"/>
</g>
<path style="fill:#5ECC66;" d="M256,332.349c86.675,0,157.192-70.517,157.192-157.192S342.675,17.965,256,17.965
	S98.808,88.482,98.808,175.157S169.325,332.349,256,332.349z M341.333,233.543c0,4.965-4.018,8.982-8.982,8.982h-35.93
	c-4.965,0-8.982-4.018-8.982-8.982v-35.93c0-4.965,4.018-8.982,8.982-8.982h35.93c4.965,0,8.982,4.018,8.982,8.982V233.543z
	 M341.333,161.683c0,4.965-4.018,8.982-8.982,8.982h-35.93c-4.965,0-8.982-4.018-8.982-8.982v-35.93
	c0-4.965,4.018-8.982,8.982-8.982h35.93c4.965,0,8.982,4.018,8.982,8.982V161.683z M256,35.93
	c76.772,0,139.227,62.456,139.227,139.227c0,4.965-4.018,8.982-8.982,8.982s-8.982-4.018-8.982-8.982
	c0-66.868-54.395-121.263-121.263-121.263c-4.965,0-8.982-4.018-8.982-8.982S251.035,35.93,256,35.93z M224.562,125.754
	c0-4.965,4.018-8.982,8.982-8.982h35.93c4.965,0,8.982,4.018,8.982,8.982v35.93c0,4.965-4.018,8.982-8.982,8.982h-35.93
	c-4.965,0-8.982-4.018-8.982-8.982V125.754z M224.562,197.613c0-4.965,4.018-8.982,8.982-8.982h35.93
	c4.965,0,8.982,4.018,8.982,8.982v35.93c0,4.965-4.018,8.982-8.982,8.982h-35.93c-4.965,0-8.982-4.018-8.982-8.982V197.613z
	 M161.685,125.754c0-4.965,4.018-8.982,8.982-8.982h35.93c4.965,0,8.982,4.018,8.982,8.982v35.93c0,4.965-4.018,8.982-8.982,8.982
	h-35.93c-4.965,0-8.982-4.018-8.982-8.982V125.754z M161.685,197.613c0-4.965,4.018-8.982,8.982-8.982h35.93
	c4.965,0,8.982,4.018,8.982,8.982v35.93c0,4.965-4.018,8.982-8.982,8.982h-35.93c-4.965,0-8.982-4.018-8.982-8.982V197.613z"/>
<g>
	<path style="fill:#314E55;" d="M431.157,175.157C431.157,78.579,352.578,0,256,0S80.843,78.579,80.843,175.157
		c0,49.862,21.05,94.813,54.603,126.742c-0.456,1.076-0.709,2.259-0.709,3.503v197.613c0,3.009,1.509,5.816,4.009,7.482
		c2.509,1.658,5.667,1.974,8.456,0.798L256,465.603l108.798,45.693c1.123,0.474,2.307,0.702,3.482,0.702
		c1.746,0,3.474-0.509,4.974-1.5c2.5-1.667,4.009-4.474,4.009-7.482V305.402c0-1.243-0.253-2.427-0.708-3.503
		C410.107,269.969,431.157,225.018,431.157,175.157z M98.808,175.157c0-86.675,70.517-157.192,157.192-157.192
		s157.192,70.517,157.192,157.192S342.675,332.349,256,332.349S98.808,261.832,98.808,175.157z M152.702,316.291
		c8.446,6.199,17.449,11.634,26.947,16.261V478.18l-26.947,11.317V316.291z M252.518,447.577l-54.903,23.059V340.094
		c18.294,6.498,37.891,10.22,58.386,10.22s40.091-3.722,58.386-10.22v130.541l-54.903-23.059
		C257.254,446.647,254.746,446.647,252.518,447.577z M359.298,489.498l-26.947-11.317V332.552
		c9.498-4.627,18.501-10.061,26.947-16.261V489.498z"/>
	<path style="fill:#314E55;" d="M256,53.894c66.868,0,121.263,54.395,121.263,121.263c0,4.965,4.018,8.982,8.982,8.982
		s8.982-4.018,8.982-8.982C395.227,98.385,332.772,35.93,256,35.93c-4.965,0-8.982,4.018-8.982,8.982S251.035,53.894,256,53.894z"/>
	<path style="fill:#314E55;" d="M170.667,170.666h35.93c4.965,0,8.982-4.018,8.982-8.982v-35.93c0-4.965-4.018-8.982-8.982-8.982
		h-35.93c-4.965,0-8.982,4.018-8.982,8.982v35.93C161.685,166.648,165.702,170.666,170.667,170.666z M179.65,134.736h17.965v17.965
		H179.65V134.736z"/>
	<path style="fill:#314E55;" d="M233.544,170.666h35.93c4.965,0,8.982-4.018,8.982-8.982v-35.93c0-4.965-4.018-8.982-8.982-8.982
		h-35.93c-4.965,0-8.982,4.018-8.982,8.982v35.93C224.562,166.648,228.579,170.666,233.544,170.666z M242.526,134.736h17.965v17.965
		h-17.965V134.736z"/>
	<path style="fill:#314E55;" d="M332.351,116.771h-35.93c-4.965,0-8.982,4.018-8.982,8.982v35.93c0,4.965,4.018,8.982,8.982,8.982
		h35.93c4.965,0,8.982-4.018,8.982-8.982v-35.93C341.333,120.789,337.315,116.771,332.351,116.771z M323.368,152.701h-17.965
		v-17.965h17.965V152.701z"/>
	<path style="fill:#314E55;" d="M170.667,242.525h35.93c4.965,0,8.982-4.018,8.982-8.982v-35.93c0-4.965-4.018-8.982-8.982-8.982
		h-35.93c-4.965,0-8.982,4.018-8.982,8.982v35.93C161.685,238.508,165.702,242.525,170.667,242.525z M179.65,206.596h17.965v17.965
		H179.65V206.596z"/>
	<path style="fill:#314E55;" d="M233.544,242.525h35.93c4.965,0,8.982-4.018,8.982-8.982v-35.93c0-4.965-4.018-8.982-8.982-8.982
		h-35.93c-4.965,0-8.982,4.018-8.982,8.982v35.93C224.562,238.508,228.579,242.525,233.544,242.525z M242.526,206.596h17.965v17.965
		h-17.965V206.596z"/>
	<path style="fill:#314E55;" d="M332.351,188.631h-35.93c-4.965,0-8.982,4.018-8.982,8.982v35.93c0,4.965,4.018,8.982,8.982,8.982
		h35.93c4.965,0,8.982-4.018,8.982-8.982v-35.93C341.333,192.648,337.315,188.631,332.351,188.631z M323.368,224.56h-17.965v-17.965
		h17.965V224.56z"/>
</g>
<g>
</g>
<g>
</g>
<g>
</g>
<g>
</g>
<g>
</g>
<g>
</g>
<g>
</g>
<g>
</g>
<g>
</g>
<g>
</g>
<g>
</g>
<g>
</g>
<g>
</g>
<g>
</g>
<g>
</g>
</svg>
