<?xml version="1.0" encoding="iso-8859-1"?>
<!-- Generator: Adobe Illustrator 19.0.0, SVG Export Plug-In . SVG Version: 6.00 Build 0)  -->
<svg version="1.1" id="Layer_1" xmlns="http://www.w3.org/2000/svg" xmlns:xlink="http://www.w3.org/1999/xlink" x="0px" y="0px"
	 viewBox="0 0 512 512" style="enable-background:new 0 0 512 512;" xml:space="preserve">
<g>
	<polygon style="fill:#EAEAEA;" points="194.528,459.852 317.472,459.852 297.157,412.444 214.843,412.444 	"/>
	<path style="fill:#EAEAEA;" d="M18.963,393.481h189.63h94.815h189.63v-56.889H18.963V393.481z M256,346.074
		c10.458,0,18.963,8.509,18.963,18.963c0,10.454-8.505,18.963-18.963,18.963s-18.963-8.509-18.963-18.963
		C237.037,354.583,245.542,346.074,256,346.074z"/>
</g>
<path style="fill:#D8D8D8;" d="M483.491,52.148H28.509c-5.264,0-9.546,4.213-9.546,9.398V317.63h474.074V61.546
	C493.037,56.361,488.755,52.148,483.491,52.148z M144.778,100.926L68.333,177.37c-1.852,1.852-4.278,2.778-6.704,2.778
	s-4.852-0.926-6.704-2.778c-3.704-3.704-3.704-9.704,0-13.407l76.444-76.444c3.704-3.704,9.704-3.704,13.407,0
	C148.481,91.222,148.481,97.222,144.778,100.926z"/>
<g>
	<path style="fill:#314E55;" d="M483.491,33.185H28.509C12.787,33.185,0,45.907,0,61.546V317.63v18.963v75.852h194.217
		l-22.782,53.157c-1.259,2.926-0.958,6.287,0.796,8.954c1.755,2.657,4.731,4.259,7.917,4.259h151.704
		c3.185,0,6.162-1.602,7.917-4.259c1.755-2.667,2.056-6.028,0.796-8.954l-22.782-53.157H512v-75.852V317.63V61.546
		C512,45.907,499.213,33.185,483.491,33.185z M317.472,459.852H194.528l20.315-47.407h82.315L317.472,459.852z M493.037,393.481
		h-189.63h-94.815H18.963v-56.889h474.074V393.481z M18.963,317.63V61.546c0-5.185,4.282-9.398,9.546-9.398h454.981
		c5.264,0,9.546,4.213,9.546,9.398V317.63H18.963z"/>
	<path style="fill:#314E55;" d="M256,384c10.458,0,18.963-8.509,18.963-18.963c0-10.454-8.505-18.963-18.963-18.963
		s-18.963,8.509-18.963,18.963C237.037,375.491,245.542,384,256,384z"/>
	<path style="fill:#314E55;" d="M131.37,87.519l-76.444,76.444c-3.704,3.704-3.704,9.704,0,13.407
		c1.852,1.852,4.278,2.778,6.704,2.778s4.852-0.926,6.704-2.778l76.444-76.444c3.704-3.704,3.704-9.704,0-13.407
		S135.074,83.815,131.37,87.519z"/>
</g>
<g>
</g>
<g>
</g>
<g>
</g>
<g>
</g>
<g>
</g>
<g>
</g>
<g>
</g>
<g>
</g>
<g>
</g>
<g>
</g>
<g>
</g>
<g>
</g>
<g>
</g>
<g>
</g>
<g>
</g>
</svg>
