<?xml version="1.0" encoding="iso-8859-1"?>
<!-- Generator: Adobe Illustrator 19.0.0, SVG Export Plug-In . SVG Version: 6.00 Build 0)  -->
<svg version="1.1" id="Layer_1" xmlns="http://www.w3.org/2000/svg" xmlns:xlink="http://www.w3.org/1999/xlink" x="0px" y="0px"
	 viewBox="0 0 512 512" style="enable-background:new 0 0 512 512;" xml:space="preserve">
<polygon style="fill:#D8D8D8;" points="268.587,426.666 254.254,476.862 488.645,476.862 474.312,426.666 "/>
<rect x="271.058" y="286.118" style="fill:#E9E7D1;" width="200.784" height="120.47"/>
<g>
	<path style="fill:#314E55;" d="M210.823,416.627V225.883h107.894c0.037,1.977,0.175,3.91,0.175,5.902
		c0,5.549,4.49,10.039,10.039,10.039c5.549,0,10.039-4.49,10.039-10.039c0-1.992-0.151-3.923-0.187-5.902h62.785h14.176h5.902
		c0-116.245-94.578-210.823-210.823-210.823h-20.078v1.017C83.889,26.228,0,116.415,0,225.883
		c0,116.245,94.578,210.823,210.823,210.823c5.549,0,10.039-4.49,10.039-10.039S216.372,416.627,210.823,416.627z M190.744,413.303
		c-50.017-16.158-87.99-91.343-87.99-181.518c0-1.992,0.138-3.925,0.175-5.902h87.815V413.303z M103.949,205.804
		c6.487-78.32,41.681-140.956,86.795-155.529v155.529H103.949z M210.823,205.804V46.952c54.42,0,99.45,69.222,106.873,158.852
		H210.823z M400.488,205.804h-62.666c-5.994-75.247-37.547-137.765-80.312-164.646C333.853,60.475,392.07,125.736,400.488,205.804z
		 M164.135,41.158c-42.765,26.88-74.317,89.399-80.312,164.646H21.157C29.575,125.736,87.793,60.475,164.135,41.158z
		 M20.078,225.883h62.785c-0.036,1.978-0.187,3.91-0.187,5.902c0,71.611,23.133,134.669,58.035,171.319
		C70.162,375.089,20.078,306.29,20.078,225.883z"/>
	<path style="fill:#314E55;" d="M511.616,484.146L491.92,415.21V276.078c0-5.549-4.49-10.039-10.039-10.039H261.019
		c-5.549,0-10.039,4.49-10.039,10.039V415.21l-19.696,68.936c-0.863,3.029-0.255,6.284,1.637,8.804c1.902,2.51,4.873,3.99,8.02,3.99
		h261.019c3.147,0,6.118-1.48,8.02-3.99C511.871,490.43,512.478,487.176,511.616,484.146z M271.058,286.118h200.784v120.47H271.058
		V286.118z M254.254,476.862l14.333-50.196h205.725l14.333,50.196H254.254z"/>
</g>
<g>
</g>
<g>
</g>
<g>
</g>
<g>
</g>
<g>
</g>
<g>
</g>
<g>
</g>
<g>
</g>
<g>
</g>
<g>
</g>
<g>
</g>
<g>
</g>
<g>
</g>
<g>
</g>
<g>
</g>
</svg>
