<?xml version="1.0" encoding="iso-8859-1"?>
<!-- Generator: Adobe Illustrator 19.0.0, SVG Export Plug-In . SVG Version: 6.00 Build 0)  -->
<svg version="1.1" id="Layer_1" xmlns="http://www.w3.org/2000/svg" xmlns:xlink="http://www.w3.org/1999/xlink" x="0px" y="0px"
	 viewBox="0 0 512 512" style="enable-background:new 0 0 512 512;" xml:space="preserve">
<path style="fill:#81A4E3;" d="M265.481,19.148v246.333H19.148C24.143,391.806,128.472,493.037,256,493.037
	c130.704,0,237.037-106.333,237.037-237.037C493.037,128.472,391.806,24.143,265.481,19.148z M256,464.593
	c-5.236,0-9.481-4.245-9.481-9.481s4.245-9.481,9.481-9.481c104.56,0,189.63-85.07,189.63-189.63c0-5.236,4.245-9.481,9.481-9.481
	s9.481,4.245,9.481,9.481C464.593,371.018,371.018,464.593,256,464.593z"/>
<g>
	<path style="fill:#314E55;" d="M256,0h-9.481v246.519H0V256c0,141.157,114.843,256,256,256s256-114.843,256-256S397.157,0,256,0z
		 M256,493.037c-127.528,0-231.857-101.231-236.852-227.556h246.333V19.148C391.806,24.143,493.037,128.472,493.037,256
		C493.037,386.704,386.704,493.037,256,493.037z"/>
	<path style="fill:#314E55;" d="M455.111,246.519c-5.236,0-9.481,4.245-9.481,9.481c0,104.56-85.07,189.63-189.63,189.63
		c-5.236,0-9.481,4.245-9.481,9.481s4.245,9.481,9.481,9.481c115.018,0,208.593-93.574,208.593-208.593
		C464.593,250.764,460.347,246.519,455.111,246.519z"/>
	<rect x="189.63" y="94.815" style="fill:#314E55;" width="18.963" height="132.741"/>
	<rect x="151.704" y="142.222" style="fill:#314E55;" width="18.963" height="85.333"/>
	<rect x="113.778" y="75.852" style="fill:#314E55;" width="18.963" height="151.704"/>
	<rect x="75.852" y="47.407" style="fill:#314E55;" width="18.963" height="180.148"/>
	<rect x="37.926" y="113.778" style="fill:#314E55;" width="18.963" height="113.778"/>
</g>
<g>
</g>
<g>
</g>
<g>
</g>
<g>
</g>
<g>
</g>
<g>
</g>
<g>
</g>
<g>
</g>
<g>
</g>
<g>
</g>
<g>
</g>
<g>
</g>
<g>
</g>
<g>
</g>
<g>
</g>
</svg>
