<?xml version="1.0" encoding="iso-8859-1"?>
<!-- Generator: Adobe Illustrator 19.0.0, SVG Export Plug-In . SVG Version: 6.00 Build 0)  -->
<svg version="1.1" id="Layer_1" xmlns="http://www.w3.org/2000/svg" xmlns:xlink="http://www.w3.org/1999/xlink" x="0px" y="0px"
	 viewBox="0 0 512 512" style="enable-background:new 0 0 512 512;" xml:space="preserve">
<g>
	<rect x="147.064" y="359.489" style="fill:#EAEAEA;" width="217.872" height="130.723"/>
	<rect x="147.064" y="21.787" style="fill:#EAEAEA;" width="217.872" height="130.723"/>
</g>
<circle style="fill:#314E55;" cx="408.511" cy="239.66" r="10.894"/>
<path style="fill:#E4AD40;" d="M452.064,174.298h-32.66h-32.681H125.277H92.596h-32.66c-18.032,0-32.702,14.612-32.702,32.574
	v207.085h98.043v-54.468H81.702v-21.787h43.574h261.447h43.574v21.787h-43.574v54.468h98.043V206.872
	C484.766,188.909,470.096,174.298,452.064,174.298z M408.511,272.34c-18.021,0-32.681-14.66-32.681-32.681
	s14.66-32.681,32.681-32.681c18.021,0,32.681,14.66,32.681,32.681S426.532,272.34,408.511,272.34z"/>
<g>
	<path style="fill:#314E55;" d="M506.553,206.872c0-29.973-24.447-54.362-54.489-54.362h-32.66V76.255h-32.681V0H125.277v76.255
		H92.596v76.255h-32.66c-30.042,0-54.489,24.388-54.489,54.362v228.872h119.83V512h261.447v-76.255h119.83V206.872z M397.617,98.043
		v54.468h-10.894V98.043H397.617z M147.064,21.787h217.872v130.723H147.064V21.787z M114.383,98.043h10.894v54.468h-10.894V98.043z
		 M364.936,490.213H147.064V359.489h217.872V490.213z M484.766,413.957h-98.043v-54.468h43.574v-21.787h-43.574H125.277H81.702
		v21.787h43.574v54.468H27.234V206.872c0-17.963,14.67-32.574,32.702-32.574h32.66h32.681h261.447h32.681h32.66
		c18.032,0,32.702,14.612,32.702,32.574V413.957z"/>
	<path style="fill:#314E55;" d="M408.511,206.979c-18.021,0-32.681,14.66-32.681,32.681s14.66,32.681,32.681,32.681
		c18.021,0,32.681-14.66,32.681-32.681S426.532,206.979,408.511,206.979z M408.511,250.553c-6.011,0-10.894-4.883-10.894-10.894
		c0-6.011,4.883-10.894,10.894-10.894s10.894,4.883,10.894,10.894C419.404,245.67,414.521,250.553,408.511,250.553z"/>
</g>
<g>
</g>
<g>
</g>
<g>
</g>
<g>
</g>
<g>
</g>
<g>
</g>
<g>
</g>
<g>
</g>
<g>
</g>
<g>
</g>
<g>
</g>
<g>
</g>
<g>
</g>
<g>
</g>
<g>
</g>
</svg>
