<?xml version="1.0" encoding="iso-8859-1"?>
<!-- Generator: Adobe Illustrator 19.0.0, SVG Export Plug-In . SVG Version: 6.00 Build 0)  -->
<svg version="1.1" id="Layer_1" xmlns="http://www.w3.org/2000/svg" xmlns:xlink="http://www.w3.org/1999/xlink" x="0px" y="0px"
	 viewBox="0 0 512 512" style="enable-background:new 0 0 512 512;" xml:space="preserve">
<path style="fill:#EAEAEA;" d="M370.81,167.663v-25.43l-52.946-26.473v7.782c0,4.873-3.951,8.824-8.824,8.824h-10.365l18.396,40.472
	c0.54,1.187,0.752,2.425,0.75,3.65h17.691c4.873,0,8.824,3.951,8.824,8.824v20.432l53.636-29.257h-18.338
	C374.761,176.488,370.81,172.537,370.81,167.663z"/>
<g>
	<rect x="273.733" y="88.244" style="fill:#F28544;" width="26.473" height="26.473"/>
	<rect x="291.381" y="194.137" style="fill:#F28544;" width="35.298" height="35.298"/>
</g>
<path style="fill:#D26CBA;" d="M179.905,315.959L30.127,465.737l24.961,24.961L204.866,340.92c3.309-3.309,5.132-7.73,5.132-12.448
	c0.004-4.731-1.827-9.165-5.153-12.491C197.963,309.099,186.769,309.095,179.905,315.959z"/>
<rect x="388.45" y="105.893" style="fill:#F28544;" width="52.946" height="52.946"/>
<path style="fill:#EAEAEA;" d="M353.161,17.649c-72.987,0-132.366,59.379-132.366,132.366s59.379,132.366,132.366,132.366
	s132.366-59.379,132.366-132.366S426.147,17.649,353.161,17.649z M450.229,176.488h-15.397l-90.496,49.361v12.409
	c0,4.873-3.951,8.824-8.824,8.824h-52.946c-4.873,0-8.824-3.951-8.824-8.824v-52.946c0-4.873,3.951-8.824,8.824-8.824h16.783
	l-20.055-44.122h-14.376c-4.873,0-8.824-3.951-8.824-8.824V79.42c0-4.873,3.951-8.824,8.824-8.824h44.122
	c4.873,0,8.824,3.951,8.824,8.824v16.606l52.946,26.473v-25.43c0-4.873,3.951-8.824,8.824-8.824h70.595
	c4.873,0,8.824,3.951,8.824,8.824v70.595C459.054,172.537,455.103,176.488,450.229,176.488z"/>
<g>
	<path style="fill:#314E55;" d="M353.161,0c-82.72,0-150.015,67.295-150.015,150.015c0,42.674,17.998,81.147,46.696,108.489
		l-39.644,39.645c-13.522-7.95-31.183-6.263-42.772,5.332L11.41,459.498c-3.447,3.447-3.447,9.031,0,12.478l37.439,37.439
		c1.723,1.723,3.981,2.585,6.239,2.585c2.258,0,4.516-0.862,6.239-2.585l156.017-156.017c6.64-6.64,10.298-15.49,10.302-24.918
		c0.006-6.408-1.805-12.489-4.969-17.856l40.708-40.707c25.067,18.816,56.089,30.112,89.775,30.112
		c82.72,0,150.015-67.295,150.015-150.015S435.881,0,353.161,0z M204.866,340.92L55.088,490.697l-24.961-24.961l149.778-149.778
		c6.864-6.864,18.058-6.86,24.939,0.022c3.326,3.326,5.158,7.76,5.153,12.491C209.997,333.19,208.175,337.611,204.866,340.92z
		 M353.161,282.381c-72.987,0-132.366-59.379-132.366-132.366S280.174,17.649,353.161,17.649s132.366,59.379,132.366,132.366
		S426.147,282.381,353.161,282.381z"/>
	<path style="fill:#314E55;" d="M450.229,88.244h-70.595c-4.873,0-8.824,3.951-8.824,8.824v25.43l-52.946-26.473V79.42
		c0-4.873-3.951-8.824-8.824-8.824h-44.122c-4.873,0-8.824,3.951-8.824,8.824v44.122c0,4.873,3.951,8.824,8.824,8.824h14.376
		l20.055,44.122h-16.783c-4.873,0-8.824,3.951-8.824,8.824v52.946c0,4.873,3.951,8.824,8.824,8.824h52.946
		c4.873,0,8.824-3.951,8.824-8.824v-12.409l90.496-49.361h15.397c4.873,0,8.824-3.951,8.824-8.824V97.068
		C459.054,92.195,455.103,88.244,450.229,88.244z M273.741,88.244h26.473v26.473h-26.473V88.244z M326.688,229.434H291.39v-35.298
		h35.298V229.434z M344.337,205.744v-20.432c0-4.873-3.951-8.824-8.824-8.824h-17.691c0.002-1.225-0.21-2.462-0.75-3.65
		l-18.396-40.472h10.365c4.873,0,8.824-3.951,8.824-8.824v-7.782l52.946,26.473v25.43c0,4.873,3.951,8.824,8.824,8.824h18.338
		L344.337,205.744z M441.405,158.839h-52.946v-52.946h52.946V158.839z"/>
</g>
<g>
</g>
<g>
</g>
<g>
</g>
<g>
</g>
<g>
</g>
<g>
</g>
<g>
</g>
<g>
</g>
<g>
</g>
<g>
</g>
<g>
</g>
<g>
</g>
<g>
</g>
<g>
</g>
<g>
</g>
</svg>
