<?xml version="1.0" encoding="iso-8859-1"?>
<!-- Generator: Adobe Illustrator 19.0.0, SVG Export Plug-In . SVG Version: 6.00 Build 0)  -->
<svg version="1.1" id="Layer_1" xmlns="http://www.w3.org/2000/svg" xmlns:xlink="http://www.w3.org/1999/xlink" x="0px" y="0px"
	 viewBox="0 0 512 512" style="enable-background:new 0 0 512 512;" xml:space="preserve">
<circle style="fill:#5ECC66;" cx="423.184" cy="397.061" r="15.673"/>
<path style="fill:#EAEAEA;" d="M20.898,350.041v94.041h10.449h20.898h407.51h20.898h10.449v-94.041H271.673h-20.898H20.898z
	 M73.143,423.184H52.245v-52.245h20.898V423.184z M125.388,423.184H104.49v-52.245h20.898V423.184z M177.633,423.184h-20.898
	v-52.245h20.898V423.184z M423.184,360.49c20.163,0,36.571,16.408,36.571,36.571s-16.408,36.571-36.571,36.571
	c-20.163,0-36.571-16.408-36.571-36.571S403.02,360.49,423.184,360.49z"/>
<circle style="fill:#E65F58;" cx="423.184" cy="240.327" r="15.673"/>
<path style="fill:#EAEAEA;" d="M20.898,193.306v94.041h470.204v-94.041H271.673h-20.898H20.898z M73.143,266.449H52.245v-52.245
	h20.898V266.449z M125.388,266.449H104.49v-52.245h20.898V266.449z M177.633,266.449h-20.898v-52.245h20.898V266.449z
	 M423.184,203.755c20.163,0,36.571,16.408,36.571,36.571s-16.408,36.571-36.571,36.571c-20.163,0-36.571-16.408-36.571-36.571
	S403.02,203.755,423.184,203.755z"/>
<circle style="fill:#E65F58;" cx="423.184" cy="83.592" r="15.673"/>
<path style="fill:#EAEAEA;" d="M491.102,36.571H20.898v94.041h470.204V36.571z M73.143,109.714H52.245V57.469h20.898V109.714z
	 M125.388,109.714H104.49V57.469h20.898V109.714z M177.633,109.714h-20.898V57.469h20.898V109.714z M423.184,120.163
	c-20.163,0-36.571-16.408-36.571-36.571S403.02,47.02,423.184,47.02c20.163,0,36.571,16.408,36.571,36.571
	S443.347,120.163,423.184,120.163z"/>
<g>
	<path style="fill:#314E55;" d="M512,151.51V15.673H0V151.51h250.776v20.898H0v135.837h250.776v20.898H0V464.98h31.347v31.347
		h20.898V464.98h407.51v31.347h20.898V464.98H512V329.143H271.673v-20.898H512V172.408H271.673V151.51H512z M491.102,350.041v94.041
		h-10.449h-20.898H52.245H31.347H20.898v-94.041h229.878h20.898H491.102z M491.102,193.306v94.041H20.898v-94.041h229.878h20.898
		H491.102z M20.898,36.571h470.204v94.041H20.898V36.571z"/>
	<path style="fill:#314E55;" d="M423.184,47.02c-20.163,0-36.571,16.408-36.571,36.571s16.408,36.571,36.571,36.571
		c20.163,0,36.571-16.408,36.571-36.571S443.347,47.02,423.184,47.02z M423.184,99.265c-8.643,0-15.673-7.031-15.673-15.673
		s7.031-15.673,15.673-15.673s15.673,7.031,15.673,15.673S431.827,99.265,423.184,99.265z"/>
	<rect x="52.245" y="57.469" style="fill:#314E55;" width="20.898" height="52.245"/>
	<rect x="104.49" y="57.469" style="fill:#314E55;" width="20.898" height="52.245"/>
	<rect x="156.735" y="57.469" style="fill:#314E55;" width="20.898" height="52.245"/>
	<path style="fill:#314E55;" d="M423.184,276.898c20.163,0,36.571-16.408,36.571-36.571s-16.408-36.571-36.571-36.571
		c-20.163,0-36.571,16.408-36.571,36.571S403.02,276.898,423.184,276.898z M423.184,224.653c8.643,0,15.673,7.031,15.673,15.673
		c0,8.643-7.031,15.673-15.673,15.673s-15.673-7.031-15.673-15.673C407.51,231.684,414.541,224.653,423.184,224.653z"/>
	<rect x="52.245" y="214.204" style="fill:#314E55;" width="20.898" height="52.245"/>
	<rect x="104.49" y="214.204" style="fill:#314E55;" width="20.898" height="52.245"/>
	<rect x="156.735" y="214.204" style="fill:#314E55;" width="20.898" height="52.245"/>
	<path style="fill:#314E55;" d="M423.184,433.633c20.163,0,36.571-16.408,36.571-36.571s-16.408-36.571-36.571-36.571
		c-20.163,0-36.571,16.408-36.571,36.571S403.02,433.633,423.184,433.633z M423.184,381.388c8.643,0,15.673,7.031,15.673,15.673
		s-7.031,15.673-15.673,15.673s-15.673-7.031-15.673-15.673S414.541,381.388,423.184,381.388z"/>
	<rect x="52.245" y="370.939" style="fill:#314E55;" width="20.898" height="52.245"/>
	<rect x="104.49" y="370.939" style="fill:#314E55;" width="20.898" height="52.245"/>
	<rect x="156.735" y="370.939" style="fill:#314E55;" width="20.898" height="52.245"/>
</g>
<g>
</g>
<g>
</g>
<g>
</g>
<g>
</g>
<g>
</g>
<g>
</g>
<g>
</g>
<g>
</g>
<g>
</g>
<g>
</g>
<g>
</g>
<g>
</g>
<g>
</g>
<g>
</g>
<g>
</g>
</svg>
