<?xml version="1.0" encoding="iso-8859-1"?>
<!-- Generator: Adobe Illustrator 19.0.0, SVG Export Plug-In . SVG Version: 6.00 Build 0)  -->
<svg version="1.1" id="Layer_1" xmlns="http://www.w3.org/2000/svg" xmlns:xlink="http://www.w3.org/1999/xlink" x="0px" y="0px"
	 viewBox="0 0 512 512" style="enable-background:new 0 0 512 512;" xml:space="preserve">
<path style="fill:#EAEAEA;" d="M182.379,225.492l-90.265,89.665l-12.923-13.013l110.03-109.296l22.049,55.897l82.191-77.516V72.631
	c0-5.082-4.124-9.215-9.189-9.215H27.53c-5.065,0-9.189,4.133-9.189,9.215v284.246h275.12V196.44l-89.311,84.233L182.379,225.492z"
	/>
<circle style="fill:#E65F58;" cx="155.901" cy="411.902" r="9.171"/>
<path style="fill:#D8D8D8;" d="M18.341,448.584h275.12v-73.365H18.341V448.584z M155.901,384.389
	c15.171,0,27.512,12.341,27.512,27.512s-12.341,27.512-27.512,27.512c-15.171,0-27.512-12.341-27.512-27.512
	S140.73,384.389,155.901,384.389z"/>
<polygon style="fill:#5ECC66;" points="459.541,147.438 487.121,83.808 419.67,99.919 "/>
<g>
	<path style="fill:#314E55;" d="M155.901,439.414c15.171,0,27.512-12.341,27.512-27.512s-12.341-27.512-27.512-27.512
		c-15.171,0-27.512,12.341-27.512,27.512S140.73,439.414,155.901,439.414z M155.901,402.731c5.056,0,9.171,4.115,9.171,9.171
		s-4.115,9.171-9.171,9.171c-5.056,0-9.171-4.115-9.171-9.171S150.846,402.731,155.901,402.731z"/>
	<path style="fill:#314E55;" d="M509.855,64.732c-2.234-2.669-5.794-3.842-9.157-3.027l-99.722,23.822
		c-3.09,0.739-5.579,3.027-6.578,6.045c-0.994,3.014-0.358,6.336,1.684,8.768l25.231,30.071l-63.033,52.196l-17.405-56.094
		l-29.071,27.418v-81.3c0-15.193-12.35-27.557-27.53-27.557H27.53C12.35,45.074,0,57.438,0,72.631v284.246v110.048h311.803V356.877
		V179.142l20.267-19.116l16.814,54.178l84.215-69.745l21.928,26.135c1.755,2.096,4.339,3.278,7.026,3.278
		c0.439,0,0.878-0.031,1.321-0.094c3.143-0.461,5.83-2.512,7.093-5.432l40.776-94.076C512.627,71.086,512.085,67.392,509.855,64.732
		z M293.462,448.584H18.341v-73.365h275.12V448.584z M293.462,356.877H18.341V72.631c0-5.082,4.124-9.215,9.189-9.215h256.743
		c5.065,0,9.189,4.133,9.189,9.215v98.598l-82.191,77.516l-22.049-55.897L79.191,302.145l12.923,13.013l90.265-89.665l21.771,55.181
		l89.311-84.233V356.877z M459.541,147.438l-39.871-47.519l67.45-16.111L459.541,147.438z"/>
</g>
<g>
</g>
<g>
</g>
<g>
</g>
<g>
</g>
<g>
</g>
<g>
</g>
<g>
</g>
<g>
</g>
<g>
</g>
<g>
</g>
<g>
</g>
<g>
</g>
<g>
</g>
<g>
</g>
<g>
</g>
</svg>
