<?xml version="1.0" encoding="iso-8859-1"?>
<!-- Generator: Adobe Illustrator 19.0.0, SVG Export Plug-In . SVG Version: 6.00 Build 0)  -->
<svg version="1.1" id="Layer_1" xmlns="http://www.w3.org/2000/svg" xmlns:xlink="http://www.w3.org/1999/xlink" x="0px" y="0px"
	 viewBox="0 0 512 512" style="enable-background:new 0 0 512 512;" xml:space="preserve">
<path style="fill:#EAEAEA;" d="M320,345.746c-10.619-3.782-18.286-13.826-18.286-25.719v-3.813
	c-7.536-2.125-14.768-5.125-21.607-8.96l-2.705,2.705c-5.178,5.178-12.053,8.031-19.357,8.036c-0.009,0-0.009,0-0.018,0
	c-7.312,0-14.196-2.862-19.393-8.058c-10.696-10.692-10.705-28.085-0.018-38.768l2.696-2.701c-3.83-6.848-6.83-14.08-8.955-21.612
	h-3.813c-15.107,0-27.402-12.303-27.402-27.429c0-15.125,12.295-27.429,27.402-27.429h3.813c2.125-7.531,5.125-14.763,8.955-21.612
	l-2.696-2.705c-5.179-5.17-8.036-12.045-8.036-19.353c-0.009-7.312,2.857-14.21,8.053-19.411
	c10.688-10.688,28.08-10.705,38.768-0.018l2.705,2.701c6.839-3.835,14.071-6.835,21.607-8.96v-3.813
	c0-11.893,7.666-21.936,18.286-25.719V27.504c0-5.17-3.991-9.219-9.08-9.219H82.223c-5.009,0-9.08,4.116-9.08,9.179v374.603H320
	V345.746z"/>
<path style="fill:#D8D8D8;" d="M73.143,484.576c0,5.125,3.991,9.138,9.08,9.138H310.92c5.009,0,9.08-4.098,9.08-9.138v-64.005
	H73.143V484.576z M201.143,429.714c15.125,0,27.429,12.304,27.429,27.429s-12.304,27.429-27.429,27.429
	s-27.429-12.304-27.429-27.429S186.018,429.714,201.143,429.714z"/>
<g>
	<path style="fill:#EAEAEA;" d="M329.143,201.143c-10.08,0-18.286,8.201-18.286,18.286c0,10.085,8.205,18.286,18.286,18.286
		c10.08,0,18.286-8.201,18.286-18.286C347.429,209.344,339.223,201.143,329.143,201.143z"/>
	<circle style="fill:#EAEAEA;" cx="201.143" cy="457.143" r="9.143"/>
</g>
<path style="fill:#5ECC66;" d="M429.741,210.286h-11c-4.348,0-8.098-3.062-8.964-7.326c-2.089-10.339-6.125-20.062-11.982-28.902
	c-2.402-3.625-1.911-8.437,1.161-11.513l7.786-7.786c3.554-3.554,3.545-9.348-0.018-12.911c-1.741-1.746-4.036-2.701-6.464-2.701
	c-0.009,0-0.009,0-0.009,0c-2.42,0-4.705,0.951-6.429,2.679l-7.795,7.79c-3.08,3.076-7.902,3.549-11.509,1.152
	c-8.839-5.848-18.563-9.88-28.902-11.978c-4.268-0.862-7.33-4.612-7.33-8.96v-11c0-5.027-4.098-9.117-9.143-9.117
	c-5.125,0-9.143,4.005-9.143,9.116v11c0,4.348-3.062,8.098-7.33,8.96c-10.339,2.098-20.062,6.129-28.902,11.978
	c-3.607,2.397-8.429,1.924-11.509-1.152l-7.786-7.781c-3.571-3.571-9.357-3.549-12.911,0.013c-1.741,1.746-2.705,4.045-2.696,6.473
	c0,2.424,0.947,4.71,2.679,6.433l7.777,7.795c3.072,3.072,3.554,7.884,1.161,11.504c-5.848,8.844-9.884,18.571-11.973,28.906
	c-0.866,4.263-4.616,7.326-8.964,7.326h-11c-5.027,0-9.116,4.103-9.116,9.143c0,5.04,4.089,9.143,9.116,9.143h11
	c4.348,0,8.098,3.062,8.964,7.326c2.089,10.335,6.125,20.062,11.973,28.906c2.393,3.621,1.911,8.433-1.161,11.504l-7.777,7.786
	c-3.554,3.558-3.545,9.353,0.018,12.915c1.741,1.746,4.036,2.701,6.464,2.701c0,0,0,0,0.009,0c2.42,0,4.705-0.955,6.437-2.683
	l7.786-7.786c1.768-1.763,4.107-2.674,6.464-2.674c1.75,0,3.509,0.5,5.045,1.522c8.839,5.848,18.563,9.88,28.902,11.978
	c4.268,0.862,7.33,4.612,7.33,8.96v11c0,5.027,4.098,9.116,9.143,9.116c5.125,0,9.143-4.005,9.143-9.116v-11
	c0-4.348,3.062-8.098,7.33-8.96c10.339-2.098,20.062-6.129,28.902-11.978c3.607-2.393,8.429-1.915,11.509,1.152l7.786,7.781
	c3.563,3.563,9.348,3.54,12.911-0.013c1.741-1.746,2.705-4.045,2.696-6.473c0-2.424-0.947-4.71-2.679-6.433l-7.786-7.79
	c-3.072-3.076-3.563-7.888-1.161-11.513c5.857-8.839,9.893-18.563,11.982-28.902c0.866-4.263,4.616-7.326,8.964-7.326h11
	c5.027,0,9.116-4.103,9.116-9.143C438.857,214.388,434.768,210.286,429.741,210.286z M329.143,256
	c-20.17,0-36.571-16.406-36.571-36.571s16.402-36.571,36.571-36.571c20.17,0,36.571,16.406,36.571,36.571S349.312,256,329.143,256z"
	/>
<g>
	<path style="fill:#314E55;" d="M201.143,484.571c15.125,0,27.429-12.304,27.429-27.429s-12.304-27.429-27.429-27.429
		s-27.429,12.304-27.429,27.429S186.018,484.571,201.143,484.571z M201.143,448c5.045,0,9.143,4.103,9.143,9.143
		s-4.098,9.143-9.143,9.143S192,462.183,192,457.143S196.098,448,201.143,448z"/>
	<path style="fill:#314E55;" d="M429.741,192h-3.813c-2.125-7.536-5.125-14.763-8.964-21.612l2.705-2.701
		c10.688-10.683,10.679-28.076-0.018-38.768c-5.196-5.196-12.08-8.058-19.393-8.058c-0.009,0-0.018,0-0.018,0
		c-7.312,0.005-14.187,2.862-19.357,8.036l-2.705,2.705c-6.839-3.835-14.071-6.835-21.607-8.96v-3.813
		c0-11.893-7.666-21.938-18.286-25.719V27.504C338.286,12.339,326.009,0,310.92,0H82.223C67.134,0,54.857,12.321,54.857,27.464
		v374.822v18.067v64.223c0,15.12,12.277,27.424,27.366,27.424H310.92c15.089,0,27.366-12.304,27.366-27.424v-64.223v-18.067v-56.54
		c10.619-3.781,18.286-13.826,18.286-25.719v-3.813c7.536-2.125,14.768-5.125,21.607-8.96l2.705,2.701
		c10.688,10.683,28.08,10.674,38.768-0.018c5.196-5.201,8.062-12.098,8.053-19.411c0-7.308-2.857-14.183-8.036-19.357l-2.705-2.701
		c3.839-6.848,6.839-14.076,8.964-21.612h3.813c15.107,0,27.402-12.303,27.402-27.428C457.143,204.304,444.848,192,429.741,192z
		 M320,484.576c0,5.04-4.071,9.138-9.08,9.138H82.223c-5.089,0-9.08-4.013-9.08-9.138v-64.005H320V484.576z M73.143,27.464
		c0-5.062,4.071-9.179,9.08-9.179H310.92c5.089,0,9.08,4.049,9.08,9.219v65.607c-10.619,3.782-18.286,13.826-18.286,25.719v3.813
		c-7.536,2.125-14.768,5.125-21.607,8.96l-2.705-2.701c-10.688-10.688-28.08-10.67-38.768,0.018
		c-5.196,5.201-8.062,12.098-8.053,19.411c0,7.308,2.857,14.183,8.036,19.353l2.696,2.705c-3.83,6.848-6.83,14.08-8.955,21.612
		h-3.813c-15.107,0-27.402,12.303-27.402,27.428c0,15.125,12.295,27.429,27.402,27.429h3.813c2.125,7.531,5.125,14.763,8.955,21.612
		l-2.696,2.701c-10.688,10.683-10.679,28.076,0.018,38.768c5.196,5.196,12.08,8.058,19.393,8.058c0.009,0,0.009,0,0.018,0
		c7.304-0.005,14.179-2.857,19.357-8.036l2.705-2.705c6.839,3.835,14.071,6.835,21.607,8.96v3.813
		c0,11.893,7.666,21.936,18.286,25.719v56.321H73.143V27.464z M429.741,228.571h-11c-4.348,0-8.098,3.062-8.964,7.326
		c-2.089,10.339-6.125,20.062-11.982,28.902c-2.402,3.625-1.911,8.437,1.161,11.513l7.786,7.79c1.732,1.723,2.679,4.009,2.679,6.433
		c0.009,2.429-0.955,4.728-2.696,6.473c-3.563,3.554-9.348,3.576-12.911,0.013l-7.786-7.781c-3.08-3.067-7.902-3.545-11.509-1.152
		c-8.839,5.848-18.563,9.88-28.902,11.978c-4.268,0.862-7.33,4.612-7.33,8.96v11c0,5.112-4.018,9.116-9.143,9.116
		c-5.045,0-9.143-4.089-9.143-9.116v-11c0-4.348-3.062-8.098-7.33-8.96c-10.339-2.098-20.062-6.129-28.902-11.978
		c-1.536-1.022-3.295-1.522-5.045-1.522c-2.357,0-4.696,0.911-6.464,2.674l-7.786,7.786c-1.732,1.728-4.018,2.683-6.437,2.683
		c-0.009,0-0.009,0-0.009,0c-2.429,0-4.723-0.955-6.464-2.701c-3.563-3.563-3.571-9.357-0.018-12.915l7.777-7.786
		c3.072-3.072,3.554-7.884,1.161-11.504c-5.848-8.844-9.884-18.571-11.973-28.906c-0.866-4.264-4.616-7.326-8.965-7.326h-11
		c-5.027,0-9.116-4.103-9.116-9.143c0-5.04,4.089-9.143,9.116-9.143h11c4.348,0,8.098-3.062,8.964-7.326
		c2.089-10.335,6.125-20.062,11.973-28.906c2.393-3.621,1.911-8.433-1.161-11.504l-7.777-7.795
		c-1.732-1.723-2.679-4.009-2.679-6.433c-0.009-2.429,0.955-4.728,2.696-6.473c3.554-3.563,9.339-3.585,12.911-0.013l7.786,7.781
		c3.08,3.076,7.902,3.549,11.509,1.152c8.839-5.848,18.563-9.88,28.902-11.978c4.268-0.862,7.33-4.612,7.33-8.96v-11
		c0-5.111,4.018-9.116,9.143-9.116c5.045,0,9.143,4.089,9.143,9.116v11c0,4.348,3.062,8.098,7.33,8.96
		c10.339,2.098,20.062,6.129,28.902,11.978c3.607,2.397,8.429,1.924,11.509-1.152l7.795-7.79c1.723-1.728,4.009-2.679,6.429-2.679
		c0,0,0,0,0.009,0c2.429,0,4.723,0.955,6.464,2.701c3.563,3.563,3.571,9.357,0.018,12.911l-7.786,7.786
		c-3.072,3.076-3.563,7.888-1.161,11.513c5.857,8.839,9.893,18.563,11.982,28.902c0.866,4.264,4.616,7.326,8.964,7.326h11
		c5.027,0,9.116,4.103,9.116,9.143C438.857,224.469,434.768,228.571,429.741,228.571z"/>
	<path style="fill:#314E55;" d="M329.143,182.857c-20.17,0-36.571,16.406-36.571,36.571S308.973,256,329.143,256
		c20.17,0,36.571-16.406,36.571-36.571S349.312,182.857,329.143,182.857z M329.143,237.714c-10.08,0-18.286-8.201-18.286-18.286
		c0-10.085,8.205-18.286,18.286-18.286c10.08,0,18.286,8.201,18.286,18.286C347.429,229.513,339.223,237.714,329.143,237.714z"/>
</g>
<g>
</g>
<g>
</g>
<g>
</g>
<g>
</g>
<g>
</g>
<g>
</g>
<g>
</g>
<g>
</g>
<g>
</g>
<g>
</g>
<g>
</g>
<g>
</g>
<g>
</g>
<g>
</g>
<g>
</g>
</svg>
