<?xml version="1.0" encoding="iso-8859-1"?>
<!-- Generator: Adobe Illustrator 19.0.0, SVG Export Plug-In . SVG Version: 6.00 Build 0)  -->
<svg version="1.1" id="Layer_1" xmlns="http://www.w3.org/2000/svg" xmlns:xlink="http://www.w3.org/1999/xlink" x="0px" y="0px"
	 viewBox="0 0 512 512" style="enable-background:new 0 0 512 512;" xml:space="preserve">
<g>
	<path style="fill:#EAEAEA;" d="M256,273.655c-38.94,0-70.621,31.681-70.621,70.621S217.06,414.897,256,414.897
		s70.621-31.681,70.621-70.621S294.94,273.655,256,273.655z M256,379.586c-19.47,0-35.31-15.836-35.31-35.31
		c0-19.474,15.84-35.31,35.31-35.31s35.31,15.836,35.31,35.31C291.31,363.75,275.47,379.586,256,379.586z"/>
	<path style="fill:#EAEAEA;" d="M256,326.621c-9.737,0-17.655,7.922-17.655,17.655c0,9.733,7.918,17.655,17.655,17.655
		s17.655-7.922,17.655-17.655C273.655,334.543,265.737,326.621,256,326.621z"/>
	<path style="fill:#EAEAEA;" d="M256,238.345c-58.409,0-105.931,47.517-105.931,105.931S197.591,450.207,256,450.207
		s105.931-47.517,105.931-105.931S314.409,238.345,256,238.345z M256,432.552c-48.677,0-88.276-39.603-88.276-88.276
		S207.323,256,256,256s88.276,39.603,88.276,88.276S304.677,432.552,256,432.552z"/>
</g>
<polygon style="fill:#73C9C9;" points="211.862,97.103 229.517,97.103 229.517,132.414 335.448,132.414 335.448,70.621 
	176.552,70.621 176.552,132.414 211.862,132.414 "/>
<path style="fill:#E4AD40;" d="M414.922,17.655H97.078c-4.853,0-8.802,3.931-8.802,8.767v459.155c0,4.836,3.948,8.767,8.802,8.767
	h317.845c4.853,0,8.802-3.931,8.802-8.767V26.423C423.724,21.586,419.776,17.655,414.922,17.655z M158.897,61.793
	c0-4.879,3.953-8.828,8.828-8.828h176.552c4.875,0,8.828,3.948,8.828,8.828v79.448c0,4.879-3.953,8.828-8.828,8.828H167.724
	c-4.875,0-8.828-3.948-8.828-8.828V61.793z M256,467.862c-68.147,0-123.586-55.44-123.586-123.586S187.853,220.69,256,220.69
	s123.586,55.44,123.586,123.586S324.147,467.862,256,467.862z"/>
<g>
	<path style="fill:#314E55;" d="M414.922,0H97.078c-14.59,0-26.457,11.853-26.457,26.423v459.155
		c0,14.569,11.866,26.422,26.457,26.422h317.845c14.59,0,26.457-11.853,26.457-26.423V26.423C441.379,11.853,429.513,0,414.922,0z
		 M423.724,485.577c0,4.836-3.948,8.767-8.802,8.767H97.078c-4.853,0-8.802-3.931-8.802-8.767V26.423
		c0-4.836,3.948-8.767,8.802-8.767h317.845c4.853,0,8.802,3.931,8.802,8.767V485.577z"/>
	<path style="fill:#314E55;" d="M167.724,150.069h176.552c4.875,0,8.828-3.948,8.828-8.828V61.793c0-4.879-3.953-8.828-8.828-8.828
		H167.724c-4.875,0-8.828,3.948-8.828,8.828v79.448C158.897,146.121,162.849,150.069,167.724,150.069z M176.552,70.621h158.897
		v61.793H229.517v-35.31h-17.655v35.31h-35.31V70.621z"/>
	<path style="fill:#314E55;" d="M256,220.69c-68.147,0-123.586,55.44-123.586,123.586S187.853,467.862,256,467.862
		s123.586-55.44,123.586-123.586S324.147,220.69,256,220.69z M256,450.207c-58.409,0-105.931-47.517-105.931-105.931
		S197.591,238.345,256,238.345s105.931,47.517,105.931,105.931S314.409,450.207,256,450.207z"/>
	<path style="fill:#314E55;" d="M256,256c-48.677,0-88.276,39.603-88.276,88.276s39.599,88.276,88.276,88.276
		s88.276-39.603,88.276-88.276S304.677,256,256,256z M256,414.897c-38.94,0-70.621-31.681-70.621-70.621S217.06,273.655,256,273.655
		s70.621,31.681,70.621,70.621S294.94,414.897,256,414.897z"/>
	<path style="fill:#314E55;" d="M256,308.966c-19.47,0-35.31,15.836-35.31,35.31c0,19.474,15.84,35.31,35.31,35.31
		s35.31-15.836,35.31-35.31C291.31,324.802,275.47,308.966,256,308.966z M256,361.931c-9.737,0-17.655-7.922-17.655-17.655
		c0-9.733,7.918-17.655,17.655-17.655s17.655,7.922,17.655,17.655C273.655,354.009,265.737,361.931,256,361.931z"/>
</g>
<g>
</g>
<g>
</g>
<g>
</g>
<g>
</g>
<g>
</g>
<g>
</g>
<g>
</g>
<g>
</g>
<g>
</g>
<g>
</g>
<g>
</g>
<g>
</g>
<g>
</g>
<g>
</g>
<g>
</g>
</svg>
