<?xml version="1.0" encoding="iso-8859-1"?>
<!-- Generator: Adobe Illustrator 19.0.0, SVG Export Plug-In . SVG Version: 6.00 Build 0)  -->
<svg version="1.1" id="Layer_1" xmlns="http://www.w3.org/2000/svg" xmlns:xlink="http://www.w3.org/1999/xlink" x="0px" y="0px"
	 viewBox="0 0 512 512" style="enable-background:new 0 0 512 512;" xml:space="preserve">
<circle style="fill:#FFFFFF;" cx="256" cy="457.143" r="9.143"/>
<path style="fill:#5ECC66;" d="M256,356.571c70.58,0,128-57.42,128-128s-57.42-128-128-128s-128,57.42-128,128
	S185.42,356.571,256,356.571z M283.429,173.714c0-5.053,4.089-9.143,9.143-9.143s9.143,4.089,9.143,9.143v27.429
	c0,5.053-4.089,9.143-9.143,9.143s-9.143-4.089-9.143-9.143V173.714z M210.286,173.714c0-5.053,4.089-9.143,9.143-9.143
	c5.053,0,9.143,4.089,9.143,9.143v27.429c0,5.053-4.089,9.143-9.143,9.143c-5.053,0-9.143-4.089-9.143-9.143V173.714z
	 M164.571,219.429c5.053,0,9.143,4.089,9.143,9.143c0,45.375,36.911,82.286,82.286,82.286s82.286-36.911,82.286-82.286
	c0-5.053,4.089-9.143,9.143-9.143s9.143,4.089,9.143,9.143c0,55.455-45.116,100.571-100.571,100.571
	s-100.571-45.116-100.571-100.571C155.429,223.518,159.518,219.429,164.571,219.429z"/>
<path style="fill:#E4D759;" d="M73.187,402.286h365.625c5.062,0,9.187-4.125,9.187-9.187V27.473c0-5.062-4.125-9.187-9.187-9.187
	H73.187c-5.062,0-9.187,4.125-9.187,9.187v365.625C64,398.161,68.125,402.286,73.187,402.286z M256,82.286
	c80.661,0,146.286,65.625,146.286,146.286S336.661,374.857,256,374.857s-146.286-65.625-146.286-146.286S175.339,82.286,256,82.286z
	"/>
<path style="fill:#EAEAEA;" d="M73.187,420.571H64v64c0,5.125,4.036,9.143,9.187,9.143h365.625c5.062,0,9.187-4.098,9.187-9.143v-64
	h-9.187H73.187z M256,484.571c-15.125,0-27.429-12.304-27.429-27.429s12.304-27.429,27.429-27.429
	c15.125,0,27.429,12.304,27.429,27.429S271.125,484.571,256,484.571z"/>
<g>
	<path style="fill:#314E55;" d="M466.286,27.473C466.286,12.321,453.964,0,438.813,0H73.187C58.036,0,45.714,12.321,45.714,27.473
		v365.625c0,4.241,1.046,8.211,2.769,11.801c-1.7,1.66-2.769,3.962-2.769,6.529v73.143c0,15.125,12.321,27.429,27.473,27.429
		h365.625c15.152,0,27.473-12.304,27.473-27.429v-73.143c0-2.567-1.069-4.869-2.769-6.529c1.723-3.59,2.769-7.56,2.769-11.801
		V27.473z M64,27.473c0-5.062,4.125-9.187,9.187-9.187h365.625c5.063,0,9.188,4.125,9.188,9.187v365.625
		c0,5.062-4.125,9.187-9.187,9.187H73.187c-5.062,0-9.187-4.125-9.187-9.187V27.473z M448,484.571c0,5.045-4.125,9.143-9.187,9.143
		H73.187c-5.152,0-9.187-4.018-9.187-9.143v-64h9.187h365.625H448V484.571z"/>
	<path style="fill:#314E55;" d="M256,429.714c-15.125,0-27.429,12.304-27.429,27.429s12.304,27.429,27.429,27.429
		c15.125,0,27.429-12.304,27.429-27.429S271.125,429.714,256,429.714z M256,466.286c-5.045,0-9.143-4.098-9.143-9.143
		c0-5.045,4.098-9.143,9.143-9.143c5.045,0,9.143,4.098,9.143,9.143C265.143,462.187,261.045,466.286,256,466.286z"/>
	<path style="fill:#314E55;" d="M256,374.857c80.661,0,146.286-65.625,146.286-146.286S336.661,82.286,256,82.286
		s-146.286,65.625-146.286,146.286S175.339,374.857,256,374.857z M256,100.571c70.58,0,128,57.42,128,128s-57.42,128-128,128
		s-128-57.42-128-128S185.42,100.571,256,100.571z"/>
	<path style="fill:#314E55;" d="M256,329.143c55.455,0,100.571-45.116,100.571-100.571c0-5.053-4.089-9.143-9.143-9.143
		s-9.143,4.089-9.143,9.143c0,45.375-36.911,82.286-82.286,82.286s-82.286-36.911-82.286-82.286c0-5.053-4.089-9.143-9.143-9.143
		c-5.053,0-9.143,4.089-9.143,9.143C155.429,284.027,200.545,329.143,256,329.143z"/>
	<path style="fill:#314E55;" d="M219.429,210.286c5.053,0,9.143-4.089,9.143-9.143v-27.429c0-5.053-4.089-9.143-9.143-9.143
		c-5.053,0-9.143,4.089-9.143,9.143v27.429C210.286,206.196,214.375,210.286,219.429,210.286z"/>
	<path style="fill:#314E55;" d="M292.571,210.286c5.053,0,9.143-4.089,9.143-9.143v-27.429c0-5.053-4.089-9.143-9.143-9.143
		s-9.143,4.089-9.143,9.143v27.429C283.429,206.196,287.518,210.286,292.571,210.286z"/>
</g>
<g>
</g>
<g>
</g>
<g>
</g>
<g>
</g>
<g>
</g>
<g>
</g>
<g>
</g>
<g>
</g>
<g>
</g>
<g>
</g>
<g>
</g>
<g>
</g>
<g>
</g>
<g>
</g>
<g>
</g>
</svg>
