<?xml version="1.0" encoding="iso-8859-1"?>
<!-- Generator: Adobe Illustrator 19.0.0, SVG Export Plug-In . SVG Version: 6.00 Build 0)  -->
<svg version="1.1" id="Layer_1" xmlns="http://www.w3.org/2000/svg" xmlns:xlink="http://www.w3.org/1999/xlink" x="0px" y="0px"
	 viewBox="0 0 512 512" style="enable-background:new 0 0 512 512;" xml:space="preserve">
<g>
	<path style="fill:#73C9C9;" d="M287.35,321.164c0.415,0,0.818-0.032,1.232-0.035v-46.51H185.614
		C194.106,300.639,237.186,321.164,287.35,321.164z"/>
	<path style="fill:#73C9C9;" d="M307.2,210.555V256h81.886C381.74,233.491,348.53,215.107,307.2,210.555z"/>
	<path style="fill:#73C9C9;" d="M389.086,274.618H307.2v45.445C348.53,315.511,381.74,297.127,389.086,274.618z"/>
	<path style="fill:#73C9C9;" d="M307.2,191.867c37.027,3.564,67.96,16.913,85.757,35.778
		c-13.384-37.297-45.945-65.397-85.757-72.298V191.867z"/>
</g>
<path style="fill:#D8D8D8;" d="M93.091,60.509H27.923c-5.218,0-9.304,4.109-9.304,9.354v372.273c0,5.155,4.173,9.355,9.304,9.355
	h65.168v-9.354V69.864V60.509z M55.855,283.927c-15.4,0-27.927-12.527-27.927-27.927s12.527-27.927,27.927-27.927
	S83.782,240.6,83.782,256S71.255,283.927,55.855,283.927z"/>
<circle style="fill:#314E55;" cx="55.855" cy="256" r="9.309"/>
<path style="fill:#73C9C9;" d="M185.614,256h102.968v-46.51c-0.414-0.003-0.817-0.035-1.232-0.035
	C237.186,209.455,194.106,229.979,185.614,256z"/>
<path style="fill:#EAEAEA;" d="M484.055,60.509H121.036c-5.141,0-9.327,4.2-9.327,9.354v372.273c0,5.155,4.186,9.355,9.327,9.355
	h363.018c5.141,0,9.327-4.2,9.327-9.354V69.864C493.382,64.709,489.195,60.509,484.055,60.509z M418.255,274.618h-0.493
	c-4.796,67.518-60.997,121.018-129.561,121.018c-71.7,0-130.036-58.464-130.036-130.327S216.5,134.982,288.2,134.982
	c68.565,0,124.765,53.5,129.561,121.018h0.493V274.618z"/>
<g>
	<path style="fill:#73C9C9;" d="M307.2,338.751v36.519c39.812-6.901,72.374-35.001,85.757-72.298
		C375.16,321.838,344.227,335.188,307.2,338.751z"/>
	<path style="fill:#73C9C9;" d="M288.582,376.064v-36.319c-0.415,0.002-0.815,0.037-1.232,0.037
		c-43.805,0-81.444-13.453-102.91-34.07c16.196,41.662,56.545,71.307,103.76,71.307c4.693,0,9.288-0.387,13.83-0.955H288.582z"/>
	<path style="fill:#73C9C9;" d="M287.35,190.836c0.417,0,0.816,0.035,1.232,0.037v-37.254c-0.129,0-0.253-0.019-0.382-0.019
		c-47.215,0-87.564,29.645-103.76,71.307C205.906,204.289,243.545,190.836,287.35,190.836z"/>
</g>
<g>
	<path style="fill:#314E55;" d="M484.055,41.891H121.036c-4.31,0-8.345,1.063-11.994,2.814c-1.69-1.729-4.033-2.814-6.643-2.814
		H27.923C12.527,41.891,0,54.436,0,69.864v372.273c0,15.427,12.527,27.973,27.923,27.973H102.4c2.609,0,4.952-1.085,6.643-2.814
		c3.649,1.751,7.684,2.814,11.994,2.814h363.018c15.409,0,27.945-12.545,27.945-27.973V69.864
		C512,54.436,499.464,41.891,484.055,41.891z M93.091,451.491H27.923c-5.132,0-9.304-4.2-9.304-9.354V69.864
		c0-5.245,4.086-9.354,9.304-9.354h65.168v9.354v372.273V451.491z M493.382,442.136c0,5.154-4.186,9.354-9.327,9.354H121.036
		c-5.141,0-9.327-4.2-9.327-9.354V69.864c0-5.154,4.186-9.354,9.327-9.354h363.018c5.141,0,9.327,4.2,9.327,9.354V442.136z"/>
	<path style="fill:#314E55;" d="M55.855,228.073c-15.4,0-27.927,12.527-27.927,27.927s12.527,27.927,27.927,27.927
		S83.782,271.4,83.782,256S71.255,228.073,55.855,228.073z M55.855,265.309c-5.132,0-9.309-4.173-9.309-9.309
		c0-5.136,4.177-9.309,9.309-9.309s9.309,4.173,9.309,9.309C65.164,261.136,60.986,265.309,55.855,265.309z"/>
	<path style="fill:#314E55;" d="M288.2,134.982c-71.7,0-130.036,58.464-130.036,130.327S216.5,395.636,288.2,395.636
		c68.565,0,124.765-53.5,129.561-121.018h0.493V256h-0.493C412.965,188.482,356.765,134.982,288.2,134.982z M288.582,256H185.614
		c8.492-26.021,51.572-46.545,101.736-46.545c0.415,0,0.818,0.032,1.232,0.035V256z M307.2,210.555
		c41.33,4.552,74.54,22.936,81.886,45.445H307.2V210.555z M288.582,274.618v46.51c-0.414,0.003-0.817,0.035-1.232,0.035
		c-50.164,0-93.244-20.525-101.736-46.545H288.582z M307.2,274.618h81.886c-7.345,22.509-40.556,40.893-81.886,45.445V274.618z
		 M392.957,227.645c-17.798-18.865-48.73-32.215-85.757-35.778v-36.519C347.012,162.249,379.574,190.349,392.957,227.645z
		 M288.2,153.6c0.129,0,0.253,0.019,0.382,0.019v37.254c-0.415-0.002-0.815-0.037-1.232-0.037c-43.805,0-81.444,13.453-102.91,34.07
		C200.636,183.245,240.985,153.6,288.2,153.6z M184.44,305.711c21.466,20.618,59.105,34.07,102.91,34.07
		c0.417,0,0.816-0.035,1.232-0.037v36.319h13.448c-4.542,0.568-9.138,0.955-13.83,0.955
		C240.985,377.018,200.636,347.373,184.44,305.711z M307.2,375.27v-36.519c37.027-3.564,67.96-16.913,85.757-35.778
		C379.574,340.269,347.012,368.369,307.2,375.27z"/>
</g>
<g>
</g>
<g>
</g>
<g>
</g>
<g>
</g>
<g>
</g>
<g>
</g>
<g>
</g>
<g>
</g>
<g>
</g>
<g>
</g>
<g>
</g>
<g>
</g>
<g>
</g>
<g>
</g>
<g>
</g>
</svg>
