<?xml version="1.0" encoding="iso-8859-1"?>
<!-- Generator: Adobe Illustrator 19.0.0, SVG Export Plug-In . SVG Version: 6.00 Build 0)  -->
<svg version="1.1" id="Layer_1" xmlns="http://www.w3.org/2000/svg" xmlns:xlink="http://www.w3.org/1999/xlink" x="0px" y="0px"
	 viewBox="0 0 512 512" style="enable-background:new 0 0 512 512;" xml:space="preserve">
<g>
	<polygon style="fill:#F28544;" points="97.103,202.953 61.793,203.034 61.793,238.427 97.181,238.345 	"/>
	<polygon style="fill:#F28544;" points="97.103,291.228 61.793,291.31 61.793,326.703 97.181,326.621 	"/>
	<polygon style="fill:#F28544;" points="220.69,291.31 220.69,326.703 256.078,326.621 256,291.228 	"/>
	<polygon style="fill:#F28544;" points="97.103,114.677 61.793,114.759 61.793,150.151 97.181,150.069 	"/>
	<polygon style="fill:#F28544;" points="176.552,202.953 141.241,203.034 141.241,238.427 176.629,238.345 	"/>
	<polygon style="fill:#F28544;" points="176.552,291.228 141.241,291.31 141.241,326.703 176.629,326.621 	"/>
	<polygon style="fill:#F28544;" points="176.552,114.677 141.241,114.759 141.241,150.151 176.629,150.069 	"/>
	<polygon style="fill:#F28544;" points="220.69,203.034 220.69,238.427 256.078,238.345 256,202.953 	"/>
</g>
<path style="fill:#D8D8D8;" d="M485.577,26.483H26.423c-4.836,0-8.767,3.97-8.767,8.845v441.345c0,4.875,3.931,8.845,8.767,8.845
	h459.155c4.836,0,8.767-3.97,8.767-8.845V35.328C494.345,30.453,490.414,26.483,485.577,26.483z M123.586,114.677
	c0-9.69,7.879-17.573,17.569-17.573h35.474c9.69,0,17.578,7.884,17.578,17.573v35.474c0,9.69-7.888,17.573-17.577,17.573h-35.474
	c-9.69,0-17.569-7.884-17.569-17.573V114.677z M123.586,202.953c0-9.69,7.879-17.573,17.569-17.573h35.474
	c9.69,0,17.578,7.884,17.578,17.573v35.474c0,9.69-7.888,17.573-17.577,17.573h-35.474c-9.69,0-17.569-7.884-17.569-17.573V202.953z
	 M123.586,291.228c0-9.69,7.879-17.573,17.569-17.573h35.474c9.69,0,17.578,7.884,17.578,17.573v35.474
	c0,9.69-7.888,17.573-17.577,17.573h-35.474c-9.69,0-17.569-7.884-17.569-17.573V291.228z M44.138,114.677
	c0-9.69,7.879-17.573,17.569-17.573h35.474c9.69,0,17.578,7.884,17.578,17.573v35.474c0,9.69-7.888,17.573-17.577,17.573H61.707
	c-9.69,0-17.569-7.884-17.569-17.573V114.677z M44.138,202.953c0-9.69,7.879-17.573,17.569-17.573h35.474
	c9.69,0,17.578,7.884,17.578,17.573v35.474c0,9.69-7.888,17.573-17.577,17.573H61.707c-9.69,0-17.569-7.884-17.569-17.573V202.953z
	 M44.138,326.703v-35.474c0-9.69,7.879-17.573,17.569-17.573h35.474c9.69,0,17.578,7.884,17.578,17.573v35.474
	c0,9.69-7.888,17.573-17.577,17.573H61.707C52.017,344.276,44.138,336.392,44.138,326.703z M220.69,423.724h-128
	c-4.879,0-8.828-3.953-8.828-8.828s3.948-8.828,8.828-8.828h128c4.879,0,8.828,3.953,8.828,8.828S225.569,423.724,220.69,423.724z
	 M220.69,388.414h-128c-4.879,0-8.828-3.953-8.828-8.828s3.948-8.828,8.828-8.828h128c4.879,0,8.828,3.953,8.828,8.828
	S225.569,388.414,220.69,388.414z M273.655,326.703c0,9.69-7.888,17.573-17.577,17.573h-35.474c-9.69,0-17.569-7.884-17.569-17.573
	v-35.474c0-9.69,7.879-17.573,17.569-17.573h35.474c9.69,0,17.577,7.884,17.577,17.573L273.655,326.703L273.655,326.703z
	 M273.655,238.427c0,9.69-7.888,17.573-17.577,17.573h-35.474c-9.69,0-17.569-7.884-17.569-17.573v-35.474
	c0-9.69,7.879-17.573,17.569-17.573h35.474c9.69,0,17.578,7.884,17.578,17.573V238.427z M273.655,150.151
	c0,9.69-7.888,17.573-17.577,17.573h-35.474c-9.69,0-17.569-7.884-17.569-17.573v-35.474c0-9.69,7.879-17.573,17.569-17.573h35.474
	c9.69,0,17.578,7.884,17.578,17.573V150.151z M459.034,379.642c0,43.776-35.638,79.392-79.448,79.392s-79.448-35.616-79.448-79.392
	V132.358c0-43.776,35.638-79.392,79.448-79.392s79.448,35.616,79.448,79.392V379.642z"/>
<path style="fill:#EAEAEA;" d="M379.586,70.621c-34.069,0-61.793,27.694-61.793,61.737v247.285
	c0,34.043,27.724,61.737,61.793,61.737s61.793-27.694,61.793-61.737V132.358C441.379,98.315,413.655,70.621,379.586,70.621z"/>
<polygon style="fill:#F28544;" points="220.69,114.759 220.69,150.151 256.078,150.069 256,114.677 "/>
<g>
	<path style="fill:#314E55;" d="M485.577,8.828H26.423C11.853,8.828,0,20.715,0,35.328v441.345c0,14.612,11.853,26.5,26.423,26.5
		h459.155c14.569,0,26.422-11.888,26.422-26.5V35.328C512,20.715,500.147,8.828,485.577,8.828z M494.345,476.672
		c0,4.875-3.931,8.845-8.767,8.845H26.423c-4.836,0-8.767-3.97-8.767-8.845V35.328c0-4.875,3.931-8.845,8.767-8.845h459.155
		c4.836,0,8.767,3.97,8.767,8.845V476.672z"/>
	<path style="fill:#314E55;" d="M379.586,52.966c-43.81,0-79.448,35.616-79.448,79.392v247.285
		c0,43.776,35.638,79.392,79.448,79.392s79.448-35.616,79.448-79.392V132.358C459.034,88.582,423.397,52.966,379.586,52.966z
		 M441.379,379.642c0,34.043-27.724,61.737-61.793,61.737s-61.793-27.694-61.793-61.737V132.358
		c0-34.043,27.724-61.737,61.793-61.737s61.793,27.694,61.793,61.737V379.642z"/>
	<path style="fill:#314E55;" d="M61.707,167.724h35.474c9.69,0,17.578-7.884,17.578-17.573v-35.474
		c0-9.69-7.888-17.573-17.577-17.573H61.707c-9.69,0-17.569,7.884-17.569,17.573v35.474
		C44.138,159.84,52.017,167.724,61.707,167.724z M61.793,114.759l35.31-0.082l0.078,35.392l-35.388,0.082V114.759z"/>
	<path style="fill:#314E55;" d="M141.155,167.724h35.474c9.69,0,17.578-7.884,17.578-17.573v-35.474
		c0-9.69-7.888-17.573-17.577-17.573h-35.474c-9.69,0-17.569,7.884-17.569,17.573v35.474
		C123.586,159.84,131.465,167.724,141.155,167.724z M141.241,114.759l35.31-0.082l0.078,35.392l-35.388,0.082V114.759z"/>
	<path style="fill:#314E55;" d="M256.078,97.103h-35.474c-9.69,0-17.569,7.884-17.569,17.573v35.474
		c0,9.69,7.879,17.573,17.569,17.573h35.474c9.69,0,17.578-7.884,17.578-17.573v-35.474
		C273.655,104.987,265.767,97.103,256.078,97.103z M220.69,150.151v-35.392l35.31-0.082l0.078,35.392L220.69,150.151z"/>
	<path style="fill:#314E55;" d="M61.707,256h35.474c9.69,0,17.578-7.884,17.578-17.573v-35.474c0-9.69-7.888-17.573-17.577-17.573
		H61.707c-9.69,0-17.569,7.884-17.569,17.573v35.474C44.138,248.116,52.017,256,61.707,256z M61.793,203.034l35.31-0.082
		l0.078,35.392l-35.388,0.082V203.034z"/>
	<path style="fill:#314E55;" d="M141.155,256h35.474c9.69,0,17.578-7.884,17.578-17.573v-35.474c0-9.69-7.888-17.573-17.577-17.573
		h-35.474c-9.69,0-17.569,7.884-17.569,17.573v35.474C123.586,248.116,131.465,256,141.155,256z M141.241,203.034l35.31-0.082
		l0.078,35.392l-35.388,0.082V203.034z"/>
	<path style="fill:#314E55;" d="M256.078,185.379h-35.474c-9.69,0-17.569,7.884-17.569,17.573v35.474
		c0,9.69,7.879,17.573,17.569,17.573h35.474c9.69,0,17.577-7.884,17.577-17.573v-35.474
		C273.655,193.263,265.767,185.379,256.078,185.379z M220.69,238.427v-35.392l35.31-0.082l0.078,35.392L220.69,238.427z"/>
	<path style="fill:#314E55;" d="M114.759,326.703v-35.474c0-9.69-7.888-17.573-17.577-17.573H61.707
		c-9.69,0-17.569,7.884-17.569,17.573v35.474c0,9.69,7.879,17.573,17.569,17.573h35.474
		C106.871,344.276,114.759,336.392,114.759,326.703z M61.793,291.31l35.31-0.082l0.078,35.392l-35.388,0.082V291.31z"/>
	<path style="fill:#314E55;" d="M141.155,344.276h35.474c9.69,0,17.578-7.884,17.578-17.573v-35.474
		c0-9.69-7.888-17.573-17.577-17.573h-35.474c-9.69,0-17.569,7.884-17.569,17.573v35.474
		C123.586,336.392,131.465,344.276,141.155,344.276z M141.241,291.31l35.31-0.082l0.078,35.392l-35.388,0.082V291.31z"/>
	<path style="fill:#314E55;" d="M256.078,273.655h-35.474c-9.69,0-17.569,7.884-17.569,17.573v35.474
		c0,9.69,7.879,17.573,17.569,17.573h35.474c9.69,0,17.577-7.884,17.577-17.573v-35.474
		C273.655,281.539,265.767,273.655,256.078,273.655z M220.69,326.703V291.31l35.31-0.082l0.078,35.392L220.69,326.703z"/>
	<path style="fill:#314E55;" d="M220.69,370.759h-128c-4.879,0-8.828,3.953-8.828,8.828s3.948,8.828,8.828,8.828h128
		c4.879,0,8.828-3.953,8.828-8.828S225.569,370.759,220.69,370.759z"/>
	<path style="fill:#314E55;" d="M220.69,406.069h-128c-4.879,0-8.828,3.953-8.828,8.828s3.948,8.828,8.828,8.828h128
		c4.879,0,8.828-3.953,8.828-8.828S225.569,406.069,220.69,406.069z"/>
</g>
<g>
</g>
<g>
</g>
<g>
</g>
<g>
</g>
<g>
</g>
<g>
</g>
<g>
</g>
<g>
</g>
<g>
</g>
<g>
</g>
<g>
</g>
<g>
</g>
<g>
</g>
<g>
</g>
<g>
</g>
</svg>
