<?xml version="1.0" encoding="iso-8859-1"?>
<!-- Generator: Adobe Illustrator 19.0.0, SVG Export Plug-In . SVG Version: 6.00 Build 0)  -->
<svg version="1.1" id="Layer_1" xmlns="http://www.w3.org/2000/svg" xmlns:xlink="http://www.w3.org/1999/xlink" x="0px" y="0px"
	 viewBox="0 0 512 512" style="enable-background:new 0 0 512 512;" xml:space="preserve">
<path style="fill:#73C9C9;" d="M195.254,160.542c-55.03,0-99.797,44.771-99.797,99.797s44.767,99.797,99.797,99.797
	s99.797-44.771,99.797-99.797S250.284,160.542,195.254,160.542z M195.254,299.39c-21.534,0-39.051-17.517-39.051-39.051
	s17.517-39.051,39.051-39.051s39.051,17.517,39.051,39.051S216.788,299.39,195.254,299.39z"/>
<g>
	<circle style="fill:#314E55;" cx="60.746" cy="151.864" r="8.678"/>
	<circle style="fill:#314E55;" cx="60.746" cy="360.136" r="8.678"/>
</g>
<path style="fill:#EAEAEA;" d="M195.254,238.644c-11.962,0-21.695,9.729-21.695,21.695c0,11.966,9.733,21.695,21.695,21.695
	s21.695-9.729,21.695-21.695C216.949,248.373,207.216,238.644,195.254,238.644z"/>
<path style="fill:#F58CAC;" d="M486.008,108.475H25.992c-4.763,0-8.636,3.89-8.636,8.678v277.695c0,4.788,3.873,8.678,8.636,8.678
	h460.017c4.763,0,8.636-3.89,8.636-8.678V117.153C494.644,112.364,490.771,108.475,486.008,108.475z M60.746,125.831
	c14.356,0,26.034,11.678,26.034,26.034s-11.678,26.034-26.034,26.034s-26.034-11.678-26.034-26.034S46.39,125.831,60.746,125.831z
	 M60.746,386.169c-14.356,0-26.034-11.678-26.034-26.034s11.678-26.034,26.034-26.034S86.78,345.78,86.78,360.136
	S75.102,386.169,60.746,386.169z M195.254,377.492c-64.597,0-117.153-52.551-117.153-117.153s52.555-117.153,117.153-117.153
	s117.153,52.551,117.153,117.153S259.852,377.492,195.254,377.492z M446.915,160.542H425.22v167.983l-35.898,41.407l-13.11-11.373
	l31.653-36.508V160.542h-21.695v-17.356h60.746V160.542z"/>
<g>
	<path style="fill:#314E55;" d="M486.008,91.119H25.992C11.661,91.119,0,102.797,0,117.153v277.695
		c0,14.356,11.661,26.034,25.992,26.034h460.017c14.33,0,25.991-11.678,25.991-26.034V117.153
		C512,102.797,500.339,91.119,486.008,91.119z M494.644,394.847c0,4.788-3.873,8.678-8.636,8.678H25.992
		c-4.763,0-8.636-3.89-8.636-8.678V117.153c0-4.788,3.873-8.678,8.636-8.678h460.017c4.762,0,8.635,3.89,8.635,8.678V394.847z"/>
	<path style="fill:#314E55;" d="M60.746,177.898c14.356,0,26.034-11.678,26.034-26.034s-11.678-26.034-26.034-26.034
		s-26.034,11.678-26.034,26.034S46.39,177.898,60.746,177.898z M60.746,143.186c4.784,0,8.678,3.89,8.678,8.678
		s-3.894,8.678-8.678,8.678s-8.678-3.89-8.678-8.678S55.962,143.186,60.746,143.186z"/>
	<path style="fill:#314E55;" d="M60.746,334.102c-14.356,0-26.034,11.678-26.034,26.034s11.678,26.034,26.034,26.034
		s26.034-11.678,26.034-26.034S75.102,334.102,60.746,334.102z M60.746,368.814c-4.784,0-8.678-3.89-8.678-8.678
		c0-4.788,3.894-8.678,8.678-8.678s8.678,3.89,8.678,8.678C69.424,364.924,65.53,368.814,60.746,368.814z"/>
	<path style="fill:#314E55;" d="M195.254,143.186c-64.597,0-117.153,52.551-117.153,117.153s52.555,117.153,117.153,117.153
		s117.153-52.551,117.153-117.153S259.852,143.186,195.254,143.186z M195.254,360.136c-55.03,0-99.797-44.771-99.797-99.797
		s44.767-99.797,99.797-99.797s99.797,44.771,99.797,99.797S250.284,360.136,195.254,360.136z"/>
	<path style="fill:#314E55;" d="M195.254,221.288c-21.534,0-39.051,17.517-39.051,39.051s17.517,39.051,39.051,39.051
		s39.051-17.517,39.051-39.051S216.788,221.288,195.254,221.288z M195.254,282.034c-11.962,0-21.695-9.729-21.695-21.695
		c0-11.966,9.733-21.695,21.695-21.695s21.695,9.729,21.695,21.695C216.949,272.305,207.216,282.034,195.254,282.034z"/>
	<polygon style="fill:#314E55;" points="386.169,160.542 407.864,160.542 407.864,322.051 376.212,358.559 389.322,369.932 
		425.22,328.525 425.22,160.542 446.915,160.542 446.915,143.186 386.169,143.186 	"/>
</g>
<g>
</g>
<g>
</g>
<g>
</g>
<g>
</g>
<g>
</g>
<g>
</g>
<g>
</g>
<g>
</g>
<g>
</g>
<g>
</g>
<g>
</g>
<g>
</g>
<g>
</g>
<g>
</g>
<g>
</g>
</svg>
