<?xml version="1.0" encoding="iso-8859-1"?>
<!-- Generator: Adobe Illustrator 19.0.0, SVG Export Plug-In . SVG Version: 6.00 Build 0)  -->
<svg version="1.1" id="Layer_1" xmlns="http://www.w3.org/2000/svg" xmlns:xlink="http://www.w3.org/1999/xlink" x="0px" y="0px"
	 viewBox="0 0 512 512" style="enable-background:new 0 0 512 512;" xml:space="preserve">
<path style="fill:#E4AD40;" d="M31.439,327.86v134.737h71.86V327.86H31.439z M58.386,390.737H40.421v-17.965h17.965V390.737z
	 M58.386,354.807H40.421v-17.965h17.965V354.807z"/>
<path style="fill:#EAEAEA;" d="M193.123,94.316h-71.86v143.719v71.86v152.702h71.86V264.982V94.316z M148.211,408.702h-17.965
	v-17.965h17.965V408.702z M148.211,372.772h-17.965v-17.965h17.965V372.772z M184.14,390.737h-17.965v-17.965h17.965V390.737z
	 M184.14,354.807h-17.965v-17.965h17.965V354.807z"/>
<g>
	<rect x="211.088" y="282.947" style="fill:#E4AD40;" width="35.93" height="179.649"/>
	<rect x="31.439" y="256" style="fill:#E4AD40;" width="71.86" height="53.895"/>
</g>
<g>
	<rect x="363.789" y="327.86" style="fill:#EAEAEA;" width="116.772" height="26.947"/>
	<path style="fill:#EAEAEA;" d="M345.825,354.807v-44.912v-101.5L264.982,179v85.982v197.614h80.842v-89.825V354.807z
		 M291.93,390.737h-17.965v-17.965h17.965V390.737z M291.93,354.807h-17.965v-17.965h17.965V354.807z"/>
</g>
<path style="fill:#E4AD40;" d="M363.789,372.772v89.825h116.772v-89.825H363.789z M390.737,399.719h-17.965v-17.965h17.965V399.719z
	"/>
<g>
	<path style="fill:#314E55;" d="M498.526,462.596v-89.825v-17.965v-44.912H363.789V195.816l-116.772-42.465v111.632h-35.93V76.351
		H103.298v161.684H13.474v71.86v152.702H0v17.965h13.474h89.825h17.965h71.86h17.965h35.93h17.965h80.842h17.965h134.737H512
		v-17.965H498.526z M480.561,327.86v26.947H363.789V327.86H480.561z M31.439,256h71.86v53.895h-71.86V256z M31.439,462.596V327.86
		h71.86v134.737H31.439z M121.263,462.596V309.895v-71.86V94.316h71.86v170.667v197.614H121.263z M211.088,462.596V282.947h35.93
		v179.649H211.088z M264.982,462.596V264.982V179l80.842,29.395v101.5v44.912v17.965v89.825H264.982z M363.789,462.596v-89.825
		h116.772v89.825H363.789z"/>
	<rect x="40.421" y="336.842" style="fill:#314E55;" width="17.965" height="17.965"/>
	<rect x="273.965" y="336.842" style="fill:#314E55;" width="17.965" height="17.965"/>
	<rect x="130.246" y="354.807" style="fill:#314E55;" width="17.965" height="17.965"/>
	<rect x="166.175" y="336.842" style="fill:#314E55;" width="17.965" height="17.965"/>
	<rect x="372.772" y="381.754" style="fill:#314E55;" width="17.965" height="17.965"/>
	<rect x="273.965" y="372.772" style="fill:#314E55;" width="17.965" height="17.965"/>
	<rect x="130.246" y="390.737" style="fill:#314E55;" width="17.965" height="17.965"/>
	<rect x="166.175" y="372.772" style="fill:#314E55;" width="17.965" height="17.965"/>
	<rect x="40.421" y="372.772" style="fill:#314E55;" width="17.965" height="17.965"/>
	<path style="fill:#314E55;" d="M336.842,94.316c49.526,0,89.825,40.294,89.825,89.825c0,4.961,4.018,8.982,8.982,8.982
		s8.982-4.022,8.982-8.982c0-59.434-48.351-107.789-107.789-107.789c-4.965,0-8.982,4.022-8.982,8.982
		C327.86,90.294,331.877,94.316,336.842,94.316z"/>
	<path style="fill:#314E55;" d="M336.842,49.404c74.298,0,134.737,60.443,134.737,134.737c0,4.961,4.018,8.982,8.982,8.982
		s8.982-4.022,8.982-8.982c0-84.202-68.5-152.702-152.702-152.702c-4.965,0-8.982,4.022-8.982,8.982S331.877,49.404,336.842,49.404z
		"/>
</g>
<g>
</g>
<g>
</g>
<g>
</g>
<g>
</g>
<g>
</g>
<g>
</g>
<g>
</g>
<g>
</g>
<g>
</g>
<g>
</g>
<g>
</g>
<g>
</g>
<g>
</g>
<g>
</g>
<g>
</g>
</svg>
