<?xml version="1.0" encoding="iso-8859-1"?>
<!-- Generator: Adobe Illustrator 19.0.0, SVG Export Plug-In . SVG Version: 6.00 Build 0)  -->
<svg version="1.1" id="Layer_1" xmlns="http://www.w3.org/2000/svg" xmlns:xlink="http://www.w3.org/1999/xlink" x="0px" y="0px"
	 viewBox="0 0 512 512" style="enable-background:new 0 0 512 512;" xml:space="preserve">
<path style="fill:#E4D759;" d="M260.891,156.212c-25.987,0-51.966,9.886-71.747,29.667c-19.168,19.164-29.717,44.647-29.717,71.747
	s10.548,52.583,29.717,71.742c39.562,39.562,103.931,39.562,143.493,0c19.168-19.159,29.717-44.642,29.717-71.742
	s-10.548-52.583-29.717-71.747C312.857,166.103,286.869,156.212,260.891,156.212z M340.421,240.772l-89.978,34.982l-38.481-53.123
	l14.935-10.827l30.14,41.593l76.701-29.82L340.421,240.772z"/>
<path style="fill:#81A4E3;" d="M391.341,192.405l1.255-1.255c-6.987-13.808-16.09-26.619-27.351-37.879
	c-27.879-27.874-64.937-43.228-104.355-43.228s-76.476,15.354-104.355,43.228s-43.228,64.937-43.228,104.355
	c0,39.422,15.349,76.48,43.228,104.359c57.541,57.541,151.168,57.541,208.709,0c27.879-27.879,43.228-64.937,43.228-104.359
	c0-21.685-4.801-42.589-13.622-61.71L391.341,192.405z M345.681,342.411c-23.375,23.375-54.082,35.067-84.79,35.067
	s-61.415-11.683-84.79-35.067c-22.645-22.645-35.121-52.758-35.121-84.785s12.467-62.14,35.121-84.79
	c46.75-46.75,122.829-46.75,169.58,0c22.654,22.65,35.121,52.763,35.121,84.79S368.327,319.766,345.681,342.411z"/>
<g>
	<path style="fill:#314E55;" d="M176.101,172.836c-22.654,22.65-35.121,52.763-35.121,84.79s12.476,62.14,35.121,84.785
		c23.375,23.384,54.082,35.067,84.79,35.067s61.415-11.692,84.79-35.067c22.645-22.645,35.121-52.758,35.121-84.785
		s-12.467-62.14-35.121-84.79C298.931,126.086,222.852,126.086,176.101,172.836z M332.638,329.368
		c-39.562,39.562-103.931,39.562-143.493,0c-19.168-19.159-29.716-44.642-29.716-71.742s10.548-52.583,29.717-71.747
		c19.781-19.781,45.759-29.667,71.747-29.667c25.978,0,51.966,9.891,71.747,29.667c19.168,19.164,29.717,44.647,29.717,71.747
		S351.806,310.209,332.638,329.368z"/>
	<polygon style="fill:#314E55;" points="226.896,211.804 211.961,222.631 250.442,275.754 340.421,240.772 333.737,223.577 
		257.036,253.397 	"/>
	<path style="fill:#314E55;" d="M512,97.833L498.957,84.79l-92.687,92.687c-7.461-13.487-16.779-26.05-27.981-37.249
		c-13.555-13.557-29.124-24.302-45.924-32.336l94.845-94.849L414.167,0L313.824,100.347c-16.853-5.656-34.638-8.752-52.932-8.752
		c-44.345,0-86.042,17.272-117.398,48.633c-31.365,31.356-48.633,73.053-48.633,117.398c0,18.295,3.095,36.079,8.749,52.932
		L0,414.167l13.043,13.043l98.111-98.11c8.034,16.8,18.779,32.372,32.34,45.928c11.326,11.325,23.943,20.547,37.316,27.909
		L84.79,498.957L97.833,512l100.556-100.556c19.988,8.091,41.244,12.136,62.503,12.136c42.508-0.009,85.033-16.187,117.398-48.552
		c31.365-31.356,48.633-73.053,48.633-117.402c0-21.794-4.218-42.931-12.183-62.532L512,97.833z M365.246,361.985
		c-57.541,57.541-151.168,57.541-208.709,0c-27.879-27.879-43.228-64.937-43.228-104.359c0-39.418,15.349-76.48,43.228-104.355
		s64.937-43.228,104.355-43.228s76.476,15.354,104.355,43.228c11.261,11.26,20.364,24.071,27.351,37.879l-1.255,1.255l3.511,3.511
		c8.821,19.121,13.622,40.025,13.622,61.71C408.474,297.048,393.125,334.106,365.246,361.985z"/>
</g>
<g>
</g>
<g>
</g>
<g>
</g>
<g>
</g>
<g>
</g>
<g>
</g>
<g>
</g>
<g>
</g>
<g>
</g>
<g>
</g>
<g>
</g>
<g>
</g>
<g>
</g>
<g>
</g>
<g>
</g>
</svg>
