<svg id="Layer_1" data-name="Layer 1" xmlns="http://www.w3.org/2000/svg" viewBox="0 0 186.33 73.34"><title>NetEase Games logo - Brandlogos.net</title><path d="M162.83,260.06c.35-.13.26-.45.32-.71.21-.89.69-1.46,1.67-1.31s1.25.86,1.15,1.76-.25,1.67-.27,2.51c-.28,8.76,4.49,15.89,12.9,19.31a32.85,32.85,0,0,0,16.71,2.1c.33,0,.66-.06,1-.11,1-.16,1.87,0,2,1.15s-.69,1.52-1.66,1.65a36.35,36.35,0,0,1-17.76-1.64c-6.41-2.31-11.33-6.29-14.22-12.58-.88-1.91-1.14-4-1.83-6Z" transform="translate(-162.83 -219.33)" style="fill:#e60113"/><path d="M250.2,228.35c-5.4,2.58-11.1,3.08-16.92,2.8l-.42,0c-1,0-1.83-.33-1.8-1.48s.85-1.4,1.87-1.36a49,49,0,0,0,7.46-.16,23.73,23.73,0,0,0,13.22-5.72c1.16-1,2.34-2,3.59-3.08-2.79,10.91-7.41,17.21-18.7,18-5.41.36-10.8-.28-16.19-.37-6-.1-11.83.38-17.4,2.71a30.7,30.7,0,0,0-12.26,8.71,11.24,11.24,0,0,0-2.85,6,3.38,3.38,0,0,0,1.29,3.49,3.51,3.51,0,0,0,3.86,0,19.68,19.68,0,0,0,3.72-2.76c4.51-4,9.23-7.67,15-9.71.72-.25,1.43-.72,1.08-1.67s-1.08-.75-1.8-.59c-6,1.34-10.85,4.53-15.22,8.64-.68.64-1.31,1.34-1.94,2s-1.42,1-2.21.3a1.36,1.36,0,0,1,0-2.11c5-5.6,11-9.75,18.41-11.54a6.08,6.08,0,0,1,2.24-.17,3.72,3.72,0,0,1,3.22,2.38,3.78,3.78,0,0,1-.8,4,4.76,4.76,0,0,1-2.05,1.44,39.62,39.62,0,0,0-12.91,8.09,26.23,26.23,0,0,1-5.73,4.28,6.13,6.13,0,0,1-6.66-.45c-2.11-1.54-2.69-3.73-2.36-6.22a12.43,12.43,0,0,1,1.44-4.22,22.83,22.83,0,0,1,5.86-6.93,38,38,0,0,1,22.65-8.52c4.94-.26,9.86.11,14.79.3,3.8.14,7.61.27,11.33-.81a12.14,12.14,0,0,0,7.17-5.31" transform="translate(-162.83 -219.33)" style="fill:#e60113"/><path d="M248.49,236.43c-3.1,9.53-7.91,17.44-17.28,21.76a6.52,6.52,0,0,1-1.31.5,1.3,1.3,0,0,1-1.62-.77,1.31,1.31,0,0,1,.62-1.8c.32-.18.68-.32,1-.47a26.38,26.38,0,0,0,11.44-10.18L238.63,247c-4.84,2.76-10.14,4.14-15.56,5.12a30.74,30.74,0,0,0-15.34,7.48,40.47,40.47,0,0,1-9.56,6.63c-4.83,2.29-9.5,2.16-13.75-1.24-4-3.23-4.75-7.73-3.93-12.47,1.13-6.53,5-11.4,10.18-15.3a46.24,46.24,0,0,1,27.06-9.42c2.87-.09,5.73-.06,8.59.07,1,0,1.86.34,1.81,1.48s-1,1.44-2,1.38c-6.4-.36-12.79-.28-19,1.5-7,2-13.36,5.26-18.42,10.63-3.48,3.69-5.75,8-5.57,13.21a8.89,8.89,0,0,0,12,8.3A24.2,24.2,0,0,0,204,259a39.82,39.82,0,0,1,21.61-10.3c7.26-1.16,13.52-4.63,19.15-9.27,1.19-1,2.4-1.92,3.75-3" transform="translate(-162.83 -219.33)" style="fill:#e60112"/><path d="M226,265.38c0,1.77-1.17,4.06-2.73,6.15-3.86,5.17-9.11,8.55-14.86,11.25-1.65.77-3.39,1.37-5.08,2-.95.38-1.82.34-2.19-.75s.32-1.61,1.28-1.94a44.84,44.84,0,0,0,13.9-7.52,22.29,22.29,0,0,0,5.8-6.61,7.39,7.39,0,0,0,1-3.74,3.89,3.89,0,0,0-4.73-3.71,9.78,9.78,0,0,0-3.87,1.94c-2.59,1.93-5.11,4-7.71,5.88A28.28,28.28,0,0,1,194.13,274c-1.88.27-2.8,0-2.84-1.13-.06-1.69,1.27-1.53,2.37-1.68,4.5-.62,8.34-2.73,11.91-5.4,2.4-1.8,4.74-3.68,7.13-5.49a15,15,0,0,1,4.3-2.35c4.56-1.51,9.07,1.75,9,7.43" transform="translate(-162.83 -219.33)" style="fill:#e60113"/><path d="M184.6,238.29c-1.05,1.35-2.13,2.69-3.16,4.06-3.23,4.31-5.2,9.1-5,14.55.22,6.52,3.84,12.21,10.43,13.83,1,.23,1.78.68,1.5,1.79-.32,1.3-1.36,1.19-2.39.92a16.58,16.58,0,0,1-12.17-14,23.79,23.79,0,0,1,1.81-12.87,2.64,2.64,0,0,0,.47-1.57,18.65,18.65,0,0,0-3.75,3,22,22,0,0,0-4.38,6c-.47.94-1,1.87-2.21,1.29s-.83-1.67-.32-2.63a27.24,27.24,0,0,1,14.49-12.85c1.5-.61,3-1.16,4.52-1.74l.17.25" transform="translate(-162.83 -219.33)" style="fill:#e50112"/><path d="M194.83,292.66c-.47,0-.71,0-.94,0-.93.05-1.61-.32-1.67-1.29s.63-1.49,1.61-1.53a40.84,40.84,0,0,0,8.21-1.16c8.87-2.2,16.62-6.34,22.67-13.29,3.2-3.68,5.56-7.76,5.35-12.88a1.32,1.32,0,0,1,1.37-1.47c1,0,1.44.62,1.49,1.53a15.84,15.84,0,0,1-1.13,6.72c-2.22,5.67-6.17,10-10.94,13.62a48.28,48.28,0,0,1-26,9.76" transform="translate(-162.83 -219.33)" style="fill:#e60113"/><path d="M259.06,280c-1.46,0-2.91,0-4.37,0a2.48,2.48,0,0,1-2.61-3.15q1-5.87,2.08-11.73a3.67,3.67,0,0,1,3.82-3.22q4.08-.05,8.17,0c2.35,0,3.64,2,2.61,4-.53,1.07-1.69.38-2.55.44s-.42-.66-.34-1c.21-.89-.13-1.21-1-1.21q-3.17,0-6.34,0a1.17,1.17,0,0,0-1.37,1.07q-1,5.73-2,11.45c-.14.77.22,1,.91,1,2.3,0,4.6,0,6.9,0a1.13,1.13,0,0,0,1.28-1c.23-1.29.44-2.58.69-3.86.17-.89-.21-1.19-1.06-1.17q-2.25,0-4.51,0c-.39,0-1.13.26-.92-.57.15-.59-.23-1.63.81-1.66,2.25-.07,4.51-.09,6.75.07a2.22,2.22,0,0,1,2,2.71,47.05,47.05,0,0,1-.91,5.1,3.65,3.65,0,0,1-3.55,2.68c-1.5,0-3,0-4.51,0" transform="translate(-162.83 -219.33)" style="fill:#3e3f3a"/><path d="M268.76,254.69c.79-4.43,1.51-8.48,2.24-12.53a1.78,1.78,0,0,1,2.52-1.35c.47.2.28.51.23.81-.88,5-1.75,9.94-2.65,14.91a2.71,2.71,0,0,1-2.46,2.35c-1.34.18-1.83-.79-2.31-1.83-1.8-3.89-3.65-7.76-5.67-12-.6,3.35-1.13,6.28-1.65,9.2-.22,1.24-.46,2.48-.63,3.73-.1.75-.44,1-1.2,1-1.66,0-1.66,0-1.36-1.67q1.19-6.77,2.38-13.54a3.5,3.5,0,0,1,1.16-2.32,2.15,2.15,0,0,1,3.55.84c1.88,4,3.78,8,5.87,12.44" transform="translate(-162.83 -219.33)" style="fill:#3d3e39"/><path d="M190.56,280.49a27.29,27.29,0,0,1-6.41-.77c-.94-.21-1.62-.68-1.42-1.72s1-1.29,1.94-1.09c11.42,2.35,20.76-1.88,29.15-9.12,1.13-1,2.14-2.09,3.2-3.16.7-.7,1.46-.91,2.2-.16s.49,1.43-.11,2.11c-7.55,8.63-16.88,13.65-28.55,13.9" transform="translate(-162.83 -219.33)" style="fill:#e60113"/><path d="M320.18,245.34c-2.06-.09-4.13,0-6.19,0-1.33,0-.86,1.15-1,1.79s.61.49,1,.5c1.55,0,3.09,0,4.64,0,.58,0,1.33-.16,1.27.83s-.14,1.61-1.34,1.44c-.6-.08-1.22,0-1.83,0-5.92-.32-6.15,1.31-6.83,6a2.46,2.46,0,0,0,2.56,3.07c1.22,0,2.44,0,3.66,0s2.44,0,3.66,0c.68,0,1-.17,1.13-.87.55-3.27,1.18-6.52,1.7-9.79a2.38,2.38,0,0,0-2.42-2.93m-1.38,9.59c-.17,1.44-.74,1.88-2.11,1.73a29.6,29.6,0,0,0-3.08,0c-.32,0-.79.07-.88-.26-.36-1.21.19-2.36.4-3.53.14-.78.87-.7,1.48-.7h1.82c2.81,0,2.71,0,2.37,2.79" transform="translate(-162.83 -219.33)" style="fill:#3e3f3a"/><path d="M280.3,266.5a65.25,65.25,0,0,0-6.89-.09c-1.09,0-.67,1.17-.82,1.8s.56.45.9.45c1.55,0,3.1,0,4.64,0,.6,0,1.45-.25,1.38.85-.06.83-.19,1.59-1.37,1.41-.59-.09-1.22,0-1.83,0-5.82-.31-6.08,1.21-6.81,5.86-.3,1.94.72,3.14,2.73,3.19,1.17,0,2.35,0,3.52,0s2.53,0,3.8,0c.57,0,.81-.18.91-.77.56-3.31,1.2-6.62,1.74-9.93a2.22,2.22,0,0,0-1.91-2.79m-1.87,9.39c-.18,1.43-.65,2.06-2.16,1.83a10.84,10.84,0,0,0-2.65,0c-1.37.13-1.59-.48-1.33-1.65.72-3.24-.05-2.83,3.77-2.86,2.79,0,2.7,0,2.37,2.69" transform="translate(-162.83 -219.33)" style="fill:#3e3f3a"/><path d="M279.73,258.91c-1.22,0-2.44,0-3.66,0a2.45,2.45,0,0,1-2.55-3.08c.4-2.49.84-5,1.31-7.46a3.64,3.64,0,0,1,3.56-3c1.78-.08,3.57-.08,5.35,0a2.46,2.46,0,0,1,2.45,3.16c-.12.74-.25,1.48-.42,2.2a3.67,3.67,0,0,1-3.51,2.91c-1.08,0-2.16,0-3.24,0-.35,0-1,.23-.84-.51s-.26-1.65.89-1.73c.93-.07,1.88,0,2.82,0,1.12,0,1.7-1.1,1.63-2.91,0-1.17-1-.77-1.57-.81-.89-.06-1.79.05-2.67,0-1.22-.12-1.79.34-2,1.58-.28,2-.66,4.06-1.07,6.07-.22,1.1.17,1.42,1.23,1.4,2.07-.05,4.13,0,6.2,0,.37,0,1.13-.29.94.55-.14.62.25,1.66-.93,1.71s-2.63,0-3.94,0" transform="translate(-162.83 -219.33)" style="fill:#3e3f3a"/><path d="M342.59,258.91c-1.22,0-2.44,0-3.66,0a2.38,2.38,0,0,1-2.5-2.86c.38-2.64.84-5.26,1.38-7.87a3.54,3.54,0,0,1,3.42-2.84c1.78-.08,3.57-.08,5.35,0a2.46,2.46,0,0,1,2.54,3.1,22.51,22.51,0,0,1-.45,2.34,3.65,3.65,0,0,1-3.56,2.84c-1,0-2.07,0-3.1,0-.37,0-1.16.28-.91-.55.18-.6-.28-1.67,1-1.69.85,0,1.69,0,2.54,0,1.34,0,1.83-.8,1.83-2.85,0-1.32-1-.86-1.64-.87-4.23,0-4.23,0-5,4.11-.21,1.15-.34,2.32-.63,3.45s.19,1.48,1.28,1.45q3-.08,5.92,0c.39,0,1.32-.52,1.13.6-.12.74.13,1.79-1.27,1.68-1.21-.09-2.44,0-3.66,0Z" transform="translate(-162.83 -219.33)" style="fill:#3e3f3a"/><path d="M308.73,280c-1.22,0-2.44,0-3.66,0a2.48,2.48,0,0,1-2.59-3.06q.61-3.74,1.33-7.45a3.63,3.63,0,0,1,3.54-3.05c1.78-.07,3.57-.07,5.35,0a2.39,2.39,0,0,1,2.48,3c-.1.79-.23,1.58-.4,2.35a3.7,3.7,0,0,1-3.51,2.92c-1.08,0-2.16,0-3.24,0-.35,0-1,.22-.85-.51s-.27-1.65.89-1.73a17,17,0,0,1,2.53,0c1.08.08,1.49-.41,1.66-1.42.39-2.34.42-2.33-1.89-2.33-.8,0-1.6,0-2.39,0a1.33,1.33,0,0,0-1.62,1.3c-.33,2.12-.7,4.24-1.12,6.35-.21,1.08.15,1.43,1.23,1.4,2.06-.06,4.13,0,6.2,0,.38,0,1.15-.27.94.55-.16.61.27,1.67-.92,1.71s-2.63,0-3.94,0" transform="translate(-162.83 -219.33)" style="fill:#3e3f3a"/><path d="M303.18,258.91c-1.22,0-2.44,0-3.66,0-1.79-.06-2.85-1.18-2.57-2.93q1-6.22,2.21-12.41a3.57,3.57,0,0,1,3.62-2.76c2.39,0,4.78,0,7.18,0,.41,0,1.1-.19.92.61-.14.63.23,1.64-1,1.64-2,0-4,0-6.05,0-1.15,0-1.67.36-1.85,1.54q-.83,5.26-1.87,10.48c-.27,1.33.2,1.64,1.43,1.59,1.87-.07,3.75,0,5.63,0,.36,0,1.13-.3.9.57-.16.62.29,1.67-.94,1.69s-2.63,0-3.94,0" transform="translate(-162.83 -219.33)" style="fill:#3e3f3a"/><path d="M327.34,258.91c-1.08,0-2.16,0-3.24,0-.36,0-1.16.32-1-.47.14-.63-.35-1.79,1-1.8H330a2.62,2.62,0,0,0,2.17-3.33c-.22-.47-.67-.45-1.1-.45-1.27,0-2.54,0-3.81,0-2,0-2.89-1.1-2.69-3.07.34-3.26,1.67-4.47,4.91-4.47,1.64,0,3.29,0,4.93,0,.4,0,1.25-.34,1,.57-.14.64.28,1.75-1.08,1.72-1.74,0-3.48,0-5.22,0a1.84,1.84,0,0,0-1.95,2.35c.12.64.61.61,1.08.61,1.27,0,2.54,0,3.81,0,2.09,0,3.05,1.23,2.72,3.3-.11.69-.21,1.39-.37,2.07a3.74,3.74,0,0,1-3.64,3c-1.17,0-2.35,0-3.52,0" transform="translate(-162.83 -219.33)" style="fill:#3e3f3a"/><path d="M319.9,280c-1.08,0-2.16,0-3.24,0-.36,0-1.16.33-.95-.52.16-.63-.3-1.76,1-1.75h5.78a2.51,2.51,0,0,0,2.3-3.23c-.16-.51-.58-.55-1-.55-1.27,0-2.54,0-3.8,0-2.15,0-3.09-1.13-2.77-3.23.5-3.35,1.62-4.31,5-4.31,1.6,0,3.19,0,4.79,0,.41,0,1.22-.33,1,.61-.14.67.23,1.72-1.11,1.69-1.78,0-3.57,0-5.35,0a2,2,0,0,0-1.73,2.52c.21.51.67.43,1.09.43,1.27,0,2.54,0,3.8,0,2,0,3,1.15,2.72,3.06a15.84,15.84,0,0,1-.55,2.74,3.7,3.7,0,0,1-3.54,2.52H319.9" transform="translate(-162.83 -219.33)" style="fill:#3e3f3a"/><path d="M290.12,266.37h1.13c2.52.05,3.41,1.09,3,3.53-.49,2.9-1.05,5.8-1.5,8.71-.24,1.58-1.39.93-2.17.94-1.14,0-.51-.88-.43-1.33.45-2.77,1-5.53,1.48-8.28.18-.93-.12-1.25-1.07-1.28-2.89-.1-2.88-.12-3.37,2.72-.45,2.58-.95,5.15-1.37,7.73-.27,1.61-1.48.76-2.23.82-1,.08-.4-.75-.34-1.11.41-2.59.89-5.16,1.35-7.74.71-4,1.53-4.71,5.55-4.71" transform="translate(-162.83 -219.33)" style="fill:#3e3f3a"/><path d="M291.48,258.91c-4.2,0-4.74-.61-4.05-4.67.53-3.13,1.11-6.26,1.67-9.39a2,2,0,0,1,2.62-1c.29.24.13.53,0,.76-.42,1.25.13,1.55,1.28,1.42a7.3,7.3,0,0,1,2,0c.47.07,1.4-.5,1.32.56-.06.77.09,1.83-1.39,1.71-1.23-.1-2.89-.58-3.65.22s-.59,2.37-.82,3.61-.37,2.21-.61,3.31c-.18.82.15,1.14.94,1.13.94,0,1.88,0,2.82,0,.35,0,1-.21.85.5s.26,1.64-.88,1.76c-.7.07-1.41,0-2.11,0" transform="translate(-162.83 -219.33)" style="fill:#3e3f3a"/><path d="M168.77,264.13a1.33,1.33,0,0,1,1.25-1.48,1.29,1.29,0,0,1,1.55,1.11c.92,4.9,3.75,8.45,7.88,11.08a1.42,1.42,0,1,1-1.42,2.45,18.93,18.93,0,0,1-9.23-12.78c0-.09,0-.19,0-.38" transform="translate(-162.83 -219.33)" style="fill:#e60113"/><path d="M297.93,266.37c3.21,0,4,.94,3.41,4.13-.5,2.8-1,5.6-1.48,8.41a2,2,0,0,1-2.6,1c-.41-.3-.1-.68,0-1,.5-2.89,1-5.8,1.55-8.67.24-1.18,0-1.7-1.28-1.55a.94.94,0,0,1-.42,0c-.46-.17-1.39.46-1.33-.59,0-.85,0-2,1.5-1.72a3.7,3.7,0,0,0,.7,0" transform="translate(-162.83 -219.33)" style="fill:#3e3f3a"/><path d="M305.62,250.59a7.57,7.57,0,0,1-1.67,0c-.49-.11-1.46.63-1.4-.62,0-.94.13-1.83,1.56-1.67s2.7,0,4.06,0c.44,0,1.2-.25,1,.66-.15.62.22,1.63-1,1.61-.84,0-1.68,0-2.52,0" transform="translate(-162.83 -219.33)" style="fill:#41423d"/></svg>