<svg width="75" height="25" viewBox="0 0 75 25" fill="none" xmlns="http://www.w3.org/2000/svg">
<path d="M32.969 19.7402H31.9299C31.7466 19.7402 31.6855 19.8002 31.6244 19.9202C31.6244 19.9802 30.8298 21.4202 30.8298 21.4202C30.7687 21.5402 30.6464 21.5402 30.5853 21.4202C30.5853 21.4202 29.913 20.0402 29.8519 19.9802C29.7908 19.8002 29.6685 19.7402 29.424 19.7402H28.4461C28.385 19.7402 28.385 19.8002 28.385 19.8002C28.385 19.8602 29.913 23.0402 29.913 23.0402C29.913 23.0402 29.1796 24.4802 29.1184 24.5402C29.0573 24.6602 29.1184 24.7802 29.3018 24.7802H30.402C30.402 24.7802 32.969 19.9202 32.969 19.8602C33.0912 19.8002 33.0301 19.7402 32.969 19.7402Z" fill="#ACACAC"/>
<path d="M46.1097 19.7402H45.0707C44.8873 19.7402 44.8262 19.8002 44.7651 19.9202C44.7651 19.9802 43.9705 21.4202 43.9705 21.4202C43.9094 21.5402 43.7872 21.5402 43.7261 21.4202C43.7261 21.4202 43.0537 20.0402 42.9926 19.9802C42.9315 19.8002 42.8093 19.7402 42.5648 19.7402H41.5869C41.5258 19.7402 41.5258 19.8002 41.5258 19.8002C41.5258 19.8602 43.0537 23.0402 43.0537 23.0402C43.0537 23.0402 42.3203 24.4802 42.2592 24.5402C42.1981 24.6602 42.2592 24.7802 42.4426 24.7802H43.5427C43.5427 24.7802 46.1097 19.9202 46.1097 19.8602C46.232 19.8002 46.1708 19.7402 46.1097 19.7402Z" fill="#ACACAC"/>
<path d="M49.7157 20.1001C49.349 19.7401 48.7989 19.6201 48.1266 19.6201C47.4543 19.6201 46.9042 19.8001 46.5375 20.1001C46.1708 20.4001 45.9874 20.9401 45.9874 21.3601C45.9874 21.9001 46.2319 22.3201 46.5375 22.6201C46.9042 22.9801 47.5154 23.1001 48.1266 23.1001C48.7989 23.1001 49.349 22.9201 49.7157 22.6201C50.0824 22.3201 50.2658 21.7801 50.2658 21.3601C50.2658 20.8201 50.0824 20.4601 49.7157 20.1001ZM48.7989 21.6601C48.4933 22.2601 48.0655 22.5001 47.5765 22.3201C47.0876 22.1401 47.0265 21.6601 47.3932 21.0001C47.6988 20.4001 48.1266 20.1601 48.6156 20.3401C49.1045 20.5801 49.1656 21.0001 48.7989 21.6601Z" fill="#ACACAC"/>
<path d="M73.7969 20.1001C73.4302 19.7401 72.8801 19.6201 72.2078 19.6201C71.5355 19.6201 70.9854 19.8001 70.6187 20.1001C70.252 20.4001 70.0686 20.9401 70.0686 21.3601C70.0686 21.9001 70.3131 22.3201 70.6187 22.6201C70.9854 22.9801 71.5966 23.1001 72.2078 23.1001C72.8801 23.1001 73.4302 22.9201 73.7969 22.6201C74.1636 22.3201 74.347 21.7801 74.347 21.3601C74.2859 20.8201 74.1025 20.4601 73.7969 20.1001ZM72.819 21.6601C72.5134 22.2601 72.0856 22.5001 71.5966 22.3201C71.1076 22.1401 71.0465 21.6601 71.4132 21.0001C71.7188 20.4001 72.1467 20.1601 72.6356 20.3401C73.1246 20.5801 73.1857 21.0001 72.819 21.6601Z" fill="#ACACAC"/>
<path d="M36.5751 20.1001C36.2084 19.7401 35.6583 19.6201 34.986 19.6201C34.3137 19.6201 33.7636 19.8001 33.3969 20.1001C33.0302 20.4001 32.8468 20.9401 32.8468 21.3601C32.8468 21.9001 33.0913 22.3201 33.3969 22.6201C33.7636 22.9801 34.3748 23.1001 34.986 23.1001C35.6583 23.1001 36.2084 22.9201 36.5751 22.6201C36.9418 22.3201 37.1252 21.7801 37.1252 21.3601C37.1252 20.8201 36.9418 20.4601 36.5751 20.1001ZM35.6583 21.6601C35.3527 22.2601 34.9249 22.5001 34.4359 22.3201C33.947 22.1401 33.8858 21.6601 34.2526 21.0001C34.5582 20.4001 34.986 20.1601 35.4749 20.3401C35.9639 20.5801 36.025 21.0001 35.6583 21.6601Z" fill="#ACACAC"/>
<path d="M37.6751 19.9201C37.5529 19.9801 37.4307 20.1001 37.4307 20.2801V22.9801H38.5919C38.7142 22.9801 38.7753 22.9201 38.7753 22.8001V20.4001C39.5699 20.2201 40.1199 20.4001 40.1199 20.7601V22.8001C40.1199 22.9201 40.181 22.9801 40.3033 22.9801H41.4646V20.8201C41.5257 19.7401 40.1199 19.2601 37.6751 19.9201Z" fill="#ACACAC"/>
<path d="M54.6665 19.7402H53.5052C53.383 19.7402 53.3218 19.8002 53.3218 19.9202V22.3202C52.5273 22.5002 51.9772 22.3202 51.9772 21.9602V19.9202C51.9772 19.8002 51.9161 19.7402 51.7938 19.7402H50.6326V21.9002C50.6326 22.9802 52.0383 23.5202 54.4831 22.8602C54.6053 22.8002 54.7276 22.6802 54.7276 22.5002L54.6665 19.7402Z" fill="#ACACAC"/>
<path d="M65.9124 19.7402H64.7512C64.6289 19.7402 64.5678 19.8002 64.5678 19.9202V22.3202C63.7732 22.5002 63.2232 22.3202 63.2232 21.9602V19.9202C63.2232 19.8002 63.1621 19.7402 63.0398 19.7402H61.8785V21.9002C61.8785 22.9802 63.2843 23.5202 65.7291 22.8602C65.8513 22.8002 65.9736 22.6802 65.9736 22.5002L65.9124 19.7402Z" fill="#ACACAC"/>
<path d="M57.6002 20.0402C57.5391 20.1002 57.478 20.7002 57.6002 20.7002C57.7224 20.7002 58.3336 20.5202 59.1893 20.5202C59.6783 20.5202 60.045 20.4602 59.9839 20.8202L58.8226 21.0002C57.6002 21.2402 57.3557 21.6602 57.3557 22.1402C57.3557 22.5602 57.478 22.6802 57.6002 22.8602C57.8447 23.1002 58.2725 23.1602 58.7003 23.1602C59.2504 23.1602 59.6783 23.0402 59.9839 22.6802V22.9802V23.1602H61.1451C61.2674 23.1602 61.3285 23.1002 61.3285 22.9802V20.7002C61.3285 19.3802 57.9058 19.7402 57.6002 20.0402ZM59.9839 21.8402C59.9839 22.0202 59.9227 22.2002 59.7394 22.3202C59.6171 22.4402 59.3727 22.5002 59.1282 22.5002C58.9448 22.5002 58.8226 22.4402 58.7003 22.3802C58.5781 22.3202 58.517 22.2002 58.517 22.0802C58.517 21.8402 58.7003 21.6602 59.1282 21.6002L59.9227 21.5402V21.8402H59.9839Z" fill="#ACACAC"/>
<path d="M69.5797 19.7401H68.6629V18.3001C68.6629 18.1801 68.6018 18.1201 68.4795 18.1201H67.3182V19.7401H66.4626C66.4015 19.7401 66.3403 19.8001 66.3403 19.8601V20.2801C66.3403 20.3401 66.4015 20.4001 66.4626 20.4001H67.3182V21.9001C67.3182 22.6201 67.8072 23.0401 68.7851 23.0401C69.1518 23.0401 69.4574 22.9801 69.6408 22.9201V22.4401C69.6408 22.2601 69.3352 22.2601 69.213 22.2601C68.7851 22.2601 68.724 22.0801 68.724 21.7201V20.3401H69.6408C69.7019 20.3401 69.763 20.2801 69.763 20.2201V19.8001C69.7019 19.8001 69.6408 19.7401 69.5797 19.7401Z" fill="#ACACAC"/>
<path d="M17.0167 1.74H6.32076C6.38188 1.02 6.443 0.6 6.443 0.6C6.50412 0.42 6.443 0.3 6.38188 0.18C6.25964 0 6.01516 0 6.01516 0H4.18157C3.81485 0 3.69262 0.24 3.69262 0.42C3.69262 0.42 3.69262 0.9 3.57038 1.74H0.758873C0.514394 1.74 0.331035 1.92 0.331035 2.16V3.36C0.331035 3.6 0.514394 3.78 0.758873 3.78H3.3259C2.89806 7.14 2.04239 12.18 0.269916 15C0.208796 15.06 0.147676 15.36 0.269916 15.54C0.331035 15.6 0.392155 15.72 0.636634 15.72H2.4091C2.53134 15.72 2.89806 15.66 3.14254 15.3L3.20366 15.24C4.36493 13.26 5.15949 10.2 5.64844 7.38H12.7383C12.8606 7.38 12.9828 7.38 12.9828 7.62C12.9828 8.04 12.1271 9.24 11.027 10.44C10.4769 9.9 9.92682 9.24 9.49898 8.58C9.37674 8.4 9.13226 8.4 9.13226 8.4H6.68748C6.443 8.4 6.443 8.52 6.50412 8.64C7.29867 10.02 8.27659 11.22 9.19338 12.18C8.52107 12.72 7.84875 13.2 7.29867 13.44C6.99308 13.56 6.62636 13.62 6.38188 13.62H5.8318C5.46508 13.62 5.40396 13.8 5.40396 14.1V15.3C5.40396 15.6 5.5262 15.66 5.8318 15.66H7.0542C7.48203 15.66 8.03211 15.54 8.45995 15.36C9.19338 15.06 10.0491 14.46 10.9659 13.74C12.4938 14.88 13.594 15.36 13.2884 15.18C13.105 15.18 14.1441 15.78 15.6109 15.78H16.7722C16.9556 15.78 17.2001 15.66 17.2001 15.42V14.04C17.2001 13.8 17.0167 13.74 16.8333 13.74H16.65C15.4887 13.74 15.122 13.56 14.6941 13.38C14.0218 13.02 13.4106 12.6 12.7994 12.18C14.633 10.38 16.161 8.22 16.161 6.48C16.161 5.7 15.4887 5.4 14.8164 5.4H5.89292C5.95404 4.86 6.01516 4.38 6.07628 3.9H17.0167C17.2612 3.9 17.4445 3.72 17.4445 3.48V2.28C17.4445 1.92 17.2612 1.74 17.0167 1.74Z" fill="#7A7A7A"/>
<path d="M42.3814 10.14V15.36C42.3814 15.6 42.198 15.78 41.9535 15.78H40.12C39.8755 15.78 39.6921 15.6 39.6921 15.36V10.26C38.9587 11.4 38.4086 11.82 37.5529 12.42C37.2473 12.6 36.8806 12.48 36.8806 12.12V10.26C36.8806 10.08 36.9417 9.84 37.064 9.72C37.7974 9 39.2032 8.22 39.6921 6.42H37.4918C37.2473 6.42 37.064 6.24 37.064 6V4.8C37.064 4.56 37.2473 4.38 37.4918 4.38H39.6921V2.82H37.8585C37.6141 2.82 37.4307 2.64 37.4307 2.4V1.2C37.4307 0.96 37.6141 0.78 37.8585 0.78H40.3644C41.5868 0.78 43.1759 0.42 44.3372 0.18C44.5206 0.12 44.7039 0.3 44.7039 0.48V1.92C44.7039 2.1 44.5817 2.28 44.3983 2.34C43.726 2.52 43.1759 2.64 42.5036 2.82V4.32H44.215C44.4595 4.32 44.6428 4.5 44.6428 4.74V5.94C44.6428 6.18 44.4595 6.36 44.215 6.36H42.5036C42.5036 7.32 43.6038 8.64 44.215 9.24C44.3372 9.36 44.3983 9.6 44.3983 9.78V11.7C44.3983 12 44.0927 12.06 43.7871 11.88C43.4204 11.7 42.8703 11.16 42.3814 10.14ZM45.0706 11.4V9.96C45.0706 9.72 45.254 9.54 45.4985 9.54H50.0213V0.42C50.0213 0.18 50.2047 0 50.4492 0H52.405C52.6495 0 52.8328 0.18 52.8328 0.42V9.48H54.422C54.6664 9.48 54.8498 9.66 54.8498 9.9V11.34C54.8498 11.58 54.6664 11.76 54.422 11.76H52.8328V15.36C52.8328 15.6 52.6495 15.78 52.405 15.78H50.4492C50.2047 15.78 50.0213 15.6 50.0213 15.36V11.76H45.4985C45.254 11.82 45.0706 11.64 45.0706 11.4Z" fill="#7A7A7A"/>
<path d="M34.8026 11.5201H29.7296V9.54006H33.7024C33.9469 9.54006 34.1302 9.36006 34.1302 9.12006V7.86006C34.1302 7.62006 33.9469 7.44006 33.7024 7.44006H29.7296V5.46006C29.7296 5.22006 29.5463 5.04006 29.3018 5.04006H27.4071C27.1626 5.04006 26.9792 5.22006 26.9792 5.46006V7.44006H22.9453C22.8231 7.44006 22.762 7.32006 22.8231 7.20006C23.1898 6.66006 24.1066 5.28006 24.9623 3.84006H34.3136C34.5581 3.84006 34.7414 3.66006 34.7414 3.42006V2.22006C34.7414 1.98006 34.5581 1.80006 34.3136 1.80006H26.3069C26.7959 1.02006 27.1626 0.420059 27.1626 0.420059C27.2848 0.240059 27.1626 0.0600586 26.9181 0.0600586H24.7789C24.4733 0.0600586 24.2289 0.240059 24.0455 0.480059L23.1898 1.80006H19.6449C19.4004 1.80006 19.2171 1.98006 19.2171 2.22006V3.42006C19.2171 3.66006 19.4004 3.84006 19.6449 3.84006H21.8452L19.6449 7.20006C19.0337 8.22006 19.7671 9.54006 20.9895 9.54006H22.3342H25.0234H26.9181V11.5201H19.4615C19.2171 11.5201 19.0337 11.7001 19.0337 11.9401V13.1401C19.0337 13.3801 19.2171 13.5601 19.4615 13.5601H26.9181V15.3001C26.9181 15.5401 27.1015 15.7201 27.346 15.7201H29.2407C29.4851 15.7201 29.6685 15.5401 29.6685 15.3001V13.5601H34.7414C34.9859 13.5601 35.1693 13.3801 35.1693 13.1401V11.9401C35.2304 11.7001 35.047 11.5201 34.8026 11.5201Z" fill="#7A7A7A"/>
<path d="M74.2857 13.98C74.2857 13.74 74.1024 13.56 73.8579 13.56L73.0022 13.44C71.7798 13.14 71.0464 12.6 70.313 11.94C72.6355 9.48 73.4301 7.86 73.7357 6.54C73.8579 5.94 73.4301 5.4 72.8189 5.4H70.0074C69.9462 5.4 69.8851 5.34 69.8851 5.28V3.96C69.8851 3.9 69.9462 3.84 70.0074 3.84H73.3689C73.6745 3.84 73.919 3.6 73.919 3.3V2.4C73.919 2.1 73.6745 1.86 73.3689 1.86H70.0074C69.9462 1.86 69.8851 1.8 69.8851 1.74V0.54C69.8851 0.24 69.6406 0 69.335 0H67.6848C67.3792 0 67.1347 0.24 67.1347 0.54V1.74C67.1347 1.8 67.0736 1.86 67.0125 1.86H64.201C63.8954 1.86 63.6509 2.1 63.6509 2.4V3.3C63.6509 3.6 63.8954 3.84 64.201 3.84H67.0125C67.0736 3.84 67.1347 3.9 67.1347 3.96V5.28C67.1347 5.34 67.0736 5.4 67.0125 5.4H64.0788C63.7732 5.4 63.5287 5.64 63.5287 5.94V6.9C63.5287 7.2 63.7732 7.44 64.0788 7.44H70.2518C70.4963 7.44 70.6797 7.74 70.4963 7.92C69.7629 9 69.2739 9.78 68.5405 10.5C67.8682 9.72 67.5626 9.6 66.6458 8.46C66.5235 8.28 66.3402 8.22 66.0957 8.22H64.4455C64.0788 8.22 63.8343 8.64 64.0176 8.94C64.8733 10.38 65.6679 11.04 66.7069 12.06C65.9735 12.72 65.7901 12.84 65.1789 13.26C64.8733 13.5 64.201 13.68 63.7732 13.68H63.3453C63.1008 13.68 62.9175 13.86 62.9175 14.1V15.3C62.9175 15.6 63.162 15.84 63.4676 15.84H63.7732C64.3844 15.84 65.24 15.66 65.7901 15.36C66.8291 14.82 67.0736 14.76 68.4794 13.62C69.5795 14.58 70.2518 14.88 71.2298 15.36C71.7187 15.6 72.5744 15.84 73.1245 15.84H73.6745C73.9801 15.84 74.2246 15.6 74.2246 15.3V13.98H74.2857Z" fill="#7A7A7A"/>
<path d="M62.3063 2.34006H61.2061C61.145 2.34006 61.0839 2.28006 61.0839 2.22006V0.600059C61.0839 0.300059 60.8394 0.0600586 60.5338 0.0600586H58.8836C58.578 0.0600586 58.3335 0.300059 58.3335 0.600059V2.22006C58.3335 2.28006 58.2724 2.34006 58.2113 2.34006H56.9278C56.6222 2.34006 56.3777 2.58006 56.3777 2.88006V3.78006C56.3777 4.08006 56.6222 4.32006 56.9278 4.32006H58.2113C58.2724 4.32006 58.3335 4.38006 58.3335 4.44006V7.26006L57.05 7.44006C56.8055 7.50006 56.561 7.74006 56.561 7.98006V9.30006C56.561 9.54006 56.8055 9.72006 57.05 9.72006L58.3335 9.54006V13.1401C58.3335 13.4401 58.089 13.6801 57.7834 13.6801H56.9278C56.6222 13.6801 56.3777 13.9201 56.3777 14.2201V15.3001C56.3777 15.6001 56.6222 15.8401 56.9278 15.8401H59.4337C60.3505 15.8401 61.0839 15.1201 61.0839 14.2201V9.18006L62.3063 9.00006C62.5508 8.94006 62.7952 8.70006 62.7952 8.46006V7.14006C62.7952 6.90006 62.5508 6.72006 62.3063 6.72006L61.0839 6.90006V4.56006C61.0839 4.50006 61.145 4.44006 61.2061 4.44006H62.3063C62.6119 4.44006 62.8564 4.20006 62.8564 3.90006V2.88006C62.8564 2.58006 62.6119 2.34006 62.3063 2.34006Z" fill="#7A7A7A"/>
<path d="M48.9823 4.32005L46.4764 3.72005C46.2319 3.66005 46.0486 3.42005 46.0486 3.12005V1.80005C46.0486 1.62005 46.2319 1.44005 46.4153 1.50005L48.9212 2.10005C49.1657 2.16005 49.349 2.40005 49.349 2.70005V4.02005C49.4102 4.26005 49.1657 4.38005 48.9823 4.32005Z" fill="#7A7A7A"/>
<path d="M48.7378 8.33995L46.0486 7.61995C45.8041 7.55995 45.6207 7.31995 45.6207 7.01995V5.69995C45.6207 5.51995 45.8041 5.33995 45.9874 5.39995L48.6767 6.11995C48.9212 6.17995 49.1045 6.41995 49.1045 6.71995V8.03995C49.1045 8.21995 48.9212 8.39995 48.7378 8.33995Z" fill="#7A7A7A"/>
</svg>
