<?xml version="1.0" encoding="iso-8859-1"?>
<!-- Generator: Adobe Illustrator 19.0.0, SVG Export Plug-In . SVG Version: 6.00 Build 0)  -->
<svg version="1.1" id="Layer_1" xmlns="http://www.w3.org/2000/svg" xmlns:xlink="http://www.w3.org/1999/xlink" x="0px" y="0px"
	 viewBox="0 0 512 512" style="enable-background:new 0 0 512 512;" xml:space="preserve">
<g>
	<path style="fill:#EAEAEA;" d="M282.483,264.828h35.345c4.94,0,8.81-3.849,8.81-8.759v-61.931c0-4.828-3.948-8.759-8.81-8.759
		h-35.345c-4.94,0-8.81,3.849-8.81,8.759v61.931C273.672,260.897,277.621,264.828,282.483,264.828z"/>
	<path style="fill:#EAEAEA;" d="M17.655,450.207h476.69V132.414H17.655V450.207z M406.103,397.241
		c0,14.56-11.871,26.409-26.466,26.409h-35.345c-14.595,0-26.466-11.849-26.466-26.409v-61.935
		c0-14.565,11.871-26.414,26.466-26.414h35.345c14.595,0,26.466,11.849,26.466,26.414V397.241z M388.448,167.724
		c14.595,0,26.466,11.849,26.466,26.414v79.586c0,4.875-3.948,8.828-8.828,8.828s-8.828-3.953-8.828-8.828v-79.586
		c0-4.828-3.948-8.759-8.81-8.759c-4.879,0-8.828-3.953-8.828-8.828S383.569,167.724,388.448,167.724z M256.017,194.138
		c0-14.565,11.871-26.414,26.466-26.414h35.345c14.595,0,26.466,11.849,26.466,26.414v61.931c0,14.565-11.871,26.414-26.466,26.414
		h-35.345c-14.595,0-26.466-11.849-26.466-26.414V194.138z M256.034,308.892c14.595,0,26.466,11.849,26.466,26.414v79.59
		c0,4.875-3.948,8.828-8.828,8.828c-4.879,0-8.828-3.953-8.828-8.828v-79.591c0-4.828-3.948-8.759-8.81-8.759
		c-4.879,0-8.828-3.953-8.828-8.828S251.155,308.892,256.034,308.892z M194.224,167.724c14.595,0,26.466,11.849,26.466,26.414
		v79.586c0,4.875-3.948,8.828-8.828,8.828c-4.879,0-8.828-3.953-8.828-8.828v-79.586c0-4.828-3.948-8.759-8.81-8.759
		c-4.879,0-8.828-3.953-8.828-8.828S189.345,167.724,194.224,167.724z M194.224,308.892c14.595,0,26.466,11.849,26.466,26.414v79.59
		c0,4.875-3.948,8.828-8.828,8.828c-4.879,0-8.828-3.953-8.828-8.828v-79.591c0-4.828-3.948-8.759-8.81-8.759
		c-4.879,0-8.828-3.953-8.828-8.828S189.345,308.892,194.224,308.892z M61.793,194.138c0-14.565,11.871-26.414,26.466-26.414h35.345
		c14.595,0,26.466,11.849,26.466,26.414v61.931c0,14.565-11.871,26.414-26.466,26.414H88.259c-14.595,0-26.466-11.849-26.466-26.414
		V194.138z M61.793,335.306c0-14.565,11.871-26.414,26.466-26.414h35.345c14.595,0,26.466,11.849,26.466,26.414v61.935
		c0,14.56-11.871,26.409-26.466,26.409H88.259c-14.595,0-26.466-11.849-26.466-26.409V335.306z"/>
	<path style="fill:#EAEAEA;" d="M88.259,264.828h35.345c4.94,0,8.81-3.849,8.81-8.759v-61.931c0-4.828-3.948-8.759-8.81-8.759
		H88.259c-4.94,0-8.81,3.849-8.81,8.759v61.931C79.448,260.897,83.397,264.828,88.259,264.828z"/>
	<path style="fill:#EAEAEA;" d="M88.259,405.996h35.345c4.94,0,8.81-3.845,8.81-8.754v-61.935c0-4.828-3.948-8.759-8.81-8.759
		H88.259c-4.94,0-8.81,3.849-8.81,8.759v61.935C79.448,402.069,83.397,405.996,88.259,405.996z"/>
</g>
<path style="fill:#F28544;" d="M17.655,61.793v52.966h476.69V61.793H17.655z M44.138,105.931c-9.733,0-17.655-7.918-17.655-17.655
	s7.922-17.655,17.655-17.655s17.655,7.918,17.655,17.655S53.871,105.931,44.138,105.931z M88.276,105.931
	c-9.733,0-17.655-7.918-17.655-17.655s7.922-17.655,17.655-17.655s17.655,7.918,17.655,17.655S98.009,105.931,88.276,105.931z
	 M132.414,105.931c-9.733,0-17.655-7.918-17.655-17.655s7.922-17.655,17.655-17.655s17.655,7.918,17.655,17.655
	S142.147,105.931,132.414,105.931z"/>
<path style="fill:#EAEAEA;" d="M379.638,326.547h-35.345c-4.94,0-8.81,3.849-8.81,8.759v61.935c0,4.828,3.948,8.754,8.81,8.754
	h35.345c4.94,0,8.81-3.845,8.81-8.754v-61.935C388.448,330.478,384.5,326.547,379.638,326.547z"/>
<g>
	<path style="fill:#314E55;" d="M0,44.138v70.621v17.655v335.448h512V132.414v-17.655V44.138H0z M494.345,450.207H17.655V132.414
		h476.69V450.207z M17.655,114.759V61.793h476.69v52.966H17.655z"/>
	<path style="fill:#314E55;" d="M44.138,70.621c-9.733,0-17.655,7.918-17.655,17.655s7.922,17.655,17.655,17.655
		s17.655-7.918,17.655-17.655S53.871,70.621,44.138,70.621z"/>
	<path style="fill:#314E55;" d="M88.276,70.621c-9.733,0-17.655,7.918-17.655,17.655s7.922,17.655,17.655,17.655
		s17.655-7.918,17.655-17.655S98.009,70.621,88.276,70.621z"/>
	<path style="fill:#314E55;" d="M132.414,70.621c-9.733,0-17.655,7.918-17.655,17.655s7.922,17.655,17.655,17.655
		s17.655-7.918,17.655-17.655S142.147,70.621,132.414,70.621z"/>
	<path style="fill:#314E55;" d="M88.259,282.483h35.345c14.595,0,26.466-11.849,26.466-26.414v-61.931
		c0-14.565-11.871-26.414-26.466-26.414H88.259c-14.595,0-26.466,11.849-26.466,26.414v61.931
		C61.793,270.634,73.664,282.483,88.259,282.483z M79.448,194.138c0-4.91,3.871-8.759,8.81-8.759h35.345
		c4.862,0,8.81,3.931,8.81,8.759v61.931c0,4.909-3.871,8.758-8.81,8.758H88.259c-4.862,0-8.81-3.931-8.81-8.759V194.138z"/>
	<path style="fill:#314E55;" d="M282.483,282.483h35.345c14.595,0,26.466-11.849,26.466-26.414v-61.931
		c0-14.565-11.871-26.414-26.466-26.414h-35.345c-14.595,0-26.466,11.849-26.466,26.414v61.931
		C256.017,270.634,267.888,282.483,282.483,282.483z M273.672,194.138c0-4.91,3.871-8.759,8.81-8.759h35.345
		c4.862,0,8.81,3.931,8.81,8.759v61.931c0,4.909-3.871,8.759-8.81,8.759h-35.345c-4.862,0-8.81-3.931-8.81-8.759V194.138z"/>
	<path style="fill:#314E55;" d="M379.638,308.892h-35.345c-14.595,0-26.466,11.849-26.466,26.414v61.935
		c0,14.56,11.871,26.409,26.466,26.409h35.345c14.595,0,26.466-11.849,26.466-26.409v-61.935
		C406.103,320.741,394.233,308.892,379.638,308.892z M388.448,397.241c0,4.909-3.871,8.754-8.81,8.754h-35.345
		c-4.862,0-8.81-3.927-8.81-8.754v-61.935c0-4.909,3.871-8.759,8.81-8.759h35.345c4.862,0,8.81,3.931,8.81,8.759V397.241z"/>
	<path style="fill:#314E55;" d="M88.259,423.651h35.345c14.595,0,26.466-11.849,26.466-26.409v-61.935
		c0-14.565-11.871-26.414-26.466-26.414H88.259c-14.595,0-26.466,11.849-26.466,26.414v61.935
		C61.793,411.802,73.664,423.651,88.259,423.651z M79.448,335.306c0-4.909,3.871-8.759,8.81-8.759h35.345
		c4.862,0,8.81,3.931,8.81,8.759v61.935c0,4.909-3.871,8.754-8.81,8.754H88.259c-4.862,0-8.81-3.927-8.81-8.754V335.306z"/>
	<path style="fill:#314E55;" d="M194.224,185.379c4.862,0,8.81,3.931,8.81,8.759v79.586c0,4.875,3.948,8.828,8.828,8.828
		c4.879,0,8.828-3.953,8.828-8.828v-79.586c0-14.565-11.871-26.414-26.466-26.414c-4.879,0-8.828,3.953-8.828,8.828
		S189.345,185.379,194.224,185.379z"/>
	<path style="fill:#314E55;" d="M256.034,326.547c4.862,0,8.81,3.931,8.81,8.759v79.59c0,4.875,3.948,8.828,8.828,8.828
		c4.879,0,8.828-3.953,8.828-8.828v-79.591c0-14.565-11.871-26.414-26.466-26.414c-4.879,0-8.828,3.953-8.828,8.828
		S251.155,326.547,256.034,326.547z"/>
	<path style="fill:#314E55;" d="M194.224,326.547c4.862,0,8.81,3.931,8.81,8.759v79.59c0,4.875,3.948,8.828,8.828,8.828
		c4.879,0,8.828-3.953,8.828-8.828v-79.591c0-14.565-11.871-26.414-26.466-26.414c-4.879,0-8.828,3.953-8.828,8.828
		S189.345,326.547,194.224,326.547z"/>
	<path style="fill:#314E55;" d="M388.448,185.379c4.862,0,8.81,3.931,8.81,8.759v79.586c0,4.875,3.948,8.828,8.828,8.828
		s8.828-3.953,8.828-8.828v-79.586c0-14.565-11.871-26.414-26.466-26.414c-4.879,0-8.828,3.953-8.828,8.828
		C379.621,181.427,383.569,185.379,388.448,185.379z"/>
</g>
<g>
</g>
<g>
</g>
<g>
</g>
<g>
</g>
<g>
</g>
<g>
</g>
<g>
</g>
<g>
</g>
<g>
</g>
<g>
</g>
<g>
</g>
<g>
</g>
<g>
</g>
<g>
</g>
<g>
</g>
</svg>
