<?xml version="1.0" encoding="iso-8859-1"?>
<!-- Generator: Adobe Illustrator 19.0.0, SVG Export Plug-In . SVG Version: 6.00 Build 0)  -->
<svg version="1.1" id="Layer_1" xmlns="http://www.w3.org/2000/svg" xmlns:xlink="http://www.w3.org/1999/xlink" x="0px" y="0px"
	 viewBox="0 0 512 512" style="enable-background:new 0 0 512 512;" xml:space="preserve">
<g>
	<path style="fill:#81A4E3;" d="M311.934,149.736v-0.67l10.302,0.561c1.132,0.075,2.264,0.108,3.415,0.108
		c28.179,0,51.104-22.75,51.104-50.717s-22.925-50.717-51.104-50.717c-9.925,0-19.547,2.821-27.811,8.16l-9.538,6.156l-4.557-10.387
		c-7.481-17.056-24.425-28.08-43.17-28.08c-23.274,0-43.302,17.203-46.576,40.019l-1.226,8.5l-8.585-0.217
		c-21.811,0-39.283,17.335-39.283,38.642s17.472,38.642,38.953,38.642h67.311h19.321H311.934z"/>
	<path style="fill:#81A4E3;" d="M141.943,416.811l-9.481,6.052l-4.547-10.283c-5.745-12.962-18.764-21.335-33.179-21.335
		c-17.887,0-33.273,13.061-35.792,30.377l-1.236,8.533l-8.623-0.269c-16.481,0-29.764,13-29.764,28.981s13.283,28.981,29.604,28.981
		h101.594v-0.613l10.255,0.528c0.877,0.052,1.774,0.085,2.67,0.085c21.736,0,39.424-17.335,39.424-38.642
		s-17.689-38.642-39.424-38.642C155.774,410.566,148.34,412.726,141.943,416.811z"/>
	<path style="fill:#81A4E3;" d="M453.255,410.566c-7.67,0-15.104,2.16-21.5,6.245l-9.481,6.052l-4.547-10.283
		c-5.745-12.962-18.764-21.335-33.179-21.335c-17.887,0-33.273,13.061-35.792,30.377l-1.236,8.533l-8.623-0.269
		c-16.481,0-29.764,13-29.764,28.981s13.283,28.981,29.604,28.981H440.33v-0.613l10.255,0.528c0.877,0.052,1.774,0.085,2.67,0.085
		c21.736,0,39.424-17.335,39.424-38.642C492.679,427.901,474.991,410.566,453.255,410.566z"/>
</g>
<path style="fill:#E4AD40;" d="M289.811,275.321c0-15.981-13-28.981-28.981-28.981s-28.981,13-28.981,28.981
	s13,28.981,28.981,28.981S289.811,291.302,289.811,275.321z"/>
<path style="fill:#314E55;" d="M453.255,391.245c-7.924,0-15.679,1.561-22.877,4.566c-10.207-14.769-27.283-23.887-45.83-23.887
	c-9.199,0-17.963,2.285-25.704,6.316l-62.335-70.646c7.762-8.575,12.624-19.825,12.624-32.273c0-23.325-16.623-42.837-38.642-47.325
	v-58.939h51.104l2.028-0.028c0.67,0.019,1.349,0.028,2.028,0.028c1.33,0,2.651-0.038,3.962-0.108l1.642-0.024v-0.09
	c36.217-2.849,64.821-33.075,64.821-69.816c0-38.618-31.594-70.038-70.425-70.038c-10.141,0-20.057,2.146-29.16,6.269
	c-12.075-18.759-33.047-30.42-55.915-30.42c-30.104,0-56.368,20.472-64.085,48.764c-28.66,3.608-50.906,28.019-50.906,57.5
	c0,31.962,26.141,57.962,58.274,57.962h67.311v58.939c-22.019,4.488-38.642,24-38.642,47.325c0,12.571,4.944,23.936,12.844,32.54
	l-65.988,83.585c-6.505,0.441-12.857,1.877-18.819,4.366c-10.208-14.769-27.283-23.887-45.83-23.887
	c-24.698,0-46.311,16.382-53.189,39.189C18.057,414.637,0,434.712,0,458.868C0,485.5,21.943,507.17,48.924,507.17h111.255
	l1.774-0.019c0.491,0.014,0.991,0.019,1.491,0.019c0.943,0,1.877-0.024,2.802-0.066l3.594-0.038v-0.236
	c29.396-3.156,52.349-27.792,52.349-57.623c0-25.623-16.949-47.375-40.354-55.012l59.166-74.943c6.067,2.75,12.746,4.37,19.83,4.37
	c7.183,0,13.943-1.679,20.077-4.505l62.62,70.969c-5.492,5.969-9.77,13.068-12.169,21.026c-23.49,3.523-41.547,23.599-41.547,47.755
	c0,26.632,21.943,48.302,48.924,48.302h111.255l1.774-0.019c0.49,0.014,0.991,0.019,1.491,0.019c0.943,0,1.877-0.024,2.802-0.066
	l3.594-0.038v-0.236C489.047,503.674,512,479.038,512,449.208C512,417.245,485.651,391.245,453.255,391.245z M183.858,149.736
	c-21.481,0-38.953-17.335-38.953-38.642s17.472-38.642,39.283-38.642l8.585,0.217l1.226-8.5
	c3.274-22.816,23.302-40.019,46.576-40.019c18.745,0,35.689,11.024,43.17,28.08l4.557,10.387l9.538-6.156
	c8.264-5.34,17.887-8.161,27.811-8.161c28.179,0,51.104,22.75,51.104,50.717s-22.925,50.717-51.104,50.717
	c-1.151,0-2.283-0.033-3.415-0.108l-10.302-0.561v0.67h-41.443H251.17H183.858z M202.868,449.208
	c0,21.307-17.689,38.642-39.424,38.642c-0.896,0-1.792-0.033-2.67-0.085l-10.255-0.528v0.613H48.924
	c-16.321,0-29.604-13-29.604-28.981s13.283-28.981,29.764-28.981l8.623,0.269l1.236-8.533c2.519-17.316,17.906-30.377,35.793-30.377
	c14.415,0,27.434,8.373,33.179,21.335l4.547,10.283l9.481-6.052c6.396-4.085,13.83-6.245,21.5-6.245
	C185.179,410.566,202.868,427.901,202.868,449.208z M231.849,275.321c0-15.981,13-28.981,28.981-28.981s28.981,13,28.981,28.981
	s-13,28.981-28.981,28.981S231.849,291.302,231.849,275.321z M453.255,487.849c-0.896,0-1.792-0.033-2.67-0.085l-10.255-0.528v0.613
	H338.736c-16.321,0-29.604-13-29.604-28.981s13.283-28.981,29.764-28.981l8.623,0.269l1.236-8.533
	c2.519-17.316,17.906-30.377,35.792-30.377c14.415,0,27.434,8.373,33.179,21.335l4.547,10.283l9.481-6.052
	c6.396-4.085,13.83-6.245,21.5-6.245c21.736,0,39.424,17.335,39.424,38.642S474.991,487.849,453.255,487.849z"/>
<g>
</g>
<g>
</g>
<g>
</g>
<g>
</g>
<g>
</g>
<g>
</g>
<g>
</g>
<g>
</g>
<g>
</g>
<g>
</g>
<g>
</g>
<g>
</g>
<g>
</g>
<g>
</g>
<g>
</g>
</svg>
