<?xml version="1.0" encoding="iso-8859-1"?>
<!-- Generator: Adobe Illustrator 19.0.0, SVG Export Plug-In . SVG Version: 6.00 Build 0)  -->
<svg version="1.1" id="Layer_1" xmlns="http://www.w3.org/2000/svg" xmlns:xlink="http://www.w3.org/1999/xlink" x="0px" y="0px"
	 viewBox="0 0 512 512" style="enable-background:new 0 0 512 512;" xml:space="preserve">
<polygon style="fill:#314E55;" points="257.702,309.635 256.317,309.635 257.01,310.327 "/>
<polygon style="fill:#F58CAC;" points="452.923,408.615 59.077,408.615 59.077,339.692 19.692,339.692 19.692,448 492.308,448 
	492.308,339.692 452.923,339.692 "/>
<g>
	<path style="fill:#314E55;" d="M433.231,320v68.923H78.769V320H0v147.692h512V320H433.231z M492.308,448H19.692V339.692h39.385
		v68.923h393.846v-68.923h39.385V448z"/>
	<path style="fill:#314E55;" d="M250.048,331.212c1.923,1.923,4.442,2.885,6.961,2.885s5.039-0.961,6.961-2.885l65.192-65.192
		c3.846-3.846,3.846-10.077,0-13.923c-3.846-3.846-10.077-3.846-13.923,0l-49.394,49.394V44.308h-19.692v255.164l-49.394-49.394
		c-3.846-3.846-10.077-3.846-13.923,0c-3.846,3.846-3.846,10.077,0,13.923L250.048,331.212z M257.702,309.635l-0.692,0.692
		l-0.692-0.692H257.702z"/>
</g>
<g>
</g>
<g>
</g>
<g>
</g>
<g>
</g>
<g>
</g>
<g>
</g>
<g>
</g>
<g>
</g>
<g>
</g>
<g>
</g>
<g>
</g>
<g>
</g>
<g>
</g>
<g>
</g>
<g>
</g>
</svg>
