<?xml version="1.0" encoding="UTF-8"?> <svg xmlns="http://www.w3.org/2000/svg" xmlns:xlink="http://www.w3.org/1999/xlink" width="1600px" height="1200px" viewBox="0 0 1600 1200"><!-- Generator: Sketch 56.3 (81716) - https://sketch.com --><title>Mobile App Testing</title><desc>Created with Sketch.</desc><g id="Mobile-App-Testing" stroke="none" stroke-width="1" fill="none" fill-rule="evenodd"><g id="bg" transform="translate(98.000000, 789.000000)" opacity="0.5"><path d="M1260.84397,86.8391884 C1172.18628,63.9299525 1128.12104,95.7245986 1027.73884,139.399469 C927.356652,183.074339 803.398313,197.079356 661.889806,115.56989 C520.381299,34.0604236 361.825342,63.9299525 297.350915,154.885359 C254.367964,215.522297 155.250992,250.893844 0,261 L1402,261 C1367.00111,160.165616 1319.94909,102.112012 1260.84397,86.8391884 Z" id="Shape" fill="#CCEEFF"></path><path d="M2,261 C49.9801107,141.650595 143.855421,101.867461 283.625929,141.650595 C493.281693,201.325298 615.844566,156.569271 725.242071,67.0572176 C834.639575,-22.4548358 963.194473,-34.3897762 1114.51913,105.845774 C1215.40224,199.336141 1311.2292,251.054216 1402,261 L2,261 Z" id="Shape" fill="#E5F6FF"></path></g><g id="Background" transform="translate(346.000000, 227.000000)"><g id="Background-Element-1" transform="translate(147.000000, 151.000000)"><path d="M50,0 L282,0 C309.614237,0 332,22.3857625 332,50 L332,622 C332,649.614237 309.614237,672 282,672 L50,672 C22.3857625,672 0,649.614237 0,622 L0,50 C0,22.3857625 22.3857625,0 50,0 Z" id="Shape" fill="#86D7FF"></path><path d="M51,20 L103.228013,20 L103.228013,36 C103.228013,43.7319865 109.496027,50 117.228013,50 L223.734177,50 C231.466163,50 237.734177,43.7319865 237.734177,36 L237.734177,20 L281,20 C297.568542,20 311,33.4314575 311,50 L311,622 C311,638.568542 297.568542,652 281,652 L51,652 C34.4314575,652 21,638.568542 21,622 L21,50 C21,33.4314575 34.4314575,20 51,20 Z" id="Shape" fill="#FFFFFF"></path><path d="M193,95 L245,95 C248.313708,95 251,97.6862915 251,101 L251,106 C251,109.313708 248.313708,112 245,112 L193,112 C189.686292,112 187,109.313708 187,106 L187,101 C187,97.6862915 189.686292,95 193,95 Z" id="Shape" fill="#D8F4FF"></path><path d="M193,126 L275,126 C278.313708,126 281,128.686292 281,132 L281,137 C281,140.313708 278.313708,143 275,143 L193,143 C189.686292,143 187,140.313708 187,137 L187,132 C187,128.686292 189.686292,126 193,126 Z" id="Shape-Copy" fill="#D8F4FF"></path><path d="M193,157 L245,157 C248.313708,157 251,159.686292 251,163 L251,168 C251,171.313708 248.313708,174 245,174 L193,174 C189.686292,174 187,171.313708 187,168 L187,163 C187,159.686292 189.686292,157 193,157 Z" id="Shape-Copy-3" fill="#D8F4FF"></path><path d="M193,188 L275,188 C278.313708,188 281,190.686292 281,194 L281,199 C281,202.313708 278.313708,205 275,205 L193,205 C189.686292,205 187,202.313708 187,199 L187,194 C187,190.686292 189.686292,188 193,188 Z" id="Shape-Copy-2" fill="#D8F4FF"></path><rect id="Rectangle" fill="#D8F4FF" x="51" y="235" width="230" height="190" rx="8"></rect><path d="M57,95 L161,95 C164.313708,95 167,97.6862915 167,101 L167,199 C167,202.313708 164.313708,205 161,205 L57,205 C53.6862915,205 51,202.313708 51,199 L51,101 C51,97.6862915 53.6862915,95 57,95 Z" id="Shape" fill="#01B681"></path><path d="M101.831121,162.268143 L118.478724,138.053448 C119.119513,137.121391 120.394556,136.885272 121.326613,137.526061 C121.533207,137.668095 121.711966,137.846854 121.854,138.053448 L146.120689,173.350451 C146.761478,174.282508 146.525359,175.557551 145.593302,176.19834 C145.251904,176.433051 144.847349,176.558702 144.433051,176.558702 L73.048,176.558702 C71.9169208,176.558702 71,175.641781 71,174.510702 C71,174.069546 71.1424504,173.640183 71.40615,173.286516 L89.0845118,149.576713 C89.7606113,148.669944 91.0437795,148.482949 91.9505483,149.159049 C92.10922,149.277357 92.249904,149.418041 92.3682119,149.576713 L101.831121,162.268143 L101.831121,162.268143 Z" id="Shape" fill="#FFFFFF"></path><circle id="Shape" fill="#FFFFFF" cx="97.0120002" cy="131.144" r="6.144"></circle><path d="M193,455 L245,455 C248.313708,455 251,457.686292 251,461 L251,466 C251,469.313708 248.313708,472 245,472 L193,472 C189.686292,472 187,469.313708 187,466 L187,461 C187,457.686292 189.686292,455 193,455 Z" id="Shape" fill="#D8F4FF"></path><path d="M193,486 L275,486 C278.313708,486 281,488.686292 281,492 L281,497 C281,500.313708 278.313708,503 275,503 L193,503 C189.686292,503 187,500.313708 187,497 L187,492 C187,488.686292 189.686292,486 193,486 Z" id="Shape-Copy" fill="#D8F4FF"></path><path d="M193,517 L245,517 C248.313708,517 251,519.686292 251,523 L251,528 C251,531.313708 248.313708,534 245,534 L193,534 C189.686292,534 187,531.313708 187,528 L187,523 C187,519.686292 189.686292,517 193,517 Z" id="Shape-Copy-3" fill="#D8F4FF"></path><path d="M193,548 L275,548 C278.313708,548 281,550.686292 281,554 L281,559 C281,562.313708 278.313708,565 275,565 L193,565 C189.686292,565 187,562.313708 187,559 L187,554 C187,550.686292 189.686292,548 193,548 Z" id="Shape-Copy-2" fill="#D8F4FF"></path><path d="M57,455 L161,455 C164.313708,455 167,457.686292 167,461 L167,559 C167,562.313708 164.313708,565 161,565 L57,565 C53.6862915,565 51,562.313708 51,559 L51,461 C51,457.686292 53.6862915,455 57,455 Z" id="Shape" fill="#00A7FF"></path><path d="M90.9402302,484.579232 L132.1659,505.192067 C134.876145,506.547189 135.974688,509.84282 134.619566,512.553065 C134.088666,513.614866 133.227701,514.475831 132.1659,515.006731 L90.9402302,535.619566 C88.2299855,536.974688 84.9343543,535.876145 83.579232,533.1659 C83.1983124,532.404061 83,531.563996 83,530.712234 L83,489.486564 C83,486.456418 85.4564184,484 88.4865641,484 C89.3383263,484 90.178391,484.198312 90.9402302,484.579232 Z" id="Shape" fill="#FFFFFF"></path></g><g id="Background-Element-5" transform="translate(514.000000, 151.000000)"><path d="M19.5,39.551229 L1.55442665,57.6735616 C0.0015162503,59.2417677 0.0121723561,61.7714037 1.57823956,63.3264712 L19.5,81.1223526 L19.5,115 C19.5,118.037566 21.9624339,120.5 25,120.5 L251,120.5 C254.037566,120.5 256.5,118.037566 256.5,115 L256.5,6 C256.5,2.96243388 254.037566,0.5 251,0.5 L25,0.5 C21.9624339,0.5 19.5,2.96243388 19.5,6 L19.5,39.551229 Z" id="Path" fill="#00A7FF" fill-rule="nonzero"></path><path d="M25,4.5 L251,4.5 C251.828427,4.5 252.5,5.17157288 252.5,6 L252.5,115 C252.5,115.828427 251.828427,116.5 251,116.5 L25,116.5 C24.1715729,116.5 23.5,115.828427 23.5,115 L23.5,80.2897936 C23.5,79.7569177 23.2873465,79.2460746 22.9092207,78.8706047 L4.39668101,60.4880935 L22.9211272,41.7811864 C23.2919681,41.4066928 23.5,40.9009578 23.5,40.3739204 L23.5,6 C23.5,5.17157288 24.1715729,4.5 25,4.5 Z" id="Path" fill="#FFFFFF" fill-rule="nonzero"></path><g id="backgorund-2" transform="translate(47.000000, 31.000000)"><circle id="Shape" fill="#01B681" cx="30.72" cy="30.72" r="30.72"></circle><path d="M18.5078063,29.4056422 C16.8310962,28.2750282 14.5557119,28.7183222 13.4255932,30.3957671 C12.2954744,32.0732119 12.7385743,34.3495934 14.4152844,35.4802074 L26.3596486,43.5343518 C27.9106302,44.5801864 30.000184,44.2882991 31.2055022,42.8574401 L47.1383381,23.9432299 C48.4413639,22.39638 48.2442548,20.0856364 46.6980825,18.7820395 C45.1519103,17.4784427 42.8421788,17.6756382 41.539153,19.222488 L27.7253882,35.6211036 L18.5078063,29.4056422 Z" id="Shape" fill="#FFFFFF" fill-rule="nonzero"></path></g><path d="M143,34 L173.949286,34 C176.710709,34 178.949286,36.2385763 178.949286,39 C178.949286,41.7614237 176.710709,44 173.949286,44 L143,44 C140.238576,44 138,41.7614237 138,39 C138,36.2385763 140.238576,34 143,34 Z" id="bg" fill="#CCEEFF"></path><path d="M143,56 L217.949286,56 C220.710709,56 222.949286,58.2385763 222.949286,61 C222.949286,63.7614237 220.710709,66 217.949286,66 L143,66 C140.238576,66 138,63.7614237 138,61 C138,58.2385763 140.238576,56 143,56 Z" id="bg" fill="#CCEEFF"></path><path d="M143,78 L197.949286,78 C200.710709,78 202.949286,80.2385763 202.949286,83 C202.949286,85.7614237 200.710709,88 197.949286,88 L143,88 C140.238576,88 138,85.7614237 138,83 C138,80.2385763 140.238576,78 143,78 Z" id="bg" fill="#CCEEFF"></path></g><g id="Background-Element-4" transform="translate(534.000000, 299.000000)"><path d="M8,0 L80,0 C84.418278,0 88,3.581722 88,8 L88,80 C88,84.418278 84.418278,88 80,88 L8,88 C3.581722,88 0,84.418278 0,80 L0,8 C0,3.581722 3.581722,0 8,0 Z" id="Shape" fill="#86D7FF"></path><path d="M24.3618079,28.9899598 L27.9899598,25.3618079 C28.2703094,25.0814583 28.7054841,25.0278858 29.045458,25.2318702 L32.2487055,27.1538187 C34.3324093,25.8137578 36.6730203,24.8385414 39.1802933,24.3184145 L40.0962794,20.65447 C40.1924385,20.2698335 40.5380349,20 40.9345092,20 L46.0654908,20 C46.4619651,20 46.8075615,20.2698335 46.9037206,20.65447 L47.8201374,24.3201374 L47.8201374,24.3645332 C50.2946375,24.9057756 52.6029888,25.8911788 54.6574258,27.2329773 L54.7145192,27.1758839 L57.954542,25.2318702 C58.2945159,25.0278858 58.7296906,25.0814583 59.0100402,25.3618079 L62.6381921,28.9899598 C62.9185417,29.2703094 62.9721142,29.7054841 62.7681298,30.045458 L60.8241161,33.2854808 L60.7475768,33.3620202 C62.0690831,35.413893 63.036647,37.7152703 63.5639791,40.1798626 L63.6798626,40.1798626 L67.34553,41.0962794 C67.7301665,41.1924385 68,41.5380349 68,41.9345092 L68,47.0654908 C68,47.4619651 67.7301665,47.8075615 67.34553,47.9037206 L63.6798626,48.8201374 L63.5711303,48.8201374 C63.0471561,51.2892204 62.0814819,53.5950821 60.7607134,55.6511165 L60.8241161,55.7145192 L62.7681298,58.954542 C62.9721142,59.2945159 62.9185417,59.7296906 62.6381921,60.0100402 L59.0100402,63.6381921 C58.7296906,63.9185417 58.2945159,63.9721142 57.954542,63.7681298 L54.7145192,61.8241161 L54.6777164,61.7873134 C52.6181922,63.1358854 50.3027873,64.1260017 47.8201374,64.6690268 L47.8201374,64.6798626 L46.9037206,68.34553 C46.8075615,68.7301665 46.4619651,69 46.0654908,69 L40.9345092,69 C40.5380349,69 40.1924385,68.7301665 40.0962794,68.34553 L39.1891417,64.716979 C36.667701,64.1950714 34.3146512,63.2129532 32.2217327,61.862365 L29.045458,63.7681298 C28.7054841,63.9721142 28.2703094,63.9185417 27.9899598,63.6381921 L24.3618079,60.0100402 C24.0814583,59.7296906 24.0278858,59.2945159 24.2318702,58.954542 L26.122315,55.8038006 C24.745622,53.7016757 23.7423869,51.3329277 23.2068747,48.7918218 L19.65447,47.9037206 C19.2698335,47.8075615 19,47.4619651 19,47.0654908 L19,41.9345092 C19,41.5380349 19.2698335,41.1924385 19.65447,41.0962794 L23.214375,40.2063032 C23.7530978,37.6721499 24.7571393,35.3100659 26.1328285,33.213722 L24.2318702,30.045458 C24.0278858,29.7054841 24.0814583,29.2703094 24.3618079,28.9899598 Z M43.6080034,55.3256035 C49.5775518,55.3256035 54.416827,50.4863284 54.416827,44.51678 C54.416827,38.5472316 49.5775518,33.7079564 43.6080034,33.7079564 C37.638455,33.7079564 32.7991799,38.5472316 32.7991799,44.51678 C32.7991799,50.4863284 37.638455,55.3256035 43.6080034,55.3256035 Z" id="Shape" fill="#FFFFFF"></path></g><g id="Background-Element-2" transform="translate(359.000000, 412.000000)"><path d="M8,0 L167,0 C171.418278,0 175,3.581722 175,8 L175,130 C175,134.418278 171.418278,138 167,138 L8,138 C3.581722,138 0,134.418278 0,130 L0,8 C0,3.581722 3.581722,0 8,0 Z" id="Shape" fill="#FFAA0A"></path><path d="M70.1575925,48.7315229 C71.5556292,47.6503744 71.812518,45.6405977 70.7313695,44.2425609 C69.6502211,42.8445241 67.6404443,42.5876353 66.2424075,43.6687838 L36.2424075,66.8687838 C34.5858642,68.149844 34.5858642,70.6504627 36.2424075,71.9315229 L66.2424075,95.1315229 C67.6404443,96.2126714 69.6502211,95.9557826 70.7313695,94.5577458 C71.812518,93.159709 71.5556292,91.1499323 70.1575925,90.0687838 L43.4309151,69.4001534 L70.1575925,48.7315229 Z" id="Path" fill="#FFFFFF" fill-rule="nonzero"></path><path d="M139.957592,48.7315229 C141.355629,47.6503744 141.612518,45.6405977 140.53137,44.2425609 C139.450221,42.8445241 137.440444,42.5876353 136.042408,43.6687838 L106.042408,66.8687838 C104.385864,68.149844 104.385864,70.6504627 106.042408,71.9315229 L136.042408,95.1315229 C137.440444,96.2126714 139.450221,95.9557826 140.53137,94.5577458 C141.612518,93.159709 141.355629,91.1499323 139.957592,90.0687838 L113.230915,69.4001534 L139.957592,48.7315229 Z" id="Path" fill="#FFFFFF" fill-rule="nonzero" transform="translate(123.000077, 69.400153) scale(-1, 1) translate(-123.000077, -69.400153) "></path><circle id="Oval" fill="#FFFFFF" cx="75" cy="69" r="4"></circle><circle id="Oval" fill="#FFFFFF" cx="101" cy="69" r="4"></circle><circle id="Oval" fill="#FFFFFF" cx="88" cy="69" r="4"></circle></g><g id="Background-Element-6"><path d="M9,0.5 L220,0.5 C224.69442,0.5 228.5,4.30557963 228.5,9 L228.5,172 C228.5,176.69442 224.69442,180.5 220,180.5 L9,180.5 C4.30557963,180.5 0.5,176.69442 0.5,172 L0.5,9 C0.5,4.30557963 4.30557963,0.5 9,0.5 Z" id="Path" fill="#00A7FF" fill-rule="nonzero"></path><path d="M9,5.5 C7.06700338,5.5 5.5,7.06700338 5.5,9 L5.5,172 C5.5,173.932997 7.06700338,175.5 9,175.5 L220,175.5 C221.932997,175.5 223.5,173.932997 223.5,172 L223.5,9 C223.5,7.06700338 221.932997,5.5 220,5.5 L9,5.5 Z" id="Path" fill="#FFFFFF" fill-rule="nonzero"></path><path d="M35,30 L95.3416378,30 C98.1030615,30 100.341638,32.2385763 100.341638,35 C100.341638,37.7614237 98.1030615,40 95.3416378,40 L35,40 C32.2385763,40 30,37.7614237 30,35 C30,32.2385763 32.2385763,30 35,30 Z" id="bg" fill="#01B681"></path><path d="M115,30 L125.341638,30 C128.103062,30 130.341638,32.2385763 130.341638,35 C130.341638,37.7614237 128.103062,40 125.341638,40 L115,40 C112.238576,40 110,37.7614237 110,35 C110,32.2385763 112.238576,30 115,30 Z" id="bg" fill="#FFAA0A"></path><path d="M35,52 L145.5,52 C148.261424,52 150.5,54.2385763 150.5,57 C150.5,59.7614237 148.261424,62 145.5,62 L35,62 C32.2385763,62 30,59.7614237 30,57 C30,54.2385763 32.2385763,52 35,52 Z" id="bg" fill="#FFAA0A"></path><path d="M165,52 L198.5,52 C201.261424,52 203.5,54.2385763 203.5,57 C203.5,59.7614237 201.261424,62 198.5,62 L165,62 C162.238576,62 160,59.7614237 160,57 C160,54.2385763 162.238576,52 165,52 Z" id="bg" fill="#01B681"></path><path d="M35,74 L64.4065003,74 C67.1679241,74 69.4065003,76.2385763 69.4065003,79 C69.4065003,81.7614237 67.1679241,84 64.4065003,84 L35,84 C32.2385763,84 30,81.7614237 30,79 C30,76.2385763 32.2385763,74 35,74 Z" id="bg" fill="#DB2721"></path><path d="M85,74 L124.4065,74 C127.167924,74 129.4065,76.2385763 129.4065,79 C129.4065,81.7614237 127.167924,84 124.4065,84 L85,84 C82.2385763,84 80,81.7614237 80,79 C80,76.2385763 82.2385763,74 85,74 Z" id="bg" fill="#01B681"></path><path d="M119,96 L198.506704,96 C201.268127,96 203.506704,98.2385763 203.506704,101 C203.506704,103.761424 201.268127,106 198.506704,106 L119,106 C116.238576,106 114,103.761424 114,101 C114,98.2385763 116.238576,96 119,96 Z" id="bg-copy" fill="#FFAA0A"></path><path d="M35,96 L98.5067037,96 C101.268127,96 103.506704,98.2385763 103.506704,101 C103.506704,103.761424 101.268127,106 98.5067037,106 L35,106 C32.2385763,106 30,103.761424 30,101 C30,98.2385763 32.2385763,96 35,96 Z" id="bg-copy" fill="#DB2721"></path><path d="M35,118 L149.319342,118 C152.080765,118 154.319342,120.238576 154.319342,123 C154.319342,125.761424 152.080765,128 149.319342,128 L35,128 C32.2385763,128 30,125.761424 30,123 C30,120.238576 32.2385763,118 35,118 Z" id="bg-copy-2" fill="#01B681"></path><path d="M35,140 L72.1596708,140 C74.9210945,140 77.1596708,142.238576 77.1596708,145 C77.1596708,147.761424 74.9210945,150 72.1596708,150 L35,150 C32.2385763,150 30,147.761424 30,145 C30,142.238576 32.2385763,140 35,140 Z" id="bg-copy-3" fill="#DB2721"></path><path d="M92,140 L179.159671,140 C181.921095,140 184.159671,142.238576 184.159671,145 C184.159671,147.761424 181.921095,150 179.159671,150 L92,150 C89.2385763,150 87,147.761424 87,145 C87,142.238576 89.2385763,140 92,140 Z" id="bg-copy-3" fill="#FFAA0A"></path></g><g id="Background-Element-3" transform="translate(527.000000, 515.000000)"><path d="M4,0 L186,0 C188.209139,0 190,1.790861 190,4 L190,134 C190,136.209139 188.209139,138 186,138 L4,138 C1.790861,138 0,136.209139 0,134 L0,4 C0,1.790861 1.790861,0 4,0 Z" id="Path" fill="#00A7FF" fill-rule="nonzero"></path><polygon id="Path" fill="#FFFFFF" fill-rule="nonzero" points="4 4 4 134 186 134 186 4"></polygon><path d="M44,20 L124,20 C126.209139,20 128,21.790861 128,24 C128,26.209139 126.209139,28 124,28 L44,28 C41.790861,28 40,26.209139 40,24 C40,21.790861 41.790861,20 44,20 Z" id="Shape" fill="#DB2721"></path><circle id="Shape" fill="#DB2721" cx="26" cy="24" r="6"></circle><circle id="Shape" fill="#FFAA0A" cx="26" cy="60" r="6"></circle><circle id="Shape" fill="#01B681" cx="26" cy="98" r="6"></circle><path d="M44,56 L134,56 C136.209139,56 138,57.790861 138,60 C138,62.209139 136.209139,64 134,64 L44,64 C41.790861,64 40,62.209139 40,60 C40,57.790861 41.790861,56 44,56 Z" id="Shape" fill="#FFAA0A"></path><path d="M44,94 L134,94 C136.209139,94 138,95.790861 138,98 C138,100.209139 136.209139,102 134,102 L44,102 C41.790861,102 40,100.209139 40,98 C40,95.790861 41.790861,94 44,94 Z" id="Shape" fill="#01B681"></path><path d="M72,38 L166,38 C168.209139,38 170,39.790861 170,42 C170,44.209139 168.209139,46 166,46 L72,46 C69.790861,46 68,44.209139 68,42 C68,39.790861 69.790861,38 72,38 Z" id="Shape" fill="#A1E0FF"></path><path d="M54,74 L148,74 C150.209139,74 152,75.790861 152,78 C152,80.209139 150.209139,82 148,82 L54,82 C51.790861,82 50,80.209139 50,78 C50,75.790861 51.790861,74 54,74 Z" id="Shape" fill="#A1E0FF"></path><path d="M54,112 L148,112 C150.209139,112 152,113.790861 152,116 C152,118.209139 150.209139,120 148,120 L54,120 C51.790861,120 50,118.209139 50,116 C50,113.790861 51.790861,112 54,112 Z" id="Shape" fill="#A1E0FF"></path></g></g><g id="Man-Standing-1" transform="translate(260.000000, 433.000000)"><g id="Back-Bottom/-Standing/-Skirt" transform="translate(42.000000, 255.504086)"><path d="M113.901401,9.49460316 L126.602303,10 C131.920651,117.732081 135.719883,178.246705 138,191.543873 C140.280117,204.84104 138.791742,252.164917 133.534874,333.515502 L155.821331,354.665903 C139.487042,353.124732 127.994867,349.764361 121.344805,344.584788 C114.828056,243.937701 98.4327527,236.485359 106.390813,196.191472 C100.228808,179.905715 96.6284698,161.887086 93.2065038,142.198538 L85.284815,192.995564 L40.1616742,332.665684 C48.6914547,343.111543 54.0289031,349.292587 56.1740194,351.208814 C58.3191356,353.125041 52.0870914,352.636776 37.4778867,349.744017 C33.9152735,351.325101 28.4210168,350.27453 20.9951167,346.592304 C47.0120565,243.957427 28.3806275,220.841945 53.4925465,188.881783 C46.2420986,137.007674 42.8889755,65.7776111 51.8512822,5.23037118 L114,8.86234763 L113.901401,9.49460316 Z" id="Shape" fill="#FFB5B9" fill-rule="evenodd"></path><path d="M39.2834939,163.862394 C32.0330461,111.988285 8.25395717,47.5505303 31.8512822,5.23037118 L50.2851821,6.15833625 C87.7153464,6.8730262 113.154387,4.82024745 126.602303,-1.13686838e-13 C143.315028,40.6708818 143.315028,111.988285 140,161.543873 C104.793905,172.409016 70.8878334,175.300806 39.2834939,163.862394 Z" id="Shape" fill="#134DBD" fill-rule="evenodd"></path><path d="M23.4414558,335.600306 C23.9487333,335.132898 39.4035787,346.176618 42.9601384,347.75022 C46.5166981,349.323823 49.395828,351.100418 52.4707129,348.235795 C55.4546562,350.28073 62.8278442,352.926149 64.2254563,353.763793 C66.8326091,355.326361 67.6023663,357.148554 66.534728,359.230371 L50.2452853,359.230371 L26.0257754,349.978721 L25.5018599,359.230371 L22.8835272,359.230371 C21.2433039,354.292211 20.2821282,350.846634 20,348.89364 C19.043346,342.271334 22.5805819,336.393519 23.4414558,335.600306 Z" id="Shape" fill="#021768" fill-rule="evenodd"></path><path d="M120.604177,335.600306 C121.111454,335.132898 136.5663,346.176618 140.12286,347.75022 C143.679419,349.323823 146.558549,351.100418 149.633434,348.235795 C152.617377,350.28073 159.990565,352.926149 161.388177,353.763793 C163.99533,355.326361 164.765087,357.148554 163.697449,359.230371 L147.408006,359.230371 L123.188496,349.978721 L122.664581,359.230371 L120.046248,359.230371 C118.406025,354.292211 117.444849,350.846634 117.162721,348.89364 C116.206067,342.271334 119.743303,336.393519 120.604177,335.600306 Z" id="Shape" fill="#021768" fill-rule="evenodd"></path><path d="M42.298564,75.7630063 C63.1414966,81.9321831 80.0764502,84.2114874 93.1239105,82.5822139 C93.671939,82.51378 94.0607273,82.0140385 93.9922934,81.46601 C93.9238595,80.9179815 93.424118,80.5291932 92.8760895,80.5976271 C80.1443351,82.1874775 63.4675401,79.9429192 42.8661903,73.8452471 C42.3366157,73.6885014 41.7802432,73.990739 41.6234976,74.5203136 C41.4667519,75.0498882 41.7689895,75.6062606 42.298564,75.7630063 Z" id="Shape" fill="#0E143F" fill-rule="nonzero"></path></g><g id="Back-body/-Man/-Pose4/-Long-sleeve-shirt-" transform="translate(0.000000, 82.331875)"><path d="M249.178733,4.44827602 C253.055591,-4.42261718 255.755161,-9.30549391 257.277445,-10.2003542 C258.79973,-11.0952144 258.848745,-7.83303879 257.424493,-0.413827254 C269.032888,-5.23635517 275.266119,-7.16124379 276.124185,-6.18849312 C277.834744,-4.24931243 268.706554,-0.0728723018 267.728319,1.36062446 C269.127528,1.47653415 280.512335,-2.18879481 281.408177,-0.361468833 C282.005405,0.856748482 277.827625,3.18843023 268.874838,6.63357641 C277.184401,5.12289018 281.395257,4.98941778 281.507406,6.23315922 C281.675629,8.09877137 273.540715,10.1635427 270.113131,11.4524883 C268.859142,11.924052 278.576549,11.0666736 278.588739,12.4511163 C278.600929,13.835559 275.342232,14.3972359 268.995295,16.0648284 C264.764003,17.1765567 260.109803,17.1855246 255.032693,16.0917321 L248.929673,31.3130908 L240.89748,23.4586641 L249.178733,4.44827602 Z" id="Shape" fill="#FFB5B9" fill-rule="evenodd"></path><path d="M153.00328,19.3975687 C165.54807,29.3252902 188.159128,54.0678473 202.890776,72.9700884 C205.923666,58.5189292 222.166611,52.4829414 239.783972,18.162079 C242.065499,13.7173748 246.898268,15.0150665 254.28228,22.0551544 C238.128424,72.7919864 221.881699,131.944114 210.19673,129.158715 C202.803095,127.396261 182.83716,111.058115 164.125937,92.8223257 C164.421332,108.509742 164.323226,122.767816 165.851827,133.448409 C168.018376,148.586451 175.947032,151.134 178.44661,157.904077 C180.326796,162.996538 153.61819,191.134868 126.983895,198.62069 C100.3496,206.106511 84.29988,197.984572 68.7493451,186.700147 C65.4006352,184.270117 67.9493465,170.517403 70.2157059,156.131251 C58.4645818,155.314811 49.0904415,153.525129 46.3256728,150.053291 C37.9224176,139.500967 35.2890738,52.505009 44.7737928,33.7542704 C45.9802831,30.6039488 48.3319233,27.7760134 52.4824171,25.1089731 C55.6916047,23.0468009 65.8013807,18.6155117 82.811745,11.8151055 C82.811745,10.8649605 82.811745,5.47847172 84.5604349,5.94771999 C91.482433,7.80518809 121.050749,4.6498568 121.845281,5.13992447 C122.639813,5.62999215 123.639813,13.2143872 123.463761,10.8649605 C140.116032,11.92301 149.962539,14.7672128 153.00328,19.3975687 L153.00328,19.3975687 Z M70.9873291,122.4552 C70.9591469,122.519867 70.9309014,122.584342 70.9025928,122.648624 C70.9556889,122.659856 71.0086741,122.671064 71.0615495,122.682249 C71.0370655,122.60672 71.0123244,122.531036 70.9873291,122.4552 L70.9873291,122.4552 Z" id="Shape" fill="#DB2721" fill-rule="evenodd"></path><path d="M239.637367,29.9295847 C243.642937,31.5419793 246.003119,33.4915012 246.793511,35.709795 C246.984517,36.2458679 247.559445,36.5202605 248.077649,36.3226681 C248.595852,36.1250757 248.861099,35.5303224 248.670093,34.9942496 C247.644561,32.1160182 244.850209,29.80787 240.362633,28.0014498 C239.847942,27.7942668 239.268345,28.0579394 239.068068,28.5903792 C238.867791,29.1228189 239.122675,29.7224016 239.637367,29.9295847 Z" id="Shape" fill="#0E143F" fill-rule="nonzero"></path><path d="M84.830539,14.0201612 C92.7323911,18.0704266 101.898481,18.2957562 112.277314,14.7310727 C112.801465,14.5510493 113.0853,13.9655508 112.911278,13.4233254 C112.737255,12.8810999 112.171273,12.5874772 111.647122,12.7675007 C101.741125,16.1697855 93.1154119,15.95774 85.7184886,12.1662869 C85.2236198,11.9126312 84.6236751,12.1220065 84.3784745,12.6339397 C84.133274,13.145873 84.3356701,13.7665055 84.830539,14.0201612 Z" id="Shape" fill="#0E143F" fill-rule="nonzero"></path><path d="M164.208024,90.9924377 L155.497946,81.9585877 C155.107929,81.5540729 154.474764,81.5532226 154.083733,81.9566885 C153.692702,82.3601544 153.69188,83.0151521 154.081897,83.4196668 L162.791976,92.4535169 C163.181993,92.8580316 163.815157,92.8588819 164.206188,92.455416 C164.597219,92.0519502 164.598041,91.3969524 164.208024,90.9924377 Z" id="Shape" fill="#0E143F" fill-rule="nonzero"></path><path d="M68.6131164,188.357856 C72.254445,193.645462 85.4363922,198.275207 108.424031,202.534105 C108.967666,202.634824 109.487296,202.260572 109.584658,201.698191 C109.682019,201.13581 109.320243,200.598261 108.776608,200.497542 C86.3758267,196.347371 73.4426115,191.804986 70.2420347,187.157399 C67.0466667,182.517376 67.0466667,175.233164 70.372853,165.264078 L70.4031141,165.153969 C75.4880894,141.810094 74.6502498,123.849064 67.820391,111.278061 C61.1626733,99.0239006 55.4782332,85.7497366 50.7674011,71.4548068 C50.5891931,70.9140381 50.02096,70.6251061 49.4982169,70.8094592 C48.9754738,70.9938123 48.6961729,71.5816397 48.8743809,72.1224084 C53.6240291,86.5351252 59.3580905,99.9251636 66.0768953,112.291761 C72.6182538,124.331751 73.4370167,141.779947 68.4641478,164.643512 C64.9665898,175.153541 64.972865,183.071814 68.6131164,188.357856 Z" id="Shape" fill="#0E143F" fill-rule="nonzero"></path></g><g id="Head-Back/-Women/-3" transform="translate(77.000000, 0.734458)"><path d="M44.3379457,80.2911423 C43.6705256,87.5933901 43.6245516,91.8302289 44.2000235,93.0016587 C45.3990463,95.4423874 50.5405854,94.4258721 44,102 C37.4594146,109.574128 12.5704805,113.931846 4.99636517,101.734458 C7.75454868,93.0943464 11.8611717,81.767125 17.3162343,67.7527935 C11.7670085,64.2642148 7.51520172,60.5040285 6.98160595,57.0184909 C5.89096365,49.8942315 4.22848125,43.3539431 1.99415875,37.3976256 C1.99415875,22.8186196 14.0824705,11 28.9941588,11 C43.905847,11 55.9941588,22.8186196 55.9941588,37.3976256 L55.9941588,54.2777399 C55.9941588,68.856746 48.7480552,81.1855391 46.9761676,81.0799196 C46.725879,81.0648076 45.7809274,80.7870916 44.3379457,80.2911423 Z" id="Shape" fill="#FFB5B9" fill-rule="evenodd"></path><path d="M44.6662724,86.3692412 C44.7068789,79.9765875 44.6278894,76.2500481 44.4148106,75.0273263 C44.3957508,74.9179545 44.376727,74.8303172 44.3512116,74.7477669 C44.3226483,74.6541175 44.3226483,74.6541175 44.2198263,74.4629036 C43.9467817,74.0545936 43.9467817,74.0545936 42.8454145,74.1486484 C42.4268527,74.5804144 42.4268527,74.5804144 42.3970585,74.743059 C42.3678981,74.8603998 42.3678981,74.8603998 42.3568354,74.9368355 C42.3461023,75.0151152 42.3392101,75.1039589 42.3342286,75.2122694 C42.3180018,75.5650796 42.3204878,76.2074219 42.3406746,77.1597892 C42.380293,79.0288905 42.4891012,82.1091488 42.6671506,86.4043072 C42.7210707,87.7050435 44.6580031,87.6710683 44.6662724,86.3692412 Z" id="Shape" fill="#F97A80" fill-rule="nonzero"></path><path d="M-61.1369412,142.962152 C-26.1737798,185.860752 44.3451992,145.328128 53.1409628,119.584747 C61.9367264,93.8413663 49.9816338,87.1250929 42.8729759,82.7331242 C35.764318,78.3411555 32.6944193,48.7018777 40.4747941,45.3424764 C48.2551689,41.9830751 48.2401369,52.1580605 50.6114356,51.6740901 C52.9827343,51.1901197 47.4010982,31.14698 54.6284566,30.0100738 C56.6573763,29.6909128 67.3987883,16.8145908 60.5195236,7.79009101 C53.6402589,-1.23440875 33.5471447,-1.16940522 14.2916822,8.46974219 C11.8848555,9.67458249 9.77210001,12.1620153 7.95341575,15.9320406 C4.35820829,15.6290978 1.13636028,17.6595092 -1.71212827,22.0232748 C-5.9848611,28.5689233 -4.35289688,46.8647617 -22.4362478,66.9978145 C-33.0790047,78.8469008 -96.1001027,100.063551 -61.1369412,142.962152 Z" id="Shape" fill="#732213" fill-rule="evenodd"></path><path d="M47.4784004,51.3393615 C44.18781,48.162709 41.2561487,48.5642314 39.6205277,52.5321844 C39.410052,53.0427903 39.6533556,53.6273425 40.1639615,53.8378182 C40.6745674,54.0482939 41.2591196,53.8049903 41.4695953,53.2943844 C42.5378242,50.7029028 43.7653612,50.5347785 46.0893176,52.778267 C46.4866604,53.1618516 47.1197271,53.1506984 47.5033117,52.7533557 C47.8868964,52.3560129 47.8757432,51.7229462 47.4784004,51.3393615 Z" id="Shape" fill="#F97A80" fill-rule="nonzero"></path></g></g><g id="Man-Standing-1" transform="translate(1167.500000, 741.500000) scale(-1, 1) translate(-1167.500000, -741.500000) translate(1010.000000, 433.000000)"><g id="Head-Front/-Man/5" transform="translate(77.000000, 0.734458)"><path d="M11.0586355,66.5797014 C7.29345845,66.5854907 3.772759,64.2270616 2.47841471,60.470421 C1.2951409,57.0361459 2.29796793,53.3778949 4.74837127,51.0088975 C4.10588979,46.779045 3.52309936,42.908621 3,39.3976256 C3,24.8186196 15.0883118,13 30,13 C44.9116882,13 57,24.8186196 57,39.3976256 L57,56.2777399 C57,68.04749 51.9256415,77.797052 46.146017,81.4559557 C47.3634348,86.2006903 49.0493152,90.1377721 51.2036583,93.2672012 C55.1703564,99.0292825 55.1024702,105.273549 51,112 L12,112 L15,68.4903368 C14.6767561,68.1875605 11.3626872,66.8838956 11.0586355,66.5797014 Z" id="Shape" fill="#FFB5B9" fill-rule="evenodd"></path><path d="M49,47 C49,46.4477153 48.5522847,46 48,46 C47.4477153,46 47,46.4477153 47,47 L47,54.8015404 C47,55.3032017 47.3716912,55.7272251 47.8690315,55.7929269 C49.726248,56.038277 50.4828322,56.43101 50.4828322,56.6094332 C50.4828322,57.0087595 49.5120509,57.9538233 47.4940744,59.1374229 C47.0176862,59.4168378 46.8580079,60.0295374 47.1374229,60.5059256 C47.4168378,60.9823138 48.0295374,61.1419921 48.5059256,60.8625771 C51.1317253,59.3224723 52.4828322,58.0071582 52.4828322,56.6094332 C52.4828322,55.1676218 51.2408327,54.3654145 49,53.9471743 L49,47 Z" id="Shape" fill="#F97A80" fill-rule="nonzero"></path><path d="M35.0103392,63.1434276 C35.6587312,67.6173799 38.8579685,69.5626375 44.13288,68.8554357 C44.6802672,68.7820481 45.0645197,68.2788107 44.9911321,67.7314236 C44.9177445,67.1840364 44.4145071,66.7997839 43.86712,66.8731715 C39.6007056,67.4451651 37.4666096,66.1475537 36.9896608,62.8565724 C36.9104479,62.3099978 36.403147,61.9311263 35.8565724,62.0103392 C35.3099978,62.0895521 34.9311263,62.596853 35.0103392,63.1434276 Z" id="Shape" fill="#F97A80" fill-rule="nonzero"></path><path d="M32.9346905,42.9774268 C30.4612096,44.0911216 28.2614396,44.3324831 28.0213667,43.5165227 C27.7812938,42.7005624 29.5918287,41.1362679 32.0653095,40.0225732 C34.5387904,38.9088784 36.7385604,38.6675169 36.9786333,39.4834773 C37.2187062,40.2994376 35.4081713,41.8637321 32.9346905,42.9774268 Z M52.6927676,43.5120356 C49.9366533,42.7890653 47.8399339,41.5260207 48.0096137,40.6909465 C48.1792934,39.8558723 50.5511181,39.7649941 53.3072324,40.4879644 C56.0633467,41.2109347 58.1600661,42.4739793 57.9903863,43.3090535 C57.8207066,44.1441277 55.4488819,44.2350059 52.6927676,43.5120356 Z M37.5,51 C36.6715729,51 36,50.3284271 36,49.5 C36,48.6715729 36.6715729,48 37.5,48 C38.3284271,48 39,48.6715729 39,49.5 C39,50.3284271 38.3284271,51 37.5,51 Z M53.5,51 C52.6715729,51 52,50.3284271 52,49.5 C52,48.6715729 52.6715729,48 53.5,48 C54.3284271,48 55,48.6715729 55,49.5 C55,50.3284271 54.3284271,51 53.5,51 Z M8.48808872,50.3486536 C8.00911598,50.0481112 6.20403157,49.7185296 4.34386644,51.4803591 C1.76525712,43.6646268 0.810462934,37.4993694 1.024637,33.0812785 C1.35016191,26.366186 3.56594669,22.1425949 7.67199135,20.4105051 C8.54612101,13.9435853 12.3272144,10.4439508 19.0152717,9.91160155 C29.0473575,9.11307766 52.4255641,5.99950794 59.8523974,10.4271667 C67.2792308,14.8548255 71.0569032,30.6472228 56.9578708,35.5500602 C49.5596185,38.1227494 39.5047546,36.5948976 26.7932791,30.9665047 C26.9321286,36.5655127 26.0446044,40.1495052 24.1307065,41.7184822 C22.2168086,43.2874592 20.4181557,44.3851486 18.7347476,45.0115504 C18.7059149,51.0584709 17.9010657,54.2432546 16.3201999,54.5659016 C13.9489011,55.049872 12.1006565,51.1832362 8.48808872,50.3486536 Z" id="Shape" fill="#732213" fill-rule="evenodd"></path><path d="M14.0150927,56.8124811 C10.7245023,53.6358286 7.792841,54.037351 6.15721998,58.0053039 C5.94674426,58.5159099 6.19004786,59.100462 6.70065378,59.3109378 C7.21125971,59.5214135 7.79581189,59.2781099 8.00628762,58.767504 C9.07451646,56.1760223 10.3020535,56.007898 12.6260099,58.2513865 C13.0233527,58.6349712 13.6564194,58.623818 14.040004,58.2264752 C14.4235887,57.8291325 14.4124355,57.1960657 14.0150927,56.8124811 Z" id="Shape" fill="#F97A80" fill-rule="nonzero"></path><path d="M44.5696202,81.0715194 C41.9945757,83.006267 39.7693829,83.7374982 37.8803748,83.3523831 C35.7997497,82.9282028 30.8945369,80.7147717 23.3052144,76.7501833 C22.8156979,76.4944646 22.2115654,76.6839952 21.9558467,77.1735117 C21.7001281,77.6630282 21.8896587,78.2671607 22.3791752,78.5228794 C30.1549968,82.5848931 35.1420625,84.8352595 37.48085,85.3120718 C40.0112545,85.8279495 42.7791924,84.9183642 45.7709965,82.6704863 C46.212539,82.3387354 46.3015427,81.7118572 45.9697918,81.2703147 C45.6380409,80.8287722 45.0111627,80.7397685 44.5696202,81.0715194 Z" id="Shape" fill="#F97A80" fill-rule="nonzero"></path></g><g id="Front-Bottom/-Standing/-Long-Pants" transform="translate(42.000000, 255.504086)"><path d="M9.39071247,303.400708 L30.0048833,307.407696 L17.4778867,349.744017 L0.995116676,346.592304 L9.39071247,303.400708 Z M136.39714,308.443613 L157.240609,305.884357 L158.40937,350.019645 L141.759391,352.115643 L136.39714,308.443613 Z" id="Shape" fill="#FFB5B9" fill-rule="evenodd"></path><path d="M82.3731923,101.526684 L24.2834939,339.364037 L1.99761421,334.453518 C6.83748819,242.233033 15.9327814,181.7933 29.2834939,173.862394 C22.0330461,121.988285 22.8889755,65.7776111 31.8512822,5.23037118 L50.2851821,6.15833625 L126.602303,-2.84217094e-14 L160,171.543873 L159.303534,334.513328 L138.927144,339.364037 C124.587204,250.625447 118.075094,196.901259 129.390813,186.191472 C115.080715,163.175085 99.4081743,134.953489 82.3731923,101.526684 Z" id="Shape" fill="#021768" fill-rule="evenodd"></path><path d="M0.883527163,343.363424 C2.65058149,341.622528 10.9257985,346.701036 14.3723408,346.710867 C16.6700357,346.717422 18.1666205,345.618702 18.8620953,343.414709 C33.1638499,349.264615 41.6183036,352.970853 44.2254563,354.533421 C46.8326091,356.09599 47.6023663,357.918183 46.534728,360 L0.883527163,360 C-0.294509054,350.069546 -0.294509054,344.524021 0.883527163,343.363424 Z M139.883527,343.593795 C141.650581,341.852899 149.925798,346.931407 153.372341,346.941239 C155.670036,346.947793 157.166621,345.849073 157.862095,343.64508 C172.16385,349.494986 180.618304,353.201224 183.225456,354.763793 C185.832609,356.326361 186.602366,358.148554 185.534728,360.230371 L139.883527,360.230371 C138.705491,350.299918 138.705491,344.754392 139.883527,343.593795 Z" id="Shape" fill="#021768" fill-rule="evenodd"></path><path d="M122.360826,24.5528153 C122.686211,24.1065615 122.588229,23.481024 122.141975,23.1556381 C121.695721,22.8302521 121.070183,22.9282349 120.744798,23.3744887 L88.1096849,68.1322435 C88.0478742,68.2170144 87.9997884,68.3109839 87.9671917,68.410704 L76.4138166,103.754979 C76.2422201,104.279929 76.5286703,104.844592 77.0536209,105.016189 C77.5785714,105.187785 78.1432344,104.901335 78.3148308,104.376384 L89.8190064,69.1826217 L122.360826,24.5528153 Z" id="Shape" fill="#0E143F" fill-rule="nonzero"></path></g><g id="Front-body/-Man/-Pose2/-Hoodie" transform="translate(0.000000, 82.331875)"><path d="M51.2979255,29.3540656 C52.5848729,27.8244687 54.2805008,26.3642688 56.4824171,24.949353 C57.9492421,24.0067949 71.8288732,-4.23532622 85.151952,2.91322522e-13 C98.4750307,4.23532622 114.462975,21.9189519 118.825954,21.9189519 C123.188934,21.9189519 121.789298,0.395904315 124.85313,0.395904315 C126.523947,0.395904315 134.1611,5.63282 141.676435,11.2272741 C166.053703,12.1791317 210.967711,16.4030865 217.955206,16.3748497 C220.674107,3.23217595 244.341042,-10.443087 272.547694,-47.5453373 C275.935349,-52.0013651 279.206852,-49.9177036 286.260757,-41.0105818 C260.693344,7.8237404 231.32376,44.0449033 224.943729,45.7322731 C221.111559,46.7457927 194.298422,54.6486438 169.774183,60.432948 C172.034254,83.396629 170.307226,110.163647 172.549857,125.833287 C176.346087,152.358183 185.393423,163.89221 179.022526,179.168976 C173.977354,191.266787 87.5367704,199.377341 72.7493451,186.540527 C64.3240085,179.226578 70.1522343,161.920944 73.9468852,146.49703 C58.796902,118.124858 37.1131429,58.6646122 41.5992033,46.1160492 C44.311124,38.5301711 47.1020559,32.6441341 51.2979255,29.3540656 Z" id="Shape" fill="#01B681" fill-rule="evenodd"></path><path d="M166.345377,50.3041213 C168.661583,56.9713965 169.348069,62.3891063 168.636214,68.5626077 C168.570799,69.129915 168.962333,69.6446664 169.51073,69.7123373 C170.059127,69.7800081 170.55672,69.3749728 170.622136,68.8076655 C171.372263,62.3022534 170.645087,56.5634285 168.227525,49.604394 C168.040741,49.0667313 167.46799,48.7875088 166.94825,48.9807331 C166.428509,49.1739575 166.158594,49.7664585 166.345377,50.3041213 Z" id="Shape" fill="#0E143F" fill-rule="nonzero"></path><path d="M112.112086,160.847906 C125.102018,155.281976 128.984861,149.663045 125.880087,138.087316 L157.817789,130.581683 C158.982364,142.61308 164.031856,149.163792 172.802741,146.741698 C173.336341,146.594344 173.653436,146.027405 173.510994,145.475406 C173.368551,144.923406 172.820511,144.595376 172.286911,144.742731 C164.812171,146.806893 160.570514,140.917356 159.710604,129.231822 C159.664244,128.601815 159.087553,128.161596 158.491959,128.301565 L124.40114,136.313199 C123.834545,136.446354 123.496561,137.049308 123.666286,137.62416 C127.011958,148.955833 123.750612,153.761413 110.625729,159.241342 C110.192952,159.422036 109.938541,159.888382 110.012708,160.365037 C111.007751,166.759973 111.723285,173.170915 112.159332,179.597951 C112.18117,179.91982 112.346934,180.212716 112.607568,180.389957 C117.123014,183.460632 131.980365,183.870825 147.188763,181.64014 C164.154128,179.151752 176.5525,174.246696 178.87557,167.726441 C179.066567,167.190364 178.80131,166.595616 178.283102,166.398034 C177.764895,166.200452 177.189972,166.474855 176.998976,167.010932 C175.046118,172.492095 163.106115,177.21581 146.908,179.591662 C132.660637,181.681388 118.587559,181.372167 114.117034,178.911681 C113.692893,172.876201 113.024572,166.854919 112.112086,160.847906 Z" id="Shape" fill="#0E143F" fill-rule="nonzero"></path><path d="M102.316019,21.44431 C114.789752,33.5430121 119.861763,44.6500432 117.693849,54.7817764 C115.415275,65.4306819 114.601124,75.0122317 115.256744,83.5282126 C115.30059,84.0977383 115.782437,84.5226601 116.332978,84.4773021 C116.88352,84.4319441 117.294278,83.9334824 117.250431,83.3639567 C116.611675,75.0670181 117.40861,65.6880773 119.646583,55.2289208 C121.995217,44.252592 116.620417,32.4824941 103.683981,19.9350004 C103.28109,19.544222 102.648253,19.5653041 102.2705,19.9820884 C101.892748,20.3988727 101.913127,21.0535316 102.316019,21.44431 Z" id="Shape" fill="#0E143F" fill-rule="nonzero"></path><path d="M129.532951,12.1938549 C126.401128,27.0839981 128.05999,38.2326342 134.602028,45.5508744 C140.692359,52.3638146 143.307025,60.7523842 142.454493,70.7913504 C142.40616,71.3604875 142.812976,71.8623965 143.363142,71.9123956 C143.913308,71.9623947 144.398487,71.5415502 144.446819,70.9724132 C145.347662,60.3645772 142.5527,51.3975688 136.070401,44.1461554 C130.039808,37.4000419 128.481253,26.9255301 131.487227,12.6337313 C131.604646,12.0754641 131.262354,11.5244294 130.722696,11.4029609 C130.183038,11.2814924 129.650371,11.6355877 129.532951,12.1938549 Z" id="Shape" fill="#0E143F" fill-rule="nonzero"></path><path d="M58.1549329,25.5151647 C68.5788468,20.944245 77.3178365,18.5944776 84.3545389,18.4526693 C84.9067189,18.4415414 85.345629,17.9694546 85.3350656,17.3982339 C85.324115,16.8270132 84.8677645,16.3729683 84.3155845,16.3840962 C76.9883457,16.5317596 68.0137348,18.9448816 57.3743887,23.6102691 C56.8659004,23.8332428 56.6284199,24.4404242 56.8439612,24.9664466 C57.0595025,25.492469 57.6464445,25.7381385 58.1549329,25.5151647 Z" id="Shape" fill="#0E143F" fill-rule="nonzero"></path><path d="M142,66.2068966 L144,66.2068966 C145.104569,66.2068966 146,67.133204 146,68.2758621 L146,73.4482759 C146,74.590934 145.104569,75.5172414 144,75.5172414 L142,75.5172414 C140.895431,75.5172414 140,74.590934 140,73.4482759 L140,68.2758621 C140,67.133204 140.895431,66.2068966 142,66.2068966 Z" id="Shape" fill="#0E143F" fill-rule="evenodd"></path><path d="M115,77.5862069 L117,77.5862069 C118.104569,77.5862069 119,78.5125143 119,79.6551724 L119,84.8275862 C119,85.9702443 118.104569,86.8965517 117,86.8965517 L115,86.8965517 C113.895431,86.8965517 113,85.9702443 113,84.8275862 L113,79.6551724 C113,78.5125143 113.895431,77.5862069 115,77.5862069 Z" id="Shape" fill="#0E143F" fill-rule="evenodd"></path><path d="M278.960823,-53.941332 C280.781599,-60.2575893 282.259298,-64.1054674 283.393919,-65.4849664 C284.52854,-66.8644653 285.504371,-66.2502964 286.321413,-63.6424597 C293.810227,-70.7418205 298.118599,-73.9862556 299.246529,-73.375765 C301.495059,-72.1587506 294.298178,-65.0044997 293.85288,-63.3113403 C295.206028,-63.6974803 296.39521,-64.6610035 297.841176,-63.2608402 C298.805153,-62.327398 298.41596,-60.8277981 296.673596,-58.7620405 C298.489977,-60.0595089 299.656462,-60.1437156 300.173052,-59.0146607 C300.947938,-57.3210784 302.225162,-57.0958099 299.430437,-54.6718702 C298.407981,-53.7850663 301.579594,-55.19916 302.048772,-53.9025224 C302.517951,-52.6058848 305.317775,-53.7548412 299.904944,-49.942182 C296.29639,-47.4004093 291.925837,-45.7452612 286.793286,-44.9767378 L285.017777,-42.2435989 L275.852485,-49.5899047 L278.960823,-53.941332 Z M169.854022,64.7473373 C176.991683,58.402506 181.433131,55.1573457 183.178367,55.0118562 C184.923604,54.8663668 183.635327,57.8443313 179.313538,63.9457496 C191.804469,64.6501443 198.240071,65.6307171 198.620345,66.887468 C199.378422,69.3928039 189.399267,69.1871787 187.927058,70.0586923 C189.147818,70.7754639 200.963358,72.4308865 201.02934,74.4786606 C201.072341,75.8438433 196.333422,76.1305757 186.811992,75.3388576 C194.960176,77.6025799 198.831036,79.3225625 198.42457,80.4988054 C197.814871,82.2631699 189.598613,80.5779747 185.965592,80.2476462 C184.636444,80.1267948 193.793671,83.5981118 193.239131,84.8581724 C192.684591,86.118233 189.501746,85.2026112 183.068205,83.9391375 C178.779177,83.0968218 174.557375,81.0701735 170.402799,77.8591927 L166.992105,81.0891686 C165.465351,75.3388576 163.630378,74.4786606 161.428685,72.2552447 C163.300982,70.5868209 166.109428,68.0841851 169.854022,64.7473373 Z" id="Shape" fill="#FFB5B9" fill-rule="evenodd"></path><path d="M111.84118,96.6159488 C111.627993,96.7160112 125.120233,90.7959882 129.925914,88.3664226 C138.335079,84.115076 146.430298,79.0362089 155.134716,72.2431191 C157.288571,70.5622103 159.568701,70.5098258 161.720747,72.103729 C162.169804,72.4363213 162.273204,73.0825264 161.951699,73.5470683 C161.630193,74.0116102 161.005528,74.1185765 160.556471,73.7859842 C159.122041,72.7235796 157.801075,72.753928 156.339212,73.8947929 C147.529704,80.7698973 139.325182,85.9173397 130.804074,90.2252807 C125.940654,92.6840365 112.410536,98.6206793 112.667537,98.5000523 C106.728198,101.287763 103.317008,103.685985 100.705612,107.238653 C100.197025,107.930559 99.1403117,107.704453 98.9387897,106.860605 C96.27563,95.7089614 92.5184591,82.4886954 88.4890769,70.0658436 C88.313391,69.5241925 88.595428,68.9377648 89.1190241,68.7560208 C89.6426203,68.5742768 90.2095003,68.8660392 90.3851862,69.4076903 C94.195668,81.1556574 97.7634291,93.6127936 100.401822,104.385885 C103.073221,101.358245 106.522443,99.1123712 111.84118,96.6159488 Z M166.557841,82.2272674 C166.936117,81.8109915 167.56898,81.7907605 167.97138,82.1820803 C168.37378,82.5734002 168.393337,83.2280859 168.015061,83.6443619 C164.659794,87.3366865 161.191179,91.1852506 156.600726,96.3013512 C156.059677,96.9043545 155.495718,97.5331176 154.880892,98.2187817 C129.361593,126.678356 121.34573,135.395185 110.89994,145.497491 C96.4448304,159.477281 87.4468205,165.168744 82.9609175,161.546236 C79.2956085,158.586383 73.7231517,149.128003 67.2770774,135.333167 C67.0367156,134.818784 67.2449541,134.200223 67.7421911,133.951573 C68.2394281,133.702923 68.8373701,133.918342 69.0777319,134.432725 C75.3781972,147.915952 80.8650771,157.229079 84.1915827,159.915337 C87.3976784,162.504361 96.0358975,157.040475 109.534096,143.98613 C119.929603,133.932453 127.936207,125.225694 153.4146,96.8117384 C154.029561,96.1259226 154.593662,95.4970018 155.134865,94.8938269 C159.727943,89.7748012 163.199159,85.9233506 166.557841,82.2272674 Z" id="Shape" fill="#0E143F" fill-rule="nonzero"></path></g></g></g></svg> 