<?xml version="1.0" encoding="iso-8859-1"?>
<!-- Generator: Adobe Illustrator 19.0.0, SVG Export Plug-In . SVG Version: 6.00 Build 0)  -->
<svg version="1.1" id="Layer_1" xmlns="http://www.w3.org/2000/svg" xmlns:xlink="http://www.w3.org/1999/xlink" x="0px" y="0px"
	 viewBox="0 0 512 512" style="enable-background:new 0 0 512 512;" xml:space="preserve">
<g>
	<path style="fill:#73C9C9;" d="M203.421,142.666c0,36.31-9.622,68.351-25.082,90.565c32.898-18.476,55.205-53.66,55.205-94.003
		h-30.23C203.334,140.382,203.421,141.504,203.421,142.666z"/>
	<path style="fill:#73C9C9;" d="M202.205,121.263h29.717c-6.106-36.172-30.205-66.259-62.821-80.652
		C186.387,58.634,198.546,87.37,202.205,121.263z"/>
	<path style="fill:#73C9C9;" d="M116.772,121.263V39.678c-24.242,6.728-44.189,39.931-49.388,81.585H116.772z"/>
	<path style="fill:#73C9C9;" d="M49.296,121.263c3.659-33.891,15.82-62.626,33.107-80.649
		c-32.614,14.394-56.709,44.479-62.816,80.649H49.296z"/>
	<path style="fill:#73C9C9;" d="M134.737,39.679v81.585h49.379C178.917,79.61,158.973,46.408,134.737,39.679z"/>
	<path style="fill:#73C9C9;" d="M134.737,245.646c28.271-7.85,50.719-51.752,50.719-102.979c0-1.159-0.081-2.288-0.103-3.438
		h-50.616V245.646z"/>
	<path style="fill:#73C9C9;" d="M116.772,245.646V139.228H66.147c-0.022,1.151-0.103,2.28-0.103,3.438
		C66.044,193.895,88.494,237.798,116.772,245.646z"/>
	<path style="fill:#73C9C9;" d="M48.079,142.666c0-1.163,0.087-2.284,0.107-3.438H17.965c0,40.34,22.305,75.523,55.198,93.999
		C57.702,211.014,48.079,178.974,48.079,142.666z"/>
</g>
<rect x="296.421" y="345.825" style="fill:#EAEAEA;" width="179.649" height="89.825"/>
<polygon style="fill:#D8D8D8;" points="293.518,453.614 282.737,480.562 489.755,480.562 478.974,453.614 "/>
<g>
	<path style="fill:#314E55;" d="M251.509,139.228c0-69.342-56.412-125.754-125.754-125.754S0,69.886,0,139.228
		s56.412,125.754,125.754,125.754S251.509,208.57,251.509,139.228z M66.147,139.228h50.625v106.418
		c-28.278-7.848-50.728-51.752-50.728-102.98C66.044,141.508,66.124,140.379,66.147,139.228z M185.456,142.666
		c0,51.227-22.449,95.129-50.719,102.979V139.228h50.616C185.376,140.379,185.456,141.508,185.456,142.666z M134.737,121.263V39.679
		c24.236,6.73,44.18,39.932,49.379,81.585H134.737z M116.772,39.678v81.585H67.384C72.583,79.609,92.53,46.406,116.772,39.678z
		 M178.339,233.231c15.46-22.214,25.082-54.255,25.082-90.565c0-1.163-0.087-2.284-0.107-3.438h30.23
		C233.544,179.571,211.237,214.755,178.339,233.231z M231.922,121.263h-29.717c-3.659-33.893-15.817-62.629-33.104-80.652
		C201.717,55.004,225.815,85.091,231.922,121.263z M82.403,40.614c-17.287,18.023-29.447,46.758-33.107,80.649H19.587
		C25.694,85.093,49.789,55.008,82.403,40.614z M17.965,139.228h30.221c-0.02,1.154-0.107,2.276-0.107,3.438
		c0,36.307,9.623,68.347,25.084,90.561C40.27,214.751,17.965,179.568,17.965,139.228z"/>
	<path style="fill:#314E55;" d="M511.36,486.211l-17.324-43.311V336.842c0-4.965-4.018-8.982-8.982-8.982H287.439
		c-4.965,0-8.982,4.018-8.982,8.982v106.057l-17.324,43.311c-1.105,2.763-0.763,5.904,0.903,8.368
		c1.675,2.465,4.456,3.947,7.439,3.947h233.544c2.982,0,5.763-1.483,7.439-3.947C512.123,492.114,512.465,488.974,511.36,486.211z
		 M296.421,345.825h179.649v89.825H296.421V345.825z M282.737,480.562l10.781-26.947h185.456l10.781,26.947H282.737z"/>
	<path style="fill:#314E55;" d="M230.912,385.93c-3.509-3.509-9.193-3.509-12.702,0c-3.509,3.509-3.509,9.193,0,12.702l10.07,10.07
		h-93.544v-75.579l10.07,10.07c1.754,1.754,4.053,2.631,6.351,2.631c2.298,0,4.597-0.877,6.351-2.632
		c3.509-3.509,3.509-9.193,0-12.702l-23.321-23.321c-1.166-3.607-4.435-6.258-8.433-6.258c-3.998,0-7.266,2.65-8.433,6.257
		L94,330.491c-3.509,3.509-3.509,9.193,0,12.702s9.193,3.509,12.702,0l10.07-10.07v84.561c0,4.965,4.018,8.982,8.982,8.982h102.526
		l-10.07,10.07c-3.509,3.509-3.509,9.193,0,12.702c1.754,1.754,4.053,2.632,6.351,2.632c2.298,0,4.597-0.877,6.351-2.632
		l25.404-25.404c3.509-3.509,3.509-9.193,0-12.702L230.912,385.93z"/>
</g>
<g>
</g>
<g>
</g>
<g>
</g>
<g>
</g>
<g>
</g>
<g>
</g>
<g>
</g>
<g>
</g>
<g>
</g>
<g>
</g>
<g>
</g>
<g>
</g>
<g>
</g>
<g>
</g>
<g>
</g>
</svg>
