<?xml version="1.0" encoding="iso-8859-1"?>
<!-- Generator: Adobe Illustrator 19.0.0, SVG Export Plug-In . SVG Version: 6.00 Build 0)  -->
<svg version="1.1" id="Layer_1" xmlns="http://www.w3.org/2000/svg" xmlns:xlink="http://www.w3.org/1999/xlink" x="0px" y="0px"
	 viewBox="0 0 512 512" style="enable-background:new 0 0 512 512;" xml:space="preserve">
<polygon style="fill:#73C9C9;" points="217.319,220.69 294.681,220.69 256,143.323 "/>
<path style="fill:#FFFFFF;" d="M256,79.448c-58.414,0-105.931,47.522-105.931,105.931S197.586,291.31,256,291.31
	s105.931-47.522,105.931-105.931S314.414,79.448,256,79.448z M316.474,234.159c-1.612,2.599-4.448,4.185-7.509,4.185H203.034
	c-3.06,0-5.897-1.586-7.509-4.185c-1.612-2.603-1.759-5.853-0.388-8.591l52.966-105.931c3-5.983,12.793-5.983,15.793,0
	l52.966,105.931C318.233,228.306,318.086,231.556,316.474,234.159z"/>
<path style="fill:#E4D759;" d="M256,17.655c-92.483,0-167.724,75.241-167.724,167.724c0,74.34,47.724,138.823,118.759,160.465
	c2.707,0.823,4.853,2.888,5.776,5.556L256,476.185l43.19-124.785c0.922-2.668,3.069-4.733,5.776-5.556
	C376,324.203,423.724,259.72,423.724,185.379C423.724,92.897,348.483,17.655,256,17.655z M256,308.966
	c-68.147,0-123.586-55.44-123.586-123.586S187.853,61.793,256,61.793s123.586,55.44,123.586,123.586S324.147,308.966,256,308.966z"
	/>
<g>
	<path style="fill:#314E55;" d="M256,61.793c-68.147,0-123.586,55.44-123.586,123.586S187.853,308.966,256,308.966
		s123.586-55.44,123.586-123.586S324.147,61.793,256,61.793z M256,291.31c-58.414,0-105.931-47.522-105.931-105.931
		S197.586,79.448,256,79.448s105.931,47.522,105.931,105.931S314.414,291.31,256,291.31z"/>
	<path style="fill:#314E55;" d="M256,0C153.785,0,70.621,83.159,70.621,185.379c0,80.647,50.819,150.802,126.948,175.983
		l50.086,144.698c1.233,3.556,4.586,5.94,8.345,5.94s7.112-2.384,8.345-5.94l50.086-144.698
		c76.13-25.181,126.948-95.336,126.948-175.983C441.379,83.159,358.216,0,256,0z M304.966,345.845
		c-2.707,0.823-4.853,2.888-5.776,5.556L256,476.185l-43.19-124.785c-0.922-2.668-3.069-4.733-5.776-5.556
		C136,324.203,88.276,259.72,88.276,185.379c0-92.483,75.241-167.724,167.724-167.724s167.724,75.241,167.724,167.724
		C423.724,259.72,376,324.203,304.966,345.845z"/>
	<path style="fill:#314E55;" d="M263.897,119.638c-3-5.983-12.793-5.983-15.793,0l-52.966,105.931
		c-1.371,2.737-1.224,5.987,0.388,8.591c1.612,2.599,4.448,4.185,7.509,4.185h105.931c3.06,0,5.897-1.586,7.509-4.185
		c1.612-2.603,1.759-5.853,0.388-8.591L263.897,119.638z M217.319,220.69L256,143.323l38.681,77.366H217.319z"/>
</g>
<g>
</g>
<g>
</g>
<g>
</g>
<g>
</g>
<g>
</g>
<g>
</g>
<g>
</g>
<g>
</g>
<g>
</g>
<g>
</g>
<g>
</g>
<g>
</g>
<g>
</g>
<g>
</g>
<g>
</g>
</svg>
