<?xml version="1.0" encoding="iso-8859-1"?>
<!-- Generator: Adobe Illustrator 19.0.0, SVG Export Plug-In . SVG Version: 6.00 Build 0)  -->
<svg version="1.1" id="Layer_1" xmlns="http://www.w3.org/2000/svg" xmlns:xlink="http://www.w3.org/1999/xlink" x="0px" y="0px"
	 viewBox="0 0 512 512" style="enable-background:new 0 0 512 512;" xml:space="preserve">
<g>
	<polygon style="fill:#E9E7D1;" points="37.421,201.143 310.009,201.143 173.715,102.706 	"/>
	<path style="fill:#E9E7D1;" d="M168.362,363.982L18.287,255.594v201.549h310.856V255.594L179.068,363.982
		C175.871,366.294,171.559,366.294,168.362,363.982z M150.858,438.857H50.287c-5.049,0-9.143-4.094-9.143-9.143
		s4.094-9.143,9.143-9.143h100.571c5.049,0,9.143,4.094,9.143,9.143S155.907,438.857,150.858,438.857z M150.858,411.428H50.287
		c-5.049,0-9.143-4.094-9.143-9.143s4.094-9.143,9.143-9.143h100.571c5.049,0,9.143,4.094,9.143,9.143
		S155.907,411.428,150.858,411.428z"/>
</g>
<g>
	<path style="fill:#314E55;" d="M342.447,229.576c-3.053-1.576-6.728-1.29-9.513,0.728L173.715,345.295L14.497,230.304
		c-2.795-2.018-6.469-2.304-9.513-0.728c-3.058,1.562-4.982,4.705-4.982,8.138v228.571c0,5.049,4.094,9.143,9.143,9.143h329.142
		c5.049,0,9.143-4.094,9.143-9.143V237.714C347.429,234.281,345.505,231.138,342.447,229.576z M329.143,457.142H18.287V255.594
		l150.076,108.388c3.196,2.312,7.509,2.312,10.705,0l150.076-108.388L329.143,457.142L329.143,457.142z"/>
	<path style="fill:#314E55;" d="M343.639,202.875L179.068,84.018c-3.196-2.312-7.509-2.312-10.705,0L3.791,202.875
		c-3.214,2.321-4.567,6.451-3.348,10.223c1.223,3.772,4.737,6.33,8.701,6.33h329.142c3.964,0,7.478-2.558,8.701-6.33
		C348.206,209.326,346.853,205.196,343.639,202.875z M37.421,201.143l136.294-98.437l136.294,98.437H37.421z"/>
	<path style="fill:#314E55;" d="M150.858,393.143H50.287c-5.049,0-9.143,4.094-9.143,9.143s4.094,9.143,9.143,9.143h100.571
		c5.049,0,9.143-4.094,9.143-9.143S155.907,393.143,150.858,393.143z"/>
	<path style="fill:#314E55;" d="M150.858,420.571H50.287c-5.049,0-9.143,4.094-9.143,9.143s4.094,9.143,9.143,9.143h100.571
		c5.049,0,9.143-4.094,9.143-9.143S155.907,420.571,150.858,420.571z"/>
	<path style="fill:#314E55;" d="M310.858,137.143c-5.049,0-9.143,4.094-9.143,9.143s4.094,9.143,9.143,9.143
		c40.33,0,73.143,32.812,73.143,73.143c0,5.049,4.094,9.143,9.143,9.143s9.143-4.094,9.143-9.143
		C402.286,178.157,361.273,137.143,310.858,137.143z"/>
	<path style="fill:#314E55;" d="M301.715,91.429c-5.049,0-9.143,4.094-9.143,9.143s4.094,9.143,9.143,9.143
		c75.62,0,137.143,61.522,137.143,137.143c0,5.049,4.094,9.143,9.143,9.143s9.143-4.094,9.143-9.143
		C457.143,161.152,387.42,91.429,301.715,91.429z"/>
	<path style="fill:#314E55;" d="M292.572,36.572c-5.049,0-9.143,4.094-9.143,9.143s4.094,9.143,9.143,9.143
		c110.91,0,201.142,90.232,201.142,201.142c0,5.049,4.094,9.143,9.143,9.143c5.049,0,9.143-4.094,9.143-9.143
		C512,135.009,413.563,36.572,292.572,36.572z"/>
</g>
<g>
</g>
<g>
</g>
<g>
</g>
<g>
</g>
<g>
</g>
<g>
</g>
<g>
</g>
<g>
</g>
<g>
</g>
<g>
</g>
<g>
</g>
<g>
</g>
<g>
</g>
<g>
</g>
<g>
</g>
</svg>
