<?xml version="1.0" encoding="iso-8859-1"?>
<!-- Generator: Adobe Illustrator 19.0.0, SVG Export Plug-In . SVG Version: 6.00 Build 0)  -->
<svg version="1.1" id="Layer_1" xmlns="http://www.w3.org/2000/svg" xmlns:xlink="http://www.w3.org/1999/xlink" x="0px" y="0px"
	 viewBox="0 0 512 512" style="enable-background:new 0 0 512 512;" xml:space="preserve">
<path style="fill:#E4D759;" d="M28.125,228.491h73.26h8.911H264.76V27.915c0-5.055-4.065-9.165-9.067-9.165H27.327
	c-5.002,0-9.067,4.11-9.067,9.165v200.817h7.48C26.538,228.661,27.308,228.491,28.125,228.491z M153.011,83.932l44.248-44.248
	c3.566-3.566,9.344-3.566,12.91,0c3.566,3.566,3.566,9.344,0,12.91l-44.248,44.248c-1.783,1.783-4.119,2.675-6.455,2.675
	c-2.336,0-4.672-0.892-6.455-2.675C149.445,93.276,149.445,87.498,153.011,83.932z M139.503,146.226l85.029-88.167
	c3.508-3.62,9.286-3.727,12.91-0.232c3.629,3.504,3.731,9.281,0.232,12.91l-85.029,88.167c-1.792,1.854-4.181,2.791-6.571,2.791
	c-2.282,0-4.565-0.847-6.339-2.559C136.107,155.632,136.004,149.854,139.503,146.226z"/>
<g>
	<circle style="fill:#D8D8D8;" cx="55.517" cy="374.555" r="9.13"/>
	<path style="fill:#D8D8D8;" d="M26.895,246.991c-4.485,0.605-7.896,4.18-7.896,8.827v228.366c0,5.002,4.092,9.067,9.125,9.067
		h63.912v-246.26H26.895z M55.518,401.954c-15.103,0-27.389-12.286-27.389-27.389s12.286-27.389,27.389-27.389
		s27.389,12.286,27.389,27.389S70.621,401.954,55.518,401.954z"/>
</g>
<path style="fill:#73C9C9;" d="M484.575,246.75H283.019v0.241H110.296v246.26h374.28c5.055,0,9.165-4.065,9.165-9.067V255.817
	C493.741,250.815,489.631,246.75,484.575,246.75z M381.252,309.044l44.248-44.248c3.566-3.566,9.344-3.566,12.91,0
	c3.566,3.566,3.566,9.344,0,12.91l-44.248,44.248c-1.783,1.783-4.119,2.675-6.455,2.675c-2.336,0-4.672-0.892-6.455-2.675
	C377.686,318.387,377.686,312.61,381.252,309.044z M465.915,295.848l-85.029,88.158c-1.792,1.854-4.181,2.791-6.571,2.791
	c-2.282,0-4.565-0.847-6.339-2.559c-3.629-3.504-3.731-9.281-0.232-12.91l85.029-88.158c3.504-3.62,9.281-3.727,12.91-0.232
	C469.312,286.443,469.414,292.22,465.915,295.848z"/>
<g>
	<path style="fill:#314E55;" d="M146.074,161.694c2.389,0,4.779-0.936,6.571-2.791l85.029-88.167
		c3.499-3.629,3.397-9.406-0.232-12.91c-3.624-3.495-9.401-3.388-12.91,0.232l-85.029,88.167c-3.499,3.629-3.397,9.406,0.232,12.91
		C141.509,160.847,143.792,161.694,146.074,161.694z"/>
	<path style="fill:#314E55;" d="M452.773,283.171l-85.029,88.158c-3.499,3.629-3.397,9.406,0.232,12.91
		c1.774,1.712,4.057,2.559,6.339,2.559c2.389,0,4.779-0.936,6.571-2.791l85.029-88.158c3.499-3.629,3.397-9.406-0.232-12.91
		C462.054,279.444,456.277,279.551,452.773,283.171z"/>
	<path style="fill:#314E55;" d="M484.575,228.491H283.019V27.915c0-15.121-12.259-27.425-27.327-27.425H27.327
		C12.259,0.49,0,12.794,0,27.915v219.076h2.334c-0.961,2.785-1.594,5.721-1.594,8.827v228.366c0,15.068,12.286,27.327,27.384,27.327
		h73.26h8.911h374.28c15.121,0,27.425-12.259,27.425-27.327V255.817C512,240.75,499.696,228.491,484.575,228.491z M18.259,27.915
		c0-5.055,4.065-9.165,9.067-9.165h228.366c5.002,0,9.067,4.11,9.067,9.165v200.576H110.296h-8.911h-73.26
		c-0.817,0-1.587,0.17-2.386,0.241h-7.48V27.915z M28.125,493.25c-5.033,0-9.125-4.065-9.125-9.067V255.817
		c0-4.646,3.411-8.221,7.896-8.827h65.141v246.26H28.125z M493.741,484.183c0,5.002-4.11,9.067-9.165,9.067h-374.28v-246.26h172.723
		v-0.241h201.556c5.055,0,9.165,4.065,9.165,9.067L493.741,484.183L493.741,484.183z"/>
	<path style="fill:#314E55;" d="M55.518,347.176c-15.103,0-27.389,12.286-27.389,27.389s12.286,27.389,27.389,27.389
		s27.389-12.286,27.389-27.389S70.621,347.176,55.518,347.176z M55.518,383.694c-5.033,0-9.13-4.092-9.13-9.13s4.097-9.13,9.13-9.13
		s9.13,4.092,9.13,9.13S60.551,383.694,55.518,383.694z"/>
	<path style="fill:#314E55;" d="M159.466,99.517c2.336,0,4.672-0.892,6.455-2.675l44.248-44.248c3.566-3.566,3.566-9.344,0-12.91
		c-3.566-3.566-9.344-3.566-12.91,0l-44.248,44.248c-3.566,3.566-3.566,9.344,0,12.91C154.794,98.625,157.13,99.517,159.466,99.517z
		"/>
	<path style="fill:#314E55;" d="M387.707,324.628c2.336,0,4.672-0.892,6.455-2.675l44.248-44.248c3.566-3.566,3.566-9.344,0-12.91
		c-3.566-3.566-9.344-3.566-12.91,0l-44.248,44.248c-3.566,3.566-3.566,9.344,0,12.91
		C383.035,323.737,385.371,324.628,387.707,324.628z"/>
	<path style="fill:#314E55;" d="M328.667,49.919l133.164,133.165h-41.868v18.259h63.908c5.042,0,9.13-4.083,9.13-9.13v-63.908
		h-18.259v41.868L341.577,37.009h41.868V18.75h-63.908c-5.042,0-9.13,4.083-9.13,9.13v63.908h18.259V49.919z"/>
</g>
<g>
</g>
<g>
</g>
<g>
</g>
<g>
</g>
<g>
</g>
<g>
</g>
<g>
</g>
<g>
</g>
<g>
</g>
<g>
</g>
<g>
</g>
<g>
</g>
<g>
</g>
<g>
</g>
<g>
</g>
</svg>
