<svg width="157" height="27" viewBox="0 0 157 27" fill="none" xmlns="http://www.w3.org/2000/svg">
<g clip-path="url(#clip0_113_157577)">
<path d="M109.382 14.1217L107.871 17.7391H105.663L104.965 20.7348H108.278C110.08 20.7348 110.545 19.8869 111.242 18.2478C111.533 17.4565 112.114 15.8174 112.579 14.6304C112.753 14.2913 112.928 14.0652 112.928 14.0652H109.382V14.1217Z" fill="url(#paint0_linear_113_157577)"/>
<path d="M97.2934 16.1565L97.0028 17.6261C96.8284 18.5869 96.6541 20.6217 98.3396 20.7348H103.861L104.558 17.7391H100.49L101.187 14.4043H104.675L105.256 11.9174H101.769L102.292 9.59999H105.837L106.418 7.11304H96.1891L95.6079 9.59999H98.8045L98.2814 11.9174H95.0267L94.4455 14.4043H97.7002L97.2934 16.1565Z" fill="url(#paint1_linear_113_157577)"/>
<path d="M122.343 0.5H118.449L117.461 4.11739H121.006L122.343 0.5Z" fill="url(#paint2_linear_113_157577)"/>
<path d="M115.485 0.5H111.998L111.3 4.11739H114.497L115.485 0.5Z" fill="url(#paint3_linear_113_157577)"/>
<path d="M99.6764 5.47391H100.316H106.767L107.348 3.04348H100.548L101.594 0.5H98.3977L96.4797 5.47391H98.2815H99.6764Z" fill="url(#paint4_linear_113_157577)"/>
<path d="M114.381 13.3304C114.381 13.3304 113.102 18.5304 112.986 19.2087C112.812 19.8304 112.928 20.7913 114.148 20.7913H116.473H119.786H121.239L121.704 18.9826V18.9261C121.936 18.0783 122.285 17.7391 122.285 17.7391H121.995H117.171L118.159 13.3304H120.018C121.82 13.3304 122.459 12.2565 122.634 11.1261C122.75 10.6174 123.041 8.92173 123.331 7.56521C123.331 7.56521 121.006 8.18695 119.728 8.52608L119.147 11.1261H111.242C111.242 11.1261 109.964 11.5217 107.871 12.2565C108.046 12.1435 111.242 10.1652 111.242 10.2217L111.94 7.16955H117.519C119.147 6.49129 121.123 5.64347 123.157 5.02173H108.859L106.883 13.3304H114.381Z" fill="url(#paint5_linear_113_157577)"/>
<path d="M123.448 17.7391L122.692 20.7913H128.213H129.027C130.015 20.7913 131.352 20.4522 131.701 19.2087L132.514 16.213L133.619 11.9739L134.607 8.24348L135.595 4.51304C138.733 3.94783 141.639 3.49565 144.313 3.21304L143.906 4.85217H137.861L137.338 6.88696H143.383L143.092 8.13043H136.99L136.408 10.3913H142.511L142.278 11.2957H136.118L135.537 13.613H141.697L140.651 17.9087C139.314 17.7956 138.733 16.5522 138.559 16.213L138.966 14.6304H135.246L133.619 20.8478H137.338L137.629 19.7174C138.036 20.1696 138.849 20.8478 139.837 20.8478H150.88L151.345 18.9826C151.578 18.1348 151.926 17.7957 151.926 17.7957H144.313L144.545 16.7783H149.776L150.357 14.6304H149.544H145.068L145.359 13.5H149.427C150.067 13.5 151.229 13.1609 151.578 12.1435L152.159 10.3348H153.379L153.961 8.07391H152.74L153.554 4.73913H147.567L148.032 2.93043C153.379 2.53478 156.925 2.70435 156.925 2.70435C154.891 2.13913 151.868 1.8 148.381 1.63043L148.614 0.613043H144.952L144.72 1.46087C141.988 1.46087 139.14 1.63043 136.176 1.96956L136.583 0.5H132.747L132.224 2.53478C130.131 2.87391 128.039 3.32609 126.005 3.83478L125.191 6.94348C127.342 6.26522 129.434 5.7 131.526 5.24783L130.538 9.0913L125.889 10.5043L125.075 13.8957L129.666 12.5391L128.271 17.7391H123.448ZM146.986 6.77391H149.95L149.602 8.01739H146.696L146.986 6.77391ZM146.173 10.2217H149.195C149.195 10.2217 148.962 11.3522 148.381 11.3522H145.94L146.173 10.2217Z" fill="url(#paint6_linear_113_157577)"/>
<path d="M80.3804 0.5C79.9735 0.5 79.6248 0.5 79.218 0.5C71.4298 0.5 61.7237 1.40435 53.1801 3.72174L52.4245 7.5087C52.9476 7.33913 53.4707 7.16957 53.9938 7.05652C57.8297 5.1913 66.3734 1.85652 80.3804 0.5Z" fill="url(#paint7_linear_113_157577)"/>
<path d="M86.5993 1.46075C89.0403 1.34771 90.4352 1.29119 90.4352 1.29119C89.9121 1.17814 89.389 1.12162 88.7497 1.00858C86.483 0.669446 83.6351 0.499881 80.3804 0.443359C66.3734 1.79988 57.8297 5.13466 53.9938 6.94336C67.5358 3.04336 80.3804 1.8564 86.5993 1.46075Z" fill="url(#paint8_linear_113_157577)"/>
<path d="M7.67188 21.6956C7.49752 21.6956 7.26504 21.6956 6.97443 21.6956C6.91631 21.8651 6.85819 21.9782 6.85819 22.0912L5.63767 25.2564C5.40519 24.8043 5.05647 24.1825 4.64962 23.4477C4.24278 22.7129 3.89406 22.1477 3.66158 21.6956C3.25474 21.6956 3.02226 21.6956 2.78977 21.6956C2.49917 21.6956 2.20857 21.6956 1.80173 21.6956C1.62737 22.1477 1.45301 22.7129 1.22053 23.3347L0.581203 25.0303C0.406842 25.539 0.174361 25.9912 0 26.3869C0.348722 26.3869 0.639323 26.3869 0.755564 26.3869C0.871804 26.3869 1.10429 26.3869 1.39489 26.3869C1.56925 25.8216 1.74361 25.3695 1.91797 24.9173C2.26669 23.8999 2.55729 23.2216 2.67353 22.8825C2.78977 23.1651 2.96413 23.4477 3.19662 23.8434C3.48722 24.3521 3.7197 24.7477 3.89406 25.0303C4.18466 25.4825 4.35902 25.8216 4.47526 25.9912C4.53338 26.1043 4.5915 26.2173 4.70774 26.4434C5.11459 26.4434 5.46331 26.4434 5.63767 26.4434C5.87015 26.4434 6.16075 26.4434 6.50947 26.4434L6.97443 25.1999L7.84624 23.0521L8.36932 21.8086C7.96248 21.6956 7.73 21.6956 7.67188 21.6956Z" fill="url(#paint9_linear_113_157577)"/>
<path d="M13.077 23.1652C12.9027 23.0521 12.6702 22.9391 12.3796 22.8826C12.089 22.8261 11.7984 22.7695 11.4497 22.7695C11.101 22.7695 10.7522 22.8261 10.4035 22.8826C10.0548 22.9391 9.70607 23.0521 9.41547 23.2217C9.12487 23.3913 8.83426 23.6174 8.60178 23.9C8.3693 24.1826 8.19494 24.4652 8.13682 24.6913C8.0787 24.9174 8.02058 25.2 8.0787 25.4261C8.13682 25.6521 8.25306 25.8217 8.48554 25.9913C8.71802 26.1608 8.95051 26.2739 9.29923 26.3304C9.64795 26.3869 9.99667 26.4434 10.4035 26.4434C10.636 26.4434 10.9266 26.4434 11.1591 26.3869C11.3916 26.3869 11.7403 26.3304 12.089 26.2739C12.2634 25.9347 12.4377 25.7087 12.4958 25.5391C12.089 25.5956 11.7403 25.6521 11.5078 25.7087C11.2172 25.7652 10.9847 25.7652 10.7522 25.7652C10.5779 25.7652 10.3454 25.7652 10.171 25.7087C9.99667 25.6521 9.82231 25.5956 9.70607 25.5391C9.58983 25.4261 9.53171 25.313 9.47359 25.2C9.41547 25.0869 9.47359 24.9174 9.47359 24.7478C9.47359 24.6913 9.53171 24.6347 9.53171 24.5217H13.1352C13.1933 24.4087 13.2514 24.2956 13.3095 24.1826C13.3676 23.9565 13.4258 23.7304 13.3676 23.5608C13.3676 23.4478 13.2514 23.2782 13.077 23.1652ZM12.089 24.1826H9.76419C9.82231 24.0695 9.88043 24.013 9.93855 23.9C9.99667 23.8434 10.0548 23.7869 10.171 23.6739C10.2873 23.6174 10.3454 23.5608 10.5198 23.5043C10.636 23.4478 10.8104 23.3913 10.9266 23.3913C11.0428 23.3347 11.2172 23.3347 11.3334 23.3347C11.4497 23.3347 11.5659 23.3347 11.6822 23.3347C11.7984 23.3347 11.8565 23.3913 11.9146 23.3913C11.9728 23.4478 12.0309 23.4478 12.089 23.5043C12.1471 23.5608 12.1471 23.6174 12.1471 23.6739C12.1471 23.7304 12.1471 23.7869 12.1471 23.8434C12.1471 24.013 12.1471 24.0695 12.089 24.1826Z" fill="url(#paint10_linear_113_157577)"/>
<path d="M16.448 22.0347C16.0993 22.0912 15.8087 22.1477 15.6925 22.1477L15.0532 22.2042C14.9369 22.5434 14.8207 22.7695 14.7625 22.8825H14.007C13.8907 23.1651 13.8326 23.3912 13.7745 23.5608H14.5301L13.9489 24.9738C13.8326 25.2564 13.7745 25.426 13.7745 25.4825C13.7745 25.539 13.7164 25.5955 13.7164 25.5955C13.6583 25.7086 13.6583 25.8216 13.6583 25.9347C13.6583 26.0477 13.7164 26.1608 13.8326 26.2173C13.9489 26.2738 14.0651 26.3303 14.2395 26.3868C14.4138 26.4434 14.6463 26.4434 14.8788 26.4434C14.995 26.4434 15.1694 26.4434 15.3438 26.4434C15.5181 26.4434 15.7506 26.3868 16.0412 26.3868C16.2156 26.0477 16.3899 25.8216 16.448 25.7086C16.2156 25.7651 16.0412 25.7651 15.925 25.7651C15.8087 25.7651 15.7506 25.7651 15.6344 25.7651C15.5181 25.7651 15.4019 25.7651 15.3438 25.7086C15.2856 25.6521 15.2275 25.5955 15.1694 25.539C15.1694 25.4825 15.1694 25.3695 15.2275 25.1999C15.2856 25.0303 15.46 24.5216 15.8668 23.5608H17.1455C17.2036 23.4477 17.2617 23.2216 17.378 22.8825H16.0993C16.2156 22.6564 16.3318 22.3738 16.448 22.0347Z" fill="url(#paint11_linear_113_157577)"/>
<path d="M26.0379 22.8826C25.8636 22.8826 25.6311 22.8826 25.3986 22.8826L24.7012 23.7304L23.4806 25.0869C23.3644 25.2 23.3644 25.2565 23.3063 25.2565L23.1319 25.4826C23.1319 25.313 23.1319 25.2 23.1319 25.2L23.0157 22.9391C22.7832 22.9391 22.5507 22.9391 22.3182 22.9391C22.0857 22.9391 21.8533 22.9391 21.6208 22.9391L19.4703 25.4826L19.1797 22.8826C18.9472 22.8826 18.7729 22.8826 18.5404 22.8826C18.3079 22.8826 18.0754 22.8826 17.843 22.8826L17.9592 23.5043L18.2498 25.2L18.4242 26.4434C18.7729 26.4434 19.0054 26.4434 19.1797 26.4434C19.3541 26.4434 19.5284 26.4434 19.819 26.4434L21.4464 24.5217C21.6789 24.2391 21.8533 24.0695 21.9114 23.9565L22.0276 26.4434C22.3763 26.4434 22.6088 26.4434 22.7832 26.4434C22.9575 26.4434 23.1319 26.4434 23.4225 26.4434C23.8293 25.9913 24.2362 25.5956 24.643 25.0869L26.6772 22.9391C26.4448 22.8826 26.2123 22.8826 26.0379 22.8826Z" fill="url(#paint12_linear_113_157577)"/>
<path d="M31.7337 23.2781C31.5593 23.1085 31.2687 22.9955 30.9781 22.939C30.6294 22.8824 30.2807 22.8259 29.9319 22.8259C29.5251 22.8259 29.1183 22.8824 28.7114 22.9955C28.3046 23.1085 27.9559 23.2216 27.6653 23.3911C27.3747 23.5607 27.0841 23.7868 26.9097 24.0129C26.7353 24.239 26.561 24.4651 26.5028 24.7477C26.4447 24.9738 26.3866 25.2564 26.4447 25.4824C26.5028 25.7085 26.6191 25.8781 26.7934 26.0477C26.9678 26.2172 27.2584 26.3303 27.549 26.3868C27.8977 26.4433 28.2465 26.4998 28.5952 26.4998C29.002 26.4998 29.4089 26.4433 29.8157 26.3868C30.2225 26.2738 30.5713 26.1607 30.8619 25.9911C31.1525 25.8216 31.4431 25.5955 31.6174 25.3694C31.8499 25.1433 31.9662 24.8607 32.0824 24.6346C32.1405 24.4085 32.1986 24.1259 32.1405 23.9564C32.0824 23.6172 31.9662 23.3911 31.7337 23.2781ZM30.6875 24.5216C30.6294 24.7477 30.5131 24.9738 30.3388 25.1433C30.1644 25.3129 29.9319 25.4825 29.6995 25.5955C29.467 25.7085 29.1764 25.7651 28.8858 25.7651C28.5952 25.7651 28.3627 25.7085 28.1883 25.5955C28.014 25.4825 27.8977 25.3694 27.8396 25.1998C27.7815 25.0303 27.8396 24.8607 27.8977 24.6911C27.9559 24.4651 28.0721 24.239 28.2465 24.0694C28.4208 23.8998 28.6533 23.7303 28.8858 23.6172C29.1183 23.5042 29.4089 23.4477 29.6995 23.4477C29.9901 23.4477 30.2225 23.5042 30.3969 23.6172C30.5713 23.7303 30.6875 23.8433 30.6875 24.0129C30.7456 24.1824 30.7456 24.352 30.6875 24.5216Z" fill="url(#paint13_linear_113_157577)"/>
<path d="M36.6158 22.8261C36.4995 22.8261 36.3252 22.7695 36.2089 22.7695C36.0927 22.7695 35.9183 22.7695 35.8021 22.8261C35.6859 22.8261 35.5115 22.8826 35.3953 22.9391C35.279 22.9956 35.1628 23.0521 35.0465 23.1087C34.9303 23.1652 34.814 23.2782 34.6397 23.3913L34.8141 22.8826C34.5235 22.8826 34.291 22.8826 34.1166 22.8826C33.9422 22.8826 33.7679 22.8826 33.4192 22.8826C33.361 23.0521 33.361 23.1652 33.3029 23.2217C33.2448 23.3913 33.1867 23.6174 33.1286 23.7869L32.7798 24.7478L32.0824 26.3869C32.373 26.3869 32.6055 26.3869 32.838 26.3869C33.0704 26.3869 33.3029 26.3869 33.5354 26.3869C33.5935 26.2174 33.5935 26.1043 33.6516 25.9913C33.7679 25.7087 33.826 25.4261 33.9422 25.1434C34.0585 24.8608 34.1166 24.6347 34.2328 24.5217C34.291 24.3521 34.4072 24.2391 34.4653 24.1261C34.5816 24.013 34.6978 23.9 34.8722 23.8434C34.9884 23.7869 35.1628 23.6739 35.3371 23.6739C35.5115 23.6174 35.6859 23.6174 35.8602 23.6174C36.0346 23.6174 36.2089 23.6174 36.3833 23.6739C36.4414 23.3347 36.5577 23.0521 36.6158 22.8261Z" fill="url(#paint14_linear_113_157577)"/>
<path d="M40.2774 24.1826L42.3116 22.8826C41.9629 22.8826 41.7304 22.8826 41.4979 22.8826C41.3235 22.8826 41.0911 22.8826 40.7423 22.8826C40.5099 23.0521 40.3355 23.1652 40.1611 23.2782C39.9868 23.3913 39.8705 23.5043 39.7543 23.5608L38.4756 24.4087C38.5338 24.5782 38.5919 24.6347 38.65 24.6347L39.2312 25.4826C39.2893 25.5956 39.3475 25.7087 39.4637 25.8217C39.5218 25.9347 39.6381 26.1043 39.7543 26.3304C40.0449 26.3304 40.3355 26.3304 40.568 26.3304C40.8005 26.3304 41.0329 26.3304 41.3235 26.3304C40.568 25.313 40.103 24.6347 39.9287 24.4087L40.2774 24.1826Z" fill="url(#paint15_linear_113_157577)"/>
<path d="M39.4637 21.6956C39.1731 21.6956 38.9406 21.6956 38.7662 21.6956C38.5919 21.6956 38.3594 21.6956 38.0107 21.6956C37.9525 21.8651 37.8944 22.0347 37.7782 22.3173L37.2551 23.7869L36.6158 25.4825L36.2089 26.3869C36.4995 26.3869 36.732 26.3869 36.9064 26.3869C37.0807 26.3869 37.3132 26.3869 37.6038 26.3869L37.7782 25.9347L38.2431 24.6347L38.9406 22.8825L39.4637 21.6956Z" fill="url(#paint16_linear_113_157577)"/>
<path d="M44.2876 22.8825C43.997 22.939 43.7064 23.052 43.5321 23.2216C43.3577 23.3912 43.1834 23.5042 43.1834 23.6738C43.1252 23.7868 43.1252 23.8433 43.1834 23.9564C43.1834 24.0694 43.2415 24.1259 43.2996 24.239C43.3577 24.2955 43.474 24.4085 43.5902 24.4651C43.7064 24.5216 43.8808 24.6346 44.0552 24.8042L44.2876 24.9738C44.3458 25.0303 44.4039 25.0868 44.462 25.0868C44.5201 25.1433 44.5201 25.1433 44.5782 25.1433L44.6364 25.1998V25.2564V25.3129C44.6364 25.3694 44.5782 25.4259 44.462 25.4825C44.4039 25.539 44.2876 25.5955 44.1133 25.5955C43.997 25.652 43.8227 25.652 43.6483 25.652C43.474 25.652 43.2415 25.652 43.0671 25.5955C42.8346 25.539 42.6022 25.4825 42.3116 25.4259L42.1953 26.1607C42.4859 26.2172 42.7765 26.2738 43.0671 26.2738C43.3577 26.2738 43.5902 26.3303 43.7646 26.3303C44.1714 26.3303 44.5201 26.2738 44.8107 26.2172C45.1594 26.1607 45.3919 26.0477 45.6244 25.8781C45.7988 25.7085 45.9731 25.5955 46.0313 25.4259C46.0894 25.3129 46.0894 25.1998 46.0313 25.1433C46.0313 25.0303 45.9731 24.9738 45.915 24.8607C45.8569 24.7477 45.7407 24.6912 45.6244 24.5781C45.5082 24.4651 45.3338 24.4085 45.1594 24.2955C44.9851 24.1825 44.8688 24.1259 44.8107 24.0694C44.7526 24.0129 44.6945 24.0129 44.6945 23.9564C44.6364 23.8998 44.6364 23.8998 44.6364 23.8433C44.6364 23.7868 44.6364 23.7868 44.6364 23.7303C44.6364 23.6738 44.6945 23.6172 44.8107 23.5607C44.8688 23.5042 44.9851 23.4477 45.1594 23.4477C45.3338 23.4477 45.5082 23.3912 45.6825 23.3912C46.0313 23.3912 46.38 23.4477 46.7287 23.5607L46.9031 22.8259C46.38 22.7694 45.8569 22.7129 45.45 22.7129C44.9851 22.7694 44.6364 22.8259 44.2876 22.8825Z" fill="url(#paint17_linear_113_157577)"/>
<path d="M31.0362 6.03896C31.0362 5.41722 30.92 4.852 30.6875 4.34331C29.8738 2.36505 27.4328 1.34766 24.3524 1.34766H10.8104C15.9249 1.57374 23.2481 2.47809 24.5849 5.53026C24.7011 5.75635 24.8174 6.03896 24.8174 6.37809C24.8174 9.59983 13.7164 12.4259 13.7164 12.4259L20.6908 19.152H28.5952C25.2823 15.4216 20.9233 12.4259 20.9233 12.4259C26.4447 12.2564 31.0362 9.82592 31.0362 6.03896Z" fill="url(#paint18_linear_113_157577)"/>
<path d="M10.8104 1.29126H5.57955L4.3009 4.11735H20.7489C20.7489 4.11735 23.7712 4.06082 24.5849 5.53039C23.2481 2.47822 15.925 1.57387 10.8104 1.29126Z" fill="url(#paint19_linear_113_157577)"/>
<path d="M14.007 5.98242H7.55563L2.67352 19.152H9.06676L14.007 5.98242Z" fill="url(#paint20_linear_113_157577)"/>
<path d="M73.9871 5.81287C72.4179 5.98243 70.7905 6.152 69.2213 6.32157L66.0828 19.152H71.023L74.2777 5.75635C74.1615 5.81287 74.1034 5.81287 73.9871 5.81287Z" fill="url(#paint21_linear_113_157577)"/>
<path d="M60.6195 7.56499C59.5152 12.4824 58.469 16.4954 57.5391 19.4911C57.0742 20.8476 56.6092 21.8085 55.9699 22.3737C55.2724 23.0519 54.11 23.5606 52.4826 23.9563C52.4826 23.9563 52.4826 23.9563 52.4245 24.0128L51.8433 26.4998C53.4126 26.3867 57.5391 25.8215 60.0383 23.4476C61.3751 22.1476 62.305 20.2824 62.7118 18.6998L65.7341 6.77368C64.0486 7.05629 62.305 7.28238 60.6195 7.56499Z" fill="url(#paint22_linear_113_157577)"/>
<path d="M52.0758 9.03472L49.5766 19.2086H54.5168L57.1904 8.13037C55.3886 8.41298 53.645 8.75211 52.0758 9.03472Z" fill="url(#paint23_linear_113_157577)"/>
<path d="M44.5202 5.36084C44.5202 5.36084 43.5321 10.7869 42.6022 13.8391C42.4859 14.2348 42.3697 14.5739 42.1953 14.913C42.1953 14.913 42.1953 14.913 42.1953 14.9695C42.1372 15.0826 42.0791 15.1956 42.021 15.2521C41.556 15.9304 40.7423 16.3826 39.0568 16.5521C36.9064 16.7217 35.9184 16.213 36.209 14.8L38.5919 5.41736H33.3029L30.7456 16.1C30.5132 17.4565 31.1525 18.3608 32.4893 18.8695C33.1867 19.1521 34.0585 19.2652 35.1047 19.2652C43.2415 19.2652 46.0313 19.0956 47.1356 15.8174C47.7168 14.1217 49.6347 5.41736 49.6347 5.41736H44.5202V5.36084Z" fill="url(#paint24_linear_113_157577)"/>
<path d="M74.394 12.5391C74.3359 12.8782 74.2778 13.2173 74.2196 13.5565C74.1034 15.1956 75.0333 18.0217 79.3342 18.926C83.3445 19.7738 88.1104 18.0782 89.3309 17.5695L90.2027 14.2347C90.2027 14.2347 87.0061 16.5521 83.2864 17.1738C78.9274 18.0217 73.9872 16.8347 74.394 12.5391Z" fill="url(#paint25_linear_113_157577)"/>
<path d="M91.3651 7.16954C90.4352 6.03911 88.6916 5.2478 86.1924 5.2478C85.9018 5.2478 85.6693 5.2478 85.3787 5.2478C82.1821 5.47389 80.0317 6.15215 77.8812 7.67824C75.7889 9.1478 74.7427 10.9 74.394 12.5391C74.0453 16.8348 78.9274 17.9652 83.2864 17.2304C86.948 16.6087 90.2027 14.2913 90.2027 14.2913C89.0403 14.8565 80.4385 19.0956 79.7411 14.3478C79.7992 14.3478 86.5993 13.2174 87.7617 12.9913C89.0403 12.7652 91.8882 11.8608 92.1207 9.43041C92.1788 8.58259 91.8882 7.79128 91.3651 7.16954ZM84.1001 12.3695C79.8573 13.2174 79.7411 13.1608 79.7411 13.1608C79.7411 13.1608 80.5547 9.43041 85.2625 8.13041C88.2266 7.33911 88.3429 11.5217 84.1001 12.3695Z" fill="url(#paint26_linear_113_157577)"/>
</g>
<defs>
<linearGradient id="paint0_linear_113_157577" x1="108.965" y1="20.8651" x2="108.965" y2="2.22643" gradientUnits="userSpaceOnUse">
<stop stop-color="#E60033"/>
<stop offset="0.2628" stop-color="#E40032"/>
<stop offset="0.5727" stop-color="#DB0030"/>
<stop offset="0.9053" stop-color="#CC002C"/>
<stop offset="1" stop-color="#C7002A"/>
</linearGradient>
<linearGradient id="paint1_linear_113_157577" x1="100.402" y1="20.8651" x2="100.402" y2="2.22594" gradientUnits="userSpaceOnUse">
<stop stop-color="#E60033"/>
<stop offset="0.2628" stop-color="#E40032"/>
<stop offset="0.5727" stop-color="#DB0030"/>
<stop offset="0.9053" stop-color="#CC002C"/>
<stop offset="1" stop-color="#C7002A"/>
</linearGradient>
<linearGradient id="paint2_linear_113_157577" x1="119.921" y1="20.8651" x2="119.921" y2="2.226" gradientUnits="userSpaceOnUse">
<stop stop-color="#E60033"/>
<stop offset="0.2628" stop-color="#E40032"/>
<stop offset="0.5727" stop-color="#DB0030"/>
<stop offset="0.9053" stop-color="#CC002C"/>
<stop offset="1" stop-color="#C7002A"/>
</linearGradient>
<linearGradient id="paint3_linear_113_157577" x1="113.39" y1="20.8651" x2="113.39" y2="2.226" gradientUnits="userSpaceOnUse">
<stop stop-color="#E60033"/>
<stop offset="0.2628" stop-color="#E40032"/>
<stop offset="0.5727" stop-color="#DB0030"/>
<stop offset="0.9053" stop-color="#CC002C"/>
<stop offset="1" stop-color="#C7002A"/>
</linearGradient>
<linearGradient id="paint4_linear_113_157577" x1="101.9" y1="20.8656" x2="101.9" y2="2.226" gradientUnits="userSpaceOnUse">
<stop stop-color="#E60033"/>
<stop offset="0.2628" stop-color="#E40032"/>
<stop offset="0.5727" stop-color="#DB0030"/>
<stop offset="0.9053" stop-color="#CC002C"/>
<stop offset="1" stop-color="#C7002A"/>
</linearGradient>
<linearGradient id="paint5_linear_113_157577" x1="115.181" y1="20.8651" x2="115.181" y2="2.22605" gradientUnits="userSpaceOnUse">
<stop stop-color="#E60033"/>
<stop offset="0.2628" stop-color="#E40032"/>
<stop offset="0.5727" stop-color="#DB0030"/>
<stop offset="0.9053" stop-color="#CC002C"/>
<stop offset="1" stop-color="#C7002A"/>
</linearGradient>
<linearGradient id="paint6_linear_113_157577" x1="139.786" y1="20.8652" x2="139.786" y2="2.226" gradientUnits="userSpaceOnUse">
<stop stop-color="#E60033"/>
<stop offset="0.2628" stop-color="#E40032"/>
<stop offset="0.5727" stop-color="#DB0030"/>
<stop offset="0.9053" stop-color="#CC002C"/>
<stop offset="1" stop-color="#C7002A"/>
</linearGradient>
<linearGradient id="paint7_linear_113_157577" x1="52.518" y1="3.99519" x2="89.283" y2="3.99519" gradientUnits="userSpaceOnUse">
<stop stop-color="#E60033"/>
<stop offset="0.2628" stop-color="#E40032"/>
<stop offset="0.5727" stop-color="#DB0030"/>
<stop offset="0.9053" stop-color="#CC002C"/>
<stop offset="1" stop-color="#C7002A"/>
</linearGradient>
<linearGradient id="paint8_linear_113_157577" x1="90.6345" y1="3.76169" x2="53.5742" y2="3.76169" gradientUnits="userSpaceOnUse">
<stop stop-color="#E60033"/>
<stop offset="0.1501" stop-color="#E30032"/>
<stop offset="0.3374" stop-color="#DA0030"/>
<stop offset="0.5444" stop-color="#CA002B"/>
<stop offset="0.7656" stop-color="#B20023"/>
<stop offset="0.996" stop-color="#910016"/>
<stop offset="1" stop-color="#910015"/>
</linearGradient>
<linearGradient id="paint9_linear_113_157577" x1="4.17031" y1="26.9312" x2="4.17031" y2="0.884531" gradientUnits="userSpaceOnUse">
<stop stop-color="#E60033"/>
<stop offset="0.2628" stop-color="#E40032"/>
<stop offset="0.5727" stop-color="#DB0030"/>
<stop offset="0.9053" stop-color="#CC002C"/>
<stop offset="1" stop-color="#C7002A"/>
</linearGradient>
<linearGradient id="paint10_linear_113_157577" x1="10.7724" y1="26.9317" x2="10.7724" y2="0.877419" gradientUnits="userSpaceOnUse">
<stop stop-color="#E60033"/>
<stop offset="0.2628" stop-color="#E40032"/>
<stop offset="0.5727" stop-color="#DB0030"/>
<stop offset="0.9053" stop-color="#CC002C"/>
<stop offset="1" stop-color="#C7002A"/>
</linearGradient>
<linearGradient id="paint11_linear_113_157577" x1="15.5079" y1="26.9314" x2="15.5079" y2="0.892249" gradientUnits="userSpaceOnUse">
<stop stop-color="#E60033"/>
<stop offset="0.2628" stop-color="#E40032"/>
<stop offset="0.5727" stop-color="#DB0030"/>
<stop offset="0.9053" stop-color="#CC002C"/>
<stop offset="1" stop-color="#C7002A"/>
</linearGradient>
<linearGradient id="paint12_linear_113_157577" x1="22.2835" y1="26.9309" x2="22.2835" y2="0.896618" gradientUnits="userSpaceOnUse">
<stop stop-color="#E60033"/>
<stop offset="0.2628" stop-color="#E40032"/>
<stop offset="0.5727" stop-color="#DB0030"/>
<stop offset="0.9053" stop-color="#CC002C"/>
<stop offset="1" stop-color="#C7002A"/>
</linearGradient>
<linearGradient id="paint13_linear_113_157577" x1="29.2741" y1="26.9316" x2="29.2741" y2="0.877294" gradientUnits="userSpaceOnUse">
<stop stop-color="#E60033"/>
<stop offset="0.2628" stop-color="#E40032"/>
<stop offset="0.5727" stop-color="#DB0030"/>
<stop offset="0.9053" stop-color="#CC002C"/>
<stop offset="1" stop-color="#C7002A"/>
</linearGradient>
<linearGradient id="paint14_linear_113_157577" x1="34.3719" y1="26.9313" x2="34.3719" y2="0.87963" gradientUnits="userSpaceOnUse">
<stop stop-color="#E60033"/>
<stop offset="0.2628" stop-color="#E40032"/>
<stop offset="0.5727" stop-color="#DB0030"/>
<stop offset="0.9053" stop-color="#CC002C"/>
<stop offset="1" stop-color="#C7002A"/>
</linearGradient>
<linearGradient id="paint15_linear_113_157577" x1="40.4101" y1="26.9309" x2="40.4101" y2="0.89662" gradientUnits="userSpaceOnUse">
<stop stop-color="#E60033"/>
<stop offset="0.2628" stop-color="#E40032"/>
<stop offset="0.5727" stop-color="#DB0030"/>
<stop offset="0.9053" stop-color="#CC002C"/>
<stop offset="1" stop-color="#C7002A"/>
</linearGradient>
<linearGradient id="paint16_linear_113_157577" x1="37.8886" y1="26.9312" x2="37.8886" y2="0.884537" gradientUnits="userSpaceOnUse">
<stop stop-color="#E60033"/>
<stop offset="0.2628" stop-color="#E40032"/>
<stop offset="0.5727" stop-color="#DB0030"/>
<stop offset="0.9053" stop-color="#CC002C"/>
<stop offset="1" stop-color="#C7002A"/>
</linearGradient>
<linearGradient id="paint17_linear_113_157577" x1="44.4504" y1="26.9316" x2="44.4504" y2="0.877295" gradientUnits="userSpaceOnUse">
<stop stop-color="#E60033"/>
<stop offset="0.2628" stop-color="#E40032"/>
<stop offset="0.5727" stop-color="#DB0030"/>
<stop offset="0.9053" stop-color="#CC002C"/>
<stop offset="1" stop-color="#C7002A"/>
</linearGradient>
<linearGradient id="paint18_linear_113_157577" x1="20.8975" y1="26.9297" x2="20.8975" y2="0.882935" gradientUnits="userSpaceOnUse">
<stop stop-color="#E60033"/>
<stop offset="0.2628" stop-color="#E40032"/>
<stop offset="0.5727" stop-color="#DB0030"/>
<stop offset="0.9053" stop-color="#CC002C"/>
<stop offset="1" stop-color="#C7002A"/>
</linearGradient>
<linearGradient id="paint19_linear_113_157577" x1="3.43881" y1="3.43603" x2="24.4874" y2="3.43603" gradientUnits="userSpaceOnUse">
<stop stop-color="#E60033"/>
<stop offset="0.1501" stop-color="#E30032"/>
<stop offset="0.3374" stop-color="#DA0030"/>
<stop offset="0.5444" stop-color="#CA002B"/>
<stop offset="0.7656" stop-color="#B20023"/>
<stop offset="0.996" stop-color="#910016"/>
<stop offset="1" stop-color="#910015"/>
</linearGradient>
<linearGradient id="paint20_linear_113_157577" x1="8.32898" y1="26.9323" x2="8.32898" y2="0.883256" gradientUnits="userSpaceOnUse">
<stop stop-color="#E60033"/>
<stop offset="0.2628" stop-color="#E40032"/>
<stop offset="0.5727" stop-color="#DB0030"/>
<stop offset="0.9053" stop-color="#CC002C"/>
<stop offset="1" stop-color="#C7002A"/>
</linearGradient>
<linearGradient id="paint21_linear_113_157577" x1="70.1774" y1="26.934" x2="70.1774" y2="0.881631" gradientUnits="userSpaceOnUse">
<stop stop-color="#E60033"/>
<stop offset="0.2628" stop-color="#E40032"/>
<stop offset="0.5727" stop-color="#DB0030"/>
<stop offset="0.9053" stop-color="#CC002C"/>
<stop offset="1" stop-color="#C7002A"/>
</linearGradient>
<linearGradient id="paint22_linear_113_157577" x1="58.8343" y1="26.9323" x2="58.8343" y2="0.882477" gradientUnits="userSpaceOnUse">
<stop stop-color="#E60033"/>
<stop offset="0.2628" stop-color="#E40032"/>
<stop offset="0.5727" stop-color="#DB0030"/>
<stop offset="0.9053" stop-color="#CC002C"/>
<stop offset="1" stop-color="#C7002A"/>
</linearGradient>
<linearGradient id="paint23_linear_113_157577" x1="53.3981" y1="26.9339" x2="53.3981" y2="0.882362" gradientUnits="userSpaceOnUse">
<stop stop-color="#E60033"/>
<stop offset="0.2628" stop-color="#E40032"/>
<stop offset="0.5727" stop-color="#DB0030"/>
<stop offset="0.9053" stop-color="#CC002C"/>
<stop offset="1" stop-color="#C7002A"/>
</linearGradient>
<linearGradient id="paint24_linear_113_157577" x1="40.1814" y1="26.9338" x2="40.1814" y2="0.884092" gradientUnits="userSpaceOnUse">
<stop stop-color="#E60033"/>
<stop offset="0.2628" stop-color="#E40032"/>
<stop offset="0.5727" stop-color="#DB0030"/>
<stop offset="0.9053" stop-color="#CC002C"/>
<stop offset="1" stop-color="#C7002A"/>
</linearGradient>
<linearGradient id="paint25_linear_113_157577" x1="82.2044" y1="26.9321" x2="82.2044" y2="0.884451" gradientUnits="userSpaceOnUse">
<stop stop-color="#E60033"/>
<stop offset="0.2628" stop-color="#E40032"/>
<stop offset="0.5727" stop-color="#DB0030"/>
<stop offset="0.9053" stop-color="#CC002C"/>
<stop offset="1" stop-color="#C7002A"/>
</linearGradient>
<linearGradient id="paint26_linear_113_157577" x1="83.2242" y1="0.759072" x2="83.2242" y2="16.8007" gradientUnits="userSpaceOnUse">
<stop stop-color="#E60033"/>
<stop offset="0.2038" stop-color="#E30032"/>
<stop offset="0.4578" stop-color="#DA0030"/>
<stop offset="0.7373" stop-color="#CA002B"/>
<stop offset="1" stop-color="#B60024"/>
</linearGradient>
<clipPath id="clip0_113_157577">
<rect width="156.867" height="26" fill="white" transform="translate(0 0.5)"/>
</clipPath>
</defs>
</svg>
