<?xml version="1.0" encoding="iso-8859-1"?>
<!-- Generator: Adobe Illustrator 19.0.0, SVG Export Plug-In . SVG Version: 6.00 Build 0)  -->
<svg version="1.1" id="Layer_1" xmlns="http://www.w3.org/2000/svg" xmlns:xlink="http://www.w3.org/1999/xlink" x="0px" y="0px"
	 viewBox="0 0 512 512" style="enable-background:new 0 0 512 512;" xml:space="preserve">
<g>
	<path style="fill:#EAEAEA;" d="M172.322,482.467V423.4c0-16.286,13.209-29.533,29.447-29.533h157.685
		c3.437,0,6.689,0.705,9.758,1.796V78.679c0-5.384-4.432-9.768-9.883-9.768h-68.873h-68.911h-68.873
		c-5.538,0-9.883,4.288-9.883,9.768v403.787c0,5.384,4.432,9.758,9.883,9.758h21.432
		C173.023,489.154,172.322,485.903,172.322,482.467z"/>
	<rect x="231.389" y="19.689" style="fill:#EAEAEA;" width="49.222" height="29.533"/>
</g>
<path style="fill:#E65F58;" d="M359.454,413.555H201.769c-5.384,0-9.758,4.413-9.758,9.844v59.067c0,5.362,4.076,9.522,9.323,9.758
	h157.995c5.451,0,9.883-4.374,9.883-9.758V423.4C369.212,417.881,364.924,413.555,359.454,413.555z"/>
<path style="fill:#314E55;" d="M359.329,49.222H300.3V9.844c0-5.441-4.403-9.844-9.844-9.844h-68.911
	c-5.441,0-9.844,4.403-9.844,9.844v39.378h-59.029c-16.305,0-29.572,13.219-29.572,29.457v403.787
	c0,16.237,13.267,29.447,29.572,29.447h48.244c0.29,0.008,0.562,0.087,0.854,0.087h157.685c16.238,0,29.447-13.248,29.447-29.533
	V423.4V78.679C388.901,62.441,375.634,49.222,359.329,49.222z M231.389,19.689h49.222v29.533h-49.222V19.689z M142.789,482.467
	V78.679c0-5.48,4.345-9.768,9.883-9.768h68.873h68.911h68.873c5.451,0,9.883,4.384,9.883,9.768v316.983
	c-3.069-1.091-6.32-1.796-9.758-1.796H201.769c-16.238,0-29.447,13.248-29.447,29.533v59.067c0,3.437,0.701,6.688,1.782,9.758
	h-21.432C147.221,492.224,142.789,487.85,142.789,482.467z M369.212,482.467c0,5.384-4.432,9.758-9.883,9.758H201.334
	c-5.247-0.236-9.323-4.397-9.323-9.758V423.4c0-5.432,4.374-9.844,9.758-9.844h157.685c5.47,0,9.758,4.326,9.758,9.844
	L369.212,482.467L369.212,482.467z"/>
<g>
</g>
<g>
</g>
<g>
</g>
<g>
</g>
<g>
</g>
<g>
</g>
<g>
</g>
<g>
</g>
<g>
</g>
<g>
</g>
<g>
</g>
<g>
</g>
<g>
</g>
<g>
</g>
<g>
</g>
</svg>
