<?xml version="1.0" encoding="iso-8859-1"?>
<!-- Generator: Adobe Illustrator 19.0.0, SVG Export Plug-In . SVG Version: 6.00 Build 0)  -->
<svg version="1.1" id="Layer_1" xmlns="http://www.w3.org/2000/svg" xmlns:xlink="http://www.w3.org/1999/xlink" x="0px" y="0px"
	 viewBox="0 0 512 512" style="enable-background:new 0 0 512 512;" xml:space="preserve">
<path style="fill:#81A4E3;" d="M365.965,281.874c-20.262,0-39.91,5.768-56.821,16.682l-9.247,5.97l-4.422-10.081
	c-15.4-35.117-50.274-57.805-88.838-57.805c-47.885,0-89.104,35.437-95.861,82.43l-1.163,8.039l-9.192-0.005
	c-45.037,0-81.67,36.376-81.67,81.088c0,44.708,36.632,81.084,81.67,81.084h248.588v-0.636l9.989,0.407
	c2.307,0.151,4.633,0.229,6.968,0.229c57.59,0,104.44-46.521,104.44-103.698C470.405,328.395,423.555,281.874,365.965,281.874z"/>
<g>
	<polygon style="fill:#314E55;" points="488.597,161.686 493.249,161.773 493.249,157.035 	"/>
	<path style="fill:#314E55;" d="M365.965,263.123c-20.362,0-40.194,4.944-57.965,14.384c-20.17-36.531-58.899-59.618-101.364-59.618
		c-54.468,0-101.702,38.464-113.019,90.688C41.402,312.065,0,355.414,0,408.192c0,55.049,45.047,99.835,100.421,99.835h257.964
		l3.067-0.082c1.492,0.055,3.003,0.082,4.514,0.082c67.927,0,123.191-54.93,123.191-122.449S433.892,263.123,365.965,263.123z
		 M365.965,489.276c-2.335,0-4.66-0.078-6.968-0.229l-9.989-0.407v0.636H100.421c-45.037,0-81.67-36.376-81.67-81.084
		c0-44.712,36.632-81.088,81.67-81.088l9.192,0.005l1.163-8.039c6.757-46.992,47.976-82.43,95.861-82.43
		c38.564,0,73.438,22.688,88.838,57.805l4.422,10.081l9.247-5.97c16.911-10.914,36.559-16.682,56.821-16.682
		c57.59,0,104.44,46.521,104.44,103.703C470.405,442.755,423.555,489.276,365.965,489.276z"/>
	<path style="fill:#314E55;" d="M268.063,171.199c5.182,0,9.376-4.198,9.376-9.376V98.438l143.828,143.833l13.257-13.257
		L301.371,95.857h39.553c5.182,0,9.376-4.198,9.376-9.376c0-5.178-4.193-9.376-9.376-9.376h-72.862
		c-5.182,0-9.376,4.198-9.376,9.376v75.343C258.687,167.001,262.88,171.199,268.063,171.199z"/>
	<path style="fill:#314E55;" d="M502.625,82.507c-5.182,0-9.376,4.198-9.376,9.376v50.723L354.621,3.974l-13.257,13.257
		l144.399,144.403l-57.465-1.064c-0.064,0-0.119,0-0.174,0c-5.1,0-9.275,4.084-9.376,9.202c-0.092,5.178,4.029,9.453,9.202,9.549
		l74.501,1.378c0.055,0,0.119,0,0.174,0c2.454,0,4.816-0.961,6.565-2.687c1.794-1.763,2.811-4.17,2.811-6.688v-79.44
		C512,86.705,507.807,82.507,502.625,82.507z M488.597,161.686l4.652-4.651v4.738L488.597,161.686z"/>
</g>
<g>
</g>
<g>
</g>
<g>
</g>
<g>
</g>
<g>
</g>
<g>
</g>
<g>
</g>
<g>
</g>
<g>
</g>
<g>
</g>
<g>
</g>
<g>
</g>
<g>
</g>
<g>
</g>
<g>
</g>
</svg>
