<?xml version="1.0" encoding="iso-8859-1"?>
<!-- Generator: Adobe Illustrator 19.0.0, SVG Export Plug-In . SVG Version: 6.00 Build 0)  -->
<svg version="1.1" id="Layer_1" xmlns="http://www.w3.org/2000/svg" xmlns:xlink="http://www.w3.org/1999/xlink" x="0px" y="0px"
	 viewBox="0 0 512 512" style="enable-background:new 0 0 512 512;" xml:space="preserve">
<path style="fill:#73C9C9;" d="M145.295,288.346h205.658v-0.664l10.209,0.477c1.889,0.126,3.786,0.187,5.703,0.187
	c47.079,0,85.38-38.651,85.38-86.156s-38.301-86.156-85.38-86.156c-16.556,0-32.608,4.782-46.415,13.826l-9.517,6.236l-4.515-10.442
	c-12.583-29.107-41.04-47.911-72.498-47.911c-39.077,0-72.722,29.387-78.247,68.361l-1.187,8.358l-8.442-0.131
	c-37.357-0.005-67.141,30.055-67.141,67.005S108.686,288.346,145.295,288.346z"/>
<g>
	<path style="fill:#314E55;" d="M145.295,307.492h215.231l2.758-0.061c1.188,0.042,2.384,0.061,3.581,0.061
		c57.634,0,104.526-47.238,104.526-105.302S424.498,96.888,366.864,96.888c-16.697,0-32.972,3.968-47.659,11.555
		c-17.342-30.593-49.772-49.846-85.287-49.846c-45.864,0-85.689,32.528-95.748,76.877c-43.845,3.66-78.415,40.769-78.415,85.862
		C59.756,268.84,98.131,307.492,145.295,307.492z M146.042,154.33l8.442,0.131l1.187-8.358
		c5.525-38.974,39.171-68.361,78.247-68.361c31.458,0,59.915,18.805,72.498,47.911l4.515,10.442l9.517-6.236
		c13.808-9.045,29.859-13.826,46.415-13.826c47.079,0,85.38,38.651,85.38,86.156s-38.301,86.156-85.38,86.156
		c-1.916,0-3.814-0.061-5.703-0.187l-10.208-0.477v0.664H145.295c-36.609,0-66.393-30.06-66.393-67.01
		S108.686,154.325,146.042,154.33z"/>
	<path style="fill:#314E55;" d="M509.195,396.447l-40.61-40.615c-3.739-3.739-9.797-3.739-13.537,0
		c-3.739,3.739-3.739,9.797,0,13.537l24.275,24.278H294.292v19.146h185.022l-24.265,24.269c-3.739,3.739-3.739,9.797,0,13.537
		c1.87,1.87,4.319,2.805,6.768,2.805c2.449,0,4.899-0.935,6.768-2.805l40.61-40.615
		C512.935,406.245,512.935,400.187,509.195,396.447z"/>
	<path style="fill:#314E55;" d="M56.951,369.37c3.739-3.739,3.739-9.797,0-13.537c-3.739-3.739-9.797-3.739-13.537,0l-40.61,40.614
		c-3.739,3.739-3.739,9.797,0,13.537l40.61,40.615c1.87,1.87,4.319,2.805,6.768,2.805c2.449,0,4.899-0.935,6.768-2.805
		c3.739-3.739,3.739-9.797,0-13.537l-24.265-24.269h185.022v-19.146H32.677L56.951,369.37z"/>
</g>
<g>
</g>
<g>
</g>
<g>
</g>
<g>
</g>
<g>
</g>
<g>
</g>
<g>
</g>
<g>
</g>
<g>
</g>
<g>
</g>
<g>
</g>
<g>
</g>
<g>
</g>
<g>
</g>
<g>
</g>
</svg>
