<?xml version="1.0" encoding="iso-8859-1"?>
<!-- Generator: Adobe Illustrator 19.0.0, SVG Export Plug-In . SVG Version: 6.00 Build 0)  -->
<svg version="1.1" id="Layer_1" xmlns="http://www.w3.org/2000/svg" xmlns:xlink="http://www.w3.org/1999/xlink" x="0px" y="0px"
	 viewBox="0 0 512 512" style="enable-background:new 0 0 512 512;" xml:space="preserve">
<rect x="111.709" y="242.036" style="fill:#D8D8D8;" width="93.091" height="74.473"/>
<path style="fill:#E4AD40;" d="M215.05,176.873h91.209c-4.325-21.218-23.128-37.236-45.605-37.236S219.375,155.655,215.05,176.873z"
	/>
<path style="fill:#E4D759;" d="M196.235,176.873c4.541-31.523,31.657-55.855,64.42-55.855s59.878,24.332,64.42,55.855h102.672
	c-4.874-88.053-77.839-158.255-167.092-158.255S98.436,88.819,93.562,176.873H196.235z"/>
<path style="fill:#C59981;" d="M428.168,195.491H83.832c-5.159,0-9.359,4.173-9.359,9.309v279.273c0,5.136,4.2,9.309,9.359,9.309
	h344.336c5.159,0,9.359-4.173,9.359-9.309V204.8C437.527,199.664,433.327,195.491,428.168,195.491z M223.418,325.818
	c0,5.145-4.168,9.309-9.309,9.309H102.4c-5.141,0-9.309-4.164-9.309-9.309v-93.091c0-5.145,4.168-9.309,9.309-9.309h111.709
	c5.141,0,9.309,4.164,9.309,9.309V325.818z M390.982,325.818H242.036V307.2h148.945V325.818z M390.982,288.582H242.036v-18.618
	h148.945V288.582z M390.982,251.345H242.036v-18.618h148.945V251.345z"/>
<g>
	<path style="fill:#314E55;" d="M446.729,184.062C445.576,82.382,362.598,0,260.655,0C160.596,0,78.947,79.4,74.863,178.477
		c-11.015,3.754-19.008,14.071-19.008,26.323v279.273c0,15.4,12.55,27.927,27.977,27.927h344.336
		c15.427,0,27.977-12.527,27.977-27.927V204.8C456.145,196.536,452.462,189.18,446.729,184.062z M260.655,18.618
		c89.253,0,162.218,70.201,167.092,158.255H325.075c-4.542-31.523-31.657-55.855-64.42-55.855s-59.878,24.332-64.42,55.855H93.562
		C98.436,88.819,171.402,18.618,260.655,18.618z M306.259,176.873H215.05c4.325-21.218,23.128-37.236,45.605-37.236
		S301.934,155.655,306.259,176.873z M437.527,484.073c0,5.136-4.2,9.309-9.359,9.309H83.832c-5.159,0-9.359-4.173-9.359-9.309V204.8
		c0-5.136,4.2-9.309,9.359-9.309h344.336c5.159,0,9.359,4.173,9.359,9.309V484.073z"/>
	<path style="fill:#314E55;" d="M214.109,223.418H102.4c-5.141,0-9.309,4.164-9.309,9.309v93.091c0,5.145,4.168,9.309,9.309,9.309
		h111.709c5.141,0,9.309-4.164,9.309-9.309v-93.091C223.418,227.582,219.25,223.418,214.109,223.418z M204.8,316.509h-93.091
		v-74.473H204.8V316.509z"/>
	<rect x="242.036" y="232.727" style="fill:#314E55;" width="148.945" height="18.618"/>
	<rect x="242.036" y="269.964" style="fill:#314E55;" width="148.945" height="18.618"/>
	<rect x="242.036" y="307.2" style="fill:#314E55;" width="148.945" height="18.618"/>
</g>
<g>
</g>
<g>
</g>
<g>
</g>
<g>
</g>
<g>
</g>
<g>
</g>
<g>
</g>
<g>
</g>
<g>
</g>
<g>
</g>
<g>
</g>
<g>
</g>
<g>
</g>
<g>
</g>
<g>
</g>
</svg>
