<?xml version="1.0" encoding="iso-8859-1"?>
<!-- Generator: Adobe Illustrator 19.0.0, SVG Export Plug-In . SVG Version: 6.00 Build 0)  -->
<svg version="1.1" id="Layer_1" xmlns="http://www.w3.org/2000/svg" xmlns:xlink="http://www.w3.org/1999/xlink" x="0px" y="0px"
	 viewBox="0 0 512 512" style="enable-background:new 0 0 512 512;" xml:space="preserve">
<g>
	<circle style="fill:#D8D8D8;" cx="256" cy="338.286" r="9.143"/>
	<path style="fill:#D8D8D8;" d="M256,219.429c-15.125,0-27.429,12.304-27.429,27.429s12.304,27.429,27.429,27.429
		c15.125,0,27.429-12.304,27.429-27.429S271.125,219.429,256,219.429z"/>
	<circle style="fill:#D8D8D8;" cx="256" cy="402.286" r="9.143"/>
</g>
<path style="fill:#E4D759;" d="M329.134,18.286H182.866c-10.089,0-18.295,8.205-18.295,18.286v438.857
	c0,10.08,8.205,18.286,18.295,18.286h146.268c10.089,0,18.295-8.205,18.295-18.286V36.571
	C347.429,26.491,339.223,18.286,329.134,18.286z M256,429.714c-15.125,0-27.429-12.304-27.429-27.429s12.304-27.429,27.429-27.429
	c15.125,0,27.429,12.304,27.429,27.429S271.125,429.714,256,429.714z M256,365.714c-15.125,0-27.429-12.304-27.429-27.429
	s12.304-27.429,27.429-27.429c15.125,0,27.429,12.304,27.429,27.429S271.125,365.714,256,365.714z M256,292.571
	c-25.205,0-45.714-20.509-45.714-45.714s20.509-45.714,45.714-45.714s45.714,20.509,45.714,45.714S281.205,292.571,256,292.571z
	 M320,137.143c0,5.053-4.089,9.143-9.143,9.143h-27.429v27.429c0,5.053-4.089,9.143-9.143,9.143h-36.571
	c-5.053,0-9.143-4.089-9.143-9.143v-27.429h-27.429c-5.053,0-9.143-4.089-9.143-9.143v-36.571c0-5.053,4.089-9.143,9.143-9.143
	h27.429V64c0-5.053,4.089-9.143,9.143-9.143h36.571c5.053,0,9.143,4.089,9.143,9.143v27.429h27.429c5.053,0,9.143,4.089,9.143,9.143
	V137.143z"/>
<path style="fill:#D8D8D8;" d="M265.143,100.571V73.143h-18.286v27.429c0,5.053-4.089,9.143-9.143,9.143h-27.429V128h27.429
	c5.053,0,9.143,4.089,9.143,9.143v27.429h18.286v-27.429c0-5.053,4.089-9.143,9.143-9.143h27.429v-18.286h-27.429
	C269.232,109.714,265.143,105.625,265.143,100.571z"/>
<g>
	<path style="fill:#314E55;" d="M310.857,91.429h-27.429V64c0-5.053-4.089-9.143-9.143-9.143h-36.571
		c-5.053,0-9.143,4.089-9.143,9.143v27.429h-27.429c-5.053,0-9.143,4.089-9.143,9.143v36.571c0,5.053,4.089,9.143,9.143,9.143
		h27.429v27.429c0,5.053,4.089,9.143,9.143,9.143h36.571c5.053,0,9.143-4.089,9.143-9.143v-27.429h27.429
		c5.053,0,9.143-4.089,9.143-9.143v-36.571C320,95.518,315.911,91.429,310.857,91.429z M301.714,128h-27.429
		c-5.053,0-9.143,4.089-9.143,9.143v27.429h-18.286v-27.429c0-5.053-4.089-9.143-9.143-9.143h-27.429v-18.286h27.429
		c5.053,0,9.143-4.089,9.143-9.143V73.143h18.286v27.429c0,5.053,4.089,9.143,9.143,9.143h27.429V128z"/>
	<path style="fill:#314E55;" d="M329.134,0H182.866c-20.17,0-36.58,16.402-36.58,36.571v438.857c0,20.17,16.411,36.571,36.58,36.571
		h146.268c20.17,0,36.58-16.402,36.58-36.571V36.571C365.714,16.402,349.304,0,329.134,0z M347.429,475.429
		c0,10.08-8.205,18.286-18.295,18.286H182.866c-10.089,0-18.295-8.205-18.295-18.286V36.571c0-10.08,8.205-18.286,18.295-18.286
		h146.268c10.089,0,18.295,8.205,18.295,18.286V475.429z"/>
	<path style="fill:#314E55;" d="M256,201.143c-25.205,0-45.714,20.509-45.714,45.714s20.509,45.714,45.714,45.714
		s45.714-20.509,45.714-45.714S281.205,201.143,256,201.143z M256,274.286c-15.125,0-27.429-12.304-27.429-27.429
		s12.304-27.429,27.429-27.429c15.125,0,27.429,12.304,27.429,27.429S271.125,274.286,256,274.286z"/>
	<path style="fill:#314E55;" d="M256,310.857c-15.125,0-27.429,12.304-27.429,27.429s12.304,27.429,27.429,27.429
		c15.125,0,27.429-12.304,27.429-27.429S271.125,310.857,256,310.857z M256,347.429c-5.045,0-9.143-4.098-9.143-9.143
		c0-5.045,4.098-9.143,9.143-9.143c5.045,0,9.143,4.098,9.143,9.143C265.143,343.33,261.045,347.429,256,347.429z"/>
	<path style="fill:#314E55;" d="M256,374.857c-15.125,0-27.429,12.304-27.429,27.429s12.304,27.429,27.429,27.429
		c15.125,0,27.429-12.304,27.429-27.429S271.125,374.857,256,374.857z M256,411.429c-5.045,0-9.143-4.098-9.143-9.143
		c0-5.045,4.098-9.143,9.143-9.143c5.045,0,9.143,4.098,9.143,9.143C265.143,407.33,261.045,411.429,256,411.429z"/>
</g>
<g>
</g>
<g>
</g>
<g>
</g>
<g>
</g>
<g>
</g>
<g>
</g>
<g>
</g>
<g>
</g>
<g>
</g>
<g>
</g>
<g>
</g>
<g>
</g>
<g>
</g>
<g>
</g>
<g>
</g>
</svg>
