<?xml version="1.0" encoding="iso-8859-1"?>
<!-- Generator: Adobe Illustrator 19.0.0, SVG Export Plug-In . SVG Version: 6.00 Build 0)  -->
<svg version="1.1" id="Layer_1" xmlns="http://www.w3.org/2000/svg" xmlns:xlink="http://www.w3.org/1999/xlink" x="0px" y="0px"
	 viewBox="0 0 512 512" style="enable-background:new 0 0 512 512;" xml:space="preserve">
<g>
	<rect x="146.286" y="260.571" style="fill:#E4AD40;" width="36.571" height="73.143"/>
	<rect x="54.857" y="260.571" style="fill:#E4AD40;" width="36.571" height="73.143"/>
</g>
<path style="fill:#EAEAEA;" d="M411.429,123.429c-45.375,0-82.286,36.915-82.286,82.286v9.143H18.286v27.429h18.286h73.143H128
	h73.143h128v63.995c0,45.375,36.911,82.29,82.286,82.29s82.286-36.915,82.286-82.29V205.719
	C493.714,160.344,456.804,123.429,411.429,123.429z M475.429,297.107c0,35.308-28.714,64.036-64,64.036s-64-28.728-64-64.036
	v-82.214c0-35.308,28.714-64.036,64-64.036s64,28.728,64,64.036V297.107z"/>
<g>
	<path style="fill:#314E55;" d="M411.429,105.143c-52.375,0-95.527,40.241-100.161,91.429H0v64h36.571V352h73.143v-91.429H128V352
		h73.143v-91.429h109.714v45.71c0,55.46,45.116,100.576,100.571,100.576S512,361.741,512,306.281V205.719
		C512,150.259,466.884,105.143,411.429,105.143z M91.429,333.714H54.857v-73.143h36.571V333.714z M182.857,333.714h-36.571v-73.143
		h36.571V333.714z M493.714,306.281c0,45.375-36.911,82.29-82.286,82.29s-82.286-36.915-82.286-82.29v-63.995h-128H128h-18.286
		H36.571H18.286v-27.429h310.857v-9.143c0-45.371,36.911-82.286,82.286-82.286s82.286,36.915,82.286,82.29V306.281z"/>
	<path style="fill:#314E55;" d="M411.429,150.857c-35.286,0-64,28.728-64,64.036v82.214c0,35.308,28.714,64.036,64,64.036
		s64-28.728,64-64.036v-82.214C475.429,179.585,446.714,150.857,411.429,150.857z M457.143,297.107
		c0,25.228-20.509,45.75-45.714,45.75s-45.714-20.522-45.714-45.75v-82.214c0-25.228,20.509-45.75,45.714-45.75
		s45.714,20.522,45.714,45.75V297.107z"/>
</g>
<g>
</g>
<g>
</g>
<g>
</g>
<g>
</g>
<g>
</g>
<g>
</g>
<g>
</g>
<g>
</g>
<g>
</g>
<g>
</g>
<g>
</g>
<g>
</g>
<g>
</g>
<g>
</g>
<g>
</g>
</svg>
