<?xml version="1.0" encoding="iso-8859-1"?>
<!-- Generator: Adobe Illustrator 19.0.0, SVG Export Plug-In . SVG Version: 6.00 Build 0)  -->
<svg version="1.1" id="Layer_1" xmlns="http://www.w3.org/2000/svg" xmlns:xlink="http://www.w3.org/1999/xlink" x="0px" y="0px"
	 viewBox="0 0 512 512" style="enable-background:new 0 0 512 512;" xml:space="preserve">
<polygon style="fill:#EAEAEA;" points="104.296,331.852 104.296,370.574 104.921,370.574 104.921,389.537 104.296,389.537 
	104.296,493.037 350.815,493.037 350.815,331.852 208.593,331.852 132.741,331.852 "/>
<rect x="151.704" y="256" style="fill:#D8D8D8;" width="37.926" height="56.889"/>
<path style="fill:#E4AD40;" d="M440.889,18.963c-18.769,0-37.449,28.657-46.477,71.305l-1.241,5.842l-156.134,37.898v35.731
	l158.301,38.417l1.431,5.481c9.718,37.25,27.037,61.324,44.12,61.324c24.667,0,52.148-52.565,52.148-128
	S465.555,18.963,440.889,18.963z M379.903,173.833c-0.426-7.25-0.644-14.694-0.644-22.13c0-6.509,0.162-12.907,0.481-19.176
	l18.935,0.963c-0.301,5.954-0.454,12.037-0.454,18.213c0,7.065,0.204,14.139,0.607,21.019L379.903,173.833z"/>
<g>
	<path style="fill:#314E55;" d="M440.889,0c-27.764,0-51.894,30.667-63.718,80.481l-159.097,38.62v23.12h-56.889v4.741v14.222
		v75.852h-28.444v75.852H85.333H71.111c-5.236,0-9.481,4.241-9.481,9.481c0,5.241,4.245,9.482,9.481,9.482h14.222v38.722H38.611
		v37.13H0v18.963h57.574v-37.13h27.759v103.5H71.111c-5.236,0-9.481,4.241-9.481,9.481S65.875,512,71.111,512h14.222h284.444h14.366
		c5.236,0,9.482-4.241,9.482-9.481s-4.245-9.481-9.482-9.481h-14.366V331.852h14.366c5.236,0,9.482-4.241,9.482-9.482
		c0-5.241-4.245-9.481-9.482-9.481h-14.366H208.593v-75.852h-28.444v-75.852h37.926v23.463l161.856,39.287
		c12.671,43.954,35.236,69.991,60.958,69.991c39.875,0,71.111-64.556,71.111-146.963S480.764,0,440.889,0z M350.815,331.852v161.185
		H104.296v-103.5h0.625v-18.963h-0.625v-38.722h28.444h75.852H350.815z M189.63,312.889h-37.926V256h37.926V312.889z
		 M440.889,274.963c-17.083,0-34.403-24.074-44.12-61.324l-1.431-5.481l-158.301-38.417v-35.731l156.134-37.898l1.241-5.842
		c9.028-42.648,27.708-71.306,46.477-71.306c24.667,0,52.148,52.565,52.148,128S465.555,274.963,440.889,274.963z"/>
	<path style="fill:#314E55;" d="M398.676,133.491l-18.935-0.963c-0.319,6.268-0.481,12.667-0.481,19.176
		c0,7.435,0.218,14.88,0.644,22.13l18.926-1.111c-0.403-6.88-0.607-13.953-0.607-21.018
		C398.222,145.528,398.375,139.444,398.676,133.491z"/>
</g>
<g>
</g>
<g>
</g>
<g>
</g>
<g>
</g>
<g>
</g>
<g>
</g>
<g>
</g>
<g>
</g>
<g>
</g>
<g>
</g>
<g>
</g>
<g>
</g>
<g>
</g>
<g>
</g>
<g>
</g>
</svg>
