<?xml version="1.0" encoding="iso-8859-1"?>
<!-- Generator: Adobe Illustrator 19.0.0, SVG Export Plug-In . SVG Version: 6.00 Build 0)  -->
<svg version="1.1" id="Layer_1" xmlns="http://www.w3.org/2000/svg" xmlns:xlink="http://www.w3.org/1999/xlink" x="0px" y="0px"
	 viewBox="0 0 512 512" style="enable-background:new 0 0 512 512;" xml:space="preserve">
<g>
	<circle style="fill:#EAEAEA;" cx="181.607" cy="441.983" r="17.504"/>
	<rect x="129.094" y="91.897" style="fill:#EAEAEA;" width="253.812" height="280.068"/>
</g>
<path style="fill:#F58CAC;" d="M391.744,48.137H120.256c-14.432,0-26.171,11.799-26.171,26.303v341.286
	c0,43.432,35.308,78.769,78.705,78.769h166.419c43.397,0,78.705-35.338,78.705-78.769V74.44
	C417.915,59.936,406.175,48.137,391.744,48.137z M264.752,450.735h-49.38c-3.915,15.056-17.502,26.256-33.766,26.256
	c-19.303,0-35.009-15.705-35.009-35.009c0-19.303,15.705-35.009,35.009-35.009c16.264,0,29.851,11.201,33.766,26.256h49.38V450.735z
	 M400.41,389.47H111.59V74.393H400.41V389.47z"/>
<g>
	<path style="fill:#314E55;" d="M391.744,30.632h-26.342V0h-17.504v30.632H120.256c-24.081,0-43.675,19.654-43.675,43.808v341.286
		c0,53.085,43.158,96.273,96.209,96.273h166.419c53.051,0,96.209-43.188,96.209-96.273V74.44
		C435.419,50.286,415.825,30.632,391.744,30.632z M417.915,415.727c0,43.432-35.308,78.769-78.705,78.769H172.791
		c-43.397,0-78.705-35.338-78.705-78.769V74.44c0-14.504,11.739-26.303,26.171-26.303h271.487c14.432,0,26.171,11.799,26.171,26.303
		V415.727z"/>
	<path style="fill:#314E55;" d="M111.59,389.47H400.41V74.393H111.59V389.47z M129.094,91.897h253.812v280.068H129.094V91.897z"/>
	<path style="fill:#314E55;" d="M181.607,406.974c-19.303,0-35.009,15.705-35.009,35.009c0,19.303,15.705,35.009,35.009,35.009
		c16.264,0,29.851-11.201,33.766-26.256h49.38v-17.504h-49.38C211.458,418.175,197.871,406.974,181.607,406.974z M181.607,459.487
		c-9.654,0-17.504-7.85-17.504-17.504c0-9.654,7.85-17.504,17.504-17.504c9.654,0,17.504,7.85,17.504,17.504
		C199.111,451.637,191.261,459.487,181.607,459.487z"/>
</g>
<g>
</g>
<g>
</g>
<g>
</g>
<g>
</g>
<g>
</g>
<g>
</g>
<g>
</g>
<g>
</g>
<g>
</g>
<g>
</g>
<g>
</g>
<g>
</g>
<g>
</g>
<g>
</g>
<g>
</g>
</svg>
