<?xml version="1.0" encoding="iso-8859-1"?>
<!-- Generator: Adobe Illustrator 19.0.0, SVG Export Plug-In . SVG Version: 6.00 Build 0)  -->
<svg version="1.1" id="Layer_1" xmlns="http://www.w3.org/2000/svg" xmlns:xlink="http://www.w3.org/1999/xlink" x="0px" y="0px"
	 viewBox="0 0 512 512" style="enable-background:new 0 0 512 512;" xml:space="preserve">
<circle style="fill:#314E55;" cx="404.571" cy="342.857" r="16"/>
<path style="fill:#E4D759;" d="M466.353,285.714H45.647c-15.089,0-27.362,12.304-27.362,27.429v64
	c0,15.125,12.272,27.429,27.362,27.429h420.705c15.089,0,27.362-12.304,27.362-27.429v-64
	C493.714,298.018,481.442,285.714,466.353,285.714z M73.143,363.429H54.857v-45.714h18.286V363.429z M118.857,363.429h-18.286
	v-45.714h18.286V363.429z M164.571,363.429h-18.286v-45.714h18.286V363.429z M210.286,363.429H192v-45.714h18.286V363.429z
	 M256,363.429h-18.286v-45.714H256V363.429z M404.571,377.143c-18.906,0-34.286-15.379-34.286-34.286
	c0-18.906,15.379-34.286,34.286-34.286s34.286,15.379,34.286,34.286C438.857,361.763,423.478,377.143,404.571,377.143z"/>
<g>
	<path style="fill:#314E55;" d="M466.353,267.429H45.647C20.478,267.429,0,287.938,0,313.143v64
		c0,25.205,20.478,45.714,45.647,45.714h420.705c25.17,0,45.647-20.509,45.647-45.714v-64
		C512,287.938,491.522,267.429,466.353,267.429z M493.714,377.143c0,15.125-12.272,27.429-27.362,27.429H45.647
		c-15.089,0-27.362-12.304-27.362-27.429v-64c0-15.125,12.272-27.429,27.362-27.429h420.705c15.089,0,27.362,12.304,27.362,27.429
		V377.143z"/>
	<path style="fill:#314E55;" d="M404.571,308.571c-18.906,0-34.286,15.379-34.286,34.286c0,18.906,15.379,34.286,34.286,34.286
		s34.286-15.379,34.286-34.286C438.857,323.951,423.478,308.571,404.571,308.571z M404.571,358.857c-8.822,0-16-7.178-16-16
		c0-8.821,7.178-16,16-16s16,7.179,16,16C420.571,351.679,413.393,358.857,404.571,358.857z"/>
	<rect x="54.857" y="317.714" style="fill:#314E55;" width="18.286" height="45.714"/>
	<rect x="100.571" y="317.714" style="fill:#314E55;" width="18.286" height="45.714"/>
	<rect x="146.286" y="317.714" style="fill:#314E55;" width="18.286" height="45.714"/>
	<rect x="192" y="317.714" style="fill:#314E55;" width="18.286" height="45.714"/>
	<rect x="237.714" y="317.714" style="fill:#314E55;" width="18.286" height="45.714"/>
	<rect x="338.286" y="89.143" style="fill:#314E55;" width="18.286" height="164.571"/>
	<rect x="155.429" y="89.143" style="fill:#314E55;" width="18.286" height="164.571"/>
</g>
<g>
</g>
<g>
</g>
<g>
</g>
<g>
</g>
<g>
</g>
<g>
</g>
<g>
</g>
<g>
</g>
<g>
</g>
<g>
</g>
<g>
</g>
<g>
</g>
<g>
</g>
<g>
</g>
<g>
</g>
</svg>
