<?xml version="1.0" encoding="iso-8859-1"?>
<!-- Generator: Adobe Illustrator 19.0.0, SVG Export Plug-In . SVG Version: 6.00 Build 0)  -->
<svg version="1.1" id="Layer_1" xmlns="http://www.w3.org/2000/svg" xmlns:xlink="http://www.w3.org/1999/xlink" x="0px" y="0px"
	 viewBox="0 0 512 512" style="enable-background:new 0 0 512 512;" xml:space="preserve">
<g>
	<path style="fill:#F28544;" d="M361.431,34.956c-1.245-3.838-21.662-14.877-60.255-14.877s-59.01,11.039-60.255,15.24
		c1.245,3.838,21.662,14.877,60.255,14.877S360.186,39.157,361.431,34.956z"/>
	<path style="fill:#F28544;" d="M356.392,421.647c-70.476,0-115.451,20.809-115.451,35.137s44.975,35.137,115.451,35.137
		s115.451-20.809,115.451-35.137S426.868,421.647,356.392,421.647z"/>
	<path style="fill:#F28544;" d="M210.824,256c0-8.848-32.397-25.098-85.333-25.098S40.157,247.152,40.157,256
		s32.397,25.098,85.333,25.098S210.824,264.848,210.824,256z"/>
</g>
<g>
	<path style="fill:#314E55;" d="M356.392,401.569c-16.14,0-32.304,1.12-47.589,3.275L172.547,296.779
		c32.976-6.529,58.355-20.267,58.355-40.779c0-24.37-35.82-39.172-77.651-43.681L295.294,70.275l-0.107-0.108
		c2,0.059,4,0.108,5.989,0.108c38.681,0,80.314-10.995,80.314-35.137S339.858,0,301.176,0s-80.314,10.995-80.314,35.137
		c0,17.49,21.875,28.047,48.622,32.554L126.337,210.838c-0.282,0-0.564-0.015-0.847-0.015c-52.382,0-105.412,15.52-105.412,45.176
		c0,29.657,53.029,45.176,105.412,45.176c6.488,0,12.985-0.24,19.39-0.716l137.856,109.333
		c-35.797,8.804-61.874,24.586-61.874,46.99c0,36.25,68.181,55.216,135.529,55.216s135.529-18.966,135.529-55.216
		S423.74,401.569,356.392,401.569z M240.922,35.319c1.245-4.201,21.662-15.24,60.255-15.24s59.01,11.039,60.255,14.877
		c-1.245,4.201-21.662,15.24-60.255,15.24S242.167,39.157,240.922,35.319z M125.49,281.098c-52.936,0-85.333-16.25-85.333-25.098
		s32.397-25.098,85.333-25.098s85.333,16.25,85.333,25.098S178.426,281.098,125.49,281.098z M356.392,491.922
		c-70.476,0-115.451-20.809-115.451-35.137s44.975-35.137,115.451-35.137s115.451,20.809,115.451,35.137
		S426.868,491.922,356.392,491.922z"/>
	
		<rect x="323.567" y="91.822" transform="matrix(-0.9943 0.1066 -0.1066 -0.9943 677.2383 187.6013)" style="fill:#314E55;" width="20.076" height="40.157"/>
	
		<rect x="349.249" y="331.407" transform="matrix(-0.9943 0.1066 -0.1066 -0.9943 753.9951 662.6646)" style="fill:#314E55;" width="20.076" height="40.154"/>
	
		<rect x="332.127" y="171.682" transform="matrix(-0.9943 0.1066 -0.1066 -0.9943 702.8215 345.9509)" style="fill:#314E55;" width="20.076" height="40.154"/>
	
		<rect x="340.687" y="251.547" transform="matrix(-0.9943 0.1066 -0.1066 -0.9943 728.406 504.3129)" style="fill:#314E55;" width="20.076" height="40.154"/>
</g>
<g>
</g>
<g>
</g>
<g>
</g>
<g>
</g>
<g>
</g>
<g>
</g>
<g>
</g>
<g>
</g>
<g>
</g>
<g>
</g>
<g>
</g>
<g>
</g>
<g>
</g>
<g>
</g>
<g>
</g>
</svg>
