<?xml version="1.0" encoding="iso-8859-1"?>
<!-- Generator: Adobe Illustrator 19.0.0, SVG Export Plug-In . SVG Version: 6.00 Build 0)  -->
<svg version="1.1" id="Layer_1" xmlns="http://www.w3.org/2000/svg" xmlns:xlink="http://www.w3.org/1999/xlink" x="0px" y="0px"
	 viewBox="0 0 512 512" style="enable-background:new 0 0 512 512;" xml:space="preserve">
<g>
	<path style="fill:#E4D759;" d="M218.537,374.634h-62.439v37.585c0,6.817,5.604,12.366,12.488,12.366h49.951V374.634z"/>
	<path style="fill:#E4D759;" d="M330.927,299.707h-49.878c-7.042,0-12.561,5.488-12.561,12.488c0,7,5.518,12.488,12.561,12.488
		h49.878V299.707z"/>
	<rect x="218.537" y="199.805" style="fill:#E4D759;" width="37.463" height="37.463"/>
	<path style="fill:#E4D759;" d="M218.537,349.659h24.976v24.976v49.951h37.463v-74.934c-20.661-0.041-37.463-16.822-37.463-37.456
		c0-20.659,16.841-37.463,37.536-37.463h62.366v-12.488h-62.439H256h-37.463h-18.732h-6.244v-62.439h-24.976
		c-6.884,0-12.488,5.549-12.488,12.378v137.476H218.537z"/>
	<path style="fill:#E4D759;" d="M305.951,349.659v74.927h24.976c6.884,0,12.488-5.549,12.488-12.366v-62.561H305.951z"/>
</g>
<path style="fill:#E9E7D1;" d="M81.171,24.976v462.049h349.659V81.817l-90.244-56.841H81.171z M368.39,212.183v200.037
	c0,20.586-16.805,37.342-37.463,37.342H168.585c-20.659,0-37.463-16.756-37.463-37.341V212.183
	c0-20.597,16.805-37.354,37.463-37.354h162.341C351.585,174.829,368.39,191.585,368.39,212.183z"/>
<path style="fill:#E4D759;" d="M280.976,199.805v37.463h62.439v-25.086c0-6.829-5.604-12.378-12.488-12.378H280.976z"/>
<g>
	<path style="fill:#314E55;" d="M347.793,0H56.195v512h399.61V68.037L347.793,0z M430.829,487.024H81.171V24.976h259.415
		l90.244,56.841V487.024z"/>
	<path style="fill:#314E55;" d="M168.585,174.829c-20.659,0-37.463,16.756-37.463,37.354v200.037
		c0,20.586,16.805,37.342,37.463,37.342h162.341c20.659,0,37.463-16.756,37.463-37.341V212.183
		c0-20.597-16.805-37.354-37.463-37.354H168.585z M218.537,199.805H256v37.463h-37.463V199.805z M168.585,199.805h24.976v62.439
		h6.244h18.732H256h24.976h62.439v12.488h-62.366c-20.695,0-37.536,16.805-37.536,37.463c0,20.634,16.803,37.415,37.463,37.456
		v74.934h-37.463v-49.951v-24.976h-24.976h-62.439V212.183C156.098,205.354,161.701,199.805,168.585,199.805z M281.049,324.683
		c-7.042,0-12.561-5.488-12.561-12.488c0-7,5.518-12.488,12.561-12.488h49.878v24.976H281.049z M156.098,412.22v-37.585h62.439
		v49.951h-49.951C161.701,424.585,156.098,419.037,156.098,412.22z M330.927,424.585h-24.976v-74.927h37.463v62.561
		C343.415,419.037,337.811,424.585,330.927,424.585z M343.415,212.183v25.086h-62.439v-37.463h49.951
		C337.811,199.805,343.415,205.354,343.415,212.183z"/>
</g>
<g>
</g>
<g>
</g>
<g>
</g>
<g>
</g>
<g>
</g>
<g>
</g>
<g>
</g>
<g>
</g>
<g>
</g>
<g>
</g>
<g>
</g>
<g>
</g>
<g>
</g>
<g>
</g>
<g>
</g>
</svg>
