<?xml version="1.0" encoding="iso-8859-1"?>
<!-- Generator: Adobe Illustrator 19.0.0, SVG Export Plug-In . SVG Version: 6.00 Build 0)  -->
<svg version="1.1" id="Layer_1" xmlns="http://www.w3.org/2000/svg" xmlns:xlink="http://www.w3.org/1999/xlink" x="0px" y="0px"
	 viewBox="0 0 512 512" style="enable-background:new 0 0 512 512;" xml:space="preserve">
<path style="fill:#E4D759;" d="M310.857,137.143H201.143v192h109.714V137.143z M292.571,301.714h-73.143v-18.286h73.143V301.714z"/>
<path style="fill:#81A4E3;" d="M73.187,402.286h365.625c5.062,0,9.187-4.125,9.187-9.187V27.473c0-5.062-4.125-9.187-9.187-9.187
	H73.187c-5.062,0-9.187,4.125-9.187,9.187v365.625C64,398.161,68.125,402.286,73.187,402.286z M182.857,128
	c0-5.053,4.089-9.143,9.143-9.143h36.571v-18.286h54.857v18.286H320c5.053,0,9.143,4.089,9.143,9.143v210.286
	c0,5.053-4.089,9.143-9.143,9.143H192c-5.053,0-9.143-4.089-9.143-9.143V128z"/>
<circle style="fill:#FFFFFF;" cx="256" cy="457.143" r="9.143"/>
<path style="fill:#EAEAEA;" d="M73.187,420.571H64v64c0,5.125,4.036,9.143,9.187,9.143h365.625c5.062,0,9.187-4.098,9.187-9.143v-64
	h-9.187H73.187z M256,484.571c-15.125,0-27.429-12.304-27.429-27.429s12.304-27.429,27.429-27.429
	c15.125,0,27.429,12.304,27.429,27.429S271.125,484.571,256,484.571z"/>
<g>
	<path style="fill:#314E55;" d="M466.286,27.473C466.286,12.321,453.964,0,438.813,0H73.187C58.036,0,45.714,12.321,45.714,27.473
		v365.625c0,4.241,1.046,8.211,2.769,11.801c-1.7,1.66-2.769,3.962-2.769,6.529v73.143c0,15.125,12.321,27.429,27.473,27.429
		h365.625c15.152,0,27.473-12.304,27.473-27.429v-73.143c0-2.567-1.069-4.869-2.769-6.529c1.723-3.59,2.769-7.56,2.769-11.801
		V27.473z M64,27.473c0-5.062,4.125-9.187,9.187-9.187h365.625c5.063,0,9.188,4.125,9.188,9.187v365.625
		c0,5.062-4.125,9.187-9.187,9.187H73.187c-5.062,0-9.187-4.125-9.187-9.187V27.473z M448,484.571c0,5.045-4.125,9.143-9.187,9.143
		H73.187c-5.152,0-9.187-4.018-9.187-9.143v-64h9.187h365.625H448V484.571z"/>
	<path style="fill:#314E55;" d="M256,429.714c-15.125,0-27.429,12.304-27.429,27.429s12.304,27.429,27.429,27.429
		c15.125,0,27.429-12.304,27.429-27.429S271.125,429.714,256,429.714z M256,466.286c-5.045,0-9.143-4.098-9.143-9.143
		c0-5.045,4.098-9.143,9.143-9.143c5.045,0,9.143,4.098,9.143,9.143C265.143,462.187,261.045,466.286,256,466.286z"/>
	<path style="fill:#314E55;" d="M192,347.429h128c5.053,0,9.143-4.089,9.143-9.143V128c0-5.053-4.089-9.143-9.143-9.143h-36.571
		v-18.286h-54.857v18.286H192c-5.053,0-9.143,4.089-9.143,9.143v210.286C182.857,343.339,186.947,347.429,192,347.429z
		 M201.143,137.143h109.714v192H201.143V137.143z"/>
	<rect x="219.429" y="283.429" style="fill:#314E55;" width="73.143" height="18.286"/>
</g>
<g>
</g>
<g>
</g>
<g>
</g>
<g>
</g>
<g>
</g>
<g>
</g>
<g>
</g>
<g>
</g>
<g>
</g>
<g>
</g>
<g>
</g>
<g>
</g>
<g>
</g>
<g>
</g>
<g>
</g>
</svg>
